<?xml version="1.0" encoding="utf-8" standalone="no"?>
<!DOCTYPE svg PUBLIC "-//W3C//DTD SVG 1.1//EN"
  "http://www.w3.org/Graphics/SVG/1.1/DTD/svg11.dtd">
<!-- Created with matplotlib (http://matplotlib.org/) -->
<svg height="278.8pt" version="1.1" viewBox="0 0 425.5 278.8" width="425.5pt" xmlns="http://www.w3.org/2000/svg" xmlns:xlink="http://www.w3.org/1999/xlink">
 <defs>
  <style type="text/css">
*{stroke-linecap:butt;stroke-linejoin:round;}
  </style>
 </defs>
 <g id="figure_1">
  <g id="patch_1">
   <path d="M 0 278.8 
L 425.5 278.8 
L 425.5 0 
L 0 0 
z
" style="fill:#ffffff;"/>
  </g>
  <g id="axes_1">
   <g id="line2d_1">
    <path clip-path="url(#p38757d6bb2)" d="M 22.522727 86.323861 
L 36.879503 86.371615 
L 51.236278 86.088601 
L 94.306604 85.090838 
L 127.805746 84.604553 
L 142.162521 84.354578 
L 144.555317 84.229812 
L 149.340909 83.647047 
L 156.519297 85.732146 
L 158.912093 86.007069 
L 161.304889 85.819567 
L 163.697684 85.127038 
L 166.09048 83.924665 
L 168.483276 82.25193 
L 175.661664 76.209433 
L 178.05446 74.398673 
L 180.447256 68.054909 
L 185.232847 29.978303 
L 187.625643 21.456923 
L 190.018439 21.256436 
L 192.411235 23.782003 
L 194.804031 27.04692 
L 197.196827 31.696716 
L 201.982419 42.071035 
L 204.375214 46.184451 
L 206.76801 48.38265 
L 211.553602 51.150529 
L 213.946398 53.087569 
L 216.339194 56.478826 
L 218.73199 64.643338 
L 221.124786 82.706027 
L 223.517581 102.805281 
L 225.910377 113.929191 
L 228.303173 118.687491 
L 230.695969 120.671037 
L 233.088765 121.384145 
L 235.481561 121.429752 
L 237.874357 121.111971 
L 242.659949 120.059934 
L 247.44554 118.831661 
L 252.231132 117.279765 
L 259.40952 114.442782 
L 268.980703 110.71319 
L 273.766295 108.771247 
L 276.159091 107.657089 
L 278.551887 106.404126 
L 283.337479 103.536466 
L 288.12307 100.616504 
L 290.515866 99.309884 
L 292.908662 98.143311 
L 297.694254 96.195466 
L 302.479846 94.641867 
L 307.265437 93.363991 
L 312.051029 92.288059 
L 319.229417 90.96113 
L 326.407804 89.906762 
L 333.586192 89.072524 
L 343.157376 88.23098 
L 352.728559 87.620647 
L 364.692539 87.079662 
L 381.44211 86.579455 
L 402.977273 86.180801 
L 402.977273 86.180801 
" style="fill:none;stroke:#00ff63;stroke-linecap:square;stroke-width:1.5;"/>
   </g>
   <g id="line2d_2">
    <path clip-path="url(#p38757d6bb2)" d="M 22.522727 86.307641 
L 41.665094 86.516794 
L 56.02187 86.285595 
L 101.484991 85.395382 
L 127.805746 85.121646 
L 139.769726 85.159343 
L 142.162521 85.242284 
L 144.555317 85.445546 
L 146.948113 86.024852 
L 149.340909 87.277773 
L 151.733705 88.175096 
L 154.126501 88.479624 
L 156.519297 88.656996 
L 158.912093 88.62867 
L 161.304889 88.190775 
L 163.697684 87.265373 
L 166.09048 85.827015 
L 168.483276 83.904302 
L 173.268868 79.16907 
L 175.661664 76.864743 
L 178.05446 74.349877 
L 180.447256 66.815073 
L 185.232847 26.634277 
L 187.625643 18.103514 
L 190.018439 17.824784 
L 192.411235 20.069434 
L 194.804031 23.506182 
L 197.196827 28.937846 
L 201.982419 41.553053 
L 204.375214 46.625359 
L 206.76801 49.483554 
L 211.553602 53.097304 
L 213.946398 55.288762 
L 216.339194 58.689914 
L 218.73199 66.186741 
L 221.124786 82.373289 
L 223.517581 100.583862 
L 225.910377 110.798013 
L 228.303173 115.22712 
L 230.695969 117.118773 
L 233.088765 117.855159 
L 235.481561 117.9981 
L 237.874357 117.832276 
L 245.052744 116.817638 
L 249.838336 115.858452 
L 254.623928 114.42883 
L 261.802316 111.800303 
L 273.766295 107.314348 
L 276.159091 106.266222 
L 280.944683 103.806284 
L 288.12307 99.733419 
L 290.515866 98.521839 
L 292.908662 97.438093 
L 297.694254 95.623569 
L 302.479846 94.171982 
L 307.265437 92.975772 
L 312.051029 91.96771 
L 319.229417 90.724455 
L 326.407804 89.737419 
L 333.586192 88.957476 
L 343.157376 88.172074 
L 352.728559 87.603788 
L 364.692539 87.101652 
L 381.44211 86.639608 
L 402.977273 86.273741 
L 402.977273 86.273741 
" style="fill:none;stroke:#00ff7d;stroke-linecap:square;stroke-width:1.5;"/>
   </g>
   <g id="line2d_3">
    <path clip-path="url(#p38757d6bb2)" d="M 22.522727 86.287576 
L 32.093911 86.584427 
L 41.665094 86.767556 
L 53.629074 86.696994 
L 123.020154 85.744098 
L 134.984134 85.838489 
L 139.769726 86.059375 
L 142.162521 86.329866 
L 144.555317 86.940002 
L 146.948113 88.603464 
L 149.340909 91.744004 
L 151.733705 92.812894 
L 158.912093 91.712873 
L 161.304889 90.991269 
L 163.697684 89.809416 
L 166.09048 88.109123 
L 168.483276 85.90273 
L 170.876072 83.29822 
L 175.661664 77.765665 
L 178.05446 74.535034 
L 180.447256 65.612127 
L 185.232847 21.989823 
L 187.625643 13.338759 
L 190.018439 13.208092 
L 192.411235 15.543532 
L 194.804031 19.613476 
L 197.196827 26.386482 
L 201.982419 42.225342 
L 204.375214 48.682689 
L 206.76801 52.650863 
L 209.160806 55.408068 
L 211.553602 57.90731 
L 213.946398 60.63429 
L 216.339194 64.232969 
L 218.73199 70.976872 
L 221.124786 84.309061 
L 223.517581 98.964399 
L 225.910377 107.230947 
L 228.303173 110.88049 
L 230.695969 112.482375 
L 233.088765 113.156157 
L 235.481561 113.374013 
L 240.267153 113.323353 
L 247.44554 113.073972 
L 249.838336 112.810481 
L 252.231132 112.381193 
L 254.623928 111.796532 
L 259.40952 110.314256 
L 271.373499 106.133693 
L 276.159091 104.265246 
L 280.944683 102.049708 
L 288.12307 98.463491 
L 292.908662 96.438253 
L 297.694254 94.82058 
L 302.479846 93.514499 
L 307.265437 92.431773 
L 314.443825 91.110585 
L 321.622213 90.064747 
L 328.8006 89.236304 
L 338.371784 88.400354 
L 347.942967 87.797716 
L 359.906947 87.271556 
L 376.656518 86.798119 
L 398.191681 86.434922 
L 402.977273 86.376561 
L 402.977273 86.376561 
" style="fill:none;stroke:#00ffbb;stroke-linecap:square;stroke-width:1.5;"/>
   </g>
   <g id="line2d_4">
    <path clip-path="url(#p38757d6bb2)" d="M 22.522727 86.26456 
L 27.308319 86.43153 
L 39.272298 86.981536 
L 48.843482 87.111557 
L 63.200257 86.993265 
L 111.056175 86.421151 
L 127.805746 86.463507 
L 134.984134 86.672467 
L 139.769726 87.090544 
L 142.162521 87.578912 
L 144.555317 88.662341 
L 146.948113 91.587388 
L 149.340909 96.891771 
L 151.733705 98.049373 
L 154.126501 96.855318 
L 156.519297 95.841875 
L 158.912093 95.005356 
L 161.304889 93.963632 
L 163.697684 92.512499 
L 166.09048 90.550992 
L 168.483276 88.06923 
L 170.876072 85.165461 
L 175.661664 78.852279 
L 178.05446 74.879891 
L 180.447256 64.560748 
L 182.840051 40.382645 
L 185.232847 17.816027 
L 187.625643 9.12922 
L 190.018439 9.115702 
L 192.411235 11.511485 
L 194.804031 16.162952 
L 197.196827 24.140421 
L 201.982419 42.580013 
L 204.375214 50.062896 
L 206.76801 54.871072 
L 209.160806 58.308807 
L 213.946398 64.378038 
L 216.339194 67.988887 
L 218.73199 73.927702 
L 221.124786 84.731173 
L 223.517581 96.311215 
L 225.910377 102.885782 
L 228.303173 105.86091 
L 230.695969 107.229113 
L 233.088765 107.880177 
L 235.481561 108.204271 
L 247.44554 109.278562 
L 249.838336 109.289018 
L 252.231132 109.095682 
L 254.623928 108.70606 
L 259.40952 107.504689 
L 266.587907 105.267912 
L 273.766295 102.8932 
L 278.551887 101.090637 
L 290.515866 96.103059 
L 295.301458 94.538358 
L 300.08705 93.275681 
L 304.872642 92.234838 
L 312.051029 90.9712 
L 319.229417 89.97377 
L 326.407804 89.184096 
L 335.978988 88.387737 
L 345.550172 87.8157 
L 357.514151 87.320733 
L 374.263722 86.883182 
L 398.191681 86.530256 
L 402.977273 86.481606 
L 402.977273 86.481606 
" style="fill:none;stroke:#00fffa;stroke-linecap:square;stroke-width:1.5;"/>
   </g>
   <g id="line2d_5">
    <path clip-path="url(#p38757d6bb2)" d="M 96.6994 46.189704 
L 134.984134 46.189704 
" style="fill:none;stroke:#000000;stroke-linecap:square;stroke-width:1.5;"/>
   </g>
   <g id="text_1">
    <!-- 1 ms -->
    <defs>
     <path d="M 12.40625 8.296875 
L 28.515625 8.296875 
L 28.515625 63.921875 
L 10.984375 60.40625 
L 10.984375 69.390625 
L 28.421875 72.90625 
L 38.28125 72.90625 
L 38.28125 8.296875 
L 54.390625 8.296875 
L 54.390625 0 
L 12.40625 0 
z
" id="DejaVuSans-31"/>
     <path id="DejaVuSans-20"/>
     <path d="M 52 44.1875 
Q 55.375 50.25 60.0625 53.125 
Q 64.75 56 71.09375 56 
Q 79.640625 56 84.28125 50.015625 
Q 88.921875 44.046875 88.921875 33.015625 
L 88.921875 0 
L 79.890625 0 
L 79.890625 32.71875 
Q 79.890625 40.578125 77.09375 44.375 
Q 74.3125 48.1875 68.609375 48.1875 
Q 61.625 48.1875 57.5625 43.546875 
Q 53.515625 38.921875 53.515625 30.90625 
L 53.515625 0 
L 44.484375 0 
L 44.484375 32.71875 
Q 44.484375 40.625 41.703125 44.40625 
Q 38.921875 48.1875 33.109375 48.1875 
Q 26.21875 48.1875 22.15625 43.53125 
Q 18.109375 38.875 18.109375 30.90625 
L 18.109375 0 
L 9.078125 0 
L 9.078125 54.6875 
L 18.109375 54.6875 
L 18.109375 46.1875 
Q 21.1875 51.21875 25.484375 53.609375 
Q 29.78125 56 35.6875 56 
Q 41.65625 56 45.828125 52.96875 
Q 50 49.953125 52 44.1875 
z
" id="DejaVuSans-6d"/>
     <path d="M 44.28125 53.078125 
L 44.28125 44.578125 
Q 40.484375 46.53125 36.375 47.5 
Q 32.28125 48.484375 27.875 48.484375 
Q 21.1875 48.484375 17.84375 46.4375 
Q 14.5 44.390625 14.5 40.28125 
Q 14.5 37.15625 16.890625 35.375 
Q 19.28125 33.59375 26.515625 31.984375 
L 29.59375 31.296875 
Q 39.15625 29.25 43.1875 25.515625 
Q 47.21875 21.78125 47.21875 15.09375 
Q 47.21875 7.46875 41.1875 3.015625 
Q 35.15625 -1.421875 24.609375 -1.421875 
Q 20.21875 -1.421875 15.453125 -0.5625 
Q 10.6875 0.296875 5.421875 2 
L 5.421875 11.28125 
Q 10.40625 8.6875 15.234375 7.390625 
Q 20.0625 6.109375 24.8125 6.109375 
Q 31.15625 6.109375 34.5625 8.28125 
Q 37.984375 10.453125 37.984375 14.40625 
Q 37.984375 18.0625 35.515625 20.015625 
Q 33.0625 21.96875 24.703125 23.78125 
L 21.578125 24.515625 
Q 13.234375 26.265625 9.515625 29.90625 
Q 5.8125 33.546875 5.8125 39.890625 
Q 5.8125 47.609375 11.28125 51.796875 
Q 16.75 56 26.8125 56 
Q 31.78125 56 36.171875 55.265625 
Q 40.578125 54.546875 44.28125 53.078125 
z
" id="DejaVuSans-73"/>
    </defs>
    <g transform="translate(101.676415 41.181038)scale(0.1 -0.1)">
     <use xlink:href="#DejaVuSans-31"/>
     <use x="63.623047" xlink:href="#DejaVuSans-20"/>
     <use x="95.410156" xlink:href="#DejaVuSans-6d"/>
     <use x="192.822266" xlink:href="#DejaVuSans-73"/>
    </g>
   </g>
  </g>
  <g id="axes_2">
   <g id="line2d_6">
    <path clip-path="url(#p64ce84ee8a)" d="M -1 257.876458 
L 6.115625 257.876662 
L 8.73125 257.578817 
L 11.346875 256.996119 
L 16.578125 255.378634 
L 24.425 252.891476 
L 29.65625 251.534574 
L 34.8875 250.449954 
L 40.11875 249.591211 
L 47.965625 248.60611 
L 55.8125 247.854616 
L 68.890625 246.881225 
L 110.740625 244.113809 
L 115.971875 243.56192 
L 121.203125 242.815611 
L 123.81875 242.317515 
L 126.434375 241.682581 
L 129.05 240.832513 
L 131.665625 239.621257 
L 134.28125 237.740419 
L 136.896875 234.426268 
L 139.5125 227.371489 
L 142.128125 208.687373 
L 144.74375 172.943742 
L 147.359375 163.120487 
L 152.590625 184.594152 
L 155.20625 192.869066 
L 157.821875 199.275054 
L 160.4375 204.421749 
L 163.053125 208.68591 
L 165.66875 212.319461 
L 168.284375 215.507628 
L 173.515625 221.126916 
L 178.746875 226.617959 
L 181.3625 229.746162 
L 183.978125 233.518013 
L 186.59375 238.367042 
L 189.209375 244.691906 
L 191.825 252.126468 
L 194.440625 258.86022 
L 197.05625 263.348378 
L 199.671875 265.825702 
L 202.2875 267.126996 
L 204.903125 267.836904 
L 207.51875 268.257449 
L 212.75 268.730425 
L 220.596875 269.109834 
L 231.059375 269.356861 
L 265.0625 269.678021 
L 285.9875 269.619414 
L 312.14375 269.326697 
L 346.146875 268.711738 
L 403.690625 267.402653 
L 422 266.968235 
L 422 266.968235 
" style="fill:none;stroke:#1f77b4;stroke-linecap:square;stroke-width:1.5;"/>
   </g>
   <g id="line2d_7">
    <path clip-path="url(#p64ce84ee8a)" d="M -1 257.562502 
L 11.346875 257.504998 
L 21.809375 257.201983 
L 47.965625 256.125405 
L 89.815625 254.476165 
L 139.5125 252.595931 
L 142.128125 252.343557 
L 144.74375 251.863731 
L 147.359375 251.052947 
L 149.975 249.792563 
L 152.590625 247.84927 
L 155.20625 245.142912 
L 157.821875 241.764551 
L 160.4375 237.848956 
L 163.053125 233.565217 
L 168.284375 224.36749 
L 170.9 219.039115 
L 173.515625 211.64278 
L 176.13125 199.211405 
L 178.746875 181.050512 
L 181.3625 166.262986 
L 183.978125 159.401544 
L 186.59375 157.370248 
L 189.209375 157.846876 
L 191.825 159.800313 
L 194.440625 162.731134 
L 197.05625 166.32762 
L 199.671875 170.353584 
L 212.75 191.620838 
L 217.98125 199.213285 
L 223.2125 206.042729 
L 228.44375 212.270441 
L 238.90625 224.229514 
L 251.984375 239.794033 
L 254.6 242.507283 
L 257.215625 244.970017 
L 259.83125 247.189728 
L 262.446875 249.187698 
L 265.0625 250.988789 
L 267.678125 252.616685 
L 270.29375 254.092337 
L 275.525 256.656092 
L 280.75625 258.79302 
L 285.9875 260.583571 
L 291.21875 262.086551 
L 296.45 263.347399 
L 301.68125 264.403268 
L 306.9125 265.285694 
L 314.759375 266.342458 
L 322.60625 267.145049 
L 330.453125 267.752664 
L 340.915625 268.335971 
L 353.99375 268.804439 
L 369.6875 269.109498 
L 387.996875 269.236878 
L 411.5375 269.176935 
L 422 269.096385 
L 422 269.096385 
" style="fill:none;stroke:#ff7f0e;stroke-linecap:square;stroke-width:1.5;"/>
   </g>
   <g id="legend_1">
    <g id="patch_2">
     <path d="M 355.803125 189.110795 
L 415 189.110795 
Q 417 189.110795 417 187.110795 
L 417 158.754545 
Q 417 156.754545 415 156.754545 
L 355.803125 156.754545 
Q 353.803125 156.754545 353.803125 158.754545 
L 353.803125 187.110795 
Q 353.803125 189.110795 355.803125 189.110795 
z
" style="fill:#ffffff;opacity:0.8;stroke:#cccccc;stroke-linejoin:miter;"/>
    </g>
    <g id="line2d_8">
     <path d="M 357.803125 164.852983 
L 377.803125 164.852983 
" style="fill:none;stroke:#1f77b4;stroke-linecap:square;stroke-width:1.5;"/>
    </g>
    <g id="line2d_9"/>
    <g id="text_2">
     <!-- axon -->
     <defs>
      <path d="M 34.28125 27.484375 
Q 23.390625 27.484375 19.1875 25 
Q 14.984375 22.515625 14.984375 16.5 
Q 14.984375 11.71875 18.140625 8.90625 
Q 21.296875 6.109375 26.703125 6.109375 
Q 34.1875 6.109375 38.703125 11.40625 
Q 43.21875 16.703125 43.21875 25.484375 
L 43.21875 27.484375 
z
M 52.203125 31.203125 
L 52.203125 0 
L 43.21875 0 
L 43.21875 8.296875 
Q 40.140625 3.328125 35.546875 0.953125 
Q 30.953125 -1.421875 24.3125 -1.421875 
Q 15.921875 -1.421875 10.953125 3.296875 
Q 6 8.015625 6 15.921875 
Q 6 25.140625 12.171875 29.828125 
Q 18.359375 34.515625 30.609375 34.515625 
L 43.21875 34.515625 
L 43.21875 35.40625 
Q 43.21875 41.609375 39.140625 45 
Q 35.0625 48.390625 27.6875 48.390625 
Q 23 48.390625 18.546875 47.265625 
Q 14.109375 46.140625 10.015625 43.890625 
L 10.015625 52.203125 
Q 14.9375 54.109375 19.578125 55.046875 
Q 24.21875 56 28.609375 56 
Q 40.484375 56 46.34375 49.84375 
Q 52.203125 43.703125 52.203125 31.203125 
z
" id="DejaVuSans-61"/>
      <path d="M 54.890625 54.6875 
L 35.109375 28.078125 
L 55.90625 0 
L 45.3125 0 
L 29.390625 21.484375 
L 13.484375 0 
L 2.875 0 
L 24.125 28.609375 
L 4.6875 54.6875 
L 15.28125 54.6875 
L 29.78125 35.203125 
L 44.28125 54.6875 
z
" id="DejaVuSans-78"/>
      <path d="M 30.609375 48.390625 
Q 23.390625 48.390625 19.1875 42.75 
Q 14.984375 37.109375 14.984375 27.296875 
Q 14.984375 17.484375 19.15625 11.84375 
Q 23.34375 6.203125 30.609375 6.203125 
Q 37.796875 6.203125 41.984375 11.859375 
Q 46.1875 17.53125 46.1875 27.296875 
Q 46.1875 37.015625 41.984375 42.703125 
Q 37.796875 48.390625 30.609375 48.390625 
z
M 30.609375 56 
Q 42.328125 56 49.015625 48.375 
Q 55.71875 40.765625 55.71875 27.296875 
Q 55.71875 13.875 49.015625 6.21875 
Q 42.328125 -1.421875 30.609375 -1.421875 
Q 18.84375 -1.421875 12.171875 6.21875 
Q 5.515625 13.875 5.515625 27.296875 
Q 5.515625 40.765625 12.171875 48.375 
Q 18.84375 56 30.609375 56 
z
" id="DejaVuSans-6f"/>
      <path d="M 54.890625 33.015625 
L 54.890625 0 
L 45.90625 0 
L 45.90625 32.71875 
Q 45.90625 40.484375 42.875 44.328125 
Q 39.84375 48.1875 33.796875 48.1875 
Q 26.515625 48.1875 22.3125 43.546875 
Q 18.109375 38.921875 18.109375 30.90625 
L 18.109375 0 
L 9.078125 0 
L 9.078125 54.6875 
L 18.109375 54.6875 
L 18.109375 46.1875 
Q 21.34375 51.125 25.703125 53.5625 
Q 30.078125 56 35.796875 56 
Q 45.21875 56 50.046875 50.171875 
Q 54.890625 44.34375 54.890625 33.015625 
z
" id="DejaVuSans-6e"/>
     </defs>
     <g transform="translate(385.803125 168.352983)scale(0.1 -0.1)">
      <use xlink:href="#DejaVuSans-61"/>
      <use x="61.279297" xlink:href="#DejaVuSans-78"/>
      <use x="120.412109" xlink:href="#DejaVuSans-6f"/>
      <use x="181.59375" xlink:href="#DejaVuSans-6e"/>
     </g>
    </g>
    <g id="line2d_10">
     <path d="M 357.803125 179.531108 
L 377.803125 179.531108 
" style="fill:none;stroke:#ff7f0e;stroke-linecap:square;stroke-width:1.5;"/>
    </g>
    <g id="line2d_11"/>
    <g id="text_3">
     <!-- soma -->
     <g transform="translate(385.803125 183.031108)scale(0.1 -0.1)">
      <use xlink:href="#DejaVuSans-73"/>
      <use x="52.099609" xlink:href="#DejaVuSans-6f"/>
      <use x="113.28125" xlink:href="#DejaVuSans-6d"/>
      <use x="210.693359" xlink:href="#DejaVuSans-61"/>
     </g>
    </g>
   </g>
  </g>
 </g>
 <defs>
  <clipPath id="p38757d6bb2">
   <rect height="123.545455" width="418.5" x="3.5" y="3.5"/>
  </clipPath>
  <clipPath id="p64ce84ee8a">
   <rect height="123.545455" width="418.5" x="3.5" y="151.754545"/>
  </clipPath>
 </defs>
</svg>
