<?xml version="1.0" encoding="utf-8" standalone="no"?>
<!DOCTYPE svg PUBLIC "-//W3C//DTD SVG 1.1//EN"
  "http://www.w3.org/Graphics/SVG/1.1/DTD/svg11.dtd">
<!-- Created with matplotlib (http://matplotlib.org/) -->
<svg height="278.8pt" version="1.1" viewBox="0 0 425.5 278.8" width="425.5pt" xmlns="http://www.w3.org/2000/svg" xmlns:xlink="http://www.w3.org/1999/xlink">
 <defs>
  <style type="text/css">
*{stroke-linecap:butt;stroke-linejoin:round;}
  </style>
 </defs>
 <g id="figure_1">
  <g id="patch_1">
   <path d="M 0 278.8 
L 425.5 278.8 
L 425.5 0 
L 0 0 
z
" style="fill:#ffffff;"/>
  </g>
  <g id="axes_1">
   <g id="line2d_1">
    <path clip-path="url(#p6f42bdd4e6)" d="M 22.522727 85.68953 
L 24.915523 85.873193 
L 29.701115 86.580856 
L 34.486707 87.323728 
L 39.272298 87.861373 
L 44.05789 88.157735 
L 48.843482 88.255231 
L 56.02187 88.154842 
L 67.985849 87.687808 
L 94.306604 86.583618 
L 108.663379 86.202471 
L 118.234563 86.111004 
L 125.41295 86.204232 
L 130.198542 86.422767 
L 134.984134 86.920191 
L 137.37693 87.390675 
L 139.769726 88.177011 
L 142.162521 89.641357 
L 144.555317 92.8799 
L 146.948113 101.610337 
L 149.340909 117.693347 
L 151.733705 121.429752 
L 154.126501 117.817858 
L 158.912093 111.537062 
L 161.304889 106.968925 
L 163.697684 100.729021 
L 170.876072 79.278743 
L 173.268868 73.024207 
L 175.661664 67.514812 
L 178.05446 62.705222 
L 180.447256 58.479413 
L 185.232847 51.051956 
L 187.625643 47.348599 
L 192.411235 39.183142 
L 194.804031 35.781209 
L 197.196827 33.674432 
L 199.589623 32.634408 
L 201.982419 32.28324 
L 204.375214 32.378892 
L 206.76801 32.800755 
L 209.160806 33.501043 
L 211.553602 34.472315 
L 213.946398 35.722207 
L 216.339194 37.248146 
L 218.73199 39.019482 
L 223.517581 43.046989 
L 230.695969 49.301229 
L 235.481561 53.141608 
L 240.267153 56.602528 
L 245.052744 59.692195 
L 249.838336 62.447427 
L 254.623928 64.909468 
L 259.40952 67.115907 
L 264.195111 69.098832 
L 268.980703 70.885177 
L 273.766295 72.497533 
L 280.944683 74.630849 
L 288.12307 76.46832 
L 295.301458 78.052966 
L 302.479846 79.420199 
L 309.658233 80.599623 
L 319.229417 81.922792 
L 328.8006 83.005713 
L 338.371784 83.888918 
L 350.335763 84.76241 
L 362.299743 85.428632 
L 376.656518 86.013213 
L 393.406089 86.469373 
L 402.977273 86.646001 
L 402.977273 86.646001 
" style="fill:none;stroke:#00ff89;stroke-linecap:square;stroke-width:1.5;"/>
   </g>
   <g id="line2d_2">
    <path clip-path="url(#p6f42bdd4e6)" d="M 22.522727 85.785871 
L 24.915523 85.976607 
L 36.879503 87.456313 
L 41.665094 87.687288 
L 46.450686 87.690344 
L 53.629074 87.40778 
L 65.593053 86.593117 
L 87.128216 85.070352 
L 101.484991 84.279754 
L 113.448971 83.816395 
L 123.020154 83.633025 
L 130.198542 83.709268 
L 134.984134 84.003897 
L 137.37693 84.319128 
L 139.769726 84.871841 
L 142.162521 85.932224 
L 144.555317 88.316974 
L 146.948113 94.808865 
L 149.340909 107.244865 
L 151.733705 111.64336 
L 154.126501 110.254453 
L 156.519297 108.728582 
L 158.912093 106.505519 
L 161.304889 102.011279 
L 163.697684 95.243078 
L 170.876072 70.870513 
L 173.268868 63.683825 
L 175.661664 57.373812 
L 178.05446 51.917029 
L 180.447256 47.210715 
L 182.840051 43.101789 
L 187.625643 35.846368 
L 192.411235 28.677152 
L 194.804031 25.720752 
L 197.196827 23.806907 
L 199.589623 22.819485 
L 201.982419 22.496849 
L 204.375214 22.652241 
L 206.76801 23.185571 
L 209.160806 24.05756 
L 211.553602 25.266273 
L 213.946398 26.82291 
L 216.339194 28.724051 
L 218.73199 30.931605 
L 223.517581 35.958325 
L 230.695969 43.806344 
L 235.481561 48.660728 
L 240.267153 53.06073 
L 245.052744 57.007765 
L 249.838336 60.540131 
L 254.623928 63.703575 
L 259.40952 66.541052 
L 264.195111 69.090057 
L 268.980703 71.382685 
L 273.766295 73.446353 
L 278.551887 75.304648 
L 283.337479 76.978037 
L 288.12307 78.484444 
L 295.301458 80.465111 
L 302.479846 82.151599 
L 309.658233 83.58322 
L 316.836621 84.793649 
L 324.015009 85.811929 
L 333.586192 86.913745 
L 343.157376 87.769109 
L 352.728559 88.420327 
L 364.692539 89.000558 
L 379.049314 89.427056 
L 393.406089 89.631051 
L 402.977273 89.673193 
L 402.977273 89.673193 
" style="fill:none;stroke:#00ffd4;stroke-linecap:square;stroke-width:1.5;"/>
   </g>
   <g id="line2d_3">
    <path clip-path="url(#p6f42bdd4e6)" d="M 22.522727 85.931387 
L 27.308319 86.384608 
L 32.093911 86.874672 
L 36.879503 87.102926 
L 41.665094 87.043989 
L 46.450686 86.761641 
L 53.629074 86.080235 
L 72.771441 83.843204 
L 87.128216 82.321687 
L 99.092196 81.266158 
L 111.056175 80.41563 
L 123.020154 79.789882 
L 130.198542 79.568289 
L 134.984134 79.55199 
L 137.37693 79.628004 
L 139.769726 79.819917 
L 142.162521 80.255927 
L 144.555317 81.321999 
L 146.948113 84.355798 
L 149.340909 90.990557 
L 151.733705 95.828532 
L 154.126501 97.456431 
L 156.519297 98.262214 
L 158.912093 97.34217 
L 161.304889 93.128963 
L 163.697684 85.856317 
L 166.09048 76.800472 
L 170.876072 58.0786 
L 173.268868 49.75817 
L 175.661664 42.467398 
L 178.05446 36.218383 
L 180.447256 30.933482 
L 182.840051 26.488706 
L 185.232847 22.732734 
L 187.625643 19.491763 
L 190.018439 16.59091 
L 192.411235 13.95756 
L 194.804031 11.755901 
L 197.196827 10.21267 
L 199.589623 9.362424 
L 201.982419 9.115702 
L 204.375214 9.373809 
L 206.76801 10.072299 
L 209.160806 11.186996 
L 211.553602 12.724357 
L 213.946398 14.700182 
L 216.339194 17.109786 
L 218.73199 19.905748 
L 221.124786 22.998854 
L 235.481561 42.544052 
L 240.267153 48.250238 
L 245.052744 53.400774 
L 249.838336 58.032498 
L 254.623928 62.194496 
L 259.40952 65.934969 
L 264.195111 69.297322 
L 268.980703 72.319707 
L 273.766295 75.035492 
L 278.551887 77.474003 
L 283.337479 79.661178 
L 288.12307 81.620125 
L 292.908662 83.371562 
L 297.694254 84.934147 
L 302.479846 86.32477 
L 309.658233 88.121405 
L 316.836621 89.611318 
L 324.015009 90.834625 
L 331.193396 91.826373 
L 338.371784 92.617251 
L 347.942967 93.405249 
L 357.514151 93.938317 
L 367.085334 94.262454 
L 379.049314 94.4321 
L 393.406089 94.370514 
L 402.977273 94.208273 
L 402.977273 94.208273 
" style="fill:none;stroke:#00b4ff;stroke-linecap:square;stroke-width:1.5;"/>
   </g>
   <g id="line2d_4">
    <path clip-path="url(#p6f42bdd4e6)" d="M 22.522727 86.050181 
L 32.093911 86.480333 
L 36.879503 86.328169 
L 41.665094 85.923606 
L 48.843482 85.023959 
L 84.73542 79.948356 
L 96.6994 78.626512 
L 108.663379 77.513871 
L 125.41295 76.218093 
L 137.37693 75.265535 
L 139.769726 74.990074 
L 142.162521 74.595274 
L 144.555317 73.877169 
L 149.340909 70.456385 
L 151.733705 74.443647 
L 154.126501 79.081595 
L 156.519297 82.411198 
L 158.912093 83.273002 
L 161.304889 80.374455 
L 163.697684 74.107723 
L 166.09048 65.823466 
L 170.876072 48.174316 
L 173.268868 40.26035 
L 175.661664 33.349543 
L 178.05446 27.49536 
L 180.447256 22.665652 
L 182.840051 18.795196 
L 185.232847 15.815827 
L 187.625643 13.667279 
L 190.018439 12.258844 
L 192.411235 11.354002 
L 197.196827 9.916414 
L 199.589623 9.4993 
L 201.982419 9.473671 
L 204.375214 9.867172 
L 206.76801 10.673569 
L 209.160806 11.893282 
L 211.553602 13.542264 
L 213.946398 15.639176 
L 216.339194 18.17967 
L 218.73199 21.11607 
L 221.124786 24.358783 
L 228.303173 34.854189 
L 233.088765 41.686153 
L 237.874357 48.020518 
L 242.659949 53.783129 
L 247.44554 58.985809 
L 252.231132 63.669529 
L 257.016724 67.881306 
L 261.802316 71.666111 
L 266.587907 75.064643 
L 271.373499 78.113145 
L 276.159091 80.843867 
L 280.944683 83.285607 
L 285.730274 85.464231 
L 290.515866 87.40308 
L 295.301458 89.123324 
L 300.08705 90.644213 
L 304.872642 91.983312 
L 309.658233 93.156668 
L 316.836621 94.637729 
L 324.015009 95.823136 
L 331.193396 96.751976 
L 338.371784 97.45862 
L 345.550172 97.973268 
L 355.121355 98.406289 
L 364.692539 98.599187 
L 376.656518 98.571615 
L 388.620497 98.313485 
L 402.977273 97.782009 
L 402.977273 97.782009 
" style="fill:none;stroke:#005cff;stroke-linecap:square;stroke-width:1.5;"/>
   </g>
   <g id="line2d_5">
    <path clip-path="url(#p6f42bdd4e6)" d="M 96.6994 50.014068 
L 134.984134 50.014068 
" style="fill:none;stroke:#000000;stroke-linecap:square;stroke-width:1.5;"/>
   </g>
   <g id="text_1">
    <!-- 1 ms -->
    <defs>
     <path d="M 12.40625 8.296875 
L 28.515625 8.296875 
L 28.515625 63.921875 
L 10.984375 60.40625 
L 10.984375 69.390625 
L 28.421875 72.90625 
L 38.28125 72.90625 
L 38.28125 8.296875 
L 54.390625 8.296875 
L 54.390625 0 
L 12.40625 0 
z
" id="DejaVuSans-31"/>
     <path id="DejaVuSans-20"/>
     <path d="M 52 44.1875 
Q 55.375 50.25 60.0625 53.125 
Q 64.75 56 71.09375 56 
Q 79.640625 56 84.28125 50.015625 
Q 88.921875 44.046875 88.921875 33.015625 
L 88.921875 0 
L 79.890625 0 
L 79.890625 32.71875 
Q 79.890625 40.578125 77.09375 44.375 
Q 74.3125 48.1875 68.609375 48.1875 
Q 61.625 48.1875 57.5625 43.546875 
Q 53.515625 38.921875 53.515625 30.90625 
L 53.515625 0 
L 44.484375 0 
L 44.484375 32.71875 
Q 44.484375 40.625 41.703125 44.40625 
Q 38.921875 48.1875 33.109375 48.1875 
Q 26.21875 48.1875 22.15625 43.53125 
Q 18.109375 38.875 18.109375 30.90625 
L 18.109375 0 
L 9.078125 0 
L 9.078125 54.6875 
L 18.109375 54.6875 
L 18.109375 46.1875 
Q 21.1875 51.21875 25.484375 53.609375 
Q 29.78125 56 35.6875 56 
Q 41.65625 56 45.828125 52.96875 
Q 50 49.953125 52 44.1875 
z
" id="DejaVuSans-6d"/>
     <path d="M 44.28125 53.078125 
L 44.28125 44.578125 
Q 40.484375 46.53125 36.375 47.5 
Q 32.28125 48.484375 27.875 48.484375 
Q 21.1875 48.484375 17.84375 46.4375 
Q 14.5 44.390625 14.5 40.28125 
Q 14.5 37.15625 16.890625 35.375 
Q 19.28125 33.59375 26.515625 31.984375 
L 29.59375 31.296875 
Q 39.15625 29.25 43.1875 25.515625 
Q 47.21875 21.78125 47.21875 15.09375 
Q 47.21875 7.46875 41.1875 3.015625 
Q 35.15625 -1.421875 24.609375 -1.421875 
Q 20.21875 -1.421875 15.453125 -0.5625 
Q 10.6875 0.296875 5.421875 2 
L 5.421875 11.28125 
Q 10.40625 8.6875 15.234375 7.390625 
Q 20.0625 6.109375 24.8125 6.109375 
Q 31.15625 6.109375 34.5625 8.28125 
Q 37.984375 10.453125 37.984375 14.40625 
Q 37.984375 18.0625 35.515625 20.015625 
Q 33.0625 21.96875 24.703125 23.78125 
L 21.578125 24.515625 
Q 13.234375 26.265625 9.515625 29.90625 
Q 5.8125 33.546875 5.8125 39.890625 
Q 5.8125 47.609375 11.28125 51.796875 
Q 16.75 56 26.8125 56 
Q 31.78125 56 36.171875 55.265625 
Q 40.578125 54.546875 44.28125 53.078125 
z
" id="DejaVuSans-73"/>
    </defs>
    <g transform="translate(101.676415 45.556743)scale(0.1 -0.1)">
     <use xlink:href="#DejaVuSans-31"/>
     <use x="63.623047" xlink:href="#DejaVuSans-20"/>
     <use x="95.410156" xlink:href="#DejaVuSans-6d"/>
     <use x="192.822266" xlink:href="#DejaVuSans-73"/>
    </g>
   </g>
  </g>
  <g id="axes_2">
   <g id="line2d_6">
    <path clip-path="url(#p5826e0d8f3)" d="M -1 257.126891 
L 6.115625 257.127106 
L 8.73125 256.813879 
L 11.346875 256.201089 
L 16.578125 254.500074 
L 21.809375 252.706842 
L 27.040625 251.133573 
L 32.271875 249.853861 
L 37.503125 248.839459 
L 42.734375 248.032748 
L 50.58125 247.093304 
L 61.04375 246.146289 
L 74.121875 245.21164 
L 105.509375 243.122809 
L 113.35625 242.384967 
L 118.5875 241.719999 
L 123.81875 240.772753 
L 126.434375 240.10769 
L 129.05 239.217987 
L 131.665625 237.95156 
L 134.28125 235.98802 
L 136.896875 232.535886 
L 139.5125 225.211591 
L 142.128125 205.851822 
L 144.74375 168.289066 
L 147.359375 157.370248 
L 152.590625 179.919813 
L 155.20625 188.670103 
L 157.821875 195.445824 
L 160.4375 200.883488 
L 163.053125 205.380446 
L 165.66875 209.205676 
L 168.284375 212.55791 
L 170.9 215.597593 
L 178.746875 224.287792 
L 181.3625 227.635841 
L 183.978125 231.688278 
L 186.59375 236.926512 
L 189.209375 243.79525 
L 191.825 251.861935 
L 194.440625 259.073563 
L 197.05625 263.783801 
L 199.671875 266.340041 
L 202.2875 267.673347 
L 204.903125 268.408142 
L 207.51875 268.8566 
L 212.75 269.375794 
L 217.98125 269.62636 
L 223.2125 269.684298 
L 231.059375 269.55197 
L 249.36875 268.932978 
L 283.371875 267.528782 
L 327.8375 265.447926 
L 422 260.896522 
L 422 260.896522 
" style="fill:none;stroke:#1f77b4;stroke-linecap:square;stroke-width:1.5;"/>
   </g>
   <g id="line2d_7">
    <path clip-path="url(#p5826e0d8f3)" d="M -1 256.796847 
L 11.346875 256.736373 
L 21.809375 256.417712 
L 47.965625 255.285595 
L 87.2 253.652356 
L 139.5125 251.576918 
L 142.128125 251.313943 
L 144.74375 250.814045 
L 147.359375 249.967492 
L 149.975 248.654427 
L 152.590625 246.662997 
L 160.4375 238.878001 
L 163.053125 236.73367 
L 165.66875 234.934936 
L 168.284375 233.434515 
L 170.9 232.181918 
L 173.515625 231.134433 
L 176.13125 230.258247 
L 178.746875 229.527222 
L 183.978125 228.426165 
L 189.209375 227.732109 
L 194.440625 227.422789 
L 199.671875 227.515229 
L 204.903125 228.014127 
L 210.134375 228.912826 
L 215.365625 230.1375 
L 228.44375 233.481709 
L 236.290625 235.223012 
L 244.1375 236.756904 
L 254.6 238.555043 
L 265.0625 240.134076 
L 278.140625 241.864378 
L 291.21875 243.373085 
L 306.9125 244.941003 
L 322.60625 246.286169 
L 340.915625 247.619108 
L 359.225 248.737804 
L 380.15 249.797685 
L 403.690625 250.760206 
L 422 251.369805 
L 422 251.369805 
" style="fill:none;stroke:#ff7f0e;stroke-linecap:square;stroke-width:1.5;"/>
   </g>
   <g id="legend_1">
    <g id="patch_2">
     <path d="M 355.803125 189.110795 
L 415 189.110795 
Q 417 189.110795 417 187.110795 
L 417 158.754545 
Q 417 156.754545 415 156.754545 
L 355.803125 156.754545 
Q 353.803125 156.754545 353.803125 158.754545 
L 353.803125 187.110795 
Q 353.803125 189.110795 355.803125 189.110795 
z
" style="fill:#ffffff;opacity:0.8;stroke:#cccccc;stroke-linejoin:miter;"/>
    </g>
    <g id="line2d_8">
     <path d="M 357.803125 164.852983 
L 377.803125 164.852983 
" style="fill:none;stroke:#1f77b4;stroke-linecap:square;stroke-width:1.5;"/>
    </g>
    <g id="line2d_9"/>
    <g id="text_2">
     <!-- axon -->
     <defs>
      <path d="M 34.28125 27.484375 
Q 23.390625 27.484375 19.1875 25 
Q 14.984375 22.515625 14.984375 16.5 
Q 14.984375 11.71875 18.140625 8.90625 
Q 21.296875 6.109375 26.703125 6.109375 
Q 34.1875 6.109375 38.703125 11.40625 
Q 43.21875 16.703125 43.21875 25.484375 
L 43.21875 27.484375 
z
M 52.203125 31.203125 
L 52.203125 0 
L 43.21875 0 
L 43.21875 8.296875 
Q 40.140625 3.328125 35.546875 0.953125 
Q 30.953125 -1.421875 24.3125 -1.421875 
Q 15.921875 -1.421875 10.953125 3.296875 
Q 6 8.015625 6 15.921875 
Q 6 25.140625 12.171875 29.828125 
Q 18.359375 34.515625 30.609375 34.515625 
L 43.21875 34.515625 
L 43.21875 35.40625 
Q 43.21875 41.609375 39.140625 45 
Q 35.0625 48.390625 27.6875 48.390625 
Q 23 48.390625 18.546875 47.265625 
Q 14.109375 46.140625 10.015625 43.890625 
L 10.015625 52.203125 
Q 14.9375 54.109375 19.578125 55.046875 
Q 24.21875 56 28.609375 56 
Q 40.484375 56 46.34375 49.84375 
Q 52.203125 43.703125 52.203125 31.203125 
z
" id="DejaVuSans-61"/>
      <path d="M 54.890625 54.6875 
L 35.109375 28.078125 
L 55.90625 0 
L 45.3125 0 
L 29.390625 21.484375 
L 13.484375 0 
L 2.875 0 
L 24.125 28.609375 
L 4.6875 54.6875 
L 15.28125 54.6875 
L 29.78125 35.203125 
L 44.28125 54.6875 
z
" id="DejaVuSans-78"/>
      <path d="M 30.609375 48.390625 
Q 23.390625 48.390625 19.1875 42.75 
Q 14.984375 37.109375 14.984375 27.296875 
Q 14.984375 17.484375 19.15625 11.84375 
Q 23.34375 6.203125 30.609375 6.203125 
Q 37.796875 6.203125 41.984375 11.859375 
Q 46.1875 17.53125 46.1875 27.296875 
Q 46.1875 37.015625 41.984375 42.703125 
Q 37.796875 48.390625 30.609375 48.390625 
z
M 30.609375 56 
Q 42.328125 56 49.015625 48.375 
Q 55.71875 40.765625 55.71875 27.296875 
Q 55.71875 13.875 49.015625 6.21875 
Q 42.328125 -1.421875 30.609375 -1.421875 
Q 18.84375 -1.421875 12.171875 6.21875 
Q 5.515625 13.875 5.515625 27.296875 
Q 5.515625 40.765625 12.171875 48.375 
Q 18.84375 56 30.609375 56 
z
" id="DejaVuSans-6f"/>
      <path d="M 54.890625 33.015625 
L 54.890625 0 
L 45.90625 0 
L 45.90625 32.71875 
Q 45.90625 40.484375 42.875 44.328125 
Q 39.84375 48.1875 33.796875 48.1875 
Q 26.515625 48.1875 22.3125 43.546875 
Q 18.109375 38.921875 18.109375 30.90625 
L 18.109375 0 
L 9.078125 0 
L 9.078125 54.6875 
L 18.109375 54.6875 
L 18.109375 46.1875 
Q 21.34375 51.125 25.703125 53.5625 
Q 30.078125 56 35.796875 56 
Q 45.21875 56 50.046875 50.171875 
Q 54.890625 44.34375 54.890625 33.015625 
z
" id="DejaVuSans-6e"/>
     </defs>
     <g transform="translate(385.803125 168.352983)scale(0.1 -0.1)">
      <use xlink:href="#DejaVuSans-61"/>
      <use x="61.279297" xlink:href="#DejaVuSans-78"/>
      <use x="120.412109" xlink:href="#DejaVuSans-6f"/>
      <use x="181.59375" xlink:href="#DejaVuSans-6e"/>
     </g>
    </g>
    <g id="line2d_10">
     <path d="M 357.803125 179.531108 
L 377.803125 179.531108 
" style="fill:none;stroke:#ff7f0e;stroke-linecap:square;stroke-width:1.5;"/>
    </g>
    <g id="line2d_11"/>
    <g id="text_3">
     <!-- soma -->
     <g transform="translate(385.803125 183.031108)scale(0.1 -0.1)">
      <use xlink:href="#DejaVuSans-73"/>
      <use x="52.099609" xlink:href="#DejaVuSans-6f"/>
      <use x="113.28125" xlink:href="#DejaVuSans-6d"/>
      <use x="210.693359" xlink:href="#DejaVuSans-61"/>
     </g>
    </g>
   </g>
  </g>
 </g>
 <defs>
  <clipPath id="p6f42bdd4e6">
   <rect height="123.545455" width="418.5" x="3.5" y="3.5"/>
  </clipPath>
  <clipPath id="p5826e0d8f3">
   <rect height="123.545455" width="418.5" x="3.5" y="151.754545"/>
  </clipPath>
 </defs>
</svg>
