<?xml version="1.0" encoding="utf-8" standalone="no"?>
<!DOCTYPE svg PUBLIC "-//W3C//DTD SVG 1.1//EN"
  "http://www.w3.org/Graphics/SVG/1.1/DTD/svg11.dtd">
<!-- Created with matplotlib (http://matplotlib.org/) -->
<svg height="278.8pt" version="1.1" viewBox="0 0 425.5 278.8" width="425.5pt" xmlns="http://www.w3.org/2000/svg" xmlns:xlink="http://www.w3.org/1999/xlink">
 <defs>
  <style type="text/css">
*{stroke-linecap:butt;stroke-linejoin:round;}
  </style>
 </defs>
 <g id="figure_1">
  <g id="patch_1">
   <path d="M 0 278.8 
L 425.5 278.8 
L 425.5 0 
L 0 0 
z
" style="fill:#ffffff;"/>
  </g>
  <g id="axes_1">
   <g id="line2d_1">
    <path clip-path="url(#pcf78859c5a)" d="M 22.522727 86.680632 
L 36.879503 86.729104 
L 51.236278 86.442024 
L 94.306604 85.432012 
L 125.41295 84.975868 
L 144.555317 84.665643 
L 146.948113 84.529484 
L 149.340909 84.204389 
L 151.733705 83.995304 
L 156.519297 85.557959 
L 158.912093 86.130602 
L 161.304889 86.358486 
L 163.697684 86.108312 
L 166.09048 85.34568 
L 168.483276 84.072046 
L 170.876072 82.341434 
L 175.661664 78.315994 
L 178.05446 76.826779 
L 180.447256 74.230734 
L 182.840051 56.6946 
L 185.232847 29.187995 
L 187.625643 17.561827 
L 190.018439 18.646281 
L 192.411235 22.267706 
L 194.804031 26.387493 
L 199.589623 38.362276 
L 201.982419 43.530132 
L 204.375214 45.144059 
L 209.160806 45.525039 
L 211.553602 46.763007 
L 213.946398 51.534124 
L 216.339194 70.028888 
L 218.73199 99.48969 
L 221.124786 114.431585 
L 223.517581 119.215232 
L 225.910377 120.722286 
L 228.303173 121.020581 
L 230.695969 120.785113 
L 233.088765 120.400734 
L 235.481561 120.179892 
L 237.874357 120.32336 
L 242.659949 121.273345 
L 245.052744 121.429752 
L 247.44554 121.137524 
L 249.838336 120.479174 
L 254.623928 118.597733 
L 264.195111 114.560685 
L 266.587907 113.148019 
L 268.980703 111.211037 
L 271.373499 108.663118 
L 276.159091 102.641321 
L 278.551887 99.952344 
L 280.944683 97.746664 
L 283.337479 95.980537 
L 285.730274 94.556931 
L 288.12307 93.390231 
L 290.515866 92.418254 
L 292.908662 91.597906 
L 297.694254 90.300179 
L 302.479846 89.340913 
L 307.265437 88.62687 
L 314.443825 87.879898 
L 321.622213 87.392499 
L 331.193396 86.983118 
L 345.550172 86.637414 
L 369.47813 86.348306 
L 402.977273 86.128208 
L 402.977273 86.128208 
" style="fill:none;stroke:#00ff63;stroke-linecap:square;stroke-width:1.5;"/>
   </g>
   <g id="line2d_2">
    <path clip-path="url(#pcf78859c5a)" d="M 22.522727 86.664472 
L 41.665094 86.874523 
L 56.02187 86.642444 
L 101.484991 85.749152 
L 127.805746 85.469297 
L 139.769726 85.465372 
L 144.555317 85.597674 
L 146.948113 85.824756 
L 149.340909 86.476579 
L 151.733705 87.761052 
L 154.126501 88.562746 
L 158.912093 89.014607 
L 161.304889 88.947341 
L 163.697684 88.453771 
L 166.09048 87.467313 
L 168.483276 85.970255 
L 170.876072 84.00579 
L 175.661664 79.411725 
L 178.05446 77.422543 
L 180.447256 73.841133 
L 182.840051 54.846454 
L 185.232847 26.57033 
L 187.625643 15.292431 
L 190.018439 16.458289 
L 192.411235 19.628424 
L 194.804031 24.02573 
L 199.589623 38.567177 
L 201.982419 44.959887 
L 204.375214 47.353417 
L 209.160806 48.845577 
L 211.553602 50.448578 
L 213.946398 55.004687 
L 216.339194 71.333154 
L 218.73199 97.519139 
L 221.124786 110.992977 
L 223.517581 115.3391 
L 225.910377 116.730163 
L 228.303173 117.053817 
L 235.481561 116.800262 
L 237.874357 117.242891 
L 242.659949 118.773595 
L 245.052744 119.160356 
L 247.44554 119.042152 
L 249.838336 118.49377 
L 252.231132 117.652242 
L 261.802316 113.593844 
L 264.195111 112.503519 
L 266.587907 111.145132 
L 268.980703 109.335358 
L 271.373499 106.99274 
L 276.159091 101.493897 
L 278.551887 99.033244 
L 280.944683 97.008081 
L 283.337479 95.381458 
L 285.730274 94.067158 
L 288.12307 92.988246 
L 290.515866 92.088434 
L 295.301458 90.680891 
L 300.08705 89.648219 
L 304.872642 88.881471 
L 309.658233 88.310073 
L 316.836621 87.711378 
L 326.407804 87.219589 
L 338.371784 86.871589 
L 357.514151 86.585419 
L 393.406089 86.331091 
L 402.977273 86.284118 
L 402.977273 86.284118 
" style="fill:none;stroke:#00ff7d;stroke-linecap:square;stroke-width:1.5;"/>
   </g>
   <g id="line2d_3">
    <path clip-path="url(#pcf78859c5a)" d="M 22.522727 86.644772 
L 32.093911 86.937351 
L 41.665094 87.117883 
L 53.629074 87.048263 
L 125.41295 86.09048 
L 137.37693 86.193659 
L 142.162521 86.425318 
L 144.555317 86.712939 
L 146.948113 87.376357 
L 149.340909 89.200985 
L 151.733705 92.247455 
L 154.126501 92.992806 
L 161.304889 91.89157 
L 163.697684 91.135171 
L 166.09048 89.916374 
L 168.483276 88.188115 
L 170.876072 85.978573 
L 178.05446 78.342254 
L 180.447256 73.798794 
L 182.840051 52.909535 
L 185.232847 23.171639 
L 187.625643 12.184804 
L 190.018439 13.785079 
L 192.411235 17.011798 
L 194.804031 22.242074 
L 197.196827 31.052632 
L 199.589623 40.388535 
L 201.982419 48.396541 
L 204.375214 52.095803 
L 209.160806 55.746596 
L 211.553602 58.090488 
L 213.946398 62.647917 
L 216.339194 76.047016 
L 218.73199 96.465144 
L 221.124786 106.906208 
L 223.517581 110.276102 
L 225.910377 111.341191 
L 228.303173 111.602587 
L 233.088765 111.653918 
L 235.481561 112.039164 
L 237.874357 112.892031 
L 242.659949 115.241709 
L 245.052744 115.945469 
L 247.44554 116.052729 
L 249.838336 115.633054 
L 252.231132 114.830104 
L 257.016724 112.681759 
L 264.195111 109.361046 
L 266.587907 108.041177 
L 268.980703 106.38685 
L 271.373499 104.33512 
L 276.159091 99.656143 
L 278.551887 97.570141 
L 280.944683 95.841668 
L 283.337479 94.441445 
L 285.730274 93.301166 
L 288.12307 92.359247 
L 290.515866 91.570055 
L 295.301458 90.330216 
L 300.08705 89.417599 
L 304.872642 88.738889 
L 312.051029 88.029747 
L 319.229417 87.569807 
L 328.8006 87.189416 
L 343.157376 86.879468 
L 367.085334 86.638875 
L 402.977273 86.461245 
L 402.977273 86.461245 
" style="fill:none;stroke:#00ffbb;stroke-linecap:square;stroke-width:1.5;"/>
   </g>
   <g id="line2d_4">
    <path clip-path="url(#pcf78859c5a)" d="M 22.522727 86.62312 
L 29.701115 86.910497 
L 39.272298 87.323404 
L 48.843482 87.450317 
L 63.200257 87.334084 
L 111.056175 86.76403 
L 127.805746 86.773507 
L 134.984134 86.915247 
L 139.769726 87.177108 
L 142.162521 87.447662 
L 144.555317 87.960296 
L 146.948113 89.12557 
L 149.340909 92.299427 
L 151.733705 97.336052 
L 154.126501 97.917539 
L 156.519297 96.746503 
L 163.697684 93.949533 
L 166.09048 92.483248 
L 168.483276 90.516121 
L 170.876072 88.056422 
L 175.661664 82.279212 
L 178.05446 79.324622 
L 180.447256 73.762603 
L 182.840051 50.937375 
L 185.232847 19.769387 
L 187.625643 9.115702 
L 190.018439 11.132101 
L 192.411235 14.453319 
L 194.804031 20.475688 
L 197.196827 30.768896 
L 199.589623 41.597867 
L 201.982419 50.756248 
L 204.375214 55.419858 
L 206.76801 58.148873 
L 209.160806 60.608986 
L 211.553602 63.38305 
L 213.946398 67.73322 
L 216.339194 78.61583 
L 218.73199 94.366372 
L 221.124786 102.362699 
L 223.517581 104.958601 
L 225.910377 105.793493 
L 228.303173 106.052429 
L 230.695969 106.191647 
L 233.088765 106.510292 
L 235.481561 107.247292 
L 237.874357 108.508484 
L 242.659949 111.654379 
L 245.052744 112.661098 
L 247.44554 112.983628 
L 249.838336 112.691182 
L 252.231132 111.938576 
L 257.016724 109.752011 
L 266.587907 105.114028 
L 268.980703 103.627394 
L 271.373499 101.853175 
L 276.159091 97.917013 
L 278.551887 96.169413 
L 280.944683 94.712297 
L 283.337479 93.522404 
L 285.730274 92.546202 
L 288.12307 91.735033 
L 292.908662 90.472256 
L 297.694254 89.548875 
L 302.479846 88.863511 
L 309.658233 88.148125 
L 316.836621 87.686136 
L 326.407804 87.308796 
L 340.76458 87.010757 
L 364.692539 86.795573 
L 402.977273 86.64529 
L 402.977273 86.64529 
" style="fill:none;stroke:#00fffa;stroke-linecap:square;stroke-width:1.5;"/>
   </g>
   <g id="line2d_5">
    <path clip-path="url(#pcf78859c5a)" d="M 96.6994 45.068845 
L 134.984134 45.068845 
" style="fill:none;stroke:#000000;stroke-linecap:square;stroke-width:1.5;"/>
   </g>
   <g id="text_1">
    <!-- 1 ms -->
    <defs>
     <path d="M 12.40625 8.296875 
L 28.515625 8.296875 
L 28.515625 63.921875 
L 10.984375 60.40625 
L 10.984375 69.390625 
L 28.421875 72.90625 
L 38.28125 72.90625 
L 38.28125 8.296875 
L 54.390625 8.296875 
L 54.390625 0 
L 12.40625 0 
z
" id="DejaVuSans-31"/>
     <path id="DejaVuSans-20"/>
     <path d="M 52 44.1875 
Q 55.375 50.25 60.0625 53.125 
Q 64.75 56 71.09375 56 
Q 79.640625 56 84.28125 50.015625 
Q 88.921875 44.046875 88.921875 33.015625 
L 88.921875 0 
L 79.890625 0 
L 79.890625 32.71875 
Q 79.890625 40.578125 77.09375 44.375 
Q 74.3125 48.1875 68.609375 48.1875 
Q 61.625 48.1875 57.5625 43.546875 
Q 53.515625 38.921875 53.515625 30.90625 
L 53.515625 0 
L 44.484375 0 
L 44.484375 32.71875 
Q 44.484375 40.625 41.703125 44.40625 
Q 38.921875 48.1875 33.109375 48.1875 
Q 26.21875 48.1875 22.15625 43.53125 
Q 18.109375 38.875 18.109375 30.90625 
L 18.109375 0 
L 9.078125 0 
L 9.078125 54.6875 
L 18.109375 54.6875 
L 18.109375 46.1875 
Q 21.1875 51.21875 25.484375 53.609375 
Q 29.78125 56 35.6875 56 
Q 41.65625 56 45.828125 52.96875 
Q 50 49.953125 52 44.1875 
z
" id="DejaVuSans-6d"/>
     <path d="M 44.28125 53.078125 
L 44.28125 44.578125 
Q 40.484375 46.53125 36.375 47.5 
Q 32.28125 48.484375 27.875 48.484375 
Q 21.1875 48.484375 17.84375 46.4375 
Q 14.5 44.390625 14.5 40.28125 
Q 14.5 37.15625 16.890625 35.375 
Q 19.28125 33.59375 26.515625 31.984375 
L 29.59375 31.296875 
Q 39.15625 29.25 43.1875 25.515625 
Q 47.21875 21.78125 47.21875 15.09375 
Q 47.21875 7.46875 41.1875 3.015625 
Q 35.15625 -1.421875 24.609375 -1.421875 
Q 20.21875 -1.421875 15.453125 -0.5625 
Q 10.6875 0.296875 5.421875 2 
L 5.421875 11.28125 
Q 10.40625 8.6875 15.234375 7.390625 
Q 20.0625 6.109375 24.8125 6.109375 
Q 31.15625 6.109375 34.5625 8.28125 
Q 37.984375 10.453125 37.984375 14.40625 
Q 37.984375 18.0625 35.515625 20.015625 
Q 33.0625 21.96875 24.703125 23.78125 
L 21.578125 24.515625 
Q 13.234375 26.265625 9.515625 29.90625 
Q 5.8125 33.546875 5.8125 39.890625 
Q 5.8125 47.609375 11.28125 51.796875 
Q 16.75 56 26.8125 56 
Q 31.78125 56 36.171875 55.265625 
Q 40.578125 54.546875 44.28125 53.078125 
z
" id="DejaVuSans-73"/>
    </defs>
    <g transform="translate(101.676415 39.875448)scale(0.1 -0.1)">
     <use xlink:href="#DejaVuSans-31"/>
     <use x="63.623047" xlink:href="#DejaVuSans-20"/>
     <use x="95.410156" xlink:href="#DejaVuSans-6d"/>
     <use x="192.822266" xlink:href="#DejaVuSans-73"/>
    </g>
   </g>
  </g>
  <g id="axes_2">
   <g id="line2d_6">
    <path clip-path="url(#p10ac703c5a)" d="M -1 256.843434 
L 6.115625 256.843636 
L 8.73125 256.554126 
L 11.346875 255.987721 
L 16.578125 254.415406 
L 24.425 251.997785 
L 29.65625 250.679183 
L 34.8875 249.625806 
L 40.11875 248.792702 
L 47.965625 247.83907 
L 55.8125 247.114234 
L 68.890625 246.181231 
L 92.43125 244.827338 
L 108.125 243.835476 
L 115.971875 243.158913 
L 121.203125 242.543128 
L 126.434375 241.657408 
L 129.05 241.030026 
L 131.665625 240.183989 
L 134.28125 238.967391 
L 136.896875 237.053347 
L 139.5125 233.616856 
L 142.128125 226.100422 
L 144.74375 205.919816 
L 147.359375 171.671647 
L 149.975 166.267137 
L 152.590625 176.963192 
L 155.20625 187.086803 
L 157.821875 194.809927 
L 160.4375 200.819567 
L 163.053125 205.667163 
L 165.66875 209.696715 
L 168.284375 213.141202 
L 170.9 216.174059 
L 176.13125 221.548265 
L 181.3625 226.840124 
L 183.978125 229.895347 
L 186.59375 233.613289 
L 189.209375 238.422622 
L 191.825 244.686266 
L 194.440625 251.930822 
L 197.05625 258.30533 
L 199.671875 262.451673 
L 202.2875 264.719572 
L 204.903125 265.915906 
L 207.51875 266.578041 
L 210.134375 266.979043 
L 215.365625 267.444833 
L 223.2125 267.820537 
L 236.290625 268.127933 
L 267.678125 268.790517 
L 285.9875 268.712234 
L 312.14375 268.329037 
L 356.609375 267.405414 
L 422 265.935845 
L 422 265.935845 
" style="fill:none;stroke:#1f77b4;stroke-linecap:square;stroke-width:1.5;"/>
   </g>
   <g id="line2d_7">
    <path clip-path="url(#p10ac703c5a)" d="M -1 256.554317 
L 11.346875 256.498435 
L 21.809375 256.203963 
L 50.58125 255.051815 
L 92.43125 253.468864 
L 142.128125 251.660489 
L 144.74375 251.400571 
L 147.359375 250.905278 
L 149.975 250.081488 
L 152.590625 248.798067 
L 155.20625 246.830351 
L 157.821875 244.130089 
L 160.4375 240.796298 
L 163.053125 236.964307 
L 165.66875 232.796441 
L 168.284375 228.416724 
L 170.9 223.727399 
L 173.515625 217.937344 
L 176.13125 208.46731 
L 178.746875 190.518936 
L 181.3625 169.332982 
L 183.978125 159.384641 
L 186.59375 157.370248 
L 189.209375 158.715833 
L 191.825 161.707759 
L 194.440625 165.646796 
L 197.05625 170.135522 
L 207.51875 188.93315 
L 210.134375 193.195884 
L 212.75 197.182234 
L 215.365625 200.89671 
L 217.98125 204.36544 
L 223.2125 210.755998 
L 231.059375 220.083588 
L 233.675 223.514567 
L 236.290625 227.277754 
L 238.90625 231.408608 
L 244.1375 240.224601 
L 246.753125 244.353671 
L 249.36875 248.004395 
L 251.984375 251.137294 
L 254.6 253.799178 
L 257.215625 256.060099 
L 259.83125 257.986403 
L 262.446875 259.633923 
L 265.0625 261.047959 
L 267.678125 262.264913 
L 270.29375 263.314166 
L 272.909375 264.219711 
L 278.140625 265.676292 
L 283.371875 266.760813 
L 288.603125 267.56701 
L 293.834375 268.165571 
L 301.68125 268.786139 
L 309.528125 269.179968 
L 319.990625 269.483402 
L 335.684375 269.665549 
L 356.609375 269.651204 
L 387.996875 269.384242 
L 422 268.938593 
L 422 268.938593 
" style="fill:none;stroke:#ff7f0e;stroke-linecap:square;stroke-width:1.5;"/>
   </g>
   <g id="legend_1">
    <g id="patch_2">
     <path d="M 355.803125 189.110795 
L 415 189.110795 
Q 417 189.110795 417 187.110795 
L 417 158.754545 
Q 417 156.754545 415 156.754545 
L 355.803125 156.754545 
Q 353.803125 156.754545 353.803125 158.754545 
L 353.803125 187.110795 
Q 353.803125 189.110795 355.803125 189.110795 
z
" style="fill:#ffffff;opacity:0.8;stroke:#cccccc;stroke-linejoin:miter;"/>
    </g>
    <g id="line2d_8">
     <path d="M 357.803125 164.852983 
L 377.803125 164.852983 
" style="fill:none;stroke:#1f77b4;stroke-linecap:square;stroke-width:1.5;"/>
    </g>
    <g id="line2d_9"/>
    <g id="text_2">
     <!-- axon -->
     <defs>
      <path d="M 34.28125 27.484375 
Q 23.390625 27.484375 19.1875 25 
Q 14.984375 22.515625 14.984375 16.5 
Q 14.984375 11.71875 18.140625 8.90625 
Q 21.296875 6.109375 26.703125 6.109375 
Q 34.1875 6.109375 38.703125 11.40625 
Q 43.21875 16.703125 43.21875 25.484375 
L 43.21875 27.484375 
z
M 52.203125 31.203125 
L 52.203125 0 
L 43.21875 0 
L 43.21875 8.296875 
Q 40.140625 3.328125 35.546875 0.953125 
Q 30.953125 -1.421875 24.3125 -1.421875 
Q 15.921875 -1.421875 10.953125 3.296875 
Q 6 8.015625 6 15.921875 
Q 6 25.140625 12.171875 29.828125 
Q 18.359375 34.515625 30.609375 34.515625 
L 43.21875 34.515625 
L 43.21875 35.40625 
Q 43.21875 41.609375 39.140625 45 
Q 35.0625 48.390625 27.6875 48.390625 
Q 23 48.390625 18.546875 47.265625 
Q 14.109375 46.140625 10.015625 43.890625 
L 10.015625 52.203125 
Q 14.9375 54.109375 19.578125 55.046875 
Q 24.21875 56 28.609375 56 
Q 40.484375 56 46.34375 49.84375 
Q 52.203125 43.703125 52.203125 31.203125 
z
" id="DejaVuSans-61"/>
      <path d="M 54.890625 54.6875 
L 35.109375 28.078125 
L 55.90625 0 
L 45.3125 0 
L 29.390625 21.484375 
L 13.484375 0 
L 2.875 0 
L 24.125 28.609375 
L 4.6875 54.6875 
L 15.28125 54.6875 
L 29.78125 35.203125 
L 44.28125 54.6875 
z
" id="DejaVuSans-78"/>
      <path d="M 30.609375 48.390625 
Q 23.390625 48.390625 19.1875 42.75 
Q 14.984375 37.109375 14.984375 27.296875 
Q 14.984375 17.484375 19.15625 11.84375 
Q 23.34375 6.203125 30.609375 6.203125 
Q 37.796875 6.203125 41.984375 11.859375 
Q 46.1875 17.53125 46.1875 27.296875 
Q 46.1875 37.015625 41.984375 42.703125 
Q 37.796875 48.390625 30.609375 48.390625 
z
M 30.609375 56 
Q 42.328125 56 49.015625 48.375 
Q 55.71875 40.765625 55.71875 27.296875 
Q 55.71875 13.875 49.015625 6.21875 
Q 42.328125 -1.421875 30.609375 -1.421875 
Q 18.84375 -1.421875 12.171875 6.21875 
Q 5.515625 13.875 5.515625 27.296875 
Q 5.515625 40.765625 12.171875 48.375 
Q 18.84375 56 30.609375 56 
z
" id="DejaVuSans-6f"/>
      <path d="M 54.890625 33.015625 
L 54.890625 0 
L 45.90625 0 
L 45.90625 32.71875 
Q 45.90625 40.484375 42.875 44.328125 
Q 39.84375 48.1875 33.796875 48.1875 
Q 26.515625 48.1875 22.3125 43.546875 
Q 18.109375 38.921875 18.109375 30.90625 
L 18.109375 0 
L 9.078125 0 
L 9.078125 54.6875 
L 18.109375 54.6875 
L 18.109375 46.1875 
Q 21.34375 51.125 25.703125 53.5625 
Q 30.078125 56 35.796875 56 
Q 45.21875 56 50.046875 50.171875 
Q 54.890625 44.34375 54.890625 33.015625 
z
" id="DejaVuSans-6e"/>
     </defs>
     <g transform="translate(385.803125 168.352983)scale(0.1 -0.1)">
      <use xlink:href="#DejaVuSans-61"/>
      <use x="61.279297" xlink:href="#DejaVuSans-78"/>
      <use x="120.412109" xlink:href="#DejaVuSans-6f"/>
      <use x="181.59375" xlink:href="#DejaVuSans-6e"/>
     </g>
    </g>
    <g id="line2d_10">
     <path d="M 357.803125 179.531108 
L 377.803125 179.531108 
" style="fill:none;stroke:#ff7f0e;stroke-linecap:square;stroke-width:1.5;"/>
    </g>
    <g id="line2d_11"/>
    <g id="text_3">
     <!-- soma -->
     <g transform="translate(385.803125 183.031108)scale(0.1 -0.1)">
      <use xlink:href="#DejaVuSans-73"/>
      <use x="52.099609" xlink:href="#DejaVuSans-6f"/>
      <use x="113.28125" xlink:href="#DejaVuSans-6d"/>
      <use x="210.693359" xlink:href="#DejaVuSans-61"/>
     </g>
    </g>
   </g>
  </g>
 </g>
 <defs>
  <clipPath id="pcf78859c5a">
   <rect height="123.545455" width="418.5" x="3.5" y="3.5"/>
  </clipPath>
  <clipPath id="p10ac703c5a">
   <rect height="123.545455" width="418.5" x="3.5" y="151.754545"/>
  </clipPath>
 </defs>
</svg>
