<?xml version="1.0" encoding="utf-8" standalone="no"?>
<!DOCTYPE svg PUBLIC "-//W3C//DTD SVG 1.1//EN"
  "http://www.w3.org/Graphics/SVG/1.1/DTD/svg11.dtd">
<!-- Created with matplotlib (http://matplotlib.org/) -->
<svg height="720pt" version="1.1" viewBox="0 0 1080 720" width="1080pt" xmlns="http://www.w3.org/2000/svg" xmlns:xlink="http://www.w3.org/1999/xlink">
 <defs>
  <style type="text/css">
*{stroke-linecap:butt;stroke-linejoin:round;}
  </style>
 </defs>
 <g id="figure_1">
  <g id="patch_1">
   <path d="M 0 720 
L 1080 720 
L 1080 0 
L 0 0 
z
" style="fill:#ffffff;"/>
  </g>
  <g id="axes_1">
   <g id="matplotlib.axis_1">
    <g id="xtick_1">
     <g id="line2d_1">
      <defs>
       <path d="M 0 0 
L 0 3.5 
" id="m968599f6fc" style="stroke:#000000;stroke-width:0.8;"/>
      </defs>
      <g>
       <use style="stroke:#000000;stroke-width:0.8;" x="128.210552" xlink:href="#m968599f6fc" y="648"/>
      </g>
     </g>
     <g id="text_1">
      <!-- −500 -->
      <defs>
       <path d="M 10.59375 35.5 
L 73.1875 35.5 
L 73.1875 27.203125 
L 10.59375 27.203125 
z
" id="DejaVuSans-2212"/>
       <path d="M 10.796875 72.90625 
L 49.515625 72.90625 
L 49.515625 64.59375 
L 19.828125 64.59375 
L 19.828125 46.734375 
Q 21.96875 47.46875 24.109375 47.828125 
Q 26.265625 48.1875 28.421875 48.1875 
Q 40.625 48.1875 47.75 41.5 
Q 54.890625 34.8125 54.890625 23.390625 
Q 54.890625 11.625 47.5625 5.09375 
Q 40.234375 -1.421875 26.90625 -1.421875 
Q 22.3125 -1.421875 17.546875 -0.640625 
Q 12.796875 0.140625 7.71875 1.703125 
L 7.71875 11.625 
Q 12.109375 9.234375 16.796875 8.0625 
Q 21.484375 6.890625 26.703125 6.890625 
Q 35.15625 6.890625 40.078125 11.328125 
Q 45.015625 15.765625 45.015625 23.390625 
Q 45.015625 31 40.078125 35.4375 
Q 35.15625 39.890625 26.703125 39.890625 
Q 22.75 39.890625 18.8125 39.015625 
Q 14.890625 38.140625 10.796875 36.28125 
z
" id="DejaVuSans-35"/>
       <path d="M 31.78125 66.40625 
Q 24.171875 66.40625 20.328125 58.90625 
Q 16.5 51.421875 16.5 36.375 
Q 16.5 21.390625 20.328125 13.890625 
Q 24.171875 6.390625 31.78125 6.390625 
Q 39.453125 6.390625 43.28125 13.890625 
Q 47.125 21.390625 47.125 36.375 
Q 47.125 51.421875 43.28125 58.90625 
Q 39.453125 66.40625 31.78125 66.40625 
z
M 31.78125 74.21875 
Q 44.046875 74.21875 50.515625 64.515625 
Q 56.984375 54.828125 56.984375 36.375 
Q 56.984375 17.96875 50.515625 8.265625 
Q 44.046875 -1.421875 31.78125 -1.421875 
Q 19.53125 -1.421875 13.0625 8.265625 
Q 6.59375 17.96875 6.59375 36.375 
Q 6.59375 54.828125 13.0625 64.515625 
Q 19.53125 74.21875 31.78125 74.21875 
z
" id="DejaVuSans-30"/>
      </defs>
      <g transform="translate(114.476958 662.598438)scale(0.1 -0.1)">
       <use xlink:href="#DejaVuSans-2212"/>
       <use x="83.789062" xlink:href="#DejaVuSans-35"/>
       <use x="147.412109" xlink:href="#DejaVuSans-30"/>
       <use x="211.035156" xlink:href="#DejaVuSans-30"/>
      </g>
     </g>
    </g>
    <g id="xtick_2">
     <g id="line2d_2">
      <g>
       <use style="stroke:#000000;stroke-width:0.8;" x="229.263309" xlink:href="#m968599f6fc" y="648"/>
      </g>
     </g>
     <g id="text_2">
      <!-- −400 -->
      <defs>
       <path d="M 37.796875 64.3125 
L 12.890625 25.390625 
L 37.796875 25.390625 
z
M 35.203125 72.90625 
L 47.609375 72.90625 
L 47.609375 25.390625 
L 58.015625 25.390625 
L 58.015625 17.1875 
L 47.609375 17.1875 
L 47.609375 0 
L 37.796875 0 
L 37.796875 17.1875 
L 4.890625 17.1875 
L 4.890625 26.703125 
z
" id="DejaVuSans-34"/>
      </defs>
      <g transform="translate(215.529716 662.598438)scale(0.1 -0.1)">
       <use xlink:href="#DejaVuSans-2212"/>
       <use x="83.789062" xlink:href="#DejaVuSans-34"/>
       <use x="147.412109" xlink:href="#DejaVuSans-30"/>
       <use x="211.035156" xlink:href="#DejaVuSans-30"/>
      </g>
     </g>
    </g>
    <g id="xtick_3">
     <g id="line2d_3">
      <g>
       <use style="stroke:#000000;stroke-width:0.8;" x="330.316067" xlink:href="#m968599f6fc" y="648"/>
      </g>
     </g>
     <g id="text_3">
      <!-- −300 -->
      <defs>
       <path d="M 40.578125 39.3125 
Q 47.65625 37.796875 51.625 33 
Q 55.609375 28.21875 55.609375 21.1875 
Q 55.609375 10.40625 48.1875 4.484375 
Q 40.765625 -1.421875 27.09375 -1.421875 
Q 22.515625 -1.421875 17.65625 -0.515625 
Q 12.796875 0.390625 7.625 2.203125 
L 7.625 11.71875 
Q 11.71875 9.328125 16.59375 8.109375 
Q 21.484375 6.890625 26.8125 6.890625 
Q 36.078125 6.890625 40.9375 10.546875 
Q 45.796875 14.203125 45.796875 21.1875 
Q 45.796875 27.640625 41.28125 31.265625 
Q 36.765625 34.90625 28.71875 34.90625 
L 20.21875 34.90625 
L 20.21875 43.015625 
L 29.109375 43.015625 
Q 36.375 43.015625 40.234375 45.921875 
Q 44.09375 48.828125 44.09375 54.296875 
Q 44.09375 59.90625 40.109375 62.90625 
Q 36.140625 65.921875 28.71875 65.921875 
Q 24.65625 65.921875 20.015625 65.03125 
Q 15.375 64.15625 9.8125 62.3125 
L 9.8125 71.09375 
Q 15.4375 72.65625 20.34375 73.4375 
Q 25.25 74.21875 29.59375 74.21875 
Q 40.828125 74.21875 47.359375 69.109375 
Q 53.90625 64.015625 53.90625 55.328125 
Q 53.90625 49.265625 50.4375 45.09375 
Q 46.96875 40.921875 40.578125 39.3125 
z
" id="DejaVuSans-33"/>
      </defs>
      <g transform="translate(316.582474 662.598438)scale(0.1 -0.1)">
       <use xlink:href="#DejaVuSans-2212"/>
       <use x="83.789062" xlink:href="#DejaVuSans-33"/>
       <use x="147.412109" xlink:href="#DejaVuSans-30"/>
       <use x="211.035156" xlink:href="#DejaVuSans-30"/>
      </g>
     </g>
    </g>
    <g id="xtick_4">
     <g id="line2d_4">
      <g>
       <use style="stroke:#000000;stroke-width:0.8;" x="431.368825" xlink:href="#m968599f6fc" y="648"/>
      </g>
     </g>
     <g id="text_4">
      <!-- −200 -->
      <defs>
       <path d="M 19.1875 8.296875 
L 53.609375 8.296875 
L 53.609375 0 
L 7.328125 0 
L 7.328125 8.296875 
Q 12.9375 14.109375 22.625 23.890625 
Q 32.328125 33.6875 34.8125 36.53125 
Q 39.546875 41.84375 41.421875 45.53125 
Q 43.3125 49.21875 43.3125 52.78125 
Q 43.3125 58.59375 39.234375 62.25 
Q 35.15625 65.921875 28.609375 65.921875 
Q 23.96875 65.921875 18.8125 64.3125 
Q 13.671875 62.703125 7.8125 59.421875 
L 7.8125 69.390625 
Q 13.765625 71.78125 18.9375 73 
Q 24.125 74.21875 28.421875 74.21875 
Q 39.75 74.21875 46.484375 68.546875 
Q 53.21875 62.890625 53.21875 53.421875 
Q 53.21875 48.921875 51.53125 44.890625 
Q 49.859375 40.875 45.40625 35.40625 
Q 44.1875 33.984375 37.640625 27.21875 
Q 31.109375 20.453125 19.1875 8.296875 
z
" id="DejaVuSans-32"/>
      </defs>
      <g transform="translate(417.635232 662.598438)scale(0.1 -0.1)">
       <use xlink:href="#DejaVuSans-2212"/>
       <use x="83.789062" xlink:href="#DejaVuSans-32"/>
       <use x="147.412109" xlink:href="#DejaVuSans-30"/>
       <use x="211.035156" xlink:href="#DejaVuSans-30"/>
      </g>
     </g>
    </g>
    <g id="xtick_5">
     <g id="line2d_5">
      <g>
       <use style="stroke:#000000;stroke-width:0.8;" x="532.421583" xlink:href="#m968599f6fc" y="648"/>
      </g>
     </g>
     <g id="text_5">
      <!-- −100 -->
      <defs>
       <path d="M 12.40625 8.296875 
L 28.515625 8.296875 
L 28.515625 63.921875 
L 10.984375 60.40625 
L 10.984375 69.390625 
L 28.421875 72.90625 
L 38.28125 72.90625 
L 38.28125 8.296875 
L 54.390625 8.296875 
L 54.390625 0 
L 12.40625 0 
z
" id="DejaVuSans-31"/>
      </defs>
      <g transform="translate(518.687989 662.598438)scale(0.1 -0.1)">
       <use xlink:href="#DejaVuSans-2212"/>
       <use x="83.789062" xlink:href="#DejaVuSans-31"/>
       <use x="147.412109" xlink:href="#DejaVuSans-30"/>
       <use x="211.035156" xlink:href="#DejaVuSans-30"/>
      </g>
     </g>
    </g>
    <g id="xtick_6">
     <g id="line2d_6">
      <g>
       <use style="stroke:#000000;stroke-width:0.8;" x="633.474341" xlink:href="#m968599f6fc" y="648"/>
      </g>
     </g>
     <g id="text_6">
      <!-- 0 -->
      <g transform="translate(630.293091 662.598438)scale(0.1 -0.1)">
       <use xlink:href="#DejaVuSans-30"/>
      </g>
     </g>
    </g>
   </g>
   <g id="matplotlib.axis_2">
    <g id="ytick_1">
     <g id="line2d_7">
      <defs>
       <path d="M 0 0 
L -3.5 0 
" id="m924b6bda9e" style="stroke:#000000;stroke-width:0.8;"/>
      </defs>
      <g>
       <use style="stroke:#000000;stroke-width:0.8;" x="108" xlink:href="#m924b6bda9e" y="621.818182"/>
      </g>
     </g>
     <g id="text_7">
      <!-- −400 -->
      <g transform="translate(73.532813 625.617401)scale(0.1 -0.1)">
       <use xlink:href="#DejaVuSans-2212"/>
       <use x="83.789062" xlink:href="#DejaVuSans-34"/>
       <use x="147.412109" xlink:href="#DejaVuSans-30"/>
       <use x="211.035156" xlink:href="#DejaVuSans-30"/>
      </g>
     </g>
    </g>
    <g id="ytick_2">
     <g id="line2d_8">
      <g>
       <use style="stroke:#000000;stroke-width:0.8;" x="108" xlink:href="#m924b6bda9e" y="517.090909"/>
      </g>
     </g>
     <g id="text_8">
      <!-- −200 -->
      <g transform="translate(73.532813 520.890128)scale(0.1 -0.1)">
       <use xlink:href="#DejaVuSans-2212"/>
       <use x="83.789062" xlink:href="#DejaVuSans-32"/>
       <use x="147.412109" xlink:href="#DejaVuSans-30"/>
       <use x="211.035156" xlink:href="#DejaVuSans-30"/>
      </g>
     </g>
    </g>
    <g id="ytick_3">
     <g id="line2d_9">
      <g>
       <use style="stroke:#000000;stroke-width:0.8;" x="108" xlink:href="#m924b6bda9e" y="412.363636"/>
      </g>
     </g>
     <g id="text_9">
      <!-- 0 -->
      <g transform="translate(94.6375 416.162855)scale(0.1 -0.1)">
       <use xlink:href="#DejaVuSans-30"/>
      </g>
     </g>
    </g>
    <g id="ytick_4">
     <g id="line2d_10">
      <g>
       <use style="stroke:#000000;stroke-width:0.8;" x="108" xlink:href="#m924b6bda9e" y="307.636364"/>
      </g>
     </g>
     <g id="text_10">
      <!-- 200 -->
      <g transform="translate(81.9125 311.435582)scale(0.1 -0.1)">
       <use xlink:href="#DejaVuSans-32"/>
       <use x="63.623047" xlink:href="#DejaVuSans-30"/>
       <use x="127.246094" xlink:href="#DejaVuSans-30"/>
      </g>
     </g>
    </g>
    <g id="ytick_5">
     <g id="line2d_11">
      <g>
       <use style="stroke:#000000;stroke-width:0.8;" x="108" xlink:href="#m924b6bda9e" y="202.909091"/>
      </g>
     </g>
     <g id="text_11">
      <!-- 400 -->
      <g transform="translate(81.9125 206.70831)scale(0.1 -0.1)">
       <use xlink:href="#DejaVuSans-34"/>
       <use x="63.623047" xlink:href="#DejaVuSans-30"/>
       <use x="127.246094" xlink:href="#DejaVuSans-30"/>
      </g>
     </g>
    </g>
    <g id="ytick_6">
     <g id="line2d_12">
      <g>
       <use style="stroke:#000000;stroke-width:0.8;" x="108" xlink:href="#m924b6bda9e" y="98.181818"/>
      </g>
     </g>
     <g id="text_12">
      <!-- 600 -->
      <defs>
       <path d="M 33.015625 40.375 
Q 26.375 40.375 22.484375 35.828125 
Q 18.609375 31.296875 18.609375 23.390625 
Q 18.609375 15.53125 22.484375 10.953125 
Q 26.375 6.390625 33.015625 6.390625 
Q 39.65625 6.390625 43.53125 10.953125 
Q 47.40625 15.53125 47.40625 23.390625 
Q 47.40625 31.296875 43.53125 35.828125 
Q 39.65625 40.375 33.015625 40.375 
z
M 52.59375 71.296875 
L 52.59375 62.3125 
Q 48.875 64.0625 45.09375 64.984375 
Q 41.3125 65.921875 37.59375 65.921875 
Q 27.828125 65.921875 22.671875 59.328125 
Q 17.53125 52.734375 16.796875 39.40625 
Q 19.671875 43.65625 24.015625 45.921875 
Q 28.375 48.1875 33.59375 48.1875 
Q 44.578125 48.1875 50.953125 41.515625 
Q 57.328125 34.859375 57.328125 23.390625 
Q 57.328125 12.15625 50.6875 5.359375 
Q 44.046875 -1.421875 33.015625 -1.421875 
Q 20.359375 -1.421875 13.671875 8.265625 
Q 6.984375 17.96875 6.984375 36.375 
Q 6.984375 53.65625 15.1875 63.9375 
Q 23.390625 74.21875 37.203125 74.21875 
Q 40.921875 74.21875 44.703125 73.484375 
Q 48.484375 72.75 52.59375 71.296875 
z
" id="DejaVuSans-36"/>
      </defs>
      <g transform="translate(81.9125 101.981037)scale(0.1 -0.1)">
       <use xlink:href="#DejaVuSans-36"/>
       <use x="63.623047" xlink:href="#DejaVuSans-30"/>
       <use x="127.246094" xlink:href="#DejaVuSans-30"/>
      </g>
     </g>
    </g>
   </g>
   <g id="line2d_13">
    <path clip-path="url(#p8ba3ef7cce)" d="M 380.842446 416.290909 
L 380.842446 414.327273 
L 380.842446 412.363636 
L 380.842446 410.4 
L 380.842446 408.436364 
" style="fill:none;stroke:#000000;stroke-linecap:square;stroke-width:8;"/>
   </g>
   <g id="line2d_14">
    <path clip-path="url(#p8ba3ef7cce)" d="M 380.842446 408.436364 
L 380.842446 405.902639 
L 380.842446 403.368915 
L 380.842446 400.835191 
L 380.842446 398.301466 
L 380.842446 395.767742 
L 380.842446 393.234018 
L 380.842446 390.700293 
L 380.842446 388.166569 
L 380.842446 385.632845 
L 380.842446 383.09912 
L 380.842446 380.565396 
L 380.842446 378.031672 
L 380.842446 375.497947 
L 380.842446 372.964223 
L 380.842446 370.430499 
L 380.842446 367.896774 
L 380.842446 365.36305 
L 380.842446 362.829326 
L 380.842446 360.295601 
L 380.842446 357.761877 
L 380.842446 355.228152 
L 380.842446 352.694428 
L 380.842446 350.160704 
L 380.842446 347.626979 
L 380.842446 345.093255 
L 380.842446 342.559531 
L 380.842446 340.025806 
L 380.842446 337.492082 
L 380.842446 334.958358 
L 380.842446 332.424633 
L 380.842446 329.890909 
" style="fill:none;stroke:#000000;stroke-linecap:square;stroke-width:2;"/>
   </g>
   <g id="line2d_15">
    <path clip-path="url(#p8ba3ef7cce)" d="M 380.842446 333.691496 
" style="fill:none;stroke:#ff0000;stroke-linecap:square;stroke-width:1.5;"/>
    <defs>
     <path d="M 0 2.5 
C 0.663008 2.5 1.29895 2.236584 1.767767 1.767767 
C 2.236584 1.29895 2.5 0.663008 2.5 0 
C 2.5 -0.663008 2.236584 -1.29895 1.767767 -1.767767 
C 1.29895 -2.236584 0.663008 -2.5 0 -2.5 
C -0.663008 -2.5 -1.29895 -2.236584 -1.767767 -1.767767 
C -2.236584 -1.29895 -2.5 -0.663008 -2.5 0 
C -2.5 0.663008 -2.236584 1.29895 -1.767767 1.767767 
C -1.29895 2.236584 -0.663008 2.5 0 2.5 
z
" id="m4a28fd58db" style="stroke:#ff0000;"/>
    </defs>
    <g clip-path="url(#p8ba3ef7cce)">
     <use style="fill:#ff0000;stroke:#ff0000;" x="380.842446" xlink:href="#m4a28fd58db" y="333.691496"/>
    </g>
   </g>
   <g id="line2d_16">
    <defs>
     <path d="M 0 2.5 
C 0.663008 2.5 1.29895 2.236584 1.767767 1.767767 
C 2.236584 1.29895 2.5 0.663008 2.5 0 
C 2.5 -0.663008 2.236584 -1.29895 1.767767 -1.767767 
C 1.29895 -2.236584 0.663008 -2.5 0 -2.5 
C -0.663008 -2.5 -1.29895 -2.236584 -1.767767 -1.767767 
C -2.236584 -1.29895 -2.5 -0.663008 -2.5 0 
C -2.5 0.663008 -2.236584 1.29895 -1.767767 1.767767 
C -1.29895 2.236584 -0.663008 2.5 0 2.5 
z
" id="m41c9ef3887" style="stroke:#000000;"/>
    </defs>
    <g clip-path="url(#p8ba3ef7cce)">
     <use style="stroke:#000000;" x="128.210552" xlink:href="#m41c9ef3887" y="936"/>
     <use style="stroke:#000000;" x="128.210552" xlink:href="#m41c9ef3887" y="883.636364"/>
     <use style="stroke:#000000;" x="128.210552" xlink:href="#m41c9ef3887" y="831.272727"/>
     <use style="stroke:#000000;" x="128.210552" xlink:href="#m41c9ef3887" y="778.909091"/>
     <use style="stroke:#000000;" x="128.210552" xlink:href="#m41c9ef3887" y="726.545455"/>
     <use style="stroke:#000000;" x="128.210552" xlink:href="#m41c9ef3887" y="674.181818"/>
     <use style="stroke:#000000;" x="128.210552" xlink:href="#m41c9ef3887" y="621.818182"/>
     <use style="stroke:#000000;" x="128.210552" xlink:href="#m41c9ef3887" y="569.454545"/>
     <use style="stroke:#000000;" x="128.210552" xlink:href="#m41c9ef3887" y="517.090909"/>
     <use style="stroke:#000000;" x="128.210552" xlink:href="#m41c9ef3887" y="464.727273"/>
     <use style="stroke:#000000;" x="128.210552" xlink:href="#m41c9ef3887" y="412.363636"/>
     <use style="stroke:#000000;" x="128.210552" xlink:href="#m41c9ef3887" y="360"/>
     <use style="stroke:#000000;" x="128.210552" xlink:href="#m41c9ef3887" y="307.636364"/>
     <use style="stroke:#000000;" x="128.210552" xlink:href="#m41c9ef3887" y="255.272727"/>
     <use style="stroke:#000000;" x="128.210552" xlink:href="#m41c9ef3887" y="202.909091"/>
     <use style="stroke:#000000;" x="128.210552" xlink:href="#m41c9ef3887" y="150.545455"/>
     <use style="stroke:#000000;" x="128.210552" xlink:href="#m41c9ef3887" y="98.181818"/>
     <use style="stroke:#000000;" x="128.210552" xlink:href="#m41c9ef3887" y="45.818182"/>
     <use style="stroke:#000000;" x="128.210552" xlink:href="#m41c9ef3887" y="-1"/>
     <use style="stroke:#000000;" x="144.171098" xlink:href="#m41c9ef3887" y="-1"/>
     <use style="stroke:#000000;" x="279.789688" xlink:href="#m41c9ef3887" y="936"/>
     <use style="stroke:#000000;" x="279.789688" xlink:href="#m41c9ef3887" y="883.636364"/>
     <use style="stroke:#000000;" x="279.789688" xlink:href="#m41c9ef3887" y="831.272727"/>
     <use style="stroke:#000000;" x="279.789688" xlink:href="#m41c9ef3887" y="778.909091"/>
     <use style="stroke:#000000;" x="279.789688" xlink:href="#m41c9ef3887" y="726.545455"/>
     <use style="stroke:#000000;" x="279.789688" xlink:href="#m41c9ef3887" y="674.181818"/>
     <use style="stroke:#000000;" x="279.789688" xlink:href="#m41c9ef3887" y="621.818182"/>
     <use style="stroke:#000000;" x="279.789688" xlink:href="#m41c9ef3887" y="569.454545"/>
     <use style="stroke:#000000;" x="279.789688" xlink:href="#m41c9ef3887" y="517.090909"/>
     <use style="stroke:#000000;" x="279.789688" xlink:href="#m41c9ef3887" y="464.727273"/>
     <use style="stroke:#000000;" x="279.789688" xlink:href="#m41c9ef3887" y="412.363636"/>
     <use style="stroke:#000000;" x="279.789688" xlink:href="#m41c9ef3887" y="360"/>
     <use style="stroke:#000000;" x="279.789688" xlink:href="#m41c9ef3887" y="307.636364"/>
     <use style="stroke:#000000;" x="279.789688" xlink:href="#m41c9ef3887" y="255.272727"/>
     <use style="stroke:#000000;" x="279.789688" xlink:href="#m41c9ef3887" y="202.909091"/>
     <use style="stroke:#000000;" x="279.789688" xlink:href="#m41c9ef3887" y="150.545455"/>
     <use style="stroke:#000000;" x="279.789688" xlink:href="#m41c9ef3887" y="98.181818"/>
     <use style="stroke:#000000;" x="279.789688" xlink:href="#m41c9ef3887" y="45.818182"/>
     <use style="stroke:#000000;" x="279.789688" xlink:href="#m41c9ef3887" y="-1"/>
     <use style="stroke:#000000;" x="295.750235" xlink:href="#m41c9ef3887" y="-1"/>
     <use style="stroke:#000000;" x="431.368825" xlink:href="#m41c9ef3887" y="936"/>
     <use style="stroke:#000000;" x="431.368825" xlink:href="#m41c9ef3887" y="883.636364"/>
     <use style="stroke:#000000;" x="431.368825" xlink:href="#m41c9ef3887" y="831.272727"/>
     <use style="stroke:#000000;" x="431.368825" xlink:href="#m41c9ef3887" y="778.909091"/>
     <use style="stroke:#000000;" x="431.368825" xlink:href="#m41c9ef3887" y="726.545455"/>
     <use style="stroke:#000000;" x="431.368825" xlink:href="#m41c9ef3887" y="674.181818"/>
     <use style="stroke:#000000;" x="431.368825" xlink:href="#m41c9ef3887" y="621.818182"/>
     <use style="stroke:#000000;" x="431.368825" xlink:href="#m41c9ef3887" y="569.454545"/>
     <use style="stroke:#000000;" x="431.368825" xlink:href="#m41c9ef3887" y="517.090909"/>
     <use style="stroke:#000000;" x="431.368825" xlink:href="#m41c9ef3887" y="464.727273"/>
     <use style="stroke:#000000;" x="431.368825" xlink:href="#m41c9ef3887" y="412.363636"/>
     <use style="stroke:#000000;" x="431.368825" xlink:href="#m41c9ef3887" y="360"/>
     <use style="stroke:#000000;" x="431.368825" xlink:href="#m41c9ef3887" y="307.636364"/>
     <use style="stroke:#000000;" x="431.368825" xlink:href="#m41c9ef3887" y="255.272727"/>
     <use style="stroke:#000000;" x="431.368825" xlink:href="#m41c9ef3887" y="202.909091"/>
     <use style="stroke:#000000;" x="431.368825" xlink:href="#m41c9ef3887" y="150.545455"/>
     <use style="stroke:#000000;" x="431.368825" xlink:href="#m41c9ef3887" y="98.181818"/>
     <use style="stroke:#000000;" x="431.368825" xlink:href="#m41c9ef3887" y="45.818182"/>
     <use style="stroke:#000000;" x="431.368825" xlink:href="#m41c9ef3887" y="-1"/>
     <use style="stroke:#000000;" x="447.329372" xlink:href="#m41c9ef3887" y="-1"/>
     <use style="stroke:#000000;" x="582.947962" xlink:href="#m41c9ef3887" y="936"/>
     <use style="stroke:#000000;" x="582.947962" xlink:href="#m41c9ef3887" y="883.636364"/>
     <use style="stroke:#000000;" x="582.947962" xlink:href="#m41c9ef3887" y="831.272727"/>
     <use style="stroke:#000000;" x="582.947962" xlink:href="#m41c9ef3887" y="778.909091"/>
     <use style="stroke:#000000;" x="582.947962" xlink:href="#m41c9ef3887" y="726.545455"/>
     <use style="stroke:#000000;" x="582.947962" xlink:href="#m41c9ef3887" y="674.181818"/>
     <use style="stroke:#000000;" x="582.947962" xlink:href="#m41c9ef3887" y="621.818182"/>
     <use style="stroke:#000000;" x="582.947962" xlink:href="#m41c9ef3887" y="569.454545"/>
     <use style="stroke:#000000;" x="582.947962" xlink:href="#m41c9ef3887" y="517.090909"/>
     <use style="stroke:#000000;" x="582.947962" xlink:href="#m41c9ef3887" y="464.727273"/>
     <use style="stroke:#000000;" x="582.947962" xlink:href="#m41c9ef3887" y="412.363636"/>
     <use style="stroke:#000000;" x="582.947962" xlink:href="#m41c9ef3887" y="360"/>
     <use style="stroke:#000000;" x="582.947962" xlink:href="#m41c9ef3887" y="307.636364"/>
     <use style="stroke:#000000;" x="582.947962" xlink:href="#m41c9ef3887" y="255.272727"/>
     <use style="stroke:#000000;" x="582.947962" xlink:href="#m41c9ef3887" y="202.909091"/>
     <use style="stroke:#000000;" x="582.947962" xlink:href="#m41c9ef3887" y="150.545455"/>
     <use style="stroke:#000000;" x="582.947962" xlink:href="#m41c9ef3887" y="98.181818"/>
     <use style="stroke:#000000;" x="582.947962" xlink:href="#m41c9ef3887" y="45.818182"/>
     <use style="stroke:#000000;" x="582.947962" xlink:href="#m41c9ef3887" y="-1"/>
    </g>
   </g>
   <g id="line2d_17">
    <path clip-path="url(#p8ba3ef7cce)" d="M 0 0 
" style="fill:none;stroke:#0000ff;stroke-linecap:square;stroke-width:2;"/>
   </g>
   <g id="line2d_18">
    <path clip-path="url(#p8ba3ef7cce)" d="M 0 0 
" style="fill:none;stroke:#0000ff;stroke-linecap:square;stroke-width:2;"/>
   </g>
   <g id="line2d_19">
    <path clip-path="url(#p8ba3ef7cce)" d="M 0 0 
" style="fill:none;stroke:#0000ff;stroke-linecap:square;stroke-width:2;"/>
   </g>
   <g id="line2d_20">
    <path clip-path="url(#p8ba3ef7cce)" d="M 0 0 
" style="fill:none;stroke:#0000ff;stroke-linecap:square;stroke-width:2;"/>
   </g>
   <g id="line2d_21">
    <path clip-path="url(#p8ba3ef7cce)" d="M 0 0 
" style="fill:none;stroke:#0000ff;stroke-linecap:square;stroke-width:2;"/>
   </g>
   <g id="line2d_22">
    <path clip-path="url(#p8ba3ef7cce)" d="M 130.231607 674.181818 
L 160.585329 674.181818 
L 160.850592 672.139406 
L 161.077961 671.724168 
L 161.267435 671.766268 
L 161.646383 672.184005 
L 162.555858 673.163861 
L 163.313753 673.62698 
L 164.261123 673.924947 
L 165.625335 674.097843 
L 168.35376 674.172939 
L 184.98957 674.181818 
L 190.863261 674.181818 
L 190.863261 674.181818 
" style="fill:none;stroke:#0000ff;stroke-linecap:square;stroke-width:2;"/>
   </g>
   <g id="line2d_23">
    <path clip-path="url(#p8ba3ef7cce)" d="M 130.231607 621.818182 
L 160.585329 621.818182 
L 160.850592 619.139323 
L 161.077961 618.594643 
L 161.22954 618.618329 
L 161.532698 619.010319 
L 162.555858 620.482984 
L 163.237964 621.044495 
L 164.033754 621.412589 
L 165.094808 621.647908 
L 166.837968 621.77757 
L 171.385342 621.817225 
L 190.863261 621.818182 
L 190.863261 621.818182 
" style="fill:none;stroke:#0000ff;stroke-linecap:square;stroke-width:2;"/>
   </g>
   <g id="line2d_24">
    <path clip-path="url(#p8ba3ef7cce)" d="M 130.231607 569.454545 
L 160.585329 569.454545 
L 160.850592 565.892056 
L 161.077961 565.167698 
L 161.22954 565.199193 
L 161.494804 565.640165 
L 162.593752 567.731318 
L 163.237964 568.42565 
L 163.957965 568.880806 
L 164.86744 569.181701 
L 166.193757 569.362759 
L 168.770602 569.443561 
L 182.450619 569.454545 
L 190.863261 569.454545 
L 190.863261 569.454545 
" style="fill:none;stroke:#0000ff;stroke-linecap:square;stroke-width:2;"/>
   </g>
   <g id="line2d_25">
    <path clip-path="url(#p8ba3ef7cce)" d="M 130.231607 517.090909 
L 160.585329 517.090909 
L 160.850592 512.427116 
L 161.077961 511.479029 
L 161.191645 511.480187 
L 161.381119 511.80542 
L 162.9727 515.423439 
L 163.616912 516.09982 
L 164.336913 516.539573 
L 165.246387 516.829151 
L 166.6106 517.005651 
L 169.301129 517.081624 
L 185.254833 517.090909 
L 190.863261 517.090909 
L 190.863261 517.090909 
" style="fill:none;stroke:#0000ff;stroke-linecap:square;stroke-width:2;"/>
   </g>
   <g id="line2d_26">
    <path clip-path="url(#p8ba3ef7cce)" d="M 130.231607 464.727273 
L 160.585329 464.727273 
L 160.850592 459.26206 
L 161.077961 458.1521 
L 161.191645 458.153662 
L 161.381119 458.534887 
L 162.9727 462.773761 
L 163.616912 463.566171 
L 164.299018 464.061054 
L 165.132703 464.390628 
L 166.307441 464.599079 
L 168.391654 464.704249 
L 175.553769 464.72721 
L 190.863261 464.727273 
L 190.863261 464.727273 
" style="fill:none;stroke:#0000ff;stroke-linecap:square;stroke-width:2;"/>
   </g>
   <g id="line2d_27">
    <path clip-path="url(#p8ba3ef7cce)" d="M 130.231607 412.363636 
L 160.585329 412.363636 
L 160.850592 408.088503 
L 161.077961 407.223145 
L 161.22954 407.261852 
L 161.494804 407.791215 
L 162.593752 410.298179 
L 163.237964 411.130413 
L 163.92007 411.654408 
L 164.753755 412.004689 
L 165.890599 412.222466 
L 167.823233 412.334889 
L 173.810609 412.36343 
L 190.863261 412.363636 
L 190.863261 412.363636 
" style="fill:none;stroke:#0000ff;stroke-linecap:square;stroke-width:2;"/>
   </g>
   <g id="line2d_28">
    <path clip-path="url(#p8ba3ef7cce)" d="M 130.231607 360 
L 160.699013 360.09939 
L 161.040066 360.225067 
L 161.797962 360.169042 
L 163.92007 360.031807 
L 169.490603 360.000326 
L 190.863261 360 
L 190.863261 360 
" style="fill:none;stroke:#0000ff;stroke-linecap:square;stroke-width:2;"/>
   </g>
   <g id="line2d_29">
    <path clip-path="url(#p8ba3ef7cce)" d="M 130.231607 307.636364 
L 160.585329 307.636364 
L 160.850592 312.147728 
L 161.077961 313.065929 
L 161.191645 313.065024 
L 161.381119 312.750531 
L 162.9727 309.249856 
L 163.616912 308.595371 
L 164.374807 308.153588 
L 165.322177 307.874371 
L 166.762179 307.709182 
L 169.755867 307.642539 
L 190.863261 307.636364 
L 190.863261 307.636364 
" style="fill:none;stroke:#0000ff;stroke-linecap:square;stroke-width:2;"/>
   </g>
   <g id="line2d_30">
    <path clip-path="url(#p8ba3ef7cce)" d="M 130.231607 255.272727 
L 160.585329 255.272727 
L 160.850592 260.741332 
L 161.077961 261.851403 
L 161.191645 261.849727 
L 161.381119 261.468208 
L 162.9727 257.227178 
L 163.616912 256.434387 
L 164.299018 255.939266 
L 165.132703 255.609533 
L 166.307441 255.400983 
L 168.391654 255.295762 
L 175.553769 255.27279 
L 190.863261 255.272727 
L 190.863261 255.272727 
" style="fill:none;stroke:#0000ff;stroke-linecap:square;stroke-width:2;"/>
   </g>
   <g id="line2d_31">
    <path clip-path="url(#p8ba3ef7cce)" d="M 130.231607 202.909091 
L 160.585329 202.909091 
L 160.850592 207.487118 
L 161.077961 208.415788 
L 161.191645 208.414264 
L 161.381119 208.094814 
L 162.9727 204.544959 
L 163.616912 203.881395 
L 164.336913 203.449976 
L 165.284282 203.158022 
L 166.686389 202.987673 
L 169.528498 202.916643 
L 188.854838 202.909091 
L 190.863261 202.909091 
L 190.863261 202.909091 
" style="fill:none;stroke:#0000ff;stroke-linecap:square;stroke-width:2;"/>
   </g>
   <g id="line2d_32">
    <path clip-path="url(#p8ba3ef7cce)" d="M 130.231607 150.545455 
L 160.585329 150.545455 
L 160.850592 154.024793 
L 161.077961 154.730504 
L 161.22954 154.699337 
L 161.494804 154.268578 
L 162.593752 152.227352 
L 163.237964 151.549669 
L 163.957965 151.10543 
L 164.86744 150.811753 
L 166.193757 150.635038 
L 168.808497 150.555846 
L 183.208515 150.545455 
L 190.863261 150.545455 
L 190.863261 150.545455 
" style="fill:none;stroke:#0000ff;stroke-linecap:square;stroke-width:2;"/>
   </g>
   <g id="line2d_33">
    <path clip-path="url(#p8ba3ef7cce)" d="M 130.231607 98.181818 
L 160.585329 98.181818 
L 160.850592 100.798285 
L 161.077961 101.329002 
L 161.22954 101.305569 
L 161.532698 100.922667 
L 162.555858 99.485081 
L 163.237964 98.936997 
L 164.071649 98.565665 
L 165.170598 98.337999 
L 166.989547 98.216806 
L 172.105343 98.182334 
L 190.863261 98.181818 
L 190.863261 98.181818 
" style="fill:none;stroke:#0000ff;stroke-linecap:square;stroke-width:2;"/>
   </g>
   <g id="line2d_34">
    <path clip-path="url(#p8ba3ef7cce)" d="M 130.231607 45.818182 
L 160.585329 45.818182 
L 160.850592 47.816153 
L 161.077961 48.221451 
L 161.267435 48.180029 
L 161.684278 47.724209 
L 162.555858 46.813395 
L 163.313753 46.360621 
L 164.261123 46.069313 
L 165.66323 45.897763 
L 168.505339 45.825843 
L 187.60431 45.818182 
L 190.863261 45.818182 
L 190.863261 45.818182 
" style="fill:none;stroke:#0000ff;stroke-linecap:square;stroke-width:2;"/>
   </g>
   <g id="line2d_35">
    <path clip-path="url(#p8ba3ef7cce)" d="M 0 0 
" style="fill:none;stroke:#0000ff;stroke-linecap:square;stroke-width:2;"/>
   </g>
   <g id="line2d_36">
    <path clip-path="url(#p8ba3ef7cce)" d="M 0 0 
" style="fill:none;stroke:#0000ff;stroke-linecap:square;stroke-width:2;"/>
   </g>
   <g id="line2d_37">
    <path clip-path="url(#p8ba3ef7cce)" d="M 0 0 
" style="fill:none;stroke:#0000ff;stroke-linecap:square;stroke-width:2;"/>
   </g>
   <g id="line2d_38">
    <path clip-path="url(#p8ba3ef7cce)" d="M 0 0 
" style="fill:none;stroke:#0000ff;stroke-linecap:square;stroke-width:2;"/>
   </g>
   <g id="line2d_39">
    <path clip-path="url(#p8ba3ef7cce)" d="M 0 0 
" style="fill:none;stroke:#0000ff;stroke-linecap:square;stroke-width:2;"/>
   </g>
   <g id="line2d_40">
    <path clip-path="url(#p8ba3ef7cce)" d="M 0 0 
" style="fill:none;stroke:#0000ff;stroke-linecap:square;stroke-width:2;"/>
   </g>
   <g id="line2d_41">
    <path clip-path="url(#p8ba3ef7cce)" d="M 0 0 
" style="fill:none;stroke:#0000ff;stroke-linecap:square;stroke-width:2;"/>
   </g>
   <g id="line2d_42">
    <path clip-path="url(#p8ba3ef7cce)" d="M 0 0 
" style="fill:none;stroke:#0000ff;stroke-linecap:square;stroke-width:2;"/>
   </g>
   <g id="line2d_43">
    <path clip-path="url(#p8ba3ef7cce)" d="M 281.810744 674.181818 
L 312.164466 674.181818 
L 312.429729 671.670697 
L 312.657098 671.160019 
L 312.846572 671.211743 
L 313.22552 671.725352 
L 314.0971 672.892179 
L 314.817101 673.456537 
L 315.650786 673.813167 
L 316.787629 674.036413 
L 318.720263 674.152159 
L 324.55606 674.181577 
L 342.442398 674.181818 
L 342.442398 674.181818 
" style="fill:none;stroke:#0000ff;stroke-linecap:square;stroke-width:2;"/>
   </g>
   <g id="line2d_44">
    <path clip-path="url(#p8ba3ef7cce)" d="M 281.810744 621.818182 
L 312.164466 621.818182 
L 312.429729 618.240653 
L 312.657098 617.512907 
L 312.808677 617.544459 
L 313.073941 617.987277 
L 314.172889 620.08747 
L 314.817101 620.784817 
L 315.537102 621.24195 
L 316.446576 621.544152 
L 317.772894 621.725997 
L 320.349739 621.80715 
L 333.953967 621.818182 
L 342.442398 621.818182 
L 342.442398 621.818182 
" style="fill:none;stroke:#0000ff;stroke-linecap:square;stroke-width:2;"/>
   </g>
   <g id="line2d_45">
    <path clip-path="url(#p8ba3ef7cce)" d="M 281.810744 569.454545 
L 312.164466 569.454545 
L 312.429729 563.982034 
L 312.657098 562.868391 
L 312.770782 562.869523 
L 312.960256 563.251037 
L 314.551837 567.497384 
L 315.196048 568.291272 
L 315.878155 568.787079 
L 316.71184 569.117271 
L 317.886578 569.326112 
L 319.970791 569.431479 
L 327.132905 569.454483 
L 342.442398 569.454545 
L 342.442398 569.454545 
" style="fill:none;stroke:#0000ff;stroke-linecap:square;stroke-width:2;"/>
   </g>
   <g id="line2d_46">
    <path clip-path="url(#p8ba3ef7cce)" d="M 281.810744 517.090909 
L 312.164466 517.090909 
L 312.429729 507.840629 
L 312.657098 505.957227 
L 312.732887 505.914435 
L 312.770782 505.958948 
L 312.960256 506.603728 
L 314.551837 513.782216 
L 315.158154 515.062921 
L 315.76447 515.852775 
L 316.446576 516.382188 
L 317.280262 516.733402 
L 318.417105 516.95062 
L 320.387634 517.063254 
L 326.526589 517.090734 
L 342.442398 517.090909 
L 342.442398 517.090909 
" style="fill:none;stroke:#0000ff;stroke-linecap:square;stroke-width:2;"/>
   </g>
   <g id="line2d_47">
    <path clip-path="url(#p8ba3ef7cce)" d="M 281.810744 464.727273 
L 312.164466 464.727273 
L 312.429729 447.088573 
L 312.657098 443.49547 
L 312.732887 443.413613 
L 312.770782 443.498404 
L 312.922361 444.403673 
L 313.414994 449.533809 
L 314.0971 455.664501 
L 314.665521 458.968205 
L 315.233943 461.090453 
L 315.802365 462.43796 
L 316.408682 463.333055 
L 317.052893 463.905427 
L 317.810789 464.28655 
L 318.833948 464.537482 
L 320.463423 464.677727 
L 324.404481 464.725351 
L 342.442398 464.727273 
L 342.442398 464.727273 
" style="fill:none;stroke:#0000ff;stroke-linecap:square;stroke-width:2;"/>
   </g>
   <g id="line2d_48">
    <path clip-path="url(#p8ba3ef7cce)" d="M 281.810744 412.363636 
L 312.164466 412.363636 
L 312.429729 383.219424 
L 312.657098 377.299079 
L 312.694993 377.15569 
L 312.732887 377.166226 
L 312.846572 377.901119 
L 313.14973 382.494119 
L 314.059205 396.947534 
L 314.627627 402.56086 
L 315.196048 406.171493 
L 315.76447 408.465147 
L 316.332892 409.914279 
L 316.939209 410.873947 
L 317.58342 411.486313 
L 318.341316 411.893463 
L 319.32658 412.154831 
L 320.880266 412.305626 
L 324.404481 412.360464 
L 342.442398 412.363636 
L 342.442398 412.363636 
" style="fill:none;stroke:#0000ff;stroke-linecap:square;stroke-width:2;"/>
   </g>
   <g id="line2d_49">
    <path clip-path="url(#p8ba3ef7cce)" d="M 281.810744 360 
L 312.240255 360.061155 
L 312.505519 360.492196 
L 312.808677 360.570953 
L 313.490783 360.401191 
L 314.779206 360.147168 
L 316.71184 360.030475 
L 322.433952 360.000274 
L 342.442398 360 
L 342.442398 360 
" style="fill:none;stroke:#0000ff;stroke-linecap:square;stroke-width:2;"/>
   </g>
   <g id="line2d_50">
    <path clip-path="url(#p8ba3ef7cce)" d="M 281.810744 307.636364 
L 312.164466 307.636364 
L 312.429729 337.993181 
L 312.657098 344.146708 
L 312.694993 344.295001 
L 312.732887 344.283179 
L 312.846572 343.516182 
L 313.14973 338.732222 
L 314.059205 323.68474 
L 314.627627 317.841151 
L 315.196048 314.082435 
L 315.76447 311.694719 
L 316.332892 310.186161 
L 316.939209 309.187139 
L 317.58342 308.549662 
L 318.341316 308.125817 
L 319.32658 307.853731 
L 320.842371 307.698669 
L 324.177112 307.640347 
L 342.442398 307.636364 
L 342.442398 307.636364 
" style="fill:none;stroke:#0000ff;stroke-linecap:square;stroke-width:2;"/>
   </g>
   <g id="line2d_51">
    <path clip-path="url(#p8ba3ef7cce)" d="M 281.810744 255.272727 
L 312.164466 255.272727 
L 312.429729 271.891832 
L 312.657098 275.257342 
L 312.732887 275.331576 
L 312.770782 275.250685 
L 312.922361 274.395841 
L 313.414994 269.566124 
L 314.0971 263.798187 
L 314.665521 260.690299 
L 315.233943 258.693879 
L 315.802365 257.426275 
L 316.408682 256.584261 
L 317.090788 256.022138 
L 317.886578 255.662245 
L 318.985527 255.430302 
L 320.804477 255.30791 
L 325.882378 255.273262 
L 342.442398 255.272727 
L 342.442398 255.272727 
" style="fill:none;stroke:#0000ff;stroke-linecap:square;stroke-width:2;"/>
   </g>
   <g id="line2d_52">
    <path clip-path="url(#p8ba3ef7cce)" d="M 281.810744 202.909091 
L 312.164466 202.909091 
L 312.429729 211.684966 
L 312.657098 213.463033 
L 312.732887 213.50236 
L 312.770782 213.459689 
L 312.960256 212.847101 
L 314.551837 206.04396 
L 315.158154 204.830529 
L 315.76447 204.082171 
L 316.446576 203.580573 
L 317.280262 203.247813 
L 318.455 203.037924 
L 320.501318 202.932948 
L 327.436064 202.909169 
L 342.442398 202.909091 
L 342.442398 202.909091 
" style="fill:none;stroke:#0000ff;stroke-linecap:square;stroke-width:2;"/>
   </g>
   <g id="line2d_53">
    <path clip-path="url(#p8ba3ef7cce)" d="M 281.810744 150.545455 
L 312.164466 150.545455 
L 312.429729 155.796467 
L 312.657098 156.860825 
L 312.770782 156.858914 
L 312.960256 156.49242 
L 314.551837 152.421408 
L 315.196048 151.660457 
L 315.916049 151.165721 
L 316.787629 150.849241 
L 318.038157 150.65412 
L 320.349739 150.561632 
L 330.012909 150.54546 
L 342.442398 150.545455 
L 342.442398 150.545455 
" style="fill:none;stroke:#0000ff;stroke-linecap:square;stroke-width:2;"/>
   </g>
   <g id="line2d_54">
    <path clip-path="url(#p8ba3ef7cce)" d="M 281.810744 98.181818 
L 312.164466 98.181818 
L 312.429729 101.641894 
L 312.657098 102.343455 
L 312.808677 102.312404 
L 313.073941 101.884019 
L 314.172889 99.85425 
L 314.817101 99.18038 
L 315.537102 98.738642 
L 316.446576 98.446618 
L 317.810789 98.268163 
L 320.501318 98.191226 
L 336.265548 98.181818 
L 342.442398 98.181818 
L 342.442398 98.181818 
" style="fill:none;stroke:#0000ff;stroke-linecap:square;stroke-width:2;"/>
   </g>
   <g id="line2d_55">
    <path clip-path="url(#p8ba3ef7cce)" d="M 281.810744 45.818182 
L 312.164466 45.818182 
L 312.429729 48.260263 
L 312.657098 48.75553 
L 312.846572 48.70487 
L 313.22552 48.205449 
L 314.0971 47.071439 
L 314.817101 46.522998 
L 315.650786 46.17643 
L 316.787629 45.959484 
L 318.758158 45.846118 
L 324.859218 45.818364 
L 342.442398 45.818182 
L 342.442398 45.818182 
" style="fill:none;stroke:#0000ff;stroke-linecap:square;stroke-width:2;"/>
   </g>
   <g id="line2d_56">
    <path clip-path="url(#p8ba3ef7cce)" d="M 0 0 
" style="fill:none;stroke:#0000ff;stroke-linecap:square;stroke-width:2;"/>
   </g>
   <g id="line2d_57">
    <path clip-path="url(#p8ba3ef7cce)" d="M 0 0 
" style="fill:none;stroke:#0000ff;stroke-linecap:square;stroke-width:2;"/>
   </g>
   <g id="line2d_58">
    <path clip-path="url(#p8ba3ef7cce)" d="M 0 0 
" style="fill:none;stroke:#0000ff;stroke-linecap:square;stroke-width:2;"/>
   </g>
   <g id="line2d_59">
    <path clip-path="url(#p8ba3ef7cce)" d="M 0 0 
" style="fill:none;stroke:#0000ff;stroke-linecap:square;stroke-width:2;"/>
   </g>
   <g id="line2d_60">
    <path clip-path="url(#p8ba3ef7cce)" d="M 0 0 
" style="fill:none;stroke:#0000ff;stroke-linecap:square;stroke-width:2;"/>
   </g>
   <g id="line2d_61">
    <path clip-path="url(#p8ba3ef7cce)" d="M 0 0 
" style="fill:none;stroke:#0000ff;stroke-linecap:square;stroke-width:2;"/>
   </g>
   <g id="line2d_62">
    <path clip-path="url(#p8ba3ef7cce)" d="M 0 0 
" style="fill:none;stroke:#0000ff;stroke-linecap:square;stroke-width:2;"/>
   </g>
   <g id="line2d_63">
    <path clip-path="url(#p8ba3ef7cce)" d="M 0 0 
" style="fill:none;stroke:#0000ff;stroke-linecap:square;stroke-width:2;"/>
   </g>
   <g id="line2d_64">
    <path clip-path="url(#p8ba3ef7cce)" d="M 433.38988 674.181818 
L 463.743603 674.181818 
L 464.008866 671.588799 
L 464.236235 671.06144 
L 464.387814 671.084336 
L 464.690972 671.463761 
L 465.714131 672.889317 
L 466.396237 673.432872 
L 467.229923 673.801139 
L 468.328871 674.026926 
L 470.185716 674.148185 
L 475.453091 674.181381 
L 494.021535 674.181818 
L 494.021535 674.181818 
" style="fill:none;stroke:#0000ff;stroke-linecap:square;stroke-width:2;"/>
   </g>
   <g id="line2d_65">
    <path clip-path="url(#p8ba3ef7cce)" d="M 433.38988 621.818182 
L 463.743603 621.818182 
L 464.008866 618.069947 
L 464.236235 617.307412 
L 464.387814 617.340453 
L 464.653077 617.804398 
L 465.752026 620.004845 
L 466.396237 620.735484 
L 467.116238 621.21444 
L 467.987818 621.522015 
L 469.238346 621.712126 
L 471.587823 621.80287 
L 481.743625 621.818178 
L 494.021535 621.818182 
L 494.021535 621.818182 
" style="fill:none;stroke:#0000ff;stroke-linecap:square;stroke-width:2;"/>
   </g>
   <g id="line2d_66">
    <path clip-path="url(#p8ba3ef7cce)" d="M 433.38988 569.454545 
L 463.743603 569.454545 
L 464.008866 563.56226 
L 464.236235 562.362988 
L 464.349919 562.364168 
L 464.539393 562.774925 
L 466.130974 567.347161 
L 466.737291 568.162872 
L 467.419397 568.713259 
L 468.215187 569.068089 
L 469.314136 569.297883 
L 471.133085 569.419525 
L 476.248881 569.45403 
L 494.021535 569.454545 
L 494.021535 569.454545 
" style="fill:none;stroke:#0000ff;stroke-linecap:square;stroke-width:2;"/>
   </g>
   <g id="line2d_67">
    <path clip-path="url(#p8ba3ef7cce)" d="M 433.38988 517.090909 
L 463.743603 517.090909 
L 464.008866 506.502973 
L 464.236235 504.346328 
L 464.312024 504.297218 
L 464.349919 504.348124 
L 464.539393 505.086053 
L 466.130974 513.303335 
L 466.737291 514.769401 
L 467.343607 515.673574 
L 467.987818 516.254024 
L 468.745714 516.64158 
L 469.768873 516.897249 
L 471.360454 517.038724 
L 475.149933 517.088615 
L 494.021535 517.090909 
L 494.021535 517.090909 
" style="fill:none;stroke:#0000ff;stroke-linecap:square;stroke-width:2;"/>
   </g>
   <g id="line2d_68">
    <path clip-path="url(#p8ba3ef7cce)" d="M 433.38988 464.727273 
L 463.743603 464.727273 
L 464.008866 440.47193 
L 464.236235 435.524232 
L 464.312024 435.410689 
L 464.349919 435.526946 
L 464.501498 436.771155 
L 464.99413 443.827026 
L 465.676237 452.260308 
L 466.244658 456.804943 
L 466.81308 459.72436 
L 467.381502 461.578027 
L 467.949924 462.748869 
L 468.55624 463.524108 
L 469.238346 464.040475 
L 470.072032 464.381502 
L 471.24677 464.595929 
L 473.293088 464.702967 
L 480.152044 464.727188 
L 494.021535 464.727273 
L 494.021535 464.727273 
" style="fill:none;stroke:#0000ff;stroke-linecap:square;stroke-width:2;"/>
   </g>
   <g id="line2d_69">
    <path clip-path="url(#p8ba3ef7cce)" d="M 433.38988 412.363636 
L 463.743603 412.363636 
L 464.008866 339.610813 
L 464.236235 324.768473 
L 464.27413 324.405408 
L 464.312024 324.427625 
L 464.425709 326.254779 
L 464.690972 336.044164 
L 465.676237 374.968219 
L 466.244658 388.600123 
L 466.81308 397.357092 
L 467.381502 402.917281 
L 467.949924 406.429291 
L 468.518345 408.640603 
L 469.086767 410.030009 
L 469.693084 410.946661 
L 470.337295 411.530047 
L 471.095191 411.917236 
L 472.11835 412.171581 
L 473.747826 412.313527 
L 477.650988 412.361632 
L 494.021535 412.363636 
L 494.021535 412.363636 
" style="fill:none;stroke:#0000ff;stroke-linecap:square;stroke-width:2;"/>
   </g>
   <g id="line2d_70">
    <path clip-path="url(#p8ba3ef7cce)" d="M 433.38988 360 
L 463.743603 360 
L 463.970971 351.674089 
L 464.19834 349.562106 
L 464.312024 349.482267 
L 464.463603 349.869905 
L 464.880446 351.965238 
L 465.600447 355.303419 
L 466.206764 357.101895 
L 466.81308 358.225004 
L 467.457291 358.949792 
L 468.177292 359.417486 
L 469.086767 359.724016 
L 470.413085 359.907386 
L 472.952035 359.988578 
L 486.13942 360 
L 494.021535 360 
L 494.021535 360 
" style="fill:none;stroke:#0000ff;stroke-linecap:square;stroke-width:2;"/>
   </g>
   <g id="line2d_71">
    <path clip-path="url(#p8ba3ef7cce)" d="M 433.38988 307.636364 
L 463.743603 307.636364 
L 464.008866 378.988671 
L 464.236235 393.405269 
L 464.27413 393.750026 
L 464.312024 393.71921 
L 464.425709 391.910961 
L 464.728867 380.666983 
L 465.638342 345.324651 
L 466.206764 331.601323 
L 466.775185 322.774305 
L 467.343607 317.166984 
L 467.912029 313.624288 
L 468.480451 311.393281 
L 469.048872 309.991342 
L 469.655189 309.06635 
L 470.2994 308.477625 
L 471.057296 308.08688 
L 472.080455 307.830191 
L 473.672036 307.688541 
L 477.461514 307.638656 
L 494.021535 307.636364 
L 494.021535 307.636364 
" style="fill:none;stroke:#0000ff;stroke-linecap:square;stroke-width:2;"/>
   </g>
   <g id="line2d_72">
    <path clip-path="url(#p8ba3ef7cce)" d="M 433.38988 255.272727 
L 463.743603 255.272727 
L 464.008866 277.125043 
L 464.236235 281.546769 
L 464.312024 281.643862 
L 464.349919 281.537321 
L 464.501498 280.412954 
L 464.99413 274.063093 
L 465.676237 266.480379 
L 466.244658 262.394709 
L 466.81308 259.770198 
L 467.381502 258.103796 
L 467.987818 256.996877 
L 468.63203 256.289056 
L 469.352031 255.835005 
L 470.261505 255.538647 
L 471.587823 255.361864 
L 474.202563 255.283049 
L 488.678371 255.272727 
L 494.021535 255.272727 
L 494.021535 255.272727 
" style="fill:none;stroke:#0000ff;stroke-linecap:square;stroke-width:2;"/>
   </g>
   <g id="line2d_73">
    <path clip-path="url(#p8ba3ef7cce)" d="M 433.38988 202.909091 
L 463.743603 202.909091 
L 464.008866 212.843472 
L 464.236235 214.855697 
L 464.312024 214.900134 
L 464.349919 214.851802 
L 464.539393 214.15829 
L 466.130974 206.457527 
L 466.737291 205.084014 
L 467.343607 204.236929 
L 468.025713 203.669159 
L 468.821504 203.304628 
L 469.920452 203.069233 
L 471.739402 202.944864 
L 476.779408 202.909652 
L 494.021535 202.909091 
L 494.021535 202.909091 
" style="fill:none;stroke:#0000ff;stroke-linecap:square;stroke-width:2;"/>
   </g>
   <g id="line2d_74">
    <path clip-path="url(#p8ba3ef7cce)" d="M 433.38988 150.545455 
L 463.743603 150.545455 
L 464.008866 156.176615 
L 464.236235 157.317882 
L 464.349919 157.315805 
L 464.539393 156.922764 
L 466.130974 152.55715 
L 466.775185 151.741137 
L 467.457291 151.231515 
L 468.290977 150.892124 
L 469.465715 150.677466 
L 471.512033 150.569916 
L 478.333094 150.545543 
L 494.021535 150.545455 
L 494.021535 150.545455 
" style="fill:none;stroke:#0000ff;stroke-linecap:square;stroke-width:2;"/>
   </g>
   <g id="line2d_75">
    <path clip-path="url(#p8ba3ef7cce)" d="M 433.38988 98.181818 
L 463.743603 98.181818 
L 464.008866 101.800224 
L 464.236235 102.533839 
L 464.387814 102.501355 
L 464.653077 102.053366 
L 465.752026 99.930747 
L 466.396237 99.226054 
L 467.116238 98.764111 
L 468.025713 98.45873 
L 469.352031 98.274972 
L 471.890981 98.19332 
L 485.002577 98.181818 
L 494.021535 98.181818 
L 494.021535 98.181818 
" style="fill:none;stroke:#0000ff;stroke-linecap:square;stroke-width:2;"/>
   </g>
   <g id="line2d_76">
    <path clip-path="url(#p8ba3ef7cce)" d="M 433.38988 45.818182 
L 463.743603 45.818182 
L 464.008866 48.337339 
L 464.236235 48.848218 
L 464.425709 48.795954 
L 464.804657 48.280771 
L 465.676237 47.11098 
L 466.358343 46.567807 
L 467.192028 46.199327 
L 468.290977 45.973294 
L 470.147821 45.851867 
L 475.415196 45.81862 
L 494.021535 45.818182 
L 494.021535 45.818182 
" style="fill:none;stroke:#0000ff;stroke-linecap:square;stroke-width:2;"/>
   </g>
   <g id="line2d_77">
    <path clip-path="url(#p8ba3ef7cce)" d="M 0 0 
" style="fill:none;stroke:#0000ff;stroke-linecap:square;stroke-width:2;"/>
   </g>
   <g id="line2d_78">
    <path clip-path="url(#p8ba3ef7cce)" d="M 0 0 
" style="fill:none;stroke:#0000ff;stroke-linecap:square;stroke-width:2;"/>
   </g>
   <g id="line2d_79">
    <path clip-path="url(#p8ba3ef7cce)" d="M 0 0 
" style="fill:none;stroke:#0000ff;stroke-linecap:square;stroke-width:2;"/>
   </g>
   <g id="line2d_80">
    <path clip-path="url(#p8ba3ef7cce)" d="M 0 0 
" style="fill:none;stroke:#0000ff;stroke-linecap:square;stroke-width:2;"/>
   </g>
   <g id="line2d_81">
    <path clip-path="url(#p8ba3ef7cce)" d="M 0 0 
" style="fill:none;stroke:#0000ff;stroke-linecap:square;stroke-width:2;"/>
   </g>
   <g id="line2d_82">
    <path clip-path="url(#p8ba3ef7cce)" d="M 0 0 
" style="fill:none;stroke:#0000ff;stroke-linecap:square;stroke-width:2;"/>
   </g>
   <g id="line2d_83">
    <path clip-path="url(#p8ba3ef7cce)" d="M 0 0 
" style="fill:none;stroke:#0000ff;stroke-linecap:square;stroke-width:2;"/>
   </g>
   <g id="line2d_84">
    <path clip-path="url(#p8ba3ef7cce)" d="M 0 0 
" style="fill:none;stroke:#0000ff;stroke-linecap:square;stroke-width:2;"/>
   </g>
   <g id="line2d_85">
    <path clip-path="url(#p8ba3ef7cce)" d="M 584.969017 674.181818 
L 615.322739 674.181818 
L 615.588003 671.958325 
L 615.815372 671.506221 
L 616.004846 671.552041 
L 616.383793 672.006816 
L 617.255373 673.03995 
L 617.975374 673.539642 
L 618.846954 673.865341 
L 620.059587 674.064544 
L 622.257485 674.1626 
L 630.594337 674.181798 
L 645.600672 674.181818 
L 645.600672 674.181818 
" style="fill:none;stroke:#0000ff;stroke-linecap:square;stroke-width:2;"/>
   </g>
   <g id="line2d_86">
    <path clip-path="url(#p8ba3ef7cce)" d="M 584.969017 621.818182 
L 615.322739 621.818182 
L 615.588003 618.807244 
L 615.815372 618.194934 
L 615.966951 618.221531 
L 616.232214 618.594226 
L 617.369058 620.404751 
L 618.051164 621.000177 
L 618.846954 621.389607 
L 619.908008 621.638329 
L 621.613274 621.773936 
L 625.895384 621.816885 
L 645.600672 621.818182 
L 645.600672 621.818182 
" style="fill:none;stroke:#0000ff;stroke-linecap:square;stroke-width:2;"/>
   </g>
   <g id="line2d_87">
    <path clip-path="url(#p8ba3ef7cce)" d="M 584.969017 569.454545 
L 615.322739 569.454545 
L 615.588003 565.239916 
L 615.815372 564.382707 
L 615.966951 564.419908 
L 616.232214 564.941592 
L 617.331163 567.415708 
L 617.975374 568.237207 
L 618.65748 568.75445 
L 619.491166 569.100219 
L 620.628009 569.315193 
L 622.598538 569.427041 
L 628.775388 569.454377 
L 645.600672 569.454545 
L 645.600672 569.454545 
" style="fill:none;stroke:#0000ff;stroke-linecap:square;stroke-width:2;"/>
   </g>
   <g id="line2d_88">
    <path clip-path="url(#p8ba3ef7cce)" d="M 584.969017 517.090909 
L 615.322739 517.090909 
L 615.588003 511.086516 
L 615.815372 509.865308 
L 615.929056 509.866682 
L 616.11853 510.285343 
L 617.710111 514.943846 
L 618.316427 515.774917 
L 618.998533 516.335666 
L 619.794324 516.697176 
L 620.893273 516.931297 
L 622.712222 517.05523 
L 627.752229 517.09035 
L 645.600672 517.090909 
L 645.600672 517.090909 
" style="fill:none;stroke:#0000ff;stroke-linecap:square;stroke-width:2;"/>
   </g>
   <g id="line2d_89">
    <path clip-path="url(#p8ba3ef7cce)" d="M 584.969017 464.727273 
L 615.322739 464.727273 
L 615.588003 456.695656 
L 615.815372 455.063301 
L 615.891161 455.026571 
L 615.929056 455.065367 
L 616.11853 455.625494 
L 617.710111 461.85586 
L 618.316427 462.967309 
L 618.960639 463.685499 
L 619.68064 464.149263 
L 620.590114 464.453364 
L 621.916432 464.635342 
L 624.493277 464.716283 
L 638.173294 464.727273 
L 645.600672 464.727273 
L 645.600672 464.727273 
" style="fill:none;stroke:#0000ff;stroke-linecap:square;stroke-width:2;"/>
   </g>
   <g id="line2d_90">
    <path clip-path="url(#p8ba3ef7cce)" d="M 584.969017 412.363636 
L 615.322739 412.363636 
L 615.588003 405.013273 
L 615.815372 403.524588 
L 615.929056 403.527499 
L 616.11853 404.040637 
L 617.710111 409.738247 
L 618.316427 410.754471 
L 618.960639 411.411127 
L 619.68064 411.835153 
L 620.628009 412.120881 
L 622.030116 412.287098 
L 624.91012 412.356511 
L 645.335409 412.363636 
L 645.600672 412.363636 
L 645.600672 412.363636 
" style="fill:none;stroke:#0000ff;stroke-linecap:square;stroke-width:2;"/>
   </g>
   <g id="line2d_91">
    <path clip-path="url(#p8ba3ef7cce)" d="M 584.969017 360 
L 615.398529 360.108539 
L 615.701687 360.359572 
L 616.11853 360.36132 
L 618.73327 360.05004 
L 622.674328 360.001965 
L 645.600672 360 
L 645.600672 360 
" style="fill:none;stroke:#0000ff;stroke-linecap:square;stroke-width:2;"/>
   </g>
   <g id="line2d_92">
    <path clip-path="url(#p8ba3ef7cce)" d="M 584.969017 307.636364 
L 615.322739 307.636364 
L 615.588003 315.34772 
L 615.815372 316.916031 
L 615.929056 316.914252 
L 616.11853 316.376565 
L 617.710111 310.393773 
L 618.316427 309.326454 
L 618.960639 308.636777 
L 619.68064 308.191426 
L 620.590114 307.899398 
L 621.954327 307.721931 
L 624.644856 307.645677 
L 640.560666 307.636364 
L 645.600672 307.636364 
L 645.600672 307.636364 
" style="fill:none;stroke:#0000ff;stroke-linecap:square;stroke-width:2;"/>
   </g>
   <g id="line2d_93">
    <path clip-path="url(#p8ba3ef7cce)" d="M 584.969017 255.272727 
L 615.322739 255.272727 
L 615.588003 263.218156 
L 615.815372 264.829948 
L 615.891161 264.865841 
L 615.929056 264.827308 
L 616.11853 264.272887 
L 617.710111 258.111885 
L 618.316427 257.012919 
L 618.960639 256.302796 
L 619.68064 255.844243 
L 620.590114 255.543558 
L 621.916432 255.363625 
L 624.493277 255.283593 
L 638.286979 255.272727 
L 645.600672 255.272727 
L 645.600672 255.272727 
" style="fill:none;stroke:#0000ff;stroke-linecap:square;stroke-width:2;"/>
   </g>
   <g id="line2d_94">
    <path clip-path="url(#p8ba3ef7cce)" d="M 584.969017 202.909091 
L 615.322739 202.909091 
L 615.588003 208.747058 
L 615.815372 209.930835 
L 615.929056 209.928797 
L 616.11853 209.521382 
L 617.710111 204.994948 
L 618.316427 204.187565 
L 618.998533 203.642801 
L 619.832219 203.279891 
L 620.969062 203.054778 
L 622.863801 202.939682 
L 628.548019 202.909373 
L 645.600672 202.909091 
L 645.600672 202.909091 
" style="fill:none;stroke:#0000ff;stroke-linecap:square;stroke-width:2;"/>
   </g>
   <g id="line2d_95">
    <path clip-path="url(#p8ba3ef7cce)" d="M 584.969017 150.545455 
L 615.322739 150.545455 
L 615.588003 154.63716 
L 615.815372 155.466877 
L 615.966951 155.430177 
L 616.232214 154.923595 
L 617.331163 152.52324 
L 617.975374 151.726335 
L 618.65748 151.224582 
L 619.491166 150.889168 
L 620.665904 150.676486 
L 622.712222 150.569749 
L 629.571178 150.54554 
L 645.600672 150.545455 
L 645.600672 150.545455 
" style="fill:none;stroke:#0000ff;stroke-linecap:square;stroke-width:2;"/>
   </g>
   <g id="line2d_96">
    <path clip-path="url(#p8ba3ef7cce)" d="M 584.969017 98.181818 
L 615.322739 98.181818 
L 615.588003 101.111966 
L 615.815372 101.706221 
L 615.966951 101.679958 
L 616.232214 101.317189 
L 617.369058 99.556318 
L 618.051164 98.977289 
L 618.846954 98.598586 
L 619.908008 98.356716 
L 621.613274 98.224845 
L 625.971174 98.183003 
L 645.600672 98.181818 
L 645.600672 98.181818 
" style="fill:none;stroke:#0000ff;stroke-linecap:square;stroke-width:2;"/>
   </g>
   <g id="line2d_97">
    <path clip-path="url(#p8ba3ef7cce)" d="M 584.969017 45.818182 
L 615.322739 45.818182 
L 615.588003 47.988332 
L 615.815372 48.428514 
L 616.004846 48.383512 
L 616.383793 47.939699 
L 617.255373 46.931929 
L 617.975374 46.44454 
L 618.846954 46.126863 
L 620.097482 45.929063 
L 622.371169 45.83525 
L 631.617497 45.81819 
L 645.600672 45.818182 
L 645.600672 45.818182 
" style="fill:none;stroke:#0000ff;stroke-linecap:square;stroke-width:2;"/>
   </g>
   <g id="line2d_98">
    <path clip-path="url(#p8ba3ef7cce)" d="M 0 0 
" style="fill:none;stroke:#0000ff;stroke-linecap:square;stroke-width:2;"/>
   </g>
   <g id="line2d_99">
    <path clip-path="url(#p8ba3ef7cce)" d="M 0 0 
" style="fill:none;stroke:#0000ff;stroke-linecap:square;stroke-width:2;"/>
   </g>
   <g id="line2d_100">
    <path clip-path="url(#p8ba3ef7cce)" d="M 0 0 
" style="fill:none;stroke:#0000ff;stroke-linecap:square;stroke-width:2;"/>
   </g>
   <g id="line2d_101">
    <path clip-path="url(#p8ba3ef7cce)" d="M 204.00012 255.272727 
L 254.526499 255.272727 
" style="fill:none;stroke:#000000;stroke-linecap:square;stroke-width:1.5;"/>
   </g>
   <g id="line2d_102">
    <path clip-path="url(#p8ba3ef7cce)" d="M 204.00012 255.272727 
L 204.00012 229.090909 
" style="fill:none;stroke:#000000;stroke-linecap:square;stroke-width:1.5;"/>
   </g>
   <g id="line2d_103">
    <path clip-path="url(#p8ba3ef7cce)" d="M 532.421583 255.272727 
L 532.421583 229.090909 
" style="fill:none;stroke:#0000ff;stroke-linecap:square;stroke-width:1.5;"/>
   </g>
   <g id="text_13">
    <!-- 50 um -->
    <defs>
     <path id="DejaVuSans-20"/>
     <path d="M 8.5 21.578125 
L 8.5 54.6875 
L 17.484375 54.6875 
L 17.484375 21.921875 
Q 17.484375 14.15625 20.5 10.265625 
Q 23.53125 6.390625 29.59375 6.390625 
Q 36.859375 6.390625 41.078125 11.03125 
Q 45.3125 15.671875 45.3125 23.6875 
L 45.3125 54.6875 
L 54.296875 54.6875 
L 54.296875 0 
L 45.3125 0 
L 45.3125 8.40625 
Q 42.046875 3.421875 37.71875 1 
Q 33.40625 -1.421875 27.6875 -1.421875 
Q 18.265625 -1.421875 13.375 4.4375 
Q 8.5 10.296875 8.5 21.578125 
z
M 31.109375 56 
z
" id="DejaVuSans-75"/>
     <path d="M 52 44.1875 
Q 55.375 50.25 60.0625 53.125 
Q 64.75 56 71.09375 56 
Q 79.640625 56 84.28125 50.015625 
Q 88.921875 44.046875 88.921875 33.015625 
L 88.921875 0 
L 79.890625 0 
L 79.890625 32.71875 
Q 79.890625 40.578125 77.09375 44.375 
Q 74.3125 48.1875 68.609375 48.1875 
Q 61.625 48.1875 57.5625 43.546875 
Q 53.515625 38.921875 53.515625 30.90625 
L 53.515625 0 
L 44.484375 0 
L 44.484375 32.71875 
Q 44.484375 40.625 41.703125 44.40625 
Q 38.921875 48.1875 33.109375 48.1875 
Q 26.21875 48.1875 22.15625 43.53125 
Q 18.109375 38.875 18.109375 30.90625 
L 18.109375 0 
L 9.078125 0 
L 9.078125 54.6875 
L 18.109375 54.6875 
L 18.109375 46.1875 
Q 21.1875 51.21875 25.484375 53.609375 
Q 29.78125 56 35.6875 56 
Q 41.65625 56 45.828125 52.96875 
Q 50 49.953125 52 44.1875 
z
" id="DejaVuSans-6d"/>
    </defs>
    <g transform="translate(209.052758 268.363636)scale(0.1 -0.1)">
     <use xlink:href="#DejaVuSans-35"/>
     <use x="63.623047" xlink:href="#DejaVuSans-30"/>
     <use x="127.246094" xlink:href="#DejaVuSans-20"/>
     <use x="159.033203" xlink:href="#DejaVuSans-75"/>
     <use x="222.412109" xlink:href="#DejaVuSans-6d"/>
    </g>
   </g>
   <g id="text_14">
    <!-- 50 um -->
    <g transform="translate(153.473741 242.181818)scale(0.1 -0.1)">
     <use xlink:href="#DejaVuSans-35"/>
     <use x="63.623047" xlink:href="#DejaVuSans-30"/>
     <use x="127.246094" xlink:href="#DejaVuSans-20"/>
     <use x="159.033203" xlink:href="#DejaVuSans-75"/>
     <use x="222.412109" xlink:href="#DejaVuSans-6d"/>
    </g>
   </g>
   <g id="text_15">
    <!-- 0.1 $\mu$V -->
    <defs>
     <path d="M 10.6875 12.40625 
L 21 12.40625 
L 21 0 
L 10.6875 0 
z
" id="DejaVuSans-2e"/>
     <path d="M -1.3125 -20.796875 
L 13.375 54.6875 
L 22.40625 54.6875 
L 15.765625 20.65625 
Q 15.578125 19.625 15.421875 18.359375 
Q 15.28125 17.09375 15.28125 15.828125 
Q 15.28125 11.28125 18.140625 8.828125 
Q 21 6.390625 26.3125 6.390625 
Q 33.546875 6.390625 37.984375 10.484375 
Q 42.4375 14.59375 44 22.796875 
L 50.203125 54.6875 
L 59.1875 54.6875 
L 51.03125 12.640625 
Q 50.828125 11.71875 50.75 11.03125 
Q 50.6875 10.359375 50.6875 9.8125 
Q 50.6875 8.296875 51.296875 7.59375 
Q 51.90625 6.890625 53.21875 6.890625 
Q 53.71875 6.890625 54.5625 7.125 
Q 55.421875 7.375 56.984375 8.015625 
L 55.609375 0.78125 
Q 53.46875 -0.296875 51.515625 -0.859375 
Q 49.5625 -1.421875 47.703125 -1.421875 
Q 44.484375 -1.421875 42.65625 0.625 
Q 40.828125 2.6875 40.828125 6.296875 
Q 38.09375 2.390625 34.296875 0.484375 
Q 30.515625 -1.421875 25.390625 -1.421875 
Q 20.84375 -1.421875 17.453125 0.671875 
Q 14.0625 2.78125 12.984375 6.203125 
L 7.71875 -20.796875 
z
" id="DejaVuSans-Oblique-3bc"/>
     <path d="M 28.609375 0 
L 0.78125 72.90625 
L 11.078125 72.90625 
L 34.1875 11.53125 
L 57.328125 72.90625 
L 67.578125 72.90625 
L 39.796875 0 
z
" id="DejaVuSans-56"/>
    </defs>
    <g transform="translate(537.474221 242.181818)scale(0.1 -0.1)">
     <use transform="translate(0 0.78125)" xlink:href="#DejaVuSans-30"/>
     <use transform="translate(63.623047 0.78125)" xlink:href="#DejaVuSans-2e"/>
     <use transform="translate(95.410156 0.78125)" xlink:href="#DejaVuSans-31"/>
     <use transform="translate(159.033203 0.78125)" xlink:href="#DejaVuSans-20"/>
     <use transform="translate(190.820312 0.78125)" xlink:href="#DejaVuSans-Oblique-3bc"/>
     <use transform="translate(254.443359 0.78125)" xlink:href="#DejaVuSans-56"/>
    </g>
   </g>
   <g id="text_16">
    <!-- Location-dependent extracellular spike shapes -->
    <defs>
     <path d="M 9.8125 72.90625 
L 19.671875 72.90625 
L 19.671875 8.296875 
L 55.171875 8.296875 
L 55.171875 0 
L 9.8125 0 
z
" id="DejaVuSans-4c"/>
     <path d="M 30.609375 48.390625 
Q 23.390625 48.390625 19.1875 42.75 
Q 14.984375 37.109375 14.984375 27.296875 
Q 14.984375 17.484375 19.15625 11.84375 
Q 23.34375 6.203125 30.609375 6.203125 
Q 37.796875 6.203125 41.984375 11.859375 
Q 46.1875 17.53125 46.1875 27.296875 
Q 46.1875 37.015625 41.984375 42.703125 
Q 37.796875 48.390625 30.609375 48.390625 
z
M 30.609375 56 
Q 42.328125 56 49.015625 48.375 
Q 55.71875 40.765625 55.71875 27.296875 
Q 55.71875 13.875 49.015625 6.21875 
Q 42.328125 -1.421875 30.609375 -1.421875 
Q 18.84375 -1.421875 12.171875 6.21875 
Q 5.515625 13.875 5.515625 27.296875 
Q 5.515625 40.765625 12.171875 48.375 
Q 18.84375 56 30.609375 56 
z
" id="DejaVuSans-6f"/>
     <path d="M 48.78125 52.59375 
L 48.78125 44.1875 
Q 44.96875 46.296875 41.140625 47.34375 
Q 37.3125 48.390625 33.40625 48.390625 
Q 24.65625 48.390625 19.8125 42.84375 
Q 14.984375 37.3125 14.984375 27.296875 
Q 14.984375 17.28125 19.8125 11.734375 
Q 24.65625 6.203125 33.40625 6.203125 
Q 37.3125 6.203125 41.140625 7.25 
Q 44.96875 8.296875 48.78125 10.40625 
L 48.78125 2.09375 
Q 45.015625 0.34375 40.984375 -0.53125 
Q 36.96875 -1.421875 32.421875 -1.421875 
Q 20.0625 -1.421875 12.78125 6.34375 
Q 5.515625 14.109375 5.515625 27.296875 
Q 5.515625 40.671875 12.859375 48.328125 
Q 20.21875 56 33.015625 56 
Q 37.15625 56 41.109375 55.140625 
Q 45.0625 54.296875 48.78125 52.59375 
z
" id="DejaVuSans-63"/>
     <path d="M 34.28125 27.484375 
Q 23.390625 27.484375 19.1875 25 
Q 14.984375 22.515625 14.984375 16.5 
Q 14.984375 11.71875 18.140625 8.90625 
Q 21.296875 6.109375 26.703125 6.109375 
Q 34.1875 6.109375 38.703125 11.40625 
Q 43.21875 16.703125 43.21875 25.484375 
L 43.21875 27.484375 
z
M 52.203125 31.203125 
L 52.203125 0 
L 43.21875 0 
L 43.21875 8.296875 
Q 40.140625 3.328125 35.546875 0.953125 
Q 30.953125 -1.421875 24.3125 -1.421875 
Q 15.921875 -1.421875 10.953125 3.296875 
Q 6 8.015625 6 15.921875 
Q 6 25.140625 12.171875 29.828125 
Q 18.359375 34.515625 30.609375 34.515625 
L 43.21875 34.515625 
L 43.21875 35.40625 
Q 43.21875 41.609375 39.140625 45 
Q 35.0625 48.390625 27.6875 48.390625 
Q 23 48.390625 18.546875 47.265625 
Q 14.109375 46.140625 10.015625 43.890625 
L 10.015625 52.203125 
Q 14.9375 54.109375 19.578125 55.046875 
Q 24.21875 56 28.609375 56 
Q 40.484375 56 46.34375 49.84375 
Q 52.203125 43.703125 52.203125 31.203125 
z
" id="DejaVuSans-61"/>
     <path d="M 18.3125 70.21875 
L 18.3125 54.6875 
L 36.8125 54.6875 
L 36.8125 47.703125 
L 18.3125 47.703125 
L 18.3125 18.015625 
Q 18.3125 11.328125 20.140625 9.421875 
Q 21.96875 7.515625 27.59375 7.515625 
L 36.8125 7.515625 
L 36.8125 0 
L 27.59375 0 
Q 17.1875 0 13.234375 3.875 
Q 9.28125 7.765625 9.28125 18.015625 
L 9.28125 47.703125 
L 2.6875 47.703125 
L 2.6875 54.6875 
L 9.28125 54.6875 
L 9.28125 70.21875 
z
" id="DejaVuSans-74"/>
     <path d="M 9.421875 54.6875 
L 18.40625 54.6875 
L 18.40625 0 
L 9.421875 0 
z
M 9.421875 75.984375 
L 18.40625 75.984375 
L 18.40625 64.59375 
L 9.421875 64.59375 
z
" id="DejaVuSans-69"/>
     <path d="M 54.890625 33.015625 
L 54.890625 0 
L 45.90625 0 
L 45.90625 32.71875 
Q 45.90625 40.484375 42.875 44.328125 
Q 39.84375 48.1875 33.796875 48.1875 
Q 26.515625 48.1875 22.3125 43.546875 
Q 18.109375 38.921875 18.109375 30.90625 
L 18.109375 0 
L 9.078125 0 
L 9.078125 54.6875 
L 18.109375 54.6875 
L 18.109375 46.1875 
Q 21.34375 51.125 25.703125 53.5625 
Q 30.078125 56 35.796875 56 
Q 45.21875 56 50.046875 50.171875 
Q 54.890625 44.34375 54.890625 33.015625 
z
" id="DejaVuSans-6e"/>
     <path d="M 4.890625 31.390625 
L 31.203125 31.390625 
L 31.203125 23.390625 
L 4.890625 23.390625 
z
" id="DejaVuSans-2d"/>
     <path d="M 45.40625 46.390625 
L 45.40625 75.984375 
L 54.390625 75.984375 
L 54.390625 0 
L 45.40625 0 
L 45.40625 8.203125 
Q 42.578125 3.328125 38.25 0.953125 
Q 33.9375 -1.421875 27.875 -1.421875 
Q 17.96875 -1.421875 11.734375 6.484375 
Q 5.515625 14.40625 5.515625 27.296875 
Q 5.515625 40.1875 11.734375 48.09375 
Q 17.96875 56 27.875 56 
Q 33.9375 56 38.25 53.625 
Q 42.578125 51.265625 45.40625 46.390625 
z
M 14.796875 27.296875 
Q 14.796875 17.390625 18.875 11.75 
Q 22.953125 6.109375 30.078125 6.109375 
Q 37.203125 6.109375 41.296875 11.75 
Q 45.40625 17.390625 45.40625 27.296875 
Q 45.40625 37.203125 41.296875 42.84375 
Q 37.203125 48.484375 30.078125 48.484375 
Q 22.953125 48.484375 18.875 42.84375 
Q 14.796875 37.203125 14.796875 27.296875 
z
" id="DejaVuSans-64"/>
     <path d="M 56.203125 29.59375 
L 56.203125 25.203125 
L 14.890625 25.203125 
Q 15.484375 15.921875 20.484375 11.0625 
Q 25.484375 6.203125 34.421875 6.203125 
Q 39.59375 6.203125 44.453125 7.46875 
Q 49.3125 8.734375 54.109375 11.28125 
L 54.109375 2.78125 
Q 49.265625 0.734375 44.1875 -0.34375 
Q 39.109375 -1.421875 33.890625 -1.421875 
Q 20.796875 -1.421875 13.15625 6.1875 
Q 5.515625 13.8125 5.515625 26.8125 
Q 5.515625 40.234375 12.765625 48.109375 
Q 20.015625 56 32.328125 56 
Q 43.359375 56 49.78125 48.890625 
Q 56.203125 41.796875 56.203125 29.59375 
z
M 47.21875 32.234375 
Q 47.125 39.59375 43.09375 43.984375 
Q 39.0625 48.390625 32.421875 48.390625 
Q 24.90625 48.390625 20.390625 44.140625 
Q 15.875 39.890625 15.1875 32.171875 
z
" id="DejaVuSans-65"/>
     <path d="M 18.109375 8.203125 
L 18.109375 -20.796875 
L 9.078125 -20.796875 
L 9.078125 54.6875 
L 18.109375 54.6875 
L 18.109375 46.390625 
Q 20.953125 51.265625 25.265625 53.625 
Q 29.59375 56 35.59375 56 
Q 45.5625 56 51.78125 48.09375 
Q 58.015625 40.1875 58.015625 27.296875 
Q 58.015625 14.40625 51.78125 6.484375 
Q 45.5625 -1.421875 35.59375 -1.421875 
Q 29.59375 -1.421875 25.265625 0.953125 
Q 20.953125 3.328125 18.109375 8.203125 
z
M 48.6875 27.296875 
Q 48.6875 37.203125 44.609375 42.84375 
Q 40.53125 48.484375 33.40625 48.484375 
Q 26.265625 48.484375 22.1875 42.84375 
Q 18.109375 37.203125 18.109375 27.296875 
Q 18.109375 17.390625 22.1875 11.75 
Q 26.265625 6.109375 33.40625 6.109375 
Q 40.53125 6.109375 44.609375 11.75 
Q 48.6875 17.390625 48.6875 27.296875 
z
" id="DejaVuSans-70"/>
     <path d="M 54.890625 54.6875 
L 35.109375 28.078125 
L 55.90625 0 
L 45.3125 0 
L 29.390625 21.484375 
L 13.484375 0 
L 2.875 0 
L 24.125 28.609375 
L 4.6875 54.6875 
L 15.28125 54.6875 
L 29.78125 35.203125 
L 44.28125 54.6875 
z
" id="DejaVuSans-78"/>
     <path d="M 41.109375 46.296875 
Q 39.59375 47.171875 37.8125 47.578125 
Q 36.03125 48 33.890625 48 
Q 26.265625 48 22.1875 43.046875 
Q 18.109375 38.09375 18.109375 28.8125 
L 18.109375 0 
L 9.078125 0 
L 9.078125 54.6875 
L 18.109375 54.6875 
L 18.109375 46.1875 
Q 20.953125 51.171875 25.484375 53.578125 
Q 30.03125 56 36.53125 56 
Q 37.453125 56 38.578125 55.875 
Q 39.703125 55.765625 41.0625 55.515625 
z
" id="DejaVuSans-72"/>
     <path d="M 9.421875 75.984375 
L 18.40625 75.984375 
L 18.40625 0 
L 9.421875 0 
z
" id="DejaVuSans-6c"/>
     <path d="M 44.28125 53.078125 
L 44.28125 44.578125 
Q 40.484375 46.53125 36.375 47.5 
Q 32.28125 48.484375 27.875 48.484375 
Q 21.1875 48.484375 17.84375 46.4375 
Q 14.5 44.390625 14.5 40.28125 
Q 14.5 37.15625 16.890625 35.375 
Q 19.28125 33.59375 26.515625 31.984375 
L 29.59375 31.296875 
Q 39.15625 29.25 43.1875 25.515625 
Q 47.21875 21.78125 47.21875 15.09375 
Q 47.21875 7.46875 41.1875 3.015625 
Q 35.15625 -1.421875 24.609375 -1.421875 
Q 20.21875 -1.421875 15.453125 -0.5625 
Q 10.6875 0.296875 5.421875 2 
L 5.421875 11.28125 
Q 10.40625 8.6875 15.234375 7.390625 
Q 20.0625 6.109375 24.8125 6.109375 
Q 31.15625 6.109375 34.5625 8.28125 
Q 37.984375 10.453125 37.984375 14.40625 
Q 37.984375 18.0625 35.515625 20.015625 
Q 33.0625 21.96875 24.703125 23.78125 
L 21.578125 24.515625 
Q 13.234375 26.265625 9.515625 29.90625 
Q 5.8125 33.546875 5.8125 39.890625 
Q 5.8125 47.609375 11.28125 51.796875 
Q 16.75 56 26.8125 56 
Q 31.78125 56 36.171875 55.265625 
Q 40.578125 54.546875 44.28125 53.078125 
z
" id="DejaVuSans-73"/>
     <path d="M 9.078125 75.984375 
L 18.109375 75.984375 
L 18.109375 31.109375 
L 44.921875 54.6875 
L 56.390625 54.6875 
L 27.390625 29.109375 
L 57.625 0 
L 45.90625 0 
L 18.109375 26.703125 
L 18.109375 0 
L 9.078125 0 
z
" id="DejaVuSans-6b"/>
     <path d="M 54.890625 33.015625 
L 54.890625 0 
L 45.90625 0 
L 45.90625 32.71875 
Q 45.90625 40.484375 42.875 44.328125 
Q 39.84375 48.1875 33.796875 48.1875 
Q 26.515625 48.1875 22.3125 43.546875 
Q 18.109375 38.921875 18.109375 30.90625 
L 18.109375 0 
L 9.078125 0 
L 9.078125 75.984375 
L 18.109375 75.984375 
L 18.109375 46.1875 
Q 21.34375 51.125 25.703125 53.5625 
Q 30.078125 56 35.796875 56 
Q 45.21875 56 50.046875 50.171875 
Q 54.890625 44.34375 54.890625 33.015625 
z
" id="DejaVuSans-68"/>
    </defs>
    <g transform="translate(255.500985 66)scale(0.12 -0.12)">
     <use xlink:href="#DejaVuSans-4c"/>
     <use x="55.697266" xlink:href="#DejaVuSans-6f"/>
     <use x="116.878906" xlink:href="#DejaVuSans-63"/>
     <use x="171.859375" xlink:href="#DejaVuSans-61"/>
     <use x="233.138672" xlink:href="#DejaVuSans-74"/>
     <use x="272.347656" xlink:href="#DejaVuSans-69"/>
     <use x="300.130859" xlink:href="#DejaVuSans-6f"/>
     <use x="361.3125" xlink:href="#DejaVuSans-6e"/>
     <use x="424.691406" xlink:href="#DejaVuSans-2d"/>
     <use x="460.775391" xlink:href="#DejaVuSans-64"/>
     <use x="524.251953" xlink:href="#DejaVuSans-65"/>
     <use x="585.775391" xlink:href="#DejaVuSans-70"/>
     <use x="649.251953" xlink:href="#DejaVuSans-65"/>
     <use x="710.775391" xlink:href="#DejaVuSans-6e"/>
     <use x="774.154297" xlink:href="#DejaVuSans-64"/>
     <use x="837.630859" xlink:href="#DejaVuSans-65"/>
     <use x="899.154297" xlink:href="#DejaVuSans-6e"/>
     <use x="962.533203" xlink:href="#DejaVuSans-74"/>
     <use x="1001.742188" xlink:href="#DejaVuSans-20"/>
     <use x="1033.529297" xlink:href="#DejaVuSans-65"/>
     <use x="1095.037109" xlink:href="#DejaVuSans-78"/>
     <use x="1154.216797" xlink:href="#DejaVuSans-74"/>
     <use x="1193.425781" xlink:href="#DejaVuSans-72"/>
     <use x="1234.539062" xlink:href="#DejaVuSans-61"/>
     <use x="1295.818359" xlink:href="#DejaVuSans-63"/>
     <use x="1350.798828" xlink:href="#DejaVuSans-65"/>
     <use x="1412.322266" xlink:href="#DejaVuSans-6c"/>
     <use x="1440.105469" xlink:href="#DejaVuSans-6c"/>
     <use x="1467.888672" xlink:href="#DejaVuSans-75"/>
     <use x="1531.267578" xlink:href="#DejaVuSans-6c"/>
     <use x="1559.050781" xlink:href="#DejaVuSans-61"/>
     <use x="1620.330078" xlink:href="#DejaVuSans-72"/>
     <use x="1661.443359" xlink:href="#DejaVuSans-20"/>
     <use x="1693.230469" xlink:href="#DejaVuSans-73"/>
     <use x="1745.330078" xlink:href="#DejaVuSans-70"/>
     <use x="1808.806641" xlink:href="#DejaVuSans-69"/>
     <use x="1836.589844" xlink:href="#DejaVuSans-6b"/>
     <use x="1894.453125" xlink:href="#DejaVuSans-65"/>
     <use x="1955.976562" xlink:href="#DejaVuSans-20"/>
     <use x="1987.763672" xlink:href="#DejaVuSans-73"/>
     <use x="2039.863281" xlink:href="#DejaVuSans-68"/>
     <use x="2103.242188" xlink:href="#DejaVuSans-61"/>
     <use x="2164.521484" xlink:href="#DejaVuSans-70"/>
     <use x="2227.998047" xlink:href="#DejaVuSans-65"/>
     <use x="2289.521484" xlink:href="#DejaVuSans-73"/>
    </g>
   </g>
  </g>
 </g>
 <defs>
  <clipPath id="p8ba3ef7cce">
   <rect height="576" width="576.00072" x="108" y="72"/>
  </clipPath>
 </defs>
</svg>
