<?xml version="1.0" encoding="utf-8" standalone="no"?>
<!DOCTYPE svg PUBLIC "-//W3C//DTD SVG 1.1//EN"
  "http://www.w3.org/Graphics/SVG/1.1/DTD/svg11.dtd">
<!-- Created with matplotlib (http://matplotlib.org/) -->
<svg height="432pt" version="1.1" viewBox="0 0 720 432" width="720pt" xmlns="http://www.w3.org/2000/svg" xmlns:xlink="http://www.w3.org/1999/xlink">
 <defs>
  <style type="text/css">
*{stroke-linecap:butt;stroke-linejoin:round;}
  </style>
 </defs>
 <g id="figure_1">
  <g id="patch_1">
   <path d="M 0 432 
L 720 432 
L 720 0 
L 0 0 
z
" style="fill:#ffffff;"/>
  </g>
  <g id="axes_1">
   <g id="matplotlib.axis_1"/>
   <g id="matplotlib.axis_2"/>
   <g id="line2d_1">
    <path clip-path="url(#pcc57e27a71)" d="M 259.909326 255.121298 
L 259.909326 253.852808 
L 259.909326 252.584318 
L 259.909326 251.315827 
L 259.909326 250.047337 
L 259.909326 248.778846 
L 259.909326 247.510356 
" style="fill:none;stroke:#000000;stroke-linecap:square;stroke-width:8;"/>
   </g>
   <g id="line2d_2">
    <path clip-path="url(#pcc57e27a71)" d="M 259.909326 247.510356 
L 259.909326 246.001758 
L 259.909326 244.493161 
L 259.909326 242.984563 
L 259.909326 241.475966 
L 259.909326 239.967368 
L 259.909326 238.45877 
L 259.909326 236.950173 
L 259.909326 235.441575 
L 259.909326 233.932978 
L 259.909326 232.42438 
L 259.909326 230.915783 
L 259.909326 229.407185 
L 259.909326 227.898588 
L 259.909326 226.38999 
L 259.909326 224.881392 
L 259.909326 223.372795 
L 259.909326 221.864197 
L 259.909326 220.3556 
L 259.909326 218.847002 
L 259.909326 217.338405 
L 259.909326 215.829807 
L 259.909326 214.32121 
L 259.909326 212.812612 
L 259.909326 211.304014 
L 259.909326 209.795417 
L 259.909326 208.286819 
L 259.909326 206.778222 
L 259.909326 205.269624 
L 259.909326 203.761027 
L 259.909326 202.252429 
L 259.909326 200.743832 
L 259.909326 199.235234 
L 259.909326 197.726636 
L 259.909326 196.218039 
L 259.909326 194.709441 
L 259.909326 193.200844 
L 259.909326 191.692246 
L 259.909326 190.183649 
L 259.909326 188.675051 
L 259.909326 187.166454 
L 259.909326 185.657856 
L 259.909326 184.149258 
L 259.909326 182.640661 
L 259.909326 181.132063 
L 259.909326 179.623466 
L 259.909326 178.114868 
L 259.909326 176.606271 
L 259.909326 175.097673 
L 259.909326 173.589076 
L 259.909326 172.080478 
L 259.909326 170.57188 
L 259.909326 169.063283 
L 259.909326 167.554685 
L 259.909326 166.046088 
L 259.909326 164.53749 
L 259.909326 163.028893 
L 259.909326 161.520295 
L 259.909326 160.011698 
L 259.909326 158.5031 
L 259.909326 156.994502 
L 259.909326 155.485905 
L 259.909326 153.977307 
L 259.909326 152.46871 
L 259.909326 150.960112 
L 259.909326 149.451515 
L 259.909326 147.942917 
L 259.909326 146.43432 
L 259.909326 144.925722 
L 259.909326 143.417124 
L 259.909326 141.908527 
L 259.909326 140.399929 
L 259.909326 138.891332 
L 259.909326 137.382734 
L 259.909326 135.874137 
L 259.909326 134.365539 
L 259.909326 132.856942 
L 259.909326 131.348344 
L 259.909326 129.839746 
L 259.909326 128.331149 
L 259.909326 126.822551 
L 259.909326 125.313954 
L 259.909326 123.805356 
L 259.909326 122.296759 
L 259.909326 120.788161 
L 259.909326 119.279564 
L 259.909326 117.770966 
L 259.909326 116.262368 
L 259.909326 114.753771 
L 259.909326 113.245173 
L 259.909326 111.736576 
L 259.909326 110.227978 
L 259.909326 108.719381 
L 259.909326 107.210783 
L 259.909326 105.702186 
L 259.909326 104.193588 
L 259.909326 102.68499 
L 259.909326 101.176393 
L 259.909326 99.667795 
L 259.909326 98.159198 
L 259.909326 96.6506 
L 259.909326 95.142003 
L 259.909326 93.633405 
L 259.909326 92.124808 
L 259.909326 90.61621 
L 259.909326 89.107612 
L 259.909326 87.599015 
L 259.909326 86.090417 
L 259.909326 84.58182 
L 259.909326 83.073222 
L 259.909326 81.564625 
L 259.909326 80.056027 
L 259.909326 78.54743 
" style="fill:none;stroke:#000000;stroke-linecap:square;stroke-width:2;"/>
   </g>
   <g id="line2d_3">
    <path clip-path="url(#pcc57e27a71)" d="M 259.909326 255.121298 
L 259.909326 256.615811 
L 259.909326 258.110323 
L 259.909326 259.604836 
L 259.909326 261.099348 
L 259.909326 262.59386 
L 259.909326 264.088373 
L 259.909326 265.582885 
L 259.909326 267.077397 
L 259.909326 268.57191 
L 259.909326 270.066422 
L 259.909326 271.560934 
L 259.909326 273.055447 
L 259.909326 274.549959 
L 259.909326 276.044472 
L 259.909326 277.538984 
L 259.909326 279.033496 
L 259.909326 280.528009 
L 259.909326 282.022521 
L 259.909326 283.517033 
L 259.909326 285.011546 
L 259.909326 286.506058 
L 259.909326 288.000571 
L 259.909326 289.495083 
L 259.909326 290.989595 
L 259.909326 292.484108 
L 259.909326 293.97862 
L 259.909326 295.473132 
L 259.909326 296.967645 
L 259.909326 298.462157 
L 259.909326 299.95667 
L 259.909326 301.451182 
L 259.909326 302.945694 
L 259.909326 304.440207 
L 259.909326 305.934719 
L 259.909326 307.429231 
L 259.909326 308.923744 
L 259.909326 310.418256 
L 259.909326 311.912768 
L 259.909326 313.407281 
L 259.909326 314.901793 
L 259.909326 316.396306 
L 259.909326 317.890818 
L 259.909326 319.38533 
L 259.909326 320.879843 
L 259.909326 322.374355 
L 259.909326 323.868867 
L 259.909326 325.36338 
L 259.909326 326.857892 
L 259.909326 328.352405 
L 259.909326 329.846917 
L 259.909326 331.341429 
L 259.909326 332.835942 
L 259.909326 334.330454 
L 259.909326 335.824966 
L 259.909326 337.319479 
" style="fill:none;stroke:#000000;stroke-linecap:square;stroke-width:2;"/>
   </g>
   <g id="line2d_4">
    <path clip-path="url(#pcc57e27a71)" d="M 259.909326 255.121298 
L 261.613873 255.121298 
L 263.318421 255.121298 
" style="fill:none;stroke:#000000;stroke-linecap:square;stroke-width:2;"/>
   </g>
   <g id="line2d_5">
    <path clip-path="url(#pcc57e27a71)" d="M 263.318421 255.121298 
L 265.022969 255.121298 
L 266.727516 255.121298 
" style="fill:none;stroke:#000000;stroke-linecap:square;stroke-width:2;"/>
   </g>
   <g id="line2d_6">
    <path clip-path="url(#pcc57e27a71)" d="M 266.727516 255.121298 
L 268.432064 255.121298 
L 270.136611 255.121298 
" style="fill:none;stroke:#000000;stroke-linecap:square;stroke-width:2;"/>
   </g>
   <g id="line2d_7">
    <path clip-path="url(#pcc57e27a71)" d="M 270.136611 255.121298 
L 271.841159 255.121298 
L 273.545706 255.121298 
" style="fill:none;stroke:#000000;stroke-linecap:square;stroke-width:2;"/>
   </g>
   <g id="line2d_8">
    <path clip-path="url(#pcc57e27a71)" d="M 273.545706 255.121298 
L 275.250254 255.121298 
L 276.954802 255.121298 
" style="fill:none;stroke:#000000;stroke-linecap:square;stroke-width:2;"/>
   </g>
   <g id="line2d_9">
    <path clip-path="url(#pcc57e27a71)" d="M 276.954802 255.121298 
L 278.659349 255.121298 
L 280.363897 255.121298 
" style="fill:none;stroke:#000000;stroke-linecap:square;stroke-width:2;"/>
   </g>
   <g id="line2d_10">
    <path clip-path="url(#pcc57e27a71)" d="M 280.363897 255.121298 
L 282.068444 255.121298 
L 283.772992 255.121298 
" style="fill:none;stroke:#000000;stroke-linecap:square;stroke-width:2;"/>
   </g>
   <g id="line2d_11">
    <path clip-path="url(#pcc57e27a71)" d="M 283.772992 255.121298 
L 285.47754 255.121298 
L 287.182087 255.121298 
" style="fill:none;stroke:#000000;stroke-linecap:square;stroke-width:2;"/>
   </g>
   <g id="line2d_12">
    <path clip-path="url(#pcc57e27a71)" d="M 287.182087 255.121298 
L 288.886635 255.121298 
L 290.591182 255.121298 
" style="fill:none;stroke:#000000;stroke-linecap:square;stroke-width:2;"/>
   </g>
   <g id="line2d_13">
    <path clip-path="url(#pcc57e27a71)" d="M 290.591182 255.121298 
L 292.29573 255.121298 
L 294.000278 255.121298 
" style="fill:none;stroke:#000000;stroke-linecap:square;stroke-width:2;"/>
   </g>
   <g id="line2d_14">
    <path clip-path="url(#pcc57e27a71)" d="M 294.000278 255.121298 
L 297.247035 255.121298 
L 300.493792 255.121298 
L 303.740549 255.121298 
L 306.987307 255.121298 
L 310.234064 255.121298 
L 313.480821 255.121298 
L 316.727579 255.121298 
L 319.974336 255.121298 
L 323.221093 255.121298 
L 326.467851 255.121298 
L 329.714608 255.121298 
L 332.961365 255.121298 
L 336.208122 255.121298 
L 339.45488 255.121298 
L 342.701637 255.121298 
L 345.948394 255.121298 
L 349.195152 255.121298 
L 352.441909 255.121298 
L 355.688666 255.121298 
L 358.935424 255.121298 
L 362.182181 255.121298 
" style="fill:none;stroke:#000000;stroke-linecap:square;stroke-width:2;"/>
   </g>
   <g id="line2d_15">
    <path clip-path="url(#pcc57e27a71)" d="M 259.909326 206.023923 
" style="fill:none;stroke:#ff0000;stroke-linecap:square;stroke-width:1.5;"/>
    <defs>
     <path d="M 0 2.5 
C 0.663008 2.5 1.29895 2.236584 1.767767 1.767767 
C 2.236584 1.29895 2.5 0.663008 2.5 0 
C 2.5 -0.663008 2.236584 -1.29895 1.767767 -1.767767 
C 1.29895 -2.236584 0.663008 -2.5 0 -2.5 
C -0.663008 -2.5 -1.29895 -2.236584 -1.767767 -1.767767 
C -2.236584 -1.29895 -2.5 -0.663008 -2.5 0 
C -2.5 0.663008 -2.236584 1.29895 -1.767767 1.767767 
C -1.29895 2.236584 -0.663008 2.5 0 2.5 
z
" id="m1479c32de7" style="stroke:#ff0000;"/>
    </defs>
    <g clip-path="url(#pcc57e27a71)">
     <use style="fill:#ff0000;stroke:#ff0000;" x="259.909326" xlink:href="#m1479c32de7" y="206.023923"/>
    </g>
   </g>
   <g id="line2d_16">
    <defs>
     <path d="M 0 2.5 
C 0.663008 2.5 1.29895 2.236584 1.767767 1.767767 
C 2.236584 1.29895 2.5 0.663008 2.5 0 
C 2.5 -0.663008 2.236584 -1.29895 1.767767 -1.767767 
C 1.29895 -2.236584 0.663008 -2.5 0 -2.5 
C -0.663008 -2.5 -1.29895 -2.236584 -1.767767 -1.767767 
C -2.236584 -1.29895 -2.5 -0.663008 -2.5 0 
C -2.5 0.663008 -2.236584 1.29895 -1.767767 1.767767 
C -1.29895 2.236584 -0.663008 2.5 0 2.5 
z
" id="m3791223d24" style="stroke:#000000;"/>
    </defs>
    <g clip-path="url(#pcc57e27a71)">
     <use style="stroke:#000000;" x="89.454567" xlink:href="#m3791223d24" y="373.090909"/>
     <use style="stroke:#000000;" x="89.454567" xlink:href="#m3791223d24" y="342.647139"/>
     <use style="stroke:#000000;" x="89.454567" xlink:href="#m3791223d24" y="312.203368"/>
     <use style="stroke:#000000;" x="89.454567" xlink:href="#m3791223d24" y="281.759598"/>
     <use style="stroke:#000000;" x="89.454567" xlink:href="#m3791223d24" y="251.315827"/>
     <use style="stroke:#000000;" x="89.454567" xlink:href="#m3791223d24" y="220.872057"/>
     <use style="stroke:#000000;" x="89.454567" xlink:href="#m3791223d24" y="190.428286"/>
     <use style="stroke:#000000;" x="89.454567" xlink:href="#m3791223d24" y="159.984516"/>
     <use style="stroke:#000000;" x="89.454567" xlink:href="#m3791223d24" y="129.540745"/>
     <use style="stroke:#000000;" x="89.454567" xlink:href="#m3791223d24" y="99.096975"/>
     <use style="stroke:#000000;" x="89.454567" xlink:href="#m3791223d24" y="68.653204"/>
     <use style="stroke:#000000;" x="191.727422" xlink:href="#m3791223d24" y="373.090909"/>
     <use style="stroke:#000000;" x="191.727422" xlink:href="#m3791223d24" y="342.647139"/>
     <use style="stroke:#000000;" x="191.727422" xlink:href="#m3791223d24" y="312.203368"/>
     <use style="stroke:#000000;" x="191.727422" xlink:href="#m3791223d24" y="281.759598"/>
     <use style="stroke:#000000;" x="191.727422" xlink:href="#m3791223d24" y="251.315827"/>
     <use style="stroke:#000000;" x="191.727422" xlink:href="#m3791223d24" y="220.872057"/>
     <use style="stroke:#000000;" x="191.727422" xlink:href="#m3791223d24" y="190.428286"/>
     <use style="stroke:#000000;" x="191.727422" xlink:href="#m3791223d24" y="159.984516"/>
     <use style="stroke:#000000;" x="191.727422" xlink:href="#m3791223d24" y="129.540745"/>
     <use style="stroke:#000000;" x="191.727422" xlink:href="#m3791223d24" y="99.096975"/>
     <use style="stroke:#000000;" x="191.727422" xlink:href="#m3791223d24" y="68.653204"/>
     <use style="stroke:#000000;" x="294.000278" xlink:href="#m3791223d24" y="373.090909"/>
     <use style="stroke:#000000;" x="294.000278" xlink:href="#m3791223d24" y="342.647139"/>
     <use style="stroke:#000000;" x="294.000278" xlink:href="#m3791223d24" y="312.203368"/>
     <use style="stroke:#000000;" x="294.000278" xlink:href="#m3791223d24" y="281.759598"/>
     <use style="stroke:#000000;" x="294.000278" xlink:href="#m3791223d24" y="251.315827"/>
     <use style="stroke:#000000;" x="294.000278" xlink:href="#m3791223d24" y="220.872057"/>
     <use style="stroke:#000000;" x="294.000278" xlink:href="#m3791223d24" y="190.428286"/>
     <use style="stroke:#000000;" x="294.000278" xlink:href="#m3791223d24" y="159.984516"/>
     <use style="stroke:#000000;" x="294.000278" xlink:href="#m3791223d24" y="129.540745"/>
     <use style="stroke:#000000;" x="294.000278" xlink:href="#m3791223d24" y="99.096975"/>
     <use style="stroke:#000000;" x="294.000278" xlink:href="#m3791223d24" y="68.653204"/>
     <use style="stroke:#000000;" x="396.273133" xlink:href="#m3791223d24" y="373.090909"/>
     <use style="stroke:#000000;" x="396.273133" xlink:href="#m3791223d24" y="342.647139"/>
     <use style="stroke:#000000;" x="396.273133" xlink:href="#m3791223d24" y="312.203368"/>
     <use style="stroke:#000000;" x="396.273133" xlink:href="#m3791223d24" y="281.759598"/>
     <use style="stroke:#000000;" x="396.273133" xlink:href="#m3791223d24" y="251.315827"/>
     <use style="stroke:#000000;" x="396.273133" xlink:href="#m3791223d24" y="220.872057"/>
     <use style="stroke:#000000;" x="396.273133" xlink:href="#m3791223d24" y="190.428286"/>
     <use style="stroke:#000000;" x="396.273133" xlink:href="#m3791223d24" y="159.984516"/>
     <use style="stroke:#000000;" x="396.273133" xlink:href="#m3791223d24" y="129.540745"/>
     <use style="stroke:#000000;" x="396.273133" xlink:href="#m3791223d24" y="99.096975"/>
     <use style="stroke:#000000;" x="396.273133" xlink:href="#m3791223d24" y="68.653204"/>
    </g>
   </g>
   <g id="line2d_17">
    <path clip-path="url(#pcc57e27a71)" d="M 90.818205 373.083895 
L 111.323913 372.98477 
L 111.605163 372.066633 
L 111.784141 372.026006 
L 112.142096 372.27764 
L 112.883574 372.738829 
L 113.701757 372.955422 
L 115.108008 373.060625 
L 119.914833 373.083963 
L 131.727347 373.084009 
L 131.727347 373.084009 
" style="fill:none;stroke:#0000ff;stroke-linecap:square;stroke-width:2;"/>
   </g>
   <g id="line2d_18">
    <path clip-path="url(#pcc57e27a71)" d="M 90.818205 342.645866 
L 111.298345 342.645912 
L 111.6563 341.386194 
L 111.835277 341.413511 
L 112.448914 341.962131 
L 113.08812 342.326062 
L 113.931871 342.530813 
L 115.440395 342.627535 
L 121.295516 342.646002 
L 131.727347 342.645995 
L 131.727347 342.645995 
" style="fill:none;stroke:#0000ff;stroke-linecap:square;stroke-width:2;"/>
   </g>
   <g id="line2d_19">
    <path clip-path="url(#pcc57e27a71)" d="M 90.818205 312.211059 
L 111.298345 312.211116 
L 111.579595 311.258556 
L 111.784141 311.210745 
L 112.193232 311.49515 
L 112.909142 311.89966 
L 113.778461 312.102359 
L 115.338122 312.19473 
L 121.832449 312.211183 
L 131.727347 312.211183 
L 131.727347 312.211183 
" style="fill:none;stroke:#0000ff;stroke-linecap:square;stroke-width:2;"/>
   </g>
   <g id="line2d_20">
    <path clip-path="url(#pcc57e27a71)" d="M 90.818205 281.782778 
L 111.426186 281.872793 
L 111.6563 282.075336 
L 112.065391 282.034275 
L 113.497211 281.832645 
L 116.156305 281.784625 
L 131.727347 281.782849 
L 131.727347 281.782849 
" style="fill:none;stroke:#0000ff;stroke-linecap:square;stroke-width:2;"/>
   </g>
   <g id="line2d_21">
    <path clip-path="url(#pcc57e27a71)" d="M 90.818205 251.363216 
L 111.298345 251.363268 
L 111.707436 254.432414 
L 111.835277 254.31313 
L 112.269937 253.359808 
L 112.832437 252.405345 
L 113.36937 251.909414 
L 114.034143 251.606853 
L 115.005736 251.437678 
L 117.000056 251.369595 
L 131.727347 251.363174 
L 131.727347 251.363174 
" style="fill:none;stroke:#0000ff;stroke-linecap:square;stroke-width:2;"/>
   </g>
   <g id="line2d_22">
    <path clip-path="url(#pcc57e27a71)" d="M 90.818205 220.945694 
L 111.298345 220.945706 
L 111.630731 226.965535 
L 111.707436 227.063036 
L 111.758572 227.006102 
L 111.93755 226.40417 
L 112.806869 223.063749 
L 113.292665 222.126674 
L 113.829598 221.561707 
L 114.443235 221.237769 
L 115.312554 221.046907 
L 116.94892 220.959232 
L 124.465975 220.945438 
L 131.727347 220.945511 
L 131.727347 220.945511 
" style="fill:none;stroke:#0000ff;stroke-linecap:square;stroke-width:2;"/>
   </g>
   <g id="line2d_23">
    <path clip-path="url(#pcc57e27a71)" d="M 90.818205 190.524643 
L 111.298345 190.524603 
L 111.630731 196.661005 
L 111.707436 196.75823 
L 111.758572 196.699392 
L 111.93755 196.084319 
L 112.806869 192.680636 
L 113.292665 191.727334 
L 113.829598 191.152613 
L 114.443235 190.822857 
L 115.312554 190.628269 
L 116.923352 190.53901 
L 124.056883 190.52428 
L 131.727347 190.524359 
L 131.727347 190.524359 
" style="fill:none;stroke:#0000ff;stroke-linecap:square;stroke-width:2;"/>
   </g>
   <g id="line2d_24">
    <path clip-path="url(#pcc57e27a71)" d="M 90.818205 160.095991 
L 111.298345 160.095904 
L 111.6563 163.267383 
L 111.784141 163.241617 
L 112.039823 162.720926 
L 112.730165 161.318414 
L 113.267097 160.739705 
L 113.880734 160.403669 
L 114.750053 160.203943 
L 116.335283 160.111839 
L 123.008586 160.095618 
L 131.727347 160.095679 
L 131.727347 160.095679 
" style="fill:none;stroke:#0000ff;stroke-linecap:square;stroke-width:2;"/>
   </g>
   <g id="line2d_25">
    <path clip-path="url(#pcc57e27a71)" d="M 90.818205 129.655805 
L 131.727347 129.655524 
L 131.727347 129.655524 
" style="fill:none;stroke:#0000ff;stroke-linecap:square;stroke-width:2;"/>
   </g>
   <g id="line2d_26">
    <path clip-path="url(#pcc57e27a71)" d="M 90.818205 99.203065 
L 111.298345 99.202946 
L 111.630731 97.566414 
L 111.784141 97.592241 
L 112.167664 98.036494 
L 112.806869 98.646609 
L 113.471643 98.956975 
L 114.417667 99.127549 
L 116.335283 99.196391 
L 130.500073 99.202835 
L 131.727347 99.202836 
L 131.727347 99.202836 
" style="fill:none;stroke:#0000ff;stroke-linecap:square;stroke-width:2;"/>
   </g>
   <g id="line2d_27">
    <path clip-path="url(#pcc57e27a71)" d="M 90.818205 68.741328 
L 111.298345 68.741225 
L 111.6563 66.773011 
L 111.809709 66.83261 
L 112.269937 67.482014 
L 112.858006 68.109097 
L 113.497211 68.451962 
L 114.36653 68.642794 
L 116.002896 68.728636 
L 123.877906 68.741156 
L 131.727347 68.741152 
L 131.727347 68.741152 
" style="fill:none;stroke:#0000ff;stroke-linecap:square;stroke-width:2;"/>
   </g>
   <g id="line2d_28">
    <path clip-path="url(#pcc57e27a71)" d="M 193.09106 373.077722 
L 213.5712 373.077771 
L 213.980291 370.62586 
L 214.1337 370.733136 
L 215.591089 372.607561 
L 216.28143 372.874303 
L 217.355295 373.022767 
L 219.809844 373.075197 
L 234.000203 373.077923 
L 234.000203 373.077923 
" style="fill:none;stroke:#0000ff;stroke-linecap:square;stroke-width:2;"/>
   </g>
   <g id="line2d_29">
    <path clip-path="url(#pcc57e27a71)" d="M 193.09106 342.654093 
L 213.5712 342.654153 
L 213.980291 337.982437 
L 214.082564 338.073197 
L 214.338246 338.852424 
L 215.00302 340.839798 
L 215.514384 341.673303 
L 216.051316 342.143232 
L 216.71609 342.427021 
L 217.71325 342.587153 
L 219.835412 342.649498 
L 234.000203 342.6544 
L 234.000203 342.6544 
" style="fill:none;stroke:#0000ff;stroke-linecap:square;stroke-width:2;"/>
   </g>
   <g id="line2d_30">
    <path clip-path="url(#pcc57e27a71)" d="M 193.09106 312.228067 
L 213.5712 312.228163 
L 213.929155 305.425222 
L 214.005859 305.363008 
L 214.031428 305.394945 
L 214.184837 305.912366 
L 215.207565 310.162095 
L 215.693361 311.08021 
L 216.230294 311.630846 
L 216.869499 311.954364 
L 217.764387 312.136617 
L 219.503025 312.217621 
L 228.707582 312.228527 
L 234.000203 312.228469 
L 234.000203 312.228469 
" style="fill:none;stroke:#0000ff;stroke-linecap:square;stroke-width:2;"/>
   </g>
   <g id="line2d_31">
    <path clip-path="url(#pcc57e27a71)" d="M 193.09106 281.80106 
L 213.5712 281.801243 
L 213.826882 275.679814 
L 213.954723 275.260086 
L 213.980291 275.271755 
L 214.108132 275.599988 
L 215.386543 280.278654 
L 215.897907 280.982171 
L 216.460408 281.387781 
L 217.201886 281.633467 
L 218.403592 281.762385 
L 221.599619 281.800594 
L 234.000203 281.801422 
L 234.000203 281.801422 
" style="fill:none;stroke:#0000ff;stroke-linecap:square;stroke-width:2;"/>
   </g>
   <g id="line2d_32">
    <path clip-path="url(#pcc57e27a71)" d="M 193.09106 251.47583 
L 213.5712 251.476042 
L 213.647904 250.611228 
L 213.699041 250.927098 
L 213.954723 252.227818 
L 214.159269 252.385856 
L 214.440519 252.267403 
L 215.463248 251.739336 
L 216.409271 251.559943 
L 218.250183 251.484167 
L 229.423492 251.475747 
L 234.000203 251.475831 
L 234.000203 251.475831 
" style="fill:none;stroke:#0000ff;stroke-linecap:square;stroke-width:2;"/>
   </g>
   <g id="line2d_33">
    <path clip-path="url(#pcc57e27a71)" d="M 193.09106 221.070924 
L 213.5712 221.070983 
L 213.878018 248.682834 
L 213.954723 249.482283 
L 214.005859 249.372189 
L 214.1337 247.775159 
L 215.309838 228.482197 
L 215.795634 225.188986 
L 216.28143 223.352809 
L 216.767226 222.333682 
L 217.278591 221.747632 
L 217.892228 221.390613 
L 218.735979 221.184467 
L 220.244503 221.088018 
L 226.125193 221.070021 
L 234.000203 221.070299 
L 234.000203 221.070299 
" style="fill:none;stroke:#0000ff;stroke-linecap:square;stroke-width:2;"/>
   </g>
   <g id="line2d_34">
    <path clip-path="url(#pcc57e27a71)" d="M 193.09106 190.67183 
L 213.5712 190.671707 
L 213.878018 219.244862 
L 213.954723 220.048666 
L 214.005859 219.924876 
L 214.1337 218.258521 
L 215.309838 198.317909 
L 215.795634 194.921889 
L 216.28143 193.028379 
L 216.767226 191.977001 
L 217.278591 191.372003 
L 217.86666 191.013571 
L 218.684842 190.797328 
L 220.091094 190.693409 
L 224.949055 190.670596 
L 234.000203 190.67087 
L 234.000203 190.67087 
" style="fill:none;stroke:#0000ff;stroke-linecap:square;stroke-width:2;"/>
   </g>
   <g id="line2d_35">
    <path clip-path="url(#pcc57e27a71)" d="M 193.09106 160.261497 
L 213.596768 160.232315 
L 213.980291 164.108309 
L 214.082564 164.065131 
L 214.312678 163.519511 
L 215.028588 161.748483 
L 215.539952 161.072588 
L 216.128021 160.664376 
L 216.895067 160.42335 
L 218.14791 160.297842 
L 221.574051 160.261143 
L 234.000203 160.260634 
L 234.000203 160.260634 
" style="fill:none;stroke:#0000ff;stroke-linecap:square;stroke-width:2;"/>
   </g>
   <g id="line2d_36">
    <path clip-path="url(#pcc57e27a71)" d="M 193.09106 129.819932 
L 213.5712 129.819604 
L 213.85245 122.557266 
L 213.954723 122.265557 
L 214.005859 122.323938 
L 214.184837 123.051137 
L 215.079724 127.279348 
L 215.56552 128.41289 
L 216.076885 129.069819 
L 216.664954 129.457714 
L 217.432 129.680473 
L 218.735979 129.792521 
L 222.826893 129.819193 
L 234.000203 129.819311 
L 234.000203 129.819311 
" style="fill:none;stroke:#0000ff;stroke-linecap:square;stroke-width:2;"/>
   </g>
   <g id="line2d_37">
    <path clip-path="url(#pcc57e27a71)" d="M 193.09106 99.338604 
L 213.5712 99.33829 
L 213.929155 89.481581 
L 213.980291 89.437937 
L 214.005859 89.474073 
L 214.1337 90.029484 
L 215.335406 96.845582 
L 215.821203 97.960521 
L 216.332567 98.60337 
L 216.920636 98.982775 
L 217.71325 99.205363 
L 219.068366 99.313932 
L 223.542803 99.338227 
L 234.000203 99.3382 
L 234.000203 99.3382 
" style="fill:none;stroke:#0000ff;stroke-linecap:square;stroke-width:2;"/>
   </g>
   <g id="line2d_38">
    <path clip-path="url(#pcc57e27a71)" d="M 193.09106 68.81482 
L 213.5712 68.814606 
L 213.954723 62.147699 
L 214.031428 62.209631 
L 214.210405 62.873068 
L 215.079724 66.52041 
L 215.56552 67.541587 
L 216.076885 68.134253 
L 216.664954 68.484991 
L 217.483136 68.69501 
L 218.914956 68.794661 
L 224.207577 68.814617 
L 234.000203 68.814566 
L 234.000203 68.814566 
" style="fill:none;stroke:#0000ff;stroke-linecap:square;stroke-width:2;"/>
   </g>
   <g id="line2d_39">
    <path clip-path="url(#pcc57e27a71)" d="M 295.363916 373.053664 
L 315.844055 373.053725 
L 316.278714 370.118222 
L 316.432124 370.288763 
L 317.659398 372.330864 
L 318.247467 372.698651 
L 319.040082 372.918048 
L 320.395197 373.027719 
L 324.767361 373.053877 
L 336.273058 373.053923 
L 336.273058 373.053923 
" style="fill:none;stroke:#0000ff;stroke-linecap:square;stroke-width:2;"/>
   </g>
   <g id="line2d_40">
    <path clip-path="url(#pcc57e27a71)" d="M 295.363916 342.630462 
L 315.844055 342.630532 
L 316.278714 335.356625 
L 316.304283 335.378594 
L 316.432124 335.769572 
L 317.659398 340.836954 
L 318.145194 341.635045 
L 318.682127 342.112752 
L 319.3469 342.400613 
L 320.34406 342.562909 
L 322.466222 342.62609 
L 336.273058 342.630947 
L 336.273058 342.630947 
" style="fill:none;stroke:#0000ff;stroke-linecap:square;stroke-width:2;"/>
   </g>
   <g id="line2d_41">
    <path clip-path="url(#pcc57e27a71)" d="M 295.363916 312.151808 
L 315.844055 312.151948 
L 316.253146 298.929049 
L 316.304283 298.985132 
L 316.457692 299.945781 
L 317.505989 308.259947 
L 317.991785 309.98814 
L 318.477581 310.952927 
L 318.988945 311.508962 
L 319.602582 311.848087 
L 320.446333 312.044022 
L 322.005994 312.136764 
L 328.500321 312.152855 
L 336.273058 312.152633 
L 336.273058 312.152633 
" style="fill:none;stroke:#0000ff;stroke-linecap:square;stroke-width:2;"/>
   </g>
   <g id="line2d_42">
    <path clip-path="url(#pcc57e27a71)" d="M 295.363916 281.225327 
L 315.844055 281.225865 
L 316.125305 266.255448 
L 316.227578 265.539456 
L 316.278714 265.616043 
L 316.432124 266.773309 
L 317.454852 276.465068 
L 317.940648 278.566164 
L 318.426444 279.742743 
L 318.937809 280.424058 
L 319.525878 280.830442 
L 320.292924 281.068564 
L 321.545766 281.19131 
L 325.048612 281.226461 
L 336.273058 281.226801 
L 336.273058 281.226801 
" style="fill:none;stroke:#0000ff;stroke-linecap:square;stroke-width:2;"/>
   </g>
   <g id="line2d_43">
    <path clip-path="url(#pcc57e27a71)" d="M 295.363916 247.664803 
L 315.844055 247.667143 
L 316.074169 228.520384 
L 316.20201 227.286039 
L 316.227578 227.335072 
L 316.355419 228.39429 
L 317.582693 242.457124 
L 318.068489 244.692761 
L 318.554285 245.963045 
L 319.06565 246.715307 
L 319.62815 247.163384 
L 320.34406 247.442042 
L 321.443494 247.60234 
L 323.795769 247.665728 
L 336.273058 247.670643 
L 336.273058 247.670643 
" style="fill:none;stroke:#0000ff;stroke-linecap:square;stroke-width:2;"/>
   </g>
   <g id="line2d_44">
    <path clip-path="url(#pcc57e27a71)" d="M 295.363916 220.828051 
L 315.844055 220.828305 
L 316.150873 275.546782 
L 316.227578 277.066232 
L 316.278714 276.819 
L 316.406556 273.613636 
L 317.582693 235.435014 
L 318.042921 229.191577 
L 318.503149 225.603938 
L 318.963377 223.551519 
L 319.449173 222.331872 
L 319.960537 221.632058 
L 320.523038 221.23124 
L 321.264516 220.989752 
L 322.466222 220.863941 
L 325.713385 220.827396 
L 336.273058 220.827351 
L 336.273058 220.827351 
" style="fill:none;stroke:#0000ff;stroke-linecap:square;stroke-width:2;"/>
   </g>
   <g id="line2d_45">
    <path clip-path="url(#pcc57e27a71)" d="M 295.363916 190.727352 
L 315.844055 190.727167 
L 316.150873 246.024525 
L 316.227578 247.54865 
L 316.278714 247.29472 
L 316.406556 244.049801 
L 317.582693 205.488157 
L 318.042921 199.187019 
L 318.503149 195.564329 
L 318.963377 193.489885 
L 319.449173 192.255563 
L 319.960537 191.546127 
L 320.523038 191.138898 
L 321.264516 190.892762 
L 322.466222 190.763784 
L 325.662249 190.725805 
L 336.273058 190.72571 
L 336.273058 190.72571 
" style="fill:none;stroke:#0000ff;stroke-linecap:square;stroke-width:2;"/>
   </g>
   <g id="line2d_46">
    <path clip-path="url(#pcc57e27a71)" d="M 295.363916 160.38557 
L 315.844055 160.385151 
L 315.997464 156.706558 
L 316.074169 156.677621 
L 316.099737 156.71003 
L 316.355419 157.374194 
L 316.994624 158.916951 
L 317.505989 159.600531 
L 318.068489 159.999042 
L 318.809968 160.236522 
L 320.011674 160.354521 
L 323.540087 160.383861 
L 336.273058 160.384231 
L 336.273058 160.384231 
" style="fill:none;stroke:#0000ff;stroke-linecap:square;stroke-width:2;"/>
   </g>
   <g id="line2d_47">
    <path clip-path="url(#pcc57e27a71)" d="M 295.363916 129.959436 
L 315.844055 129.958901 
L 316.150873 112.120774 
L 316.227578 111.703939 
L 316.278714 111.82185 
L 316.432124 113.219977 
L 317.429284 124.321637 
L 317.91508 126.83507 
L 318.400876 128.236737 
L 318.886672 129.012107 
L 319.423605 129.471327 
L 320.088378 129.745158 
L 321.111107 129.899158 
L 323.386678 129.955375 
L 336.273058 129.958578 
L 336.273058 129.958578 
" style="fill:none;stroke:#0000ff;stroke-linecap:square;stroke-width:2;"/>
   </g>
   <g id="line2d_48">
    <path clip-path="url(#pcc57e27a71)" d="M 295.363916 99.465833 
L 315.844055 99.465315 
L 316.227578 79.7051 
L 316.253146 79.693667 
L 316.278714 79.756577 
L 316.406556 80.836788 
L 317.608262 94.462808 
L 318.094058 96.697651 
L 318.579854 97.939899 
L 319.091218 98.652588 
L 319.653719 99.059751 
L 320.395197 99.303775 
L 321.596903 99.429528 
L 324.869634 99.465074 
L 336.273058 99.465341 
L 336.273058 99.465341 
" style="fill:none;stroke:#0000ff;stroke-linecap:square;stroke-width:2;"/>
   </g>
   <g id="line2d_49">
    <path clip-path="url(#pcc57e27a71)" d="M 295.363916 68.853968 
L 315.844055 68.853686 
L 316.253146 58.909091 
L 316.329851 59.088804 
L 316.559965 60.541805 
L 317.250307 64.976426 
L 317.736103 66.69613 
L 318.221899 67.661855 
L 318.733263 68.21784 
L 319.3469 68.555504 
L 320.190651 68.748995 
L 321.750312 68.838939 
L 328.551457 68.853784 
L 336.273058 68.853695 
L 336.273058 68.853695 
" style="fill:none;stroke:#0000ff;stroke-linecap:square;stroke-width:2;"/>
   </g>
   <g id="line2d_50">
    <path clip-path="url(#pcc57e27a71)" d="M 397.636771 373.021119 
L 418.11691 373.021189 
L 418.500433 371.475955 
L 418.679411 371.538286 
L 420.162367 372.730053 
L 421.057255 372.921685 
L 422.719188 373.007669 
L 430.491925 373.021379 
L 438.545913 373.021341 
L 438.545913 373.021341 
" style="fill:none;stroke:#0000ff;stroke-linecap:square;stroke-width:2;"/>
   </g>
   <g id="line2d_51">
    <path clip-path="url(#pcc57e27a71)" d="M 397.636771 342.528875 
L 418.11691 342.528981 
L 418.500433 340.360889 
L 418.653842 340.423991 
L 419.062934 341.055856 
L 419.651003 341.778888 
L 420.239072 342.156892 
L 421.031686 342.384839 
L 422.361233 342.499584 
L 426.401011 342.529018 
L 438.545913 342.529205 
L 438.545913 342.529205 
" style="fill:none;stroke:#0000ff;stroke-linecap:square;stroke-width:2;"/>
   </g>
   <g id="line2d_52">
    <path clip-path="url(#pcc57e27a71)" d="M 397.636771 311.962659 
L 418.11691 311.962843 
L 418.449297 309.606159 
L 418.602706 309.587548 
L 418.858388 309.973062 
L 419.574298 311.056805 
L 420.136799 311.495915 
L 420.852709 311.762289 
L 421.952142 311.907766 
L 424.508963 311.960317 
L 438.545913 311.963177 
L 438.545913 311.963177 
" style="fill:none;stroke:#0000ff;stroke-linecap:square;stroke-width:2;"/>
   </g>
   <g id="line2d_53">
    <path clip-path="url(#pcc57e27a71)" d="M 397.636771 281.203106 
L 418.11691 281.203457 
L 418.372592 279.895361 
L 418.55157 279.794494 
L 418.807252 279.992727 
L 419.625435 280.692389 
L 420.341345 280.9715 
L 421.440778 281.132848 
L 423.793053 281.197945 
L 438.545913 281.204015 
L 438.545913 281.204015 
" style="fill:none;stroke:#0000ff;stroke-linecap:square;stroke-width:2;"/>
   </g>
   <g id="line2d_54">
    <path clip-path="url(#pcc57e27a71)" d="M 397.636771 250.409063 
L 418.11691 250.409575 
L 418.526001 252.65311 
L 418.679411 252.522107 
L 419.957821 250.883357 
L 420.622595 250.600242 
L 421.594187 250.455538 
L 423.84419 250.410183 
L 438.545913 250.410326 
L 438.545913 250.410326 
" style="fill:none;stroke:#0000ff;stroke-linecap:square;stroke-width:2;"/>
   </g>
   <g id="line2d_55">
    <path clip-path="url(#pcc57e27a71)" d="M 397.636771 220.498129 
L 418.11691 220.498362 
L 418.449297 229.137663 
L 418.526001 229.260365 
L 418.55157 229.229152 
L 418.679411 228.740303 
L 419.881117 222.695799 
L 420.366913 221.710011 
L 420.878277 221.14291 
L 421.491914 220.799329 
L 422.335665 220.603313 
L 423.895326 220.513046 
L 430.747608 220.498499 
L 438.545913 220.49851 
L 438.545913 220.49851 
" style="fill:none;stroke:#0000ff;stroke-linecap:square;stroke-width:2;"/>
   </g>
   <g id="line2d_56">
    <path clip-path="url(#pcc57e27a71)" d="M 397.636771 190.349836 
L 418.11691 190.349873 
L 418.449297 199.633855 
L 418.526001 199.767504 
L 418.55157 199.734616 
L 418.679411 199.212035 
L 419.881117 192.728057 
L 420.366913 191.668253 
L 420.878277 191.056204 
L 421.466346 190.693746 
L 422.258961 190.479837 
L 423.639644 190.373452 
L 428.293059 190.349684 
L 438.545913 190.349711 
L 438.545913 190.349711 
" style="fill:none;stroke:#0000ff;stroke-linecap:square;stroke-width:2;"/>
   </g>
   <g id="line2d_57">
    <path clip-path="url(#pcc57e27a71)" d="M 397.636771 160.031239 
L 418.11691 160.031164 
L 418.500433 163.919548 
L 418.602706 163.86589 
L 418.83282 163.306982 
L 419.54873 161.517627 
L 420.060094 160.835962 
L 420.648163 160.426308 
L 421.415209 160.187041 
L 422.668052 160.065148 
L 426.196465 160.031355 
L 438.545913 160.030952 
L 438.545913 160.030952 
" style="fill:none;stroke:#0000ff;stroke-linecap:square;stroke-width:2;"/>
   </g>
   <g id="line2d_58">
    <path clip-path="url(#pcc57e27a71)" d="M 397.636771 129.636582 
L 418.11691 129.63645 
L 418.372592 128.68517 
L 418.55157 128.667919 
L 419.037366 129.003316 
L 419.753276 129.365059 
L 420.673731 129.550804 
L 422.41237 129.627451 
L 432.690792 129.636279 
L 438.545913 129.636294 
L 438.545913 129.636294 
" style="fill:none;stroke:#0000ff;stroke-linecap:square;stroke-width:2;"/>
   </g>
   <g id="line2d_59">
    <path clip-path="url(#pcc57e27a71)" d="M 397.636771 99.200047 
L 418.11691 99.199904 
L 418.449297 96.172848 
L 418.577138 96.176352 
L 418.807252 96.60711 
L 419.54873 98.057611 
L 420.085662 98.604289 
L 420.724868 98.928597 
L 421.619755 99.110542 
L 423.358394 99.189825 
L 432.99761 99.199819 
L 438.545913 99.199814 
L 438.545913 99.199814 
" style="fill:none;stroke:#0000ff;stroke-linecap:square;stroke-width:2;"/>
   </g>
   <g id="line2d_60">
    <path clip-path="url(#pcc57e27a71)" d="M 397.636771 68.739907 
L 418.11691 68.739786 
L 418.474865 65.745856 
L 418.602706 65.795005 
L 418.883956 66.358797 
L 419.54873 67.611741 
L 420.085662 68.151137 
L 420.724868 68.471275 
L 421.619755 68.651108 
L 423.358394 68.729726 
L 433.048747 68.739743 
L 438.545913 68.739732 
L 438.545913 68.739732 
" style="fill:none;stroke:#0000ff;stroke-linecap:square;stroke-width:2;"/>
   </g>
   <g id="line2d_61">
    <path clip-path="url(#pcc57e27a71)" d="M 140.590995 159.984516 
L 174.681947 159.984516 
" style="fill:none;stroke:#000000;stroke-linecap:square;stroke-width:1.5;"/>
   </g>
   <g id="line2d_62">
    <path clip-path="url(#pcc57e27a71)" d="M 140.590995 159.984516 
L 140.590995 144.76263 
" style="fill:none;stroke:#000000;stroke-linecap:square;stroke-width:1.5;"/>
   </g>
   <g id="line2d_63">
    <path clip-path="url(#pcc57e27a71)" d="M 362.182181 159.984516 
L 362.182181 144.76263 
" style="fill:none;stroke:#0000ff;stroke-linecap:square;stroke-width:1.5;"/>
   </g>
   <g id="text_1">
    <!-- 50 um -->
    <defs>
     <path d="M 10.796875 72.90625 
L 49.515625 72.90625 
L 49.515625 64.59375 
L 19.828125 64.59375 
L 19.828125 46.734375 
Q 21.96875 47.46875 24.109375 47.828125 
Q 26.265625 48.1875 28.421875 48.1875 
Q 40.625 48.1875 47.75 41.5 
Q 54.890625 34.8125 54.890625 23.390625 
Q 54.890625 11.625 47.5625 5.09375 
Q 40.234375 -1.421875 26.90625 -1.421875 
Q 22.3125 -1.421875 17.546875 -0.640625 
Q 12.796875 0.140625 7.71875 1.703125 
L 7.71875 11.625 
Q 12.109375 9.234375 16.796875 8.0625 
Q 21.484375 6.890625 26.703125 6.890625 
Q 35.15625 6.890625 40.078125 11.328125 
Q 45.015625 15.765625 45.015625 23.390625 
Q 45.015625 31 40.078125 35.4375 
Q 35.15625 39.890625 26.703125 39.890625 
Q 22.75 39.890625 18.8125 39.015625 
Q 14.890625 38.140625 10.796875 36.28125 
z
" id="DejaVuSans-35"/>
     <path d="M 31.78125 66.40625 
Q 24.171875 66.40625 20.328125 58.90625 
Q 16.5 51.421875 16.5 36.375 
Q 16.5 21.390625 20.328125 13.890625 
Q 24.171875 6.390625 31.78125 6.390625 
Q 39.453125 6.390625 43.28125 13.890625 
Q 47.125 21.390625 47.125 36.375 
Q 47.125 51.421875 43.28125 58.90625 
Q 39.453125 66.40625 31.78125 66.40625 
z
M 31.78125 74.21875 
Q 44.046875 74.21875 50.515625 64.515625 
Q 56.984375 54.828125 56.984375 36.375 
Q 56.984375 17.96875 50.515625 8.265625 
Q 44.046875 -1.421875 31.78125 -1.421875 
Q 19.53125 -1.421875 13.0625 8.265625 
Q 6.59375 17.96875 6.59375 36.375 
Q 6.59375 54.828125 13.0625 64.515625 
Q 19.53125 74.21875 31.78125 74.21875 
z
" id="DejaVuSans-30"/>
     <path id="DejaVuSans-20"/>
     <path d="M 8.5 21.578125 
L 8.5 54.6875 
L 17.484375 54.6875 
L 17.484375 21.921875 
Q 17.484375 14.15625 20.5 10.265625 
Q 23.53125 6.390625 29.59375 6.390625 
Q 36.859375 6.390625 41.078125 11.03125 
Q 45.3125 15.671875 45.3125 23.6875 
L 45.3125 54.6875 
L 54.296875 54.6875 
L 54.296875 0 
L 45.3125 0 
L 45.3125 8.40625 
Q 42.046875 3.421875 37.71875 1 
Q 33.40625 -1.421875 27.6875 -1.421875 
Q 18.265625 -1.421875 13.375 4.4375 
Q 8.5 10.296875 8.5 21.578125 
z
M 31.109375 56 
z
" id="DejaVuSans-75"/>
     <path d="M 52 44.1875 
Q 55.375 50.25 60.0625 53.125 
Q 64.75 56 71.09375 56 
Q 79.640625 56 84.28125 50.015625 
Q 88.921875 44.046875 88.921875 33.015625 
L 88.921875 0 
L 79.890625 0 
L 79.890625 32.71875 
Q 79.890625 40.578125 77.09375 44.375 
Q 74.3125 48.1875 68.609375 48.1875 
Q 61.625 48.1875 57.5625 43.546875 
Q 53.515625 38.921875 53.515625 30.90625 
L 53.515625 0 
L 44.484375 0 
L 44.484375 32.71875 
Q 44.484375 40.625 41.703125 44.40625 
Q 38.921875 48.1875 33.109375 48.1875 
Q 26.21875 48.1875 22.15625 43.53125 
Q 18.109375 38.875 18.109375 30.90625 
L 18.109375 0 
L 9.078125 0 
L 9.078125 54.6875 
L 18.109375 54.6875 
L 18.109375 46.1875 
Q 21.1875 51.21875 25.484375 53.609375 
Q 29.78125 56 35.6875 56 
Q 41.65625 56 45.828125 52.96875 
Q 50 49.953125 52 44.1875 
z
" id="DejaVuSans-6d"/>
    </defs>
    <g transform="translate(144.00009 167.595458)scale(0.1 -0.1)">
     <use xlink:href="#DejaVuSans-35"/>
     <use x="63.623047" xlink:href="#DejaVuSans-30"/>
     <use x="127.246094" xlink:href="#DejaVuSans-20"/>
     <use x="159.033203" xlink:href="#DejaVuSans-75"/>
     <use x="222.412109" xlink:href="#DejaVuSans-6d"/>
    </g>
   </g>
   <g id="text_2">
    <!-- 50 um -->
    <g transform="translate(106.500043 152.373573)scale(0.1 -0.1)">
     <use xlink:href="#DejaVuSans-35"/>
     <use x="63.623047" xlink:href="#DejaVuSans-30"/>
     <use x="127.246094" xlink:href="#DejaVuSans-20"/>
     <use x="159.033203" xlink:href="#DejaVuSans-75"/>
     <use x="222.412109" xlink:href="#DejaVuSans-6d"/>
    </g>
   </g>
   <g id="text_3">
    <!-- 0.1 $\mu$V -->
    <defs>
     <path d="M 10.6875 12.40625 
L 21 12.40625 
L 21 0 
L 10.6875 0 
z
" id="DejaVuSans-2e"/>
     <path d="M 12.40625 8.296875 
L 28.515625 8.296875 
L 28.515625 63.921875 
L 10.984375 60.40625 
L 10.984375 69.390625 
L 28.421875 72.90625 
L 38.28125 72.90625 
L 38.28125 8.296875 
L 54.390625 8.296875 
L 54.390625 0 
L 12.40625 0 
z
" id="DejaVuSans-31"/>
     <path d="M -1.3125 -20.796875 
L 13.375 54.6875 
L 22.40625 54.6875 
L 15.765625 20.65625 
Q 15.578125 19.625 15.421875 18.359375 
Q 15.28125 17.09375 15.28125 15.828125 
Q 15.28125 11.28125 18.140625 8.828125 
Q 21 6.390625 26.3125 6.390625 
Q 33.546875 6.390625 37.984375 10.484375 
Q 42.4375 14.59375 44 22.796875 
L 50.203125 54.6875 
L 59.1875 54.6875 
L 51.03125 12.640625 
Q 50.828125 11.71875 50.75 11.03125 
Q 50.6875 10.359375 50.6875 9.8125 
Q 50.6875 8.296875 51.296875 7.59375 
Q 51.90625 6.890625 53.21875 6.890625 
Q 53.71875 6.890625 54.5625 7.125 
Q 55.421875 7.375 56.984375 8.015625 
L 55.609375 0.78125 
Q 53.46875 -0.296875 51.515625 -0.859375 
Q 49.5625 -1.421875 47.703125 -1.421875 
Q 44.484375 -1.421875 42.65625 0.625 
Q 40.828125 2.6875 40.828125 6.296875 
Q 38.09375 2.390625 34.296875 0.484375 
Q 30.515625 -1.421875 25.390625 -1.421875 
Q 20.84375 -1.421875 17.453125 0.671875 
Q 14.0625 2.78125 12.984375 6.203125 
L 7.71875 -20.796875 
z
" id="DejaVuSans-Oblique-3bc"/>
     <path d="M 28.609375 0 
L 0.78125 72.90625 
L 11.078125 72.90625 
L 34.1875 11.53125 
L 57.328125 72.90625 
L 67.578125 72.90625 
L 39.796875 0 
z
" id="DejaVuSans-56"/>
    </defs>
    <g transform="translate(365.591276 152.373573)scale(0.1 -0.1)">
     <use transform="translate(0 0.78125)" xlink:href="#DejaVuSans-30"/>
     <use transform="translate(63.623047 0.78125)" xlink:href="#DejaVuSans-2e"/>
     <use transform="translate(95.410156 0.78125)" xlink:href="#DejaVuSans-31"/>
     <use transform="translate(159.033203 0.78125)" xlink:href="#DejaVuSans-20"/>
     <use transform="translate(190.820312 0.78125)" xlink:href="#DejaVuSans-Oblique-3bc"/>
     <use transform="translate(254.443359 0.78125)" xlink:href="#DejaVuSans-56"/>
    </g>
   </g>
   <g id="text_4">
    <!-- Location-dependent extracellular spike shapes -->
    <defs>
     <path d="M 9.8125 72.90625 
L 19.671875 72.90625 
L 19.671875 8.296875 
L 55.171875 8.296875 
L 55.171875 0 
L 9.8125 0 
z
" id="DejaVuSans-4c"/>
     <path d="M 30.609375 48.390625 
Q 23.390625 48.390625 19.1875 42.75 
Q 14.984375 37.109375 14.984375 27.296875 
Q 14.984375 17.484375 19.15625 11.84375 
Q 23.34375 6.203125 30.609375 6.203125 
Q 37.796875 6.203125 41.984375 11.859375 
Q 46.1875 17.53125 46.1875 27.296875 
Q 46.1875 37.015625 41.984375 42.703125 
Q 37.796875 48.390625 30.609375 48.390625 
z
M 30.609375 56 
Q 42.328125 56 49.015625 48.375 
Q 55.71875 40.765625 55.71875 27.296875 
Q 55.71875 13.875 49.015625 6.21875 
Q 42.328125 -1.421875 30.609375 -1.421875 
Q 18.84375 -1.421875 12.171875 6.21875 
Q 5.515625 13.875 5.515625 27.296875 
Q 5.515625 40.765625 12.171875 48.375 
Q 18.84375 56 30.609375 56 
z
" id="DejaVuSans-6f"/>
     <path d="M 48.78125 52.59375 
L 48.78125 44.1875 
Q 44.96875 46.296875 41.140625 47.34375 
Q 37.3125 48.390625 33.40625 48.390625 
Q 24.65625 48.390625 19.8125 42.84375 
Q 14.984375 37.3125 14.984375 27.296875 
Q 14.984375 17.28125 19.8125 11.734375 
Q 24.65625 6.203125 33.40625 6.203125 
Q 37.3125 6.203125 41.140625 7.25 
Q 44.96875 8.296875 48.78125 10.40625 
L 48.78125 2.09375 
Q 45.015625 0.34375 40.984375 -0.53125 
Q 36.96875 -1.421875 32.421875 -1.421875 
Q 20.0625 -1.421875 12.78125 6.34375 
Q 5.515625 14.109375 5.515625 27.296875 
Q 5.515625 40.671875 12.859375 48.328125 
Q 20.21875 56 33.015625 56 
Q 37.15625 56 41.109375 55.140625 
Q 45.0625 54.296875 48.78125 52.59375 
z
" id="DejaVuSans-63"/>
     <path d="M 34.28125 27.484375 
Q 23.390625 27.484375 19.1875 25 
Q 14.984375 22.515625 14.984375 16.5 
Q 14.984375 11.71875 18.140625 8.90625 
Q 21.296875 6.109375 26.703125 6.109375 
Q 34.1875 6.109375 38.703125 11.40625 
Q 43.21875 16.703125 43.21875 25.484375 
L 43.21875 27.484375 
z
M 52.203125 31.203125 
L 52.203125 0 
L 43.21875 0 
L 43.21875 8.296875 
Q 40.140625 3.328125 35.546875 0.953125 
Q 30.953125 -1.421875 24.3125 -1.421875 
Q 15.921875 -1.421875 10.953125 3.296875 
Q 6 8.015625 6 15.921875 
Q 6 25.140625 12.171875 29.828125 
Q 18.359375 34.515625 30.609375 34.515625 
L 43.21875 34.515625 
L 43.21875 35.40625 
Q 43.21875 41.609375 39.140625 45 
Q 35.0625 48.390625 27.6875 48.390625 
Q 23 48.390625 18.546875 47.265625 
Q 14.109375 46.140625 10.015625 43.890625 
L 10.015625 52.203125 
Q 14.9375 54.109375 19.578125 55.046875 
Q 24.21875 56 28.609375 56 
Q 40.484375 56 46.34375 49.84375 
Q 52.203125 43.703125 52.203125 31.203125 
z
" id="DejaVuSans-61"/>
     <path d="M 18.3125 70.21875 
L 18.3125 54.6875 
L 36.8125 54.6875 
L 36.8125 47.703125 
L 18.3125 47.703125 
L 18.3125 18.015625 
Q 18.3125 11.328125 20.140625 9.421875 
Q 21.96875 7.515625 27.59375 7.515625 
L 36.8125 7.515625 
L 36.8125 0 
L 27.59375 0 
Q 17.1875 0 13.234375 3.875 
Q 9.28125 7.765625 9.28125 18.015625 
L 9.28125 47.703125 
L 2.6875 47.703125 
L 2.6875 54.6875 
L 9.28125 54.6875 
L 9.28125 70.21875 
z
" id="DejaVuSans-74"/>
     <path d="M 9.421875 54.6875 
L 18.40625 54.6875 
L 18.40625 0 
L 9.421875 0 
z
M 9.421875 75.984375 
L 18.40625 75.984375 
L 18.40625 64.59375 
L 9.421875 64.59375 
z
" id="DejaVuSans-69"/>
     <path d="M 54.890625 33.015625 
L 54.890625 0 
L 45.90625 0 
L 45.90625 32.71875 
Q 45.90625 40.484375 42.875 44.328125 
Q 39.84375 48.1875 33.796875 48.1875 
Q 26.515625 48.1875 22.3125 43.546875 
Q 18.109375 38.921875 18.109375 30.90625 
L 18.109375 0 
L 9.078125 0 
L 9.078125 54.6875 
L 18.109375 54.6875 
L 18.109375 46.1875 
Q 21.34375 51.125 25.703125 53.5625 
Q 30.078125 56 35.796875 56 
Q 45.21875 56 50.046875 50.171875 
Q 54.890625 44.34375 54.890625 33.015625 
z
" id="DejaVuSans-6e"/>
     <path d="M 4.890625 31.390625 
L 31.203125 31.390625 
L 31.203125 23.390625 
L 4.890625 23.390625 
z
" id="DejaVuSans-2d"/>
     <path d="M 45.40625 46.390625 
L 45.40625 75.984375 
L 54.390625 75.984375 
L 54.390625 0 
L 45.40625 0 
L 45.40625 8.203125 
Q 42.578125 3.328125 38.25 0.953125 
Q 33.9375 -1.421875 27.875 -1.421875 
Q 17.96875 -1.421875 11.734375 6.484375 
Q 5.515625 14.40625 5.515625 27.296875 
Q 5.515625 40.1875 11.734375 48.09375 
Q 17.96875 56 27.875 56 
Q 33.9375 56 38.25 53.625 
Q 42.578125 51.265625 45.40625 46.390625 
z
M 14.796875 27.296875 
Q 14.796875 17.390625 18.875 11.75 
Q 22.953125 6.109375 30.078125 6.109375 
Q 37.203125 6.109375 41.296875 11.75 
Q 45.40625 17.390625 45.40625 27.296875 
Q 45.40625 37.203125 41.296875 42.84375 
Q 37.203125 48.484375 30.078125 48.484375 
Q 22.953125 48.484375 18.875 42.84375 
Q 14.796875 37.203125 14.796875 27.296875 
z
" id="DejaVuSans-64"/>
     <path d="M 56.203125 29.59375 
L 56.203125 25.203125 
L 14.890625 25.203125 
Q 15.484375 15.921875 20.484375 11.0625 
Q 25.484375 6.203125 34.421875 6.203125 
Q 39.59375 6.203125 44.453125 7.46875 
Q 49.3125 8.734375 54.109375 11.28125 
L 54.109375 2.78125 
Q 49.265625 0.734375 44.1875 -0.34375 
Q 39.109375 -1.421875 33.890625 -1.421875 
Q 20.796875 -1.421875 13.15625 6.1875 
Q 5.515625 13.8125 5.515625 26.8125 
Q 5.515625 40.234375 12.765625 48.109375 
Q 20.015625 56 32.328125 56 
Q 43.359375 56 49.78125 48.890625 
Q 56.203125 41.796875 56.203125 29.59375 
z
M 47.21875 32.234375 
Q 47.125 39.59375 43.09375 43.984375 
Q 39.0625 48.390625 32.421875 48.390625 
Q 24.90625 48.390625 20.390625 44.140625 
Q 15.875 39.890625 15.1875 32.171875 
z
" id="DejaVuSans-65"/>
     <path d="M 18.109375 8.203125 
L 18.109375 -20.796875 
L 9.078125 -20.796875 
L 9.078125 54.6875 
L 18.109375 54.6875 
L 18.109375 46.390625 
Q 20.953125 51.265625 25.265625 53.625 
Q 29.59375 56 35.59375 56 
Q 45.5625 56 51.78125 48.09375 
Q 58.015625 40.1875 58.015625 27.296875 
Q 58.015625 14.40625 51.78125 6.484375 
Q 45.5625 -1.421875 35.59375 -1.421875 
Q 29.59375 -1.421875 25.265625 0.953125 
Q 20.953125 3.328125 18.109375 8.203125 
z
M 48.6875 27.296875 
Q 48.6875 37.203125 44.609375 42.84375 
Q 40.53125 48.484375 33.40625 48.484375 
Q 26.265625 48.484375 22.1875 42.84375 
Q 18.109375 37.203125 18.109375 27.296875 
Q 18.109375 17.390625 22.1875 11.75 
Q 26.265625 6.109375 33.40625 6.109375 
Q 40.53125 6.109375 44.609375 11.75 
Q 48.6875 17.390625 48.6875 27.296875 
z
" id="DejaVuSans-70"/>
     <path d="M 54.890625 54.6875 
L 35.109375 28.078125 
L 55.90625 0 
L 45.3125 0 
L 29.390625 21.484375 
L 13.484375 0 
L 2.875 0 
L 24.125 28.609375 
L 4.6875 54.6875 
L 15.28125 54.6875 
L 29.78125 35.203125 
L 44.28125 54.6875 
z
" id="DejaVuSans-78"/>
     <path d="M 41.109375 46.296875 
Q 39.59375 47.171875 37.8125 47.578125 
Q 36.03125 48 33.890625 48 
Q 26.265625 48 22.1875 43.046875 
Q 18.109375 38.09375 18.109375 28.8125 
L 18.109375 0 
L 9.078125 0 
L 9.078125 54.6875 
L 18.109375 54.6875 
L 18.109375 46.1875 
Q 20.953125 51.171875 25.484375 53.578125 
Q 30.03125 56 36.53125 56 
Q 37.453125 56 38.578125 55.875 
Q 39.703125 55.765625 41.0625 55.515625 
z
" id="DejaVuSans-72"/>
     <path d="M 9.421875 75.984375 
L 18.40625 75.984375 
L 18.40625 0 
L 9.421875 0 
z
" id="DejaVuSans-6c"/>
     <path d="M 44.28125 53.078125 
L 44.28125 44.578125 
Q 40.484375 46.53125 36.375 47.5 
Q 32.28125 48.484375 27.875 48.484375 
Q 21.1875 48.484375 17.84375 46.4375 
Q 14.5 44.390625 14.5 40.28125 
Q 14.5 37.15625 16.890625 35.375 
Q 19.28125 33.59375 26.515625 31.984375 
L 29.59375 31.296875 
Q 39.15625 29.25 43.1875 25.515625 
Q 47.21875 21.78125 47.21875 15.09375 
Q 47.21875 7.46875 41.1875 3.015625 
Q 35.15625 -1.421875 24.609375 -1.421875 
Q 20.21875 -1.421875 15.453125 -0.5625 
Q 10.6875 0.296875 5.421875 2 
L 5.421875 11.28125 
Q 10.40625 8.6875 15.234375 7.390625 
Q 20.0625 6.109375 24.8125 6.109375 
Q 31.15625 6.109375 34.5625 8.28125 
Q 37.984375 10.453125 37.984375 14.40625 
Q 37.984375 18.0625 35.515625 20.015625 
Q 33.0625 21.96875 24.703125 23.78125 
L 21.578125 24.515625 
Q 13.234375 26.265625 9.515625 29.90625 
Q 5.8125 33.546875 5.8125 39.890625 
Q 5.8125 47.609375 11.28125 51.796875 
Q 16.75 56 26.8125 56 
Q 31.78125 56 36.171875 55.265625 
Q 40.578125 54.546875 44.28125 53.078125 
z
" id="DejaVuSans-73"/>
     <path d="M 9.078125 75.984375 
L 18.109375 75.984375 
L 18.109375 31.109375 
L 44.921875 54.6875 
L 56.390625 54.6875 
L 27.390625 29.109375 
L 57.625 0 
L 45.90625 0 
L 18.109375 26.703125 
L 18.109375 0 
L 9.078125 0 
z
" id="DejaVuSans-6b"/>
     <path d="M 54.890625 33.015625 
L 54.890625 0 
L 45.90625 0 
L 45.90625 32.71875 
Q 45.90625 40.484375 42.875 44.328125 
Q 39.84375 48.1875 33.796875 48.1875 
Q 26.515625 48.1875 22.3125 43.546875 
Q 18.109375 38.921875 18.109375 30.90625 
L 18.109375 0 
L 9.078125 0 
L 9.078125 75.984375 
L 18.109375 75.984375 
L 18.109375 46.1875 
Q 21.34375 51.125 25.703125 53.5625 
Q 30.078125 56 35.796875 56 
Q 45.21875 56 50.046875 50.171875 
Q 54.890625 44.34375 54.890625 33.015625 
z
" id="DejaVuSans-68"/>
    </defs>
    <g transform="translate(123.500865 37.2)scale(0.12 -0.12)">
     <use xlink:href="#DejaVuSans-4c"/>
     <use x="55.697266" xlink:href="#DejaVuSans-6f"/>
     <use x="116.878906" xlink:href="#DejaVuSans-63"/>
     <use x="171.859375" xlink:href="#DejaVuSans-61"/>
     <use x="233.138672" xlink:href="#DejaVuSans-74"/>
     <use x="272.347656" xlink:href="#DejaVuSans-69"/>
     <use x="300.130859" xlink:href="#DejaVuSans-6f"/>
     <use x="361.3125" xlink:href="#DejaVuSans-6e"/>
     <use x="424.691406" xlink:href="#DejaVuSans-2d"/>
     <use x="460.775391" xlink:href="#DejaVuSans-64"/>
     <use x="524.251953" xlink:href="#DejaVuSans-65"/>
     <use x="585.775391" xlink:href="#DejaVuSans-70"/>
     <use x="649.251953" xlink:href="#DejaVuSans-65"/>
     <use x="710.775391" xlink:href="#DejaVuSans-6e"/>
     <use x="774.154297" xlink:href="#DejaVuSans-64"/>
     <use x="837.630859" xlink:href="#DejaVuSans-65"/>
     <use x="899.154297" xlink:href="#DejaVuSans-6e"/>
     <use x="962.533203" xlink:href="#DejaVuSans-74"/>
     <use x="1001.742188" xlink:href="#DejaVuSans-20"/>
     <use x="1033.529297" xlink:href="#DejaVuSans-65"/>
     <use x="1095.037109" xlink:href="#DejaVuSans-78"/>
     <use x="1154.216797" xlink:href="#DejaVuSans-74"/>
     <use x="1193.425781" xlink:href="#DejaVuSans-72"/>
     <use x="1234.539062" xlink:href="#DejaVuSans-61"/>
     <use x="1295.818359" xlink:href="#DejaVuSans-63"/>
     <use x="1350.798828" xlink:href="#DejaVuSans-65"/>
     <use x="1412.322266" xlink:href="#DejaVuSans-6c"/>
     <use x="1440.105469" xlink:href="#DejaVuSans-6c"/>
     <use x="1467.888672" xlink:href="#DejaVuSans-75"/>
     <use x="1531.267578" xlink:href="#DejaVuSans-6c"/>
     <use x="1559.050781" xlink:href="#DejaVuSans-61"/>
     <use x="1620.330078" xlink:href="#DejaVuSans-72"/>
     <use x="1661.443359" xlink:href="#DejaVuSans-20"/>
     <use x="1693.230469" xlink:href="#DejaVuSans-73"/>
     <use x="1745.330078" xlink:href="#DejaVuSans-70"/>
     <use x="1808.806641" xlink:href="#DejaVuSans-69"/>
     <use x="1836.589844" xlink:href="#DejaVuSans-6b"/>
     <use x="1894.453125" xlink:href="#DejaVuSans-65"/>
     <use x="1955.976562" xlink:href="#DejaVuSans-20"/>
     <use x="1987.763672" xlink:href="#DejaVuSans-73"/>
     <use x="2039.863281" xlink:href="#DejaVuSans-68"/>
     <use x="2103.242188" xlink:href="#DejaVuSans-61"/>
     <use x="2164.521484" xlink:href="#DejaVuSans-70"/>
     <use x="2227.998047" xlink:href="#DejaVuSans-65"/>
     <use x="2289.521484" xlink:href="#DejaVuSans-73"/>
    </g>
   </g>
  </g>
 </g>
 <defs>
  <clipPath id="pcc57e27a71">
   <rect height="345.6" width="384.00048" x="72" y="43.2"/>
  </clipPath>
 </defs>
</svg>
