<?xml version="1.0" encoding="utf-8" standalone="no"?>
<!DOCTYPE svg PUBLIC "-//W3C//DTD SVG 1.1//EN"
  "http://www.w3.org/Graphics/SVG/1.1/DTD/svg11.dtd">
<!-- Created with matplotlib (http://matplotlib.org/) -->
<svg height="720pt" version="1.1" viewBox="0 0 1080 720" width="1080pt" xmlns="http://www.w3.org/2000/svg" xmlns:xlink="http://www.w3.org/1999/xlink">
 <defs>
  <style type="text/css">
*{stroke-linecap:butt;stroke-linejoin:round;}
  </style>
 </defs>
 <g id="figure_1">
  <g id="patch_1">
   <path d="M 0 720 
L 1080 720 
L 1080 0 
L 0 0 
z
" style="fill:#ffffff;"/>
  </g>
  <g id="axes_1">
   <g id="matplotlib.axis_1">
    <g id="xtick_1">
     <g id="line2d_1">
      <defs>
       <path d="M 0 0 
L 0 3.5 
" id="mf6b66ca77d" style="stroke:#000000;stroke-width:0.8;"/>
      </defs>
      <g>
       <use style="stroke:#000000;stroke-width:0.8;" x="128.210552" xlink:href="#mf6b66ca77d" y="648"/>
      </g>
     </g>
     <g id="text_1">
      <!-- −500 -->
      <defs>
       <path d="M 10.59375 35.5 
L 73.1875 35.5 
L 73.1875 27.203125 
L 10.59375 27.203125 
z
" id="DejaVuSans-2212"/>
       <path d="M 10.796875 72.90625 
L 49.515625 72.90625 
L 49.515625 64.59375 
L 19.828125 64.59375 
L 19.828125 46.734375 
Q 21.96875 47.46875 24.109375 47.828125 
Q 26.265625 48.1875 28.421875 48.1875 
Q 40.625 48.1875 47.75 41.5 
Q 54.890625 34.8125 54.890625 23.390625 
Q 54.890625 11.625 47.5625 5.09375 
Q 40.234375 -1.421875 26.90625 -1.421875 
Q 22.3125 -1.421875 17.546875 -0.640625 
Q 12.796875 0.140625 7.71875 1.703125 
L 7.71875 11.625 
Q 12.109375 9.234375 16.796875 8.0625 
Q 21.484375 6.890625 26.703125 6.890625 
Q 35.15625 6.890625 40.078125 11.328125 
Q 45.015625 15.765625 45.015625 23.390625 
Q 45.015625 31 40.078125 35.4375 
Q 35.15625 39.890625 26.703125 39.890625 
Q 22.75 39.890625 18.8125 39.015625 
Q 14.890625 38.140625 10.796875 36.28125 
z
" id="DejaVuSans-35"/>
       <path d="M 31.78125 66.40625 
Q 24.171875 66.40625 20.328125 58.90625 
Q 16.5 51.421875 16.5 36.375 
Q 16.5 21.390625 20.328125 13.890625 
Q 24.171875 6.390625 31.78125 6.390625 
Q 39.453125 6.390625 43.28125 13.890625 
Q 47.125 21.390625 47.125 36.375 
Q 47.125 51.421875 43.28125 58.90625 
Q 39.453125 66.40625 31.78125 66.40625 
z
M 31.78125 74.21875 
Q 44.046875 74.21875 50.515625 64.515625 
Q 56.984375 54.828125 56.984375 36.375 
Q 56.984375 17.96875 50.515625 8.265625 
Q 44.046875 -1.421875 31.78125 -1.421875 
Q 19.53125 -1.421875 13.0625 8.265625 
Q 6.59375 17.96875 6.59375 36.375 
Q 6.59375 54.828125 13.0625 64.515625 
Q 19.53125 74.21875 31.78125 74.21875 
z
" id="DejaVuSans-30"/>
      </defs>
      <g transform="translate(114.476958 662.598438)scale(0.1 -0.1)">
       <use xlink:href="#DejaVuSans-2212"/>
       <use x="83.789062" xlink:href="#DejaVuSans-35"/>
       <use x="147.412109" xlink:href="#DejaVuSans-30"/>
       <use x="211.035156" xlink:href="#DejaVuSans-30"/>
      </g>
     </g>
    </g>
    <g id="xtick_2">
     <g id="line2d_2">
      <g>
       <use style="stroke:#000000;stroke-width:0.8;" x="229.263309" xlink:href="#mf6b66ca77d" y="648"/>
      </g>
     </g>
     <g id="text_2">
      <!-- −400 -->
      <defs>
       <path d="M 37.796875 64.3125 
L 12.890625 25.390625 
L 37.796875 25.390625 
z
M 35.203125 72.90625 
L 47.609375 72.90625 
L 47.609375 25.390625 
L 58.015625 25.390625 
L 58.015625 17.1875 
L 47.609375 17.1875 
L 47.609375 0 
L 37.796875 0 
L 37.796875 17.1875 
L 4.890625 17.1875 
L 4.890625 26.703125 
z
" id="DejaVuSans-34"/>
      </defs>
      <g transform="translate(215.529716 662.598438)scale(0.1 -0.1)">
       <use xlink:href="#DejaVuSans-2212"/>
       <use x="83.789062" xlink:href="#DejaVuSans-34"/>
       <use x="147.412109" xlink:href="#DejaVuSans-30"/>
       <use x="211.035156" xlink:href="#DejaVuSans-30"/>
      </g>
     </g>
    </g>
    <g id="xtick_3">
     <g id="line2d_3">
      <g>
       <use style="stroke:#000000;stroke-width:0.8;" x="330.316067" xlink:href="#mf6b66ca77d" y="648"/>
      </g>
     </g>
     <g id="text_3">
      <!-- −300 -->
      <defs>
       <path d="M 40.578125 39.3125 
Q 47.65625 37.796875 51.625 33 
Q 55.609375 28.21875 55.609375 21.1875 
Q 55.609375 10.40625 48.1875 4.484375 
Q 40.765625 -1.421875 27.09375 -1.421875 
Q 22.515625 -1.421875 17.65625 -0.515625 
Q 12.796875 0.390625 7.625 2.203125 
L 7.625 11.71875 
Q 11.71875 9.328125 16.59375 8.109375 
Q 21.484375 6.890625 26.8125 6.890625 
Q 36.078125 6.890625 40.9375 10.546875 
Q 45.796875 14.203125 45.796875 21.1875 
Q 45.796875 27.640625 41.28125 31.265625 
Q 36.765625 34.90625 28.71875 34.90625 
L 20.21875 34.90625 
L 20.21875 43.015625 
L 29.109375 43.015625 
Q 36.375 43.015625 40.234375 45.921875 
Q 44.09375 48.828125 44.09375 54.296875 
Q 44.09375 59.90625 40.109375 62.90625 
Q 36.140625 65.921875 28.71875 65.921875 
Q 24.65625 65.921875 20.015625 65.03125 
Q 15.375 64.15625 9.8125 62.3125 
L 9.8125 71.09375 
Q 15.4375 72.65625 20.34375 73.4375 
Q 25.25 74.21875 29.59375 74.21875 
Q 40.828125 74.21875 47.359375 69.109375 
Q 53.90625 64.015625 53.90625 55.328125 
Q 53.90625 49.265625 50.4375 45.09375 
Q 46.96875 40.921875 40.578125 39.3125 
z
" id="DejaVuSans-33"/>
      </defs>
      <g transform="translate(316.582474 662.598438)scale(0.1 -0.1)">
       <use xlink:href="#DejaVuSans-2212"/>
       <use x="83.789062" xlink:href="#DejaVuSans-33"/>
       <use x="147.412109" xlink:href="#DejaVuSans-30"/>
       <use x="211.035156" xlink:href="#DejaVuSans-30"/>
      </g>
     </g>
    </g>
    <g id="xtick_4">
     <g id="line2d_4">
      <g>
       <use style="stroke:#000000;stroke-width:0.8;" x="431.368825" xlink:href="#mf6b66ca77d" y="648"/>
      </g>
     </g>
     <g id="text_4">
      <!-- −200 -->
      <defs>
       <path d="M 19.1875 8.296875 
L 53.609375 8.296875 
L 53.609375 0 
L 7.328125 0 
L 7.328125 8.296875 
Q 12.9375 14.109375 22.625 23.890625 
Q 32.328125 33.6875 34.8125 36.53125 
Q 39.546875 41.84375 41.421875 45.53125 
Q 43.3125 49.21875 43.3125 52.78125 
Q 43.3125 58.59375 39.234375 62.25 
Q 35.15625 65.921875 28.609375 65.921875 
Q 23.96875 65.921875 18.8125 64.3125 
Q 13.671875 62.703125 7.8125 59.421875 
L 7.8125 69.390625 
Q 13.765625 71.78125 18.9375 73 
Q 24.125 74.21875 28.421875 74.21875 
Q 39.75 74.21875 46.484375 68.546875 
Q 53.21875 62.890625 53.21875 53.421875 
Q 53.21875 48.921875 51.53125 44.890625 
Q 49.859375 40.875 45.40625 35.40625 
Q 44.1875 33.984375 37.640625 27.21875 
Q 31.109375 20.453125 19.1875 8.296875 
z
" id="DejaVuSans-32"/>
      </defs>
      <g transform="translate(417.635232 662.598438)scale(0.1 -0.1)">
       <use xlink:href="#DejaVuSans-2212"/>
       <use x="83.789062" xlink:href="#DejaVuSans-32"/>
       <use x="147.412109" xlink:href="#DejaVuSans-30"/>
       <use x="211.035156" xlink:href="#DejaVuSans-30"/>
      </g>
     </g>
    </g>
    <g id="xtick_5">
     <g id="line2d_5">
      <g>
       <use style="stroke:#000000;stroke-width:0.8;" x="532.421583" xlink:href="#mf6b66ca77d" y="648"/>
      </g>
     </g>
     <g id="text_5">
      <!-- −100 -->
      <defs>
       <path d="M 12.40625 8.296875 
L 28.515625 8.296875 
L 28.515625 63.921875 
L 10.984375 60.40625 
L 10.984375 69.390625 
L 28.421875 72.90625 
L 38.28125 72.90625 
L 38.28125 8.296875 
L 54.390625 8.296875 
L 54.390625 0 
L 12.40625 0 
z
" id="DejaVuSans-31"/>
      </defs>
      <g transform="translate(518.687989 662.598438)scale(0.1 -0.1)">
       <use xlink:href="#DejaVuSans-2212"/>
       <use x="83.789062" xlink:href="#DejaVuSans-31"/>
       <use x="147.412109" xlink:href="#DejaVuSans-30"/>
       <use x="211.035156" xlink:href="#DejaVuSans-30"/>
      </g>
     </g>
    </g>
    <g id="xtick_6">
     <g id="line2d_6">
      <g>
       <use style="stroke:#000000;stroke-width:0.8;" x="633.474341" xlink:href="#mf6b66ca77d" y="648"/>
      </g>
     </g>
     <g id="text_6">
      <!-- 0 -->
      <g transform="translate(630.293091 662.598438)scale(0.1 -0.1)">
       <use xlink:href="#DejaVuSans-30"/>
      </g>
     </g>
    </g>
   </g>
   <g id="matplotlib.axis_2">
    <g id="ytick_1">
     <g id="line2d_7">
      <defs>
       <path d="M 0 0 
L -3.5 0 
" id="m6817343fca" style="stroke:#000000;stroke-width:0.8;"/>
      </defs>
      <g>
       <use style="stroke:#000000;stroke-width:0.8;" x="108" xlink:href="#m6817343fca" y="621.818182"/>
      </g>
     </g>
     <g id="text_7">
      <!-- −400 -->
      <g transform="translate(73.532813 625.617401)scale(0.1 -0.1)">
       <use xlink:href="#DejaVuSans-2212"/>
       <use x="83.789062" xlink:href="#DejaVuSans-34"/>
       <use x="147.412109" xlink:href="#DejaVuSans-30"/>
       <use x="211.035156" xlink:href="#DejaVuSans-30"/>
      </g>
     </g>
    </g>
    <g id="ytick_2">
     <g id="line2d_8">
      <g>
       <use style="stroke:#000000;stroke-width:0.8;" x="108" xlink:href="#m6817343fca" y="517.090909"/>
      </g>
     </g>
     <g id="text_8">
      <!-- −200 -->
      <g transform="translate(73.532813 520.890128)scale(0.1 -0.1)">
       <use xlink:href="#DejaVuSans-2212"/>
       <use x="83.789062" xlink:href="#DejaVuSans-32"/>
       <use x="147.412109" xlink:href="#DejaVuSans-30"/>
       <use x="211.035156" xlink:href="#DejaVuSans-30"/>
      </g>
     </g>
    </g>
    <g id="ytick_3">
     <g id="line2d_9">
      <g>
       <use style="stroke:#000000;stroke-width:0.8;" x="108" xlink:href="#m6817343fca" y="412.363636"/>
      </g>
     </g>
     <g id="text_9">
      <!-- 0 -->
      <g transform="translate(94.6375 416.162855)scale(0.1 -0.1)">
       <use xlink:href="#DejaVuSans-30"/>
      </g>
     </g>
    </g>
    <g id="ytick_4">
     <g id="line2d_10">
      <g>
       <use style="stroke:#000000;stroke-width:0.8;" x="108" xlink:href="#m6817343fca" y="307.636364"/>
      </g>
     </g>
     <g id="text_10">
      <!-- 200 -->
      <g transform="translate(81.9125 311.435582)scale(0.1 -0.1)">
       <use xlink:href="#DejaVuSans-32"/>
       <use x="63.623047" xlink:href="#DejaVuSans-30"/>
       <use x="127.246094" xlink:href="#DejaVuSans-30"/>
      </g>
     </g>
    </g>
    <g id="ytick_5">
     <g id="line2d_11">
      <g>
       <use style="stroke:#000000;stroke-width:0.8;" x="108" xlink:href="#m6817343fca" y="202.909091"/>
      </g>
     </g>
     <g id="text_11">
      <!-- 400 -->
      <g transform="translate(81.9125 206.70831)scale(0.1 -0.1)">
       <use xlink:href="#DejaVuSans-34"/>
       <use x="63.623047" xlink:href="#DejaVuSans-30"/>
       <use x="127.246094" xlink:href="#DejaVuSans-30"/>
      </g>
     </g>
    </g>
    <g id="ytick_6">
     <g id="line2d_12">
      <g>
       <use style="stroke:#000000;stroke-width:0.8;" x="108" xlink:href="#m6817343fca" y="98.181818"/>
      </g>
     </g>
     <g id="text_12">
      <!-- 600 -->
      <defs>
       <path d="M 33.015625 40.375 
Q 26.375 40.375 22.484375 35.828125 
Q 18.609375 31.296875 18.609375 23.390625 
Q 18.609375 15.53125 22.484375 10.953125 
Q 26.375 6.390625 33.015625 6.390625 
Q 39.65625 6.390625 43.53125 10.953125 
Q 47.40625 15.53125 47.40625 23.390625 
Q 47.40625 31.296875 43.53125 35.828125 
Q 39.65625 40.375 33.015625 40.375 
z
M 52.59375 71.296875 
L 52.59375 62.3125 
Q 48.875 64.0625 45.09375 64.984375 
Q 41.3125 65.921875 37.59375 65.921875 
Q 27.828125 65.921875 22.671875 59.328125 
Q 17.53125 52.734375 16.796875 39.40625 
Q 19.671875 43.65625 24.015625 45.921875 
Q 28.375 48.1875 33.59375 48.1875 
Q 44.578125 48.1875 50.953125 41.515625 
Q 57.328125 34.859375 57.328125 23.390625 
Q 57.328125 12.15625 50.6875 5.359375 
Q 44.046875 -1.421875 33.015625 -1.421875 
Q 20.359375 -1.421875 13.671875 8.265625 
Q 6.984375 17.96875 6.984375 36.375 
Q 6.984375 53.65625 15.1875 63.9375 
Q 23.390625 74.21875 37.203125 74.21875 
Q 40.921875 74.21875 44.703125 73.484375 
Q 48.484375 72.75 52.59375 71.296875 
z
" id="DejaVuSans-36"/>
      </defs>
      <g transform="translate(81.9125 101.981037)scale(0.1 -0.1)">
       <use xlink:href="#DejaVuSans-36"/>
       <use x="63.623047" xlink:href="#DejaVuSans-30"/>
       <use x="127.246094" xlink:href="#DejaVuSans-30"/>
      </g>
     </g>
    </g>
   </g>
   <g id="line2d_13">
    <path clip-path="url(#p5831858627)" d="M 380.842446 418.909091 
L 380.842446 416.727273 
L 380.842446 414.545455 
L 380.842446 412.363636 
L 380.842446 410.181818 
L 380.842446 408 
L 380.842446 405.818182 
" style="fill:none;stroke:#000000;stroke-linecap:square;stroke-width:8;"/>
   </g>
   <g id="line2d_14">
    <path clip-path="url(#p5831858627)" d="M 380.842446 405.818182 
L 380.842446 403.223377 
L 380.842446 400.628571 
L 380.842446 398.033766 
L 380.842446 395.438961 
L 380.842446 392.844156 
L 380.842446 390.249351 
L 380.842446 387.654545 
L 380.842446 385.05974 
L 380.842446 382.464935 
L 380.842446 379.87013 
L 380.842446 377.275325 
L 380.842446 374.680519 
L 380.842446 372.085714 
L 380.842446 369.490909 
L 380.842446 366.896104 
L 380.842446 364.301299 
L 380.842446 361.706494 
L 380.842446 359.111688 
L 380.842446 356.516883 
L 380.842446 353.922078 
L 380.842446 351.327273 
L 380.842446 348.732468 
L 380.842446 346.137662 
L 380.842446 343.542857 
L 380.842446 340.948052 
L 380.842446 338.353247 
L 380.842446 335.758442 
L 380.842446 333.163636 
L 380.842446 330.568831 
L 380.842446 327.974026 
L 380.842446 325.379221 
L 380.842446 322.784416 
L 380.842446 320.18961 
L 380.842446 317.594805 
L 380.842446 315 
L 380.842446 312.405195 
L 380.842446 309.81039 
L 380.842446 307.215584 
L 380.842446 304.620779 
L 380.842446 302.025974 
L 380.842446 299.431169 
L 380.842446 296.836364 
L 380.842446 294.241558 
L 380.842446 291.646753 
L 380.842446 289.051948 
L 380.842446 286.457143 
L 380.842446 283.862338 
L 380.842446 281.267532 
L 380.842446 278.672727 
L 380.842446 276.077922 
L 380.842446 273.483117 
L 380.842446 270.888312 
L 380.842446 268.293506 
L 380.842446 265.698701 
L 380.842446 263.103896 
L 380.842446 260.509091 
L 380.842446 257.914286 
L 380.842446 255.319481 
L 380.842446 252.724675 
L 380.842446 250.12987 
L 380.842446 247.535065 
L 380.842446 244.94026 
L 380.842446 242.345455 
L 380.842446 239.750649 
L 380.842446 237.155844 
L 380.842446 234.561039 
L 380.842446 231.966234 
L 380.842446 229.371429 
L 380.842446 226.776623 
L 380.842446 224.181818 
L 380.842446 221.587013 
L 380.842446 218.992208 
L 380.842446 216.397403 
L 380.842446 213.802597 
L 380.842446 211.207792 
L 380.842446 208.612987 
L 380.842446 206.018182 
L 380.842446 203.423377 
L 380.842446 200.828571 
L 380.842446 198.233766 
L 380.842446 195.638961 
L 380.842446 193.044156 
L 380.842446 190.449351 
L 380.842446 187.854545 
L 380.842446 185.25974 
L 380.842446 182.664935 
L 380.842446 180.07013 
L 380.842446 177.475325 
L 380.842446 174.880519 
L 380.842446 172.285714 
L 380.842446 169.690909 
L 380.842446 167.096104 
L 380.842446 164.501299 
L 380.842446 161.906494 
L 380.842446 159.311688 
L 380.842446 156.716883 
L 380.842446 154.122078 
L 380.842446 151.527273 
L 380.842446 148.932468 
L 380.842446 146.337662 
L 380.842446 143.742857 
L 380.842446 141.148052 
L 380.842446 138.553247 
L 380.842446 135.958442 
L 380.842446 133.363636 
L 380.842446 130.768831 
L 380.842446 128.174026 
L 380.842446 125.579221 
L 380.842446 122.984416 
L 380.842446 120.38961 
L 380.842446 117.794805 
L 380.842446 115.2 
" style="fill:none;stroke:#000000;stroke-linecap:square;stroke-width:2;"/>
   </g>
   <g id="line2d_15">
    <path clip-path="url(#p5831858627)" d="M 380.842446 418.909091 
L 380.842446 421.479669 
L 380.842446 424.050248 
L 380.842446 426.620826 
L 380.842446 429.191405 
L 380.842446 431.761983 
L 380.842446 434.332562 
L 380.842446 436.90314 
L 380.842446 439.473719 
L 380.842446 442.044298 
L 380.842446 444.614876 
L 380.842446 447.185455 
L 380.842446 449.756033 
L 380.842446 452.326612 
L 380.842446 454.89719 
L 380.842446 457.467769 
L 380.842446 460.038347 
L 380.842446 462.608926 
L 380.842446 465.179504 
L 380.842446 467.750083 
L 380.842446 470.320661 
L 380.842446 472.89124 
L 380.842446 475.461818 
L 380.842446 478.032397 
L 380.842446 480.602975 
L 380.842446 483.173554 
L 380.842446 485.744132 
L 380.842446 488.314711 
L 380.842446 490.885289 
L 380.842446 493.455868 
L 380.842446 496.026446 
L 380.842446 498.597025 
L 380.842446 501.167603 
L 380.842446 503.738182 
L 380.842446 506.30876 
L 380.842446 508.879339 
L 380.842446 511.449917 
L 380.842446 514.020496 
L 380.842446 516.591074 
L 380.842446 519.161653 
L 380.842446 521.732231 
L 380.842446 524.30281 
L 380.842446 526.873388 
L 380.842446 529.443967 
L 380.842446 532.014545 
L 380.842446 534.585124 
L 380.842446 537.155702 
L 380.842446 539.726281 
L 380.842446 542.29686 
L 380.842446 544.867438 
L 380.842446 547.438017 
L 380.842446 550.008595 
L 380.842446 552.579174 
L 380.842446 555.149752 
L 380.842446 557.720331 
L 380.842446 560.290909 
" style="fill:none;stroke:#000000;stroke-linecap:square;stroke-width:2;"/>
   </g>
   <g id="line2d_16">
    <path clip-path="url(#p5831858627)" d="M 380.842446 418.909091 
L 383.368765 418.909091 
L 385.895084 418.909091 
" style="fill:none;stroke:#000000;stroke-linecap:square;stroke-width:2;"/>
   </g>
   <g id="line2d_17">
    <path clip-path="url(#p5831858627)" d="M 385.895084 418.909091 
L 388.421403 418.909091 
L 390.947722 418.909091 
" style="fill:none;stroke:#000000;stroke-linecap:square;stroke-width:2;"/>
   </g>
   <g id="line2d_18">
    <path clip-path="url(#p5831858627)" d="M 390.947722 418.909091 
L 393.474041 418.909091 
L 396.00036 418.909091 
" style="fill:none;stroke:#000000;stroke-linecap:square;stroke-width:2;"/>
   </g>
   <g id="line2d_19">
    <path clip-path="url(#p5831858627)" d="M 396.00036 418.909091 
L 398.526679 418.909091 
L 401.052998 418.909091 
" style="fill:none;stroke:#000000;stroke-linecap:square;stroke-width:2;"/>
   </g>
   <g id="line2d_20">
    <path clip-path="url(#p5831858627)" d="M 401.052998 418.909091 
L 403.579317 418.909091 
L 406.105636 418.909091 
" style="fill:none;stroke:#000000;stroke-linecap:square;stroke-width:2;"/>
   </g>
   <g id="line2d_21">
    <path clip-path="url(#p5831858627)" d="M 406.105636 418.909091 
L 408.631955 418.909091 
L 411.158274 418.909091 
" style="fill:none;stroke:#000000;stroke-linecap:square;stroke-width:2;"/>
   </g>
   <g id="line2d_22">
    <path clip-path="url(#p5831858627)" d="M 411.158274 418.909091 
L 413.684593 418.909091 
L 416.210912 418.909091 
" style="fill:none;stroke:#000000;stroke-linecap:square;stroke-width:2;"/>
   </g>
   <g id="line2d_23">
    <path clip-path="url(#p5831858627)" d="M 416.210912 418.909091 
L 418.737231 418.909091 
L 421.263549 418.909091 
" style="fill:none;stroke:#000000;stroke-linecap:square;stroke-width:2;"/>
   </g>
   <g id="line2d_24">
    <path clip-path="url(#p5831858627)" d="M 421.263549 418.909091 
L 423.789868 418.909091 
L 426.316187 418.909091 
" style="fill:none;stroke:#000000;stroke-linecap:square;stroke-width:2;"/>
   </g>
   <g id="line2d_25">
    <path clip-path="url(#p5831858627)" d="M 426.316187 418.909091 
L 428.842506 418.909091 
L 431.368825 418.909091 
" style="fill:none;stroke:#000000;stroke-linecap:square;stroke-width:2;"/>
   </g>
   <g id="line2d_26">
    <path clip-path="url(#p5831858627)" d="M 431.368825 418.909091 
L 436.180861 418.909091 
L 440.992897 418.909091 
L 445.804934 418.909091 
L 450.61697 418.909091 
L 455.429006 418.909091 
L 460.241042 418.909091 
L 465.053078 418.909091 
L 469.865114 418.909091 
L 474.67715 418.909091 
L 479.489186 418.909091 
L 484.301222 418.909091 
L 489.113258 418.909091 
L 493.925294 418.909091 
L 498.737331 418.909091 
L 503.549367 418.909091 
L 508.361403 418.909091 
L 513.173439 418.909091 
L 517.985475 418.909091 
L 522.797511 418.909091 
L 527.609547 418.909091 
L 532.421583 418.909091 
" style="fill:none;stroke:#000000;stroke-linecap:square;stroke-width:2;"/>
   </g>
   <g id="line2d_27">
    <path clip-path="url(#p5831858627)" d="M 380.842446 334.461039 
" style="fill:none;stroke:#ff0000;stroke-linecap:square;stroke-width:1.5;"/>
    <defs>
     <path d="M 0 2.5 
C 0.663008 2.5 1.29895 2.236584 1.767767 1.767767 
C 2.236584 1.29895 2.5 0.663008 2.5 0 
C 2.5 -0.663008 2.236584 -1.29895 1.767767 -1.767767 
C 1.29895 -2.236584 0.663008 -2.5 0 -2.5 
C -0.663008 -2.5 -1.29895 -2.236584 -1.767767 -1.767767 
C -2.236584 -1.29895 -2.5 -0.663008 -2.5 0 
C -2.5 0.663008 -2.236584 1.29895 -1.767767 1.767767 
C -1.29895 2.236584 -0.663008 2.5 0 2.5 
z
" id="m6293465ac8" style="stroke:#ff0000;"/>
    </defs>
    <g clip-path="url(#p5831858627)">
     <use style="fill:#ff0000;stroke:#ff0000;" x="380.842446" xlink:href="#m6293465ac8" y="334.461039"/>
    </g>
   </g>
   <g id="line2d_28">
    <defs>
     <path d="M 0 2.5 
C 0.663008 2.5 1.29895 2.236584 1.767767 1.767767 
C 2.236584 1.29895 2.5 0.663008 2.5 0 
C 2.5 -0.663008 2.236584 -1.29895 1.767767 -1.767767 
C 1.29895 -2.236584 0.663008 -2.5 0 -2.5 
C -0.663008 -2.5 -1.29895 -2.236584 -1.767767 -1.767767 
C -2.236584 -1.29895 -2.5 -0.663008 -2.5 0 
C -2.5 0.663008 -2.236584 1.29895 -1.767767 1.767767 
C -1.29895 2.236584 -0.663008 2.5 0 2.5 
z
" id="mbaad2bf228" style="stroke:#000000;"/>
    </defs>
    <g clip-path="url(#p5831858627)">
     <use style="stroke:#000000;" x="128.210552" xlink:href="#mbaad2bf228" y="936"/>
     <use style="stroke:#000000;" x="128.210552" xlink:href="#mbaad2bf228" y="883.636364"/>
     <use style="stroke:#000000;" x="128.210552" xlink:href="#mbaad2bf228" y="831.272727"/>
     <use style="stroke:#000000;" x="128.210552" xlink:href="#mbaad2bf228" y="778.909091"/>
     <use style="stroke:#000000;" x="128.210552" xlink:href="#mbaad2bf228" y="726.545455"/>
     <use style="stroke:#000000;" x="128.210552" xlink:href="#mbaad2bf228" y="674.181818"/>
     <use style="stroke:#000000;" x="128.210552" xlink:href="#mbaad2bf228" y="621.818182"/>
     <use style="stroke:#000000;" x="128.210552" xlink:href="#mbaad2bf228" y="569.454545"/>
     <use style="stroke:#000000;" x="128.210552" xlink:href="#mbaad2bf228" y="517.090909"/>
     <use style="stroke:#000000;" x="128.210552" xlink:href="#mbaad2bf228" y="464.727273"/>
     <use style="stroke:#000000;" x="128.210552" xlink:href="#mbaad2bf228" y="412.363636"/>
     <use style="stroke:#000000;" x="128.210552" xlink:href="#mbaad2bf228" y="360"/>
     <use style="stroke:#000000;" x="128.210552" xlink:href="#mbaad2bf228" y="307.636364"/>
     <use style="stroke:#000000;" x="128.210552" xlink:href="#mbaad2bf228" y="255.272727"/>
     <use style="stroke:#000000;" x="128.210552" xlink:href="#mbaad2bf228" y="202.909091"/>
     <use style="stroke:#000000;" x="128.210552" xlink:href="#mbaad2bf228" y="150.545455"/>
     <use style="stroke:#000000;" x="128.210552" xlink:href="#mbaad2bf228" y="98.181818"/>
     <use style="stroke:#000000;" x="128.210552" xlink:href="#mbaad2bf228" y="45.818182"/>
     <use style="stroke:#000000;" x="128.210552" xlink:href="#mbaad2bf228" y="-1"/>
     <use style="stroke:#000000;" x="144.171098" xlink:href="#mbaad2bf228" y="-1"/>
     <use style="stroke:#000000;" x="279.789688" xlink:href="#mbaad2bf228" y="936"/>
     <use style="stroke:#000000;" x="279.789688" xlink:href="#mbaad2bf228" y="883.636364"/>
     <use style="stroke:#000000;" x="279.789688" xlink:href="#mbaad2bf228" y="831.272727"/>
     <use style="stroke:#000000;" x="279.789688" xlink:href="#mbaad2bf228" y="778.909091"/>
     <use style="stroke:#000000;" x="279.789688" xlink:href="#mbaad2bf228" y="726.545455"/>
     <use style="stroke:#000000;" x="279.789688" xlink:href="#mbaad2bf228" y="674.181818"/>
     <use style="stroke:#000000;" x="279.789688" xlink:href="#mbaad2bf228" y="621.818182"/>
     <use style="stroke:#000000;" x="279.789688" xlink:href="#mbaad2bf228" y="569.454545"/>
     <use style="stroke:#000000;" x="279.789688" xlink:href="#mbaad2bf228" y="517.090909"/>
     <use style="stroke:#000000;" x="279.789688" xlink:href="#mbaad2bf228" y="464.727273"/>
     <use style="stroke:#000000;" x="279.789688" xlink:href="#mbaad2bf228" y="412.363636"/>
     <use style="stroke:#000000;" x="279.789688" xlink:href="#mbaad2bf228" y="360"/>
     <use style="stroke:#000000;" x="279.789688" xlink:href="#mbaad2bf228" y="307.636364"/>
     <use style="stroke:#000000;" x="279.789688" xlink:href="#mbaad2bf228" y="255.272727"/>
     <use style="stroke:#000000;" x="279.789688" xlink:href="#mbaad2bf228" y="202.909091"/>
     <use style="stroke:#000000;" x="279.789688" xlink:href="#mbaad2bf228" y="150.545455"/>
     <use style="stroke:#000000;" x="279.789688" xlink:href="#mbaad2bf228" y="98.181818"/>
     <use style="stroke:#000000;" x="279.789688" xlink:href="#mbaad2bf228" y="45.818182"/>
     <use style="stroke:#000000;" x="279.789688" xlink:href="#mbaad2bf228" y="-1"/>
     <use style="stroke:#000000;" x="295.750235" xlink:href="#mbaad2bf228" y="-1"/>
     <use style="stroke:#000000;" x="431.368825" xlink:href="#mbaad2bf228" y="936"/>
     <use style="stroke:#000000;" x="431.368825" xlink:href="#mbaad2bf228" y="883.636364"/>
     <use style="stroke:#000000;" x="431.368825" xlink:href="#mbaad2bf228" y="831.272727"/>
     <use style="stroke:#000000;" x="431.368825" xlink:href="#mbaad2bf228" y="778.909091"/>
     <use style="stroke:#000000;" x="431.368825" xlink:href="#mbaad2bf228" y="726.545455"/>
     <use style="stroke:#000000;" x="431.368825" xlink:href="#mbaad2bf228" y="674.181818"/>
     <use style="stroke:#000000;" x="431.368825" xlink:href="#mbaad2bf228" y="621.818182"/>
     <use style="stroke:#000000;" x="431.368825" xlink:href="#mbaad2bf228" y="569.454545"/>
     <use style="stroke:#000000;" x="431.368825" xlink:href="#mbaad2bf228" y="517.090909"/>
     <use style="stroke:#000000;" x="431.368825" xlink:href="#mbaad2bf228" y="464.727273"/>
     <use style="stroke:#000000;" x="431.368825" xlink:href="#mbaad2bf228" y="412.363636"/>
     <use style="stroke:#000000;" x="431.368825" xlink:href="#mbaad2bf228" y="360"/>
     <use style="stroke:#000000;" x="431.368825" xlink:href="#mbaad2bf228" y="307.636364"/>
     <use style="stroke:#000000;" x="431.368825" xlink:href="#mbaad2bf228" y="255.272727"/>
     <use style="stroke:#000000;" x="431.368825" xlink:href="#mbaad2bf228" y="202.909091"/>
     <use style="stroke:#000000;" x="431.368825" xlink:href="#mbaad2bf228" y="150.545455"/>
     <use style="stroke:#000000;" x="431.368825" xlink:href="#mbaad2bf228" y="98.181818"/>
     <use style="stroke:#000000;" x="431.368825" xlink:href="#mbaad2bf228" y="45.818182"/>
     <use style="stroke:#000000;" x="431.368825" xlink:href="#mbaad2bf228" y="-1"/>
     <use style="stroke:#000000;" x="447.329372" xlink:href="#mbaad2bf228" y="-1"/>
     <use style="stroke:#000000;" x="582.947962" xlink:href="#mbaad2bf228" y="936"/>
     <use style="stroke:#000000;" x="582.947962" xlink:href="#mbaad2bf228" y="883.636364"/>
     <use style="stroke:#000000;" x="582.947962" xlink:href="#mbaad2bf228" y="831.272727"/>
     <use style="stroke:#000000;" x="582.947962" xlink:href="#mbaad2bf228" y="778.909091"/>
     <use style="stroke:#000000;" x="582.947962" xlink:href="#mbaad2bf228" y="726.545455"/>
     <use style="stroke:#000000;" x="582.947962" xlink:href="#mbaad2bf228" y="674.181818"/>
     <use style="stroke:#000000;" x="582.947962" xlink:href="#mbaad2bf228" y="621.818182"/>
     <use style="stroke:#000000;" x="582.947962" xlink:href="#mbaad2bf228" y="569.454545"/>
     <use style="stroke:#000000;" x="582.947962" xlink:href="#mbaad2bf228" y="517.090909"/>
     <use style="stroke:#000000;" x="582.947962" xlink:href="#mbaad2bf228" y="464.727273"/>
     <use style="stroke:#000000;" x="582.947962" xlink:href="#mbaad2bf228" y="412.363636"/>
     <use style="stroke:#000000;" x="582.947962" xlink:href="#mbaad2bf228" y="360"/>
     <use style="stroke:#000000;" x="582.947962" xlink:href="#mbaad2bf228" y="307.636364"/>
     <use style="stroke:#000000;" x="582.947962" xlink:href="#mbaad2bf228" y="255.272727"/>
     <use style="stroke:#000000;" x="582.947962" xlink:href="#mbaad2bf228" y="202.909091"/>
     <use style="stroke:#000000;" x="582.947962" xlink:href="#mbaad2bf228" y="150.545455"/>
     <use style="stroke:#000000;" x="582.947962" xlink:href="#mbaad2bf228" y="98.181818"/>
     <use style="stroke:#000000;" x="582.947962" xlink:href="#mbaad2bf228" y="45.818182"/>
     <use style="stroke:#000000;" x="582.947962" xlink:href="#mbaad2bf228" y="-1"/>
    </g>
   </g>
   <g id="line2d_29">
    <path clip-path="url(#p5831858627)" d="M 0 0 
" style="fill:none;stroke:#0000ff;stroke-linecap:square;stroke-width:2;"/>
   </g>
   <g id="line2d_30">
    <path clip-path="url(#p5831858627)" d="M 0 0 
" style="fill:none;stroke:#0000ff;stroke-linecap:square;stroke-width:2;"/>
   </g>
   <g id="line2d_31">
    <path clip-path="url(#p5831858627)" d="M 0 0 
" style="fill:none;stroke:#0000ff;stroke-linecap:square;stroke-width:2;"/>
   </g>
   <g id="line2d_32">
    <path clip-path="url(#p5831858627)" d="M 0 0 
" style="fill:none;stroke:#0000ff;stroke-linecap:square;stroke-width:2;"/>
   </g>
   <g id="line2d_33">
    <path clip-path="url(#p5831858627)" d="M 0 0 
" style="fill:none;stroke:#0000ff;stroke-linecap:square;stroke-width:2;"/>
   </g>
   <g id="line2d_34">
    <path clip-path="url(#p5831858627)" d="M 130.231607 674.164543 
L 160.585329 674.164598 
L 161.077961 672.84797 
L 161.30533 672.822142 
L 161.760067 673.086767 
L 162.745332 673.653181 
L 163.730596 673.934544 
L 165.208493 674.095764 
L 168.35376 674.159405 
L 190.863261 674.164705 
L 190.863261 674.164705 
" style="fill:none;stroke:#0000ff;stroke-linecap:square;stroke-width:2;"/>
   </g>
   <g id="line2d_35">
    <path clip-path="url(#p5831858627)" d="M 130.231607 621.806118 
L 160.585329 621.806184 
L 161.077961 620.018027 
L 161.30533 619.986536 
L 161.684278 620.27529 
L 162.707437 621.093304 
L 163.541122 621.443519 
L 164.677966 621.662967 
L 166.6106 621.776812 
L 172.484291 621.806109 
L 190.863261 621.806314 
L 190.863261 621.806314 
" style="fill:none;stroke:#0000ff;stroke-linecap:square;stroke-width:2;"/>
   </g>
   <g id="line2d_36">
    <path clip-path="url(#p5831858627)" d="M 130.231607 569.452356 
L 160.585329 569.452436 
L 161.040066 567.359449 
L 161.22954 567.261208 
L 161.494804 567.431165 
L 163.010595 568.790657 
L 163.882175 569.127261 
L 165.094808 569.331986 
L 167.254811 569.432016 
L 175.174821 569.452586 
L 190.863261 569.452579 
L 190.863261 569.452579 
" style="fill:none;stroke:#0000ff;stroke-linecap:square;stroke-width:2;"/>
   </g>
   <g id="line2d_37">
    <path clip-path="url(#p5831858627)" d="M 130.231607 517.104137 
L 160.585329 517.104236 
L 160.964277 515.521079 
L 161.191645 515.357576 
L 161.456909 515.475213 
L 163.124279 516.630656 
L 164.109544 516.892474 
L 165.66323 517.044874 
L 169.14955 517.10088 
L 190.863261 517.10435 
L 190.863261 517.10435 
" style="fill:none;stroke:#0000ff;stroke-linecap:square;stroke-width:2;"/>
   </g>
   <g id="line2d_38">
    <path clip-path="url(#p5831858627)" d="M 130.231607 464.767143 
L 160.736908 464.842294 
L 161.040066 465.242904 
L 161.381119 465.273691 
L 165.132703 464.796697 
L 170.89271 464.767398 
L 190.863261 464.767265 
L 190.863261 464.767265 
" style="fill:none;stroke:#0000ff;stroke-linecap:square;stroke-width:2;"/>
   </g>
   <g id="line2d_39">
    <path clip-path="url(#p5831858627)" d="M 130.231607 412.445146 
L 160.585329 412.445235 
L 161.115856 417.680679 
L 161.267435 417.684594 
L 161.494804 417.274368 
L 162.859016 414.237619 
L 163.503227 413.508302 
L 164.223228 413.035133 
L 165.132703 412.724659 
L 166.421126 412.541802 
L 168.884287 412.457613 
L 180.821144 412.444996 
L 190.863261 412.445074 
L 190.863261 412.445074 
" style="fill:none;stroke:#0000ff;stroke-linecap:square;stroke-width:2;"/>
   </g>
   <g id="line2d_40">
    <path clip-path="url(#p5831858627)" d="M 130.231607 360.126657 
L 160.585329 360.126678 
L 161.040066 370.310844 
L 161.191645 370.648555 
L 161.30533 370.456677 
L 161.570593 369.32189 
L 162.593752 364.497201 
L 163.200069 362.807995 
L 163.806386 361.762369 
L 164.450597 361.09194 
L 165.170598 360.661298 
L 166.117967 360.372024 
L 167.520074 360.203866 
L 170.400078 360.133414 
L 190.408524 360.126338 
L 190.863261 360.126343 
L 190.863261 360.126343 
" style="fill:none;stroke:#0000ff;stroke-linecap:square;stroke-width:2;"/>
   </g>
   <g id="line2d_41">
    <path clip-path="url(#p5831858627)" d="M 130.231607 307.802099 
L 160.585329 307.802029 
L 161.002172 317.940669 
L 161.191645 318.523941 
L 161.30533 318.326442 
L 161.570593 317.167429 
L 162.593752 312.25078 
L 163.200069 310.531959 
L 163.806386 309.468357 
L 164.450597 308.786291 
L 165.170598 308.347896 
L 166.080073 308.061007 
L 167.444285 307.886435 
L 170.172709 307.810549 
L 186.467467 307.801561 
L 190.863261 307.80161 
L 190.863261 307.80161 
" style="fill:none;stroke:#0000ff;stroke-linecap:square;stroke-width:2;"/>
   </g>
   <g id="line2d_42">
    <path clip-path="url(#p5831858627)" d="M 130.231607 255.464465 
L 160.585329 255.464316 
L 161.077961 260.856292 
L 161.22954 260.950672 
L 161.419014 260.668712 
L 162.025331 259.033412 
L 162.707437 257.567048 
L 163.313753 256.755228 
L 163.995859 256.206921 
L 164.79165 255.853404 
L 165.890599 255.623628 
L 167.709548 255.500555 
L 172.749555 255.464436 
L 190.863261 255.46393 
L 190.863261 255.46393 
" style="fill:none;stroke:#0000ff;stroke-linecap:square;stroke-width:2;"/>
   </g>
   <g id="line2d_43">
    <path clip-path="url(#p5831858627)" d="M 130.231607 203.106995 
L 190.863261 203.106512 
L 190.863261 203.106512 
" style="fill:none;stroke:#0000ff;stroke-linecap:square;stroke-width:2;"/>
   </g>
   <g id="line2d_44">
    <path clip-path="url(#p5831858627)" d="M 130.231607 150.727931 
L 160.585329 150.727727 
L 161.040066 147.949915 
L 161.22954 147.904585 
L 161.494804 148.174784 
L 162.745332 149.709833 
L 163.465332 150.165411 
L 164.374807 150.465212 
L 165.701125 150.642462 
L 168.315865 150.718769 
L 183.966411 150.72753 
L 190.863261 150.727538 
L 190.863261 150.727538 
" style="fill:none;stroke:#0000ff;stroke-linecap:square;stroke-width:2;"/>
   </g>
   <g id="line2d_45">
    <path clip-path="url(#p5831858627)" d="M 130.231607 98.333393 
L 160.585329 98.333215 
L 161.077961 94.977381 
L 161.22954 94.951773 
L 161.456909 95.204149 
L 162.896911 97.245948 
L 163.616912 97.732284 
L 164.488492 98.042558 
L 165.73902 98.231651 
L 168.088496 98.319466 
L 178.81272 98.333097 
L 190.863261 98.33309 
L 190.863261 98.33309 
" style="fill:none;stroke:#0000ff;stroke-linecap:square;stroke-width:2;"/>
   </g>
   <g id="line2d_46">
    <path clip-path="url(#p5831858627)" d="M 130.231607 45.935922 
L 160.585329 45.935781 
L 161.077961 43.131016 
L 161.267435 43.126818 
L 161.570593 43.468838 
L 162.631647 44.805747 
L 163.351648 45.308244 
L 164.223228 45.631358 
L 165.435861 45.825577 
L 167.671654 45.91922 
L 176.804297 45.935701 
L 190.863261 45.93569 
L 190.863261 45.93569 
" style="fill:none;stroke:#0000ff;stroke-linecap:square;stroke-width:2;"/>
   </g>
   <g id="line2d_47">
    <path clip-path="url(#p5831858627)" d="M 0 0 
" style="fill:none;stroke:#0000ff;stroke-linecap:square;stroke-width:2;"/>
   </g>
   <g id="line2d_48">
    <path clip-path="url(#p5831858627)" d="M 0 0 
" style="fill:none;stroke:#0000ff;stroke-linecap:square;stroke-width:2;"/>
   </g>
   <g id="line2d_49">
    <path clip-path="url(#p5831858627)" d="M 0 0 
" style="fill:none;stroke:#0000ff;stroke-linecap:square;stroke-width:2;"/>
   </g>
   <g id="line2d_50">
    <path clip-path="url(#p5831858627)" d="M 0 0 
" style="fill:none;stroke:#0000ff;stroke-linecap:square;stroke-width:2;"/>
   </g>
   <g id="line2d_51">
    <path clip-path="url(#p5831858627)" d="M 0 0 
" style="fill:none;stroke:#0000ff;stroke-linecap:square;stroke-width:2;"/>
   </g>
   <g id="line2d_52">
    <path clip-path="url(#p5831858627)" d="M 0 0 
" style="fill:none;stroke:#0000ff;stroke-linecap:square;stroke-width:2;"/>
   </g>
   <g id="line2d_53">
    <path clip-path="url(#p5831858627)" d="M 0 0 
" style="fill:none;stroke:#0000ff;stroke-linecap:square;stroke-width:2;"/>
   </g>
   <g id="line2d_54">
    <path clip-path="url(#p5831858627)" d="M 0 0 
" style="fill:none;stroke:#0000ff;stroke-linecap:square;stroke-width:2;"/>
   </g>
   <g id="line2d_55">
    <path clip-path="url(#p5831858627)" d="M 281.810744 674.150214 
L 312.164466 674.150283 
L 312.694993 671.827325 
L 312.884467 671.818081 
L 313.187625 672.09579 
L 314.286574 673.233627 
L 315.044469 673.653776 
L 316.029734 673.928088 
L 317.50763 674.084004 
L 320.728687 674.145704 
L 342.442398 674.150453 
L 342.442398 674.150453 
" style="fill:none;stroke:#0000ff;stroke-linecap:square;stroke-width:2;"/>
   </g>
   <g id="line2d_56">
    <path clip-path="url(#p5831858627)" d="M 281.810744 621.7955 
L 312.164466 621.795585 
L 312.732887 617.596708 
L 312.884467 617.620031 
L 313.14973 618.039981 
L 314.324468 620.204681 
L 314.96868 620.85163 
L 315.726575 621.28753 
L 316.673945 621.562014 
L 318.113947 621.724158 
L 321.14553 621.789988 
L 342.442398 621.795846 
L 342.442398 621.795846 
" style="fill:none;stroke:#0000ff;stroke-linecap:square;stroke-width:2;"/>
   </g>
   <g id="line2d_57">
    <path clip-path="url(#p5831858627)" d="M 281.810744 569.466507 
L 312.164466 569.46661 
L 312.732887 561.465472 
L 312.846572 561.459481 
L 313.036046 561.905378 
L 314.703416 567.238736 
L 315.309733 568.108657 
L 315.953944 568.666183 
L 316.749735 569.050766 
L 317.810789 569.293364 
L 319.516054 569.424604 
L 323.911849 569.466123 
L 342.442398 569.467035 
L 342.442398 569.467035 
" style="fill:none;stroke:#0000ff;stroke-linecap:square;stroke-width:2;"/>
   </g>
   <g id="line2d_58">
    <path clip-path="url(#p5831858627)" d="M 281.810744 517.133391 
L 312.164466 517.133557 
L 312.657098 505.58457 
L 312.770782 505.311064 
L 312.808677 505.325411 
L 312.960256 505.731726 
L 313.339204 507.827567 
L 314.134995 512.008361 
L 314.741311 513.991878 
L 315.347628 515.219428 
L 315.953944 515.969828 
L 316.63605 516.469615 
L 317.469736 516.799642 
L 318.644474 517.007164 
L 320.728687 517.111523 
L 327.928696 517.13422 
L 342.442398 517.134082 
L 342.442398 517.134082 
" style="fill:none;stroke:#0000ff;stroke-linecap:square;stroke-width:2;"/>
   </g>
   <g id="line2d_59">
    <path clip-path="url(#p5831858627)" d="M 281.810744 464.798589 
L 312.164466 464.798904 
L 312.467624 455.122046 
L 312.694993 453.572185 
L 312.808677 453.626005 
L 312.998151 454.307494 
L 314.551837 461.446642 
L 315.120259 462.690283 
L 315.726575 463.5154 
L 316.408682 464.065286 
L 317.204472 464.417096 
L 318.303421 464.644009 
L 320.160265 464.765252 
L 325.42764 464.798739 
L 342.442398 464.799211 
L 342.442398 464.799211 
" style="fill:none;stroke:#0000ff;stroke-linecap:square;stroke-width:2;"/>
   </g>
   <g id="line2d_60">
    <path clip-path="url(#p5831858627)" d="M 281.810744 412.638844 
L 312.164466 412.639208 
L 312.27815 411.151718 
L 312.316045 411.369173 
L 312.694993 413.837259 
L 312.922361 414.176775 
L 313.14973 414.181028 
L 313.604468 413.885735 
L 314.627627 413.232262 
L 315.574996 412.916807 
L 316.901314 412.732013 
L 319.40237 412.64981 
L 332.097122 412.638606 
L 342.442398 412.638844 
L 342.442398 412.638844 
" style="fill:none;stroke:#0000ff;stroke-linecap:square;stroke-width:2;"/>
   </g>
   <g id="line2d_61">
    <path clip-path="url(#p5831858627)" d="M 281.810744 360.342054 
L 312.164466 360.342156 
L 312.543414 405.341299 
L 312.732887 409.209919 
L 312.770782 409.203864 
L 312.884467 408.226158 
L 313.14973 402.867433 
L 314.172889 380.502734 
L 314.741311 373.089529 
L 315.309733 368.360451 
L 315.878155 365.375585 
L 316.446576 363.498533 
L 317.014998 362.320113 
L 317.621315 361.542903 
L 318.303421 361.026475 
L 319.137106 360.685818 
L 320.311844 360.471623 
L 322.358163 360.364542 
L 329.179224 360.340485 
L 342.442398 360.340979 
L 342.442398 360.340979 
" style="fill:none;stroke:#0000ff;stroke-linecap:square;stroke-width:2;"/>
   </g>
   <g id="line2d_62">
    <path clip-path="url(#p5831858627)" d="M 281.810744 308.055263 
L 312.164466 308.05505 
L 312.543414 354.663378 
L 312.732887 358.583759 
L 312.770782 358.568261 
L 312.884467 357.536828 
L 313.14973 351.971974 
L 314.172889 328.854781 
L 314.741311 321.206606 
L 315.309733 316.329818 
L 315.878155 313.251937 
L 316.446576 311.315962 
L 317.014998 310.100061 
L 317.621315 309.29768 
L 318.303421 308.76411 
L 319.137106 308.411751 
L 320.27395 308.194121 
L 322.244478 308.080939 
L 328.345539 308.05319 
L 342.442398 308.053611 
L 342.442398 308.053611 
" style="fill:none;stroke:#0000ff;stroke-linecap:square;stroke-width:2;"/>
   </g>
   <g id="line2d_63">
    <path clip-path="url(#p5831858627)" d="M 281.810744 255.749139 
L 312.202361 255.698945 
L 312.732887 262.317159 
L 312.846572 262.374243 
L 312.884467 262.342494 
L 313.073941 261.948746 
L 314.627627 257.757729 
L 315.233943 256.984391 
L 315.916049 256.463497 
L 316.749735 256.115088 
L 317.886578 255.896173 
L 319.857107 255.778796 
L 325.692904 255.747639 
L 342.442398 255.747654 
L 342.442398 255.747654 
" style="fill:none;stroke:#0000ff;stroke-linecap:square;stroke-width:2;"/>
   </g>
   <g id="line2d_64">
    <path clip-path="url(#p5831858627)" d="M 281.810744 203.389295 
L 312.164466 203.388732 
L 312.543414 191.2346 
L 312.732887 190.395683 
L 312.846572 190.604864 
L 313.111835 191.984654 
L 314.172889 198.137747 
L 314.741311 200.082326 
L 315.309733 201.32035 
L 315.916049 202.139182 
L 316.598155 202.681994 
L 317.393946 203.026346 
L 318.492895 203.245332 
L 320.387634 203.359976 
L 326.185536 203.388072 
L 342.442398 203.388227 
L 342.442398 203.388227 
" style="fill:none;stroke:#0000ff;stroke-linecap:square;stroke-width:2;"/>
   </g>
   <g id="line2d_65">
    <path clip-path="url(#p5831858627)" d="M 281.810744 150.961059 
L 312.164466 150.960519 
L 312.657098 134.168041 
L 312.770782 133.931799 
L 312.808677 133.993953 
L 312.960256 134.695061 
L 313.414994 138.450748 
L 314.134995 143.730888 
L 314.703416 146.398683 
L 315.271838 148.101165 
L 315.878155 149.22904 
L 316.484471 149.914264 
L 317.204472 150.386538 
L 318.076052 150.683807 
L 319.364475 150.866981 
L 321.827636 150.949096 
L 334.408704 150.960432 
L 342.442398 150.960366 
L 342.442398 150.960366 
" style="fill:none;stroke:#0000ff;stroke-linecap:square;stroke-width:2;"/>
   </g>
   <g id="line2d_66">
    <path clip-path="url(#p5831858627)" d="M 281.810744 98.4598 
L 312.164466 98.459432 
L 312.694993 87.048198 
L 312.770782 86.986973 
L 312.808677 87.024682 
L 312.960256 87.485983 
L 313.414994 90.00948 
L 314.134995 93.573988 
L 314.741311 95.470606 
L 315.347628 96.644159 
L 315.953944 97.36052 
L 316.63605 97.83616 
L 317.50763 98.158359 
L 318.758158 98.354042 
L 321.06974 98.44466 
L 331.111858 98.459445 
L 342.442398 98.459362 
L 342.442398 98.459362 
" style="fill:none;stroke:#0000ff;stroke-linecap:square;stroke-width:2;"/>
   </g>
   <g id="line2d_67">
    <path clip-path="url(#p5831858627)" d="M 281.810744 45.986587 
L 312.164466 45.986368 
L 312.694993 39.975894 
L 312.808677 39.966734 
L 312.998151 40.301924 
L 314.665521 44.315119 
L 315.309733 45.002515 
L 316.029734 45.444721 
L 316.939209 45.732585 
L 318.303421 45.905557 
L 321.031845 45.978418 
L 338.690815 45.986307 
L 342.442398 45.986296 
L 342.442398 45.986296 
" style="fill:none;stroke:#0000ff;stroke-linecap:square;stroke-width:2;"/>
   </g>
   <g id="line2d_68">
    <path clip-path="url(#p5831858627)" d="M 0 0 
" style="fill:none;stroke:#0000ff;stroke-linecap:square;stroke-width:2;"/>
   </g>
   <g id="line2d_69">
    <path clip-path="url(#p5831858627)" d="M 0 0 
" style="fill:none;stroke:#0000ff;stroke-linecap:square;stroke-width:2;"/>
   </g>
   <g id="line2d_70">
    <path clip-path="url(#p5831858627)" d="M 0 0 
" style="fill:none;stroke:#0000ff;stroke-linecap:square;stroke-width:2;"/>
   </g>
   <g id="line2d_71">
    <path clip-path="url(#p5831858627)" d="M 0 0 
" style="fill:none;stroke:#0000ff;stroke-linecap:square;stroke-width:2;"/>
   </g>
   <g id="line2d_72">
    <path clip-path="url(#p5831858627)" d="M 0 0 
" style="fill:none;stroke:#0000ff;stroke-linecap:square;stroke-width:2;"/>
   </g>
   <g id="line2d_73">
    <path clip-path="url(#p5831858627)" d="M 0 0 
" style="fill:none;stroke:#0000ff;stroke-linecap:square;stroke-width:2;"/>
   </g>
   <g id="line2d_74">
    <path clip-path="url(#p5831858627)" d="M 0 0 
" style="fill:none;stroke:#0000ff;stroke-linecap:square;stroke-width:2;"/>
   </g>
   <g id="line2d_75">
    <path clip-path="url(#p5831858627)" d="M 0 0 
" style="fill:none;stroke:#0000ff;stroke-linecap:square;stroke-width:2;"/>
   </g>
   <g id="line2d_76">
    <path clip-path="url(#p5831858627)" d="M 433.38988 674.124902 
L 463.743603 674.124983 
L 464.27413 671.546978 
L 464.463603 671.536229 
L 464.766762 671.843973 
L 465.86571 673.106052 
L 466.623606 673.572484 
L 467.533081 673.861529 
L 468.897293 674.038472 
L 471.587823 674.115516 
L 487.08679 674.12522 
L 494.021535 674.125188 
L 494.021535 674.125188 
" style="fill:none;stroke:#0000ff;stroke-linecap:square;stroke-width:2;"/>
   </g>
   <g id="line2d_77">
    <path clip-path="url(#p5831858627)" d="M 433.38988 621.754119 
L 463.743603 621.754225 
L 464.312024 616.729615 
L 464.463603 616.754607 
L 464.690972 617.164952 
L 465.979395 619.958035 
L 466.623606 620.688495 
L 467.343607 621.162127 
L 468.253082 621.473039 
L 469.541505 621.656569 
L 472.004666 621.741615 
L 483.752049 621.754653 
L 494.021535 621.754565 
L 494.021535 621.754565 
" style="fill:none;stroke:#0000ff;stroke-linecap:square;stroke-width:2;"/>
   </g>
   <g id="line2d_78">
    <path clip-path="url(#p5831858627)" d="M 433.38988 569.425862 
L 463.743603 569.425982 
L 463.970971 561.747333 
L 464.236235 557.309317 
L 464.387814 556.914777 
L 464.501498 557.140744 
L 464.766762 558.486864 
L 465.789921 564.233952 
L 466.396237 566.244331 
L 467.002554 567.48724 
L 467.608871 568.247139 
L 468.290977 568.753383 
L 469.124662 569.087782 
L 470.2994 569.298139 
L 472.345719 569.403245 
L 479.280464 569.426943 
L 494.021535 569.426695 
L 494.021535 569.426695 
" style="fill:none;stroke:#0000ff;stroke-linecap:square;stroke-width:2;"/>
   </g>
   <g id="line2d_79">
    <path clip-path="url(#p5831858627)" d="M 433.38988 517.002225 
L 463.743603 517.002466 
L 464.312024 494.345711 
L 464.387814 494.266694 
L 464.425709 494.35539 
L 464.577288 495.300097 
L 465.032025 500.314232 
L 465.752026 507.349704 
L 466.320448 510.898361 
L 466.88887 513.163481 
L 467.457291 514.593057 
L 468.063608 515.538302 
L 468.707819 516.140839 
L 469.465715 516.541297 
L 470.450979 516.798448 
L 472.004666 516.947001 
L 475.52888 517.00114 
L 494.021535 517.003645 
L 494.021535 517.003645 
" style="fill:none;stroke:#0000ff;stroke-linecap:square;stroke-width:2;"/>
   </g>
   <g id="line2d_80">
    <path clip-path="url(#p5831858627)" d="M 433.38988 463.808322 
L 463.743603 463.809246 
L 464.12255 438.804611 
L 464.312024 436.828443 
L 464.387814 436.960172 
L 464.539393 438.104111 
L 465.032025 444.584497 
L 465.714131 452.378767 
L 466.282553 456.562539 
L 466.850975 459.234531 
L 467.419397 460.924366 
L 468.025713 462.045506 
L 468.669925 462.763461 
L 469.389925 463.225966 
L 470.2994 463.530241 
L 471.625718 463.714424 
L 474.164668 463.798463 
L 486.518368 463.81107 
L 494.021535 463.810856 
L 494.021535 463.810856 
" style="fill:none;stroke:#0000ff;stroke-linecap:square;stroke-width:2;"/>
   </g>
   <g id="line2d_81">
    <path clip-path="url(#p5831858627)" d="M 433.38988 406.083832 
L 463.743603 406.087857 
L 464.008866 375.827637 
L 464.236235 371.082644 
L 464.27413 371.032124 
L 464.312024 371.116461 
L 464.463603 372.435636 
L 464.880446 379.372644 
L 465.600447 390.389534 
L 466.168869 396.001071 
L 466.737291 399.612591 
L 467.305712 401.922751 
L 467.912029 403.479924 
L 468.518345 404.450688 
L 469.162557 405.086917 
L 469.920452 405.525267 
L 470.905717 405.821465 
L 472.345719 405.999914 
L 475.187827 406.082753 
L 489.246792 406.094319 
L 494.021535 406.093878 
L 494.021535 406.093878 
" style="fill:none;stroke:#0000ff;stroke-linecap:square;stroke-width:2;"/>
   </g>
   <g id="line2d_82">
    <path clip-path="url(#p5831858627)" d="M 433.38988 359.92431 
L 463.743603 359.924747 
L 464.12255 449.206189 
L 464.312024 456.654629 
L 464.349919 456.615608 
L 464.463603 454.619415 
L 464.728867 443.945138 
L 465.752026 399.690471 
L 466.320448 385.048455 
L 466.88887 375.714596 
L 467.457291 369.827595 
L 468.025713 366.128399 
L 468.594135 363.808026 
L 469.162557 362.354018 
L 469.768873 361.396643 
L 470.413085 360.788285 
L 471.17098 360.38507 
L 472.156245 360.126925 
L 473.709931 359.978456 
L 477.272041 359.924867 
L 494.021535 359.923106 
L 494.021535 359.923106 
" style="fill:none;stroke:#0000ff;stroke-linecap:square;stroke-width:2;"/>
   </g>
   <g id="line2d_83">
    <path clip-path="url(#p5831858627)" d="M 433.38988 308.150761 
L 463.743603 308.150442 
L 464.12255 398.400978 
L 464.312024 405.884048 
L 464.349919 405.840722 
L 464.463603 403.815522 
L 464.728867 393.019235 
L 465.714131 349.548745 
L 466.282553 334.33351 
L 466.850975 324.622164 
L 467.419397 318.492508 
L 467.987818 314.637588 
L 468.55624 312.217117 
L 469.124662 310.698605 
L 469.730978 309.697354 
L 470.37519 309.060016 
L 471.133085 308.636651 
L 472.11835 308.364732 
L 473.634141 308.209389 
L 476.968882 308.150713 
L 494.021535 308.147937 
L 494.021535 308.147937 
" style="fill:none;stroke:#0000ff;stroke-linecap:square;stroke-width:2;"/>
   </g>
   <g id="line2d_84">
    <path clip-path="url(#p5831858627)" d="M 433.38988 255.962545 
L 463.743603 255.961825 
L 463.933076 249.780201 
L 464.046761 249.557424 
L 464.084656 249.584831 
L 464.27413 250.026376 
L 465.524657 253.587171 
L 466.130974 254.523649 
L 466.775185 255.128225 
L 467.533081 255.527916 
L 468.518345 255.778649 
L 470.072032 255.915801 
L 473.86151 255.958896 
L 494.021535 255.960242 
L 494.021535 255.960242 
" style="fill:none;stroke:#0000ff;stroke-linecap:square;stroke-width:2;"/>
   </g>
   <g id="line2d_85">
    <path clip-path="url(#p5831858627)" d="M 433.38988 203.629244 
L 463.743603 203.628324 
L 464.12255 174.409206 
L 464.312024 172.229578 
L 464.387814 172.432386 
L 464.577288 174.316936 
L 466.130974 194.226719 
L 466.699396 197.727744 
L 467.267818 199.938078 
L 467.836239 201.325129 
L 468.442556 202.237549 
L 469.086767 202.815825 
L 469.844663 203.197395 
L 470.867822 203.445802 
L 472.497298 203.582135 
L 476.514145 203.626522 
L 494.021535 203.627768 
L 494.021535 203.627768 
" style="fill:none;stroke:#0000ff;stroke-linecap:square;stroke-width:2;"/>
   </g>
   <g id="line2d_86">
    <path clip-path="url(#p5831858627)" d="M 433.38988 151.179896 
L 463.743603 151.179004 
L 464.27413 117.361248 
L 464.349919 117.171541 
L 464.387814 117.279748 
L 464.539393 118.63681 
L 464.99413 126.109831 
L 465.714131 136.67954 
L 466.282553 142.02484 
L 466.850975 145.437056 
L 467.419397 147.587798 
L 467.987818 148.93691 
L 468.594135 149.824506 
L 469.238346 150.387301 
L 469.996242 150.758949 
L 471.019401 151.001219 
L 472.686772 151.135942 
L 476.893093 151.178386 
L 494.021535 151.179049 
L 494.021535 151.179049 
" style="fill:none;stroke:#0000ff;stroke-linecap:square;stroke-width:2;"/>
   </g>
   <g id="line2d_87">
    <path clip-path="url(#p5831858627)" d="M 433.38988 98.527135 
L 463.743603 98.526649 
L 464.27413 81.526514 
L 464.349919 81.421831 
L 464.387814 81.47269 
L 464.539393 82.145928 
L 464.956236 85.56661 
L 465.676237 90.997747 
L 466.244658 93.770253 
L 466.81308 95.542913 
L 467.381502 96.660707 
L 467.987818 97.398012 
L 468.669925 97.886795 
L 469.50361 98.207683 
L 470.716243 98.411403 
L 472.876246 98.508357 
L 481.175203 98.526834 
L 494.021535 98.526665 
L 494.021535 98.526665 
" style="fill:none;stroke:#0000ff;stroke-linecap:square;stroke-width:2;"/>
   </g>
   <g id="line2d_88">
    <path clip-path="url(#p5831858627)" d="M 433.38988 45.993642 
L 463.743603 45.993403 
L 464.27413 38.975018 
L 464.387814 38.961364 
L 464.577288 39.350156 
L 466.282553 44.098006 
L 466.88887 44.842019 
L 467.570976 45.338882 
L 468.404661 45.666368 
L 469.579399 45.871021 
L 471.663612 45.972357 
L 479.128885 45.993397 
L 494.021535 45.993349 
L 494.021535 45.993349 
" style="fill:none;stroke:#0000ff;stroke-linecap:square;stroke-width:2;"/>
   </g>
   <g id="line2d_89">
    <path clip-path="url(#p5831858627)" d="M 0 0 
" style="fill:none;stroke:#0000ff;stroke-linecap:square;stroke-width:2;"/>
   </g>
   <g id="line2d_90">
    <path clip-path="url(#p5831858627)" d="M 0 0 
" style="fill:none;stroke:#0000ff;stroke-linecap:square;stroke-width:2;"/>
   </g>
   <g id="line2d_91">
    <path clip-path="url(#p5831858627)" d="M 0 0 
" style="fill:none;stroke:#0000ff;stroke-linecap:square;stroke-width:2;"/>
   </g>
   <g id="line2d_92">
    <path clip-path="url(#p5831858627)" d="M 0 0 
" style="fill:none;stroke:#0000ff;stroke-linecap:square;stroke-width:2;"/>
   </g>
   <g id="line2d_93">
    <path clip-path="url(#p5831858627)" d="M 0 0 
" style="fill:none;stroke:#0000ff;stroke-linecap:square;stroke-width:2;"/>
   </g>
   <g id="line2d_94">
    <path clip-path="url(#p5831858627)" d="M 0 0 
" style="fill:none;stroke:#0000ff;stroke-linecap:square;stroke-width:2;"/>
   </g>
   <g id="line2d_95">
    <path clip-path="url(#p5831858627)" d="M 0 0 
" style="fill:none;stroke:#0000ff;stroke-linecap:square;stroke-width:2;"/>
   </g>
   <g id="line2d_96">
    <path clip-path="url(#p5831858627)" d="M 0 0 
" style="fill:none;stroke:#0000ff;stroke-linecap:square;stroke-width:2;"/>
   </g>
   <g id="line2d_97">
    <path clip-path="url(#p5831858627)" d="M 584.969017 674.100503 
L 615.322739 674.10059 
L 615.853266 672.347037 
L 616.080635 672.356121 
L 616.535373 672.720798 
L 617.444847 673.406016 
L 618.316427 673.755966 
L 619.491166 673.96736 
L 621.537484 674.075156 
L 628.244861 674.100707 
L 645.600672 674.100772 
L 645.600672 674.100772 
" style="fill:none;stroke:#0000ff;stroke-linecap:square;stroke-width:2;"/>
   </g>
   <g id="line2d_98">
    <path clip-path="url(#p5831858627)" d="M 584.969017 621.698142 
L 615.322739 621.698262 
L 615.853266 619.064471 
L 616.04274 619.056858 
L 616.345899 619.372368 
L 617.444847 620.657469 
L 618.164848 621.114652 
L 619.074323 621.418633 
L 620.400641 621.602715 
L 622.939591 621.686126 
L 635.482765 621.69858 
L 645.600672 621.698524 
L 645.600672 621.698524 
" style="fill:none;stroke:#0000ff;stroke-linecap:square;stroke-width:2;"/>
   </g>
   <g id="line2d_99">
    <path clip-path="url(#p5831858627)" d="M 584.969017 569.25113 
L 615.322739 569.251313 
L 615.815372 565.605771 
L 616.004846 565.525152 
L 616.232214 565.797566 
L 617.672216 568.037033 
L 618.354322 568.549843 
L 619.188007 568.89342 
L 620.362746 569.112634 
L 622.371169 569.223931 
L 628.699598 569.251635 
L 645.600672 569.251698 
L 645.600672 569.251698 
" style="fill:none;stroke:#0000ff;stroke-linecap:square;stroke-width:2;"/>
   </g>
   <g id="line2d_100">
    <path clip-path="url(#p5831858627)" d="M 584.969017 516.676887 
L 615.322739 516.677203 
L 615.739582 512.804372 
L 615.929056 512.533568 
L 616.080635 512.63365 
L 616.421688 513.254757 
L 617.293268 514.868244 
L 617.93748 515.590974 
L 618.65748 516.065251 
L 619.566955 516.380487 
L 620.855378 516.570395 
L 623.280644 516.661676 
L 633.550131 516.677904 
L 645.600672 516.677777 
L 645.600672 516.677777 
" style="fill:none;stroke:#0000ff;stroke-linecap:square;stroke-width:2;"/>
   </g>
   <g id="line2d_101">
    <path clip-path="url(#p5831858627)" d="M 584.969017 463.770101 
L 615.322739 463.770704 
L 615.625898 461.711969 
L 615.853266 461.349403 
L 616.04274 461.384634 
L 616.421688 461.780223 
L 617.331163 462.728481 
L 618.089059 463.179445 
L 619.036428 463.477111 
L 620.438535 463.664797 
L 623.09117 463.755252 
L 634.308026 463.771846 
L 645.600672 463.771664 
L 645.600672 463.771664 
" style="fill:none;stroke:#0000ff;stroke-linecap:square;stroke-width:2;"/>
   </g>
   <g id="line2d_102">
    <path clip-path="url(#p5831858627)" d="M 584.969017 410.803992 
L 615.322739 410.804871 
L 615.891161 414.660596 
L 616.04274 414.592227 
L 616.345899 414.090471 
L 617.331163 412.340553 
L 617.975374 411.677219 
L 618.695375 411.256591 
L 619.60485 410.994729 
L 621.006957 410.849914 
L 624.228014 410.805398 
L 645.600672 410.806164 
L 645.600672 410.806164 
" style="fill:none;stroke:#0000ff;stroke-linecap:square;stroke-width:2;"/>
   </g>
   <g id="line2d_103">
    <path clip-path="url(#p5831858627)" d="M 584.969017 359.35684 
L 615.322739 359.357242 
L 615.739582 373.652051 
L 615.929056 374.427988 
L 616.04274 374.133195 
L 616.308004 372.482083 
L 617.331163 365.552172 
L 617.899585 363.25644 
L 618.468007 361.795996 
L 619.074323 360.830679 
L 619.718534 360.217718 
L 620.47643 359.813025 
L 621.461694 359.555961 
L 623.015381 359.410413 
L 626.615385 359.359723 
L 645.600672 359.357496 
L 645.600672 359.357496 
" style="fill:none;stroke:#0000ff;stroke-linecap:square;stroke-width:2;"/>
   </g>
   <g id="line2d_104">
    <path clip-path="url(#p5831858627)" d="M 584.969017 307.501428 
L 615.322739 307.501492 
L 615.739582 322.862352 
L 615.929056 323.699926 
L 616.04274 323.386367 
L 616.308004 321.617314 
L 617.331163 314.183623 
L 617.899585 311.720392 
L 618.468007 310.150957 
L 619.074323 309.110725 
L 619.718534 308.447511 
L 620.438535 308.023265 
L 621.385905 307.739539 
L 622.788012 307.575629 
L 625.70591 307.507583 
L 645.600672 307.501214 
L 645.600672 307.501214 
" style="fill:none;stroke:#0000ff;stroke-linecap:square;stroke-width:2;"/>
   </g>
   <g id="line2d_105">
    <path clip-path="url(#p5831858627)" d="M 584.969017 255.353093 
L 615.322739 255.352964 
L 615.815372 261.919742 
L 615.966951 262.039705 
L 616.11853 261.793581 
L 616.535373 260.463748 
L 617.293268 258.238653 
L 617.899585 257.124105 
L 618.543796 256.401234 
L 619.263797 255.935079 
L 620.173272 255.629523 
L 621.499589 255.446217 
L 624.03854 255.364294 
L 636.960661 255.352525 
L 645.600672 255.352599 
L 645.600672 255.352599 
" style="fill:none;stroke:#0000ff;stroke-linecap:square;stroke-width:2;"/>
   </g>
   <g id="line2d_106">
    <path clip-path="url(#p5831858627)" d="M 584.969017 203.073931 
L 615.322739 203.073704 
L 615.625898 201.548 
L 615.853266 201.375003 
L 616.11853 201.503838 
L 617.672216 202.57667 
L 618.65748 202.856471 
L 620.135377 203.01288 
L 623.356434 203.070193 
L 645.600672 203.073437 
L 645.600672 203.073437 
" style="fill:none;stroke:#0000ff;stroke-linecap:square;stroke-width:2;"/>
   </g>
   <g id="line2d_107">
    <path clip-path="url(#p5831858627)" d="M 584.969017 150.722739 
L 615.322739 150.722494 
L 615.777477 145.590278 
L 615.929056 145.459336 
L 616.080635 145.638054 
L 616.497478 146.673598 
L 617.255373 148.434814 
L 617.86169 149.323222 
L 618.505901 149.899826 
L 619.263797 150.284422 
L 620.286956 150.536436 
L 621.916432 150.675433 
L 625.895384 150.720892 
L 645.600672 150.722339 
L 645.600672 150.722339 
" style="fill:none;stroke:#0000ff;stroke-linecap:square;stroke-width:2;"/>
   </g>
   <g id="line2d_108">
    <path clip-path="url(#p5831858627)" d="M 584.969017 98.330948 
L 615.322739 98.33074 
L 615.815372 93.228829 
L 615.966951 93.180505 
L 616.156425 93.473795 
L 617.823795 96.904882 
L 618.468007 97.491527 
L 619.225902 97.883232 
L 620.249061 98.14025 
L 621.840642 98.28078 
L 625.668016 98.328844 
L 645.600672 98.330648 
L 645.600672 98.330648 
" style="fill:none;stroke:#0000ff;stroke-linecap:square;stroke-width:2;"/>
   </g>
   <g id="line2d_109">
    <path clip-path="url(#p5831858627)" d="M 584.969017 45.929915 
L 615.322739 45.929759 
L 615.815372 42.186782 
L 615.966951 42.149555 
L 616.194319 42.425271 
L 617.634321 44.707604 
L 618.316427 45.231292 
L 619.150113 45.579791 
L 620.286956 45.794294 
L 622.257485 45.903999 
L 628.623809 45.929637 
L 645.600672 45.929692 
L 645.600672 45.929692 
" style="fill:none;stroke:#0000ff;stroke-linecap:square;stroke-width:2;"/>
   </g>
   <g id="line2d_110">
    <path clip-path="url(#p5831858627)" d="M 0 0 
" style="fill:none;stroke:#0000ff;stroke-linecap:square;stroke-width:2;"/>
   </g>
   <g id="line2d_111">
    <path clip-path="url(#p5831858627)" d="M 0 0 
" style="fill:none;stroke:#0000ff;stroke-linecap:square;stroke-width:2;"/>
   </g>
   <g id="line2d_112">
    <path clip-path="url(#p5831858627)" d="M 0 0 
" style="fill:none;stroke:#0000ff;stroke-linecap:square;stroke-width:2;"/>
   </g>
   <g id="line2d_113">
    <path clip-path="url(#p5831858627)" d="M 204.00012 255.272727 
L 254.526499 255.272727 
" style="fill:none;stroke:#000000;stroke-linecap:square;stroke-width:1.5;"/>
   </g>
   <g id="line2d_114">
    <path clip-path="url(#p5831858627)" d="M 204.00012 255.272727 
L 204.00012 229.090909 
" style="fill:none;stroke:#000000;stroke-linecap:square;stroke-width:1.5;"/>
   </g>
   <g id="line2d_115">
    <path clip-path="url(#p5831858627)" d="M 532.421583 255.272727 
L 532.421583 229.090909 
" style="fill:none;stroke:#0000ff;stroke-linecap:square;stroke-width:1.5;"/>
   </g>
   <g id="text_13">
    <!-- 50 um -->
    <defs>
     <path id="DejaVuSans-20"/>
     <path d="M 8.5 21.578125 
L 8.5 54.6875 
L 17.484375 54.6875 
L 17.484375 21.921875 
Q 17.484375 14.15625 20.5 10.265625 
Q 23.53125 6.390625 29.59375 6.390625 
Q 36.859375 6.390625 41.078125 11.03125 
Q 45.3125 15.671875 45.3125 23.6875 
L 45.3125 54.6875 
L 54.296875 54.6875 
L 54.296875 0 
L 45.3125 0 
L 45.3125 8.40625 
Q 42.046875 3.421875 37.71875 1 
Q 33.40625 -1.421875 27.6875 -1.421875 
Q 18.265625 -1.421875 13.375 4.4375 
Q 8.5 10.296875 8.5 21.578125 
z
M 31.109375 56 
z
" id="DejaVuSans-75"/>
     <path d="M 52 44.1875 
Q 55.375 50.25 60.0625 53.125 
Q 64.75 56 71.09375 56 
Q 79.640625 56 84.28125 50.015625 
Q 88.921875 44.046875 88.921875 33.015625 
L 88.921875 0 
L 79.890625 0 
L 79.890625 32.71875 
Q 79.890625 40.578125 77.09375 44.375 
Q 74.3125 48.1875 68.609375 48.1875 
Q 61.625 48.1875 57.5625 43.546875 
Q 53.515625 38.921875 53.515625 30.90625 
L 53.515625 0 
L 44.484375 0 
L 44.484375 32.71875 
Q 44.484375 40.625 41.703125 44.40625 
Q 38.921875 48.1875 33.109375 48.1875 
Q 26.21875 48.1875 22.15625 43.53125 
Q 18.109375 38.875 18.109375 30.90625 
L 18.109375 0 
L 9.078125 0 
L 9.078125 54.6875 
L 18.109375 54.6875 
L 18.109375 46.1875 
Q 21.1875 51.21875 25.484375 53.609375 
Q 29.78125 56 35.6875 56 
Q 41.65625 56 45.828125 52.96875 
Q 50 49.953125 52 44.1875 
z
" id="DejaVuSans-6d"/>
    </defs>
    <g transform="translate(209.052758 268.363636)scale(0.1 -0.1)">
     <use xlink:href="#DejaVuSans-35"/>
     <use x="63.623047" xlink:href="#DejaVuSans-30"/>
     <use x="127.246094" xlink:href="#DejaVuSans-20"/>
     <use x="159.033203" xlink:href="#DejaVuSans-75"/>
     <use x="222.412109" xlink:href="#DejaVuSans-6d"/>
    </g>
   </g>
   <g id="text_14">
    <!-- 50 um -->
    <g transform="translate(153.473741 242.181818)scale(0.1 -0.1)">
     <use xlink:href="#DejaVuSans-35"/>
     <use x="63.623047" xlink:href="#DejaVuSans-30"/>
     <use x="127.246094" xlink:href="#DejaVuSans-20"/>
     <use x="159.033203" xlink:href="#DejaVuSans-75"/>
     <use x="222.412109" xlink:href="#DejaVuSans-6d"/>
    </g>
   </g>
   <g id="text_15">
    <!-- 0.1 $\mu$V -->
    <defs>
     <path d="M 10.6875 12.40625 
L 21 12.40625 
L 21 0 
L 10.6875 0 
z
" id="DejaVuSans-2e"/>
     <path d="M -1.3125 -20.796875 
L 13.375 54.6875 
L 22.40625 54.6875 
L 15.765625 20.65625 
Q 15.578125 19.625 15.421875 18.359375 
Q 15.28125 17.09375 15.28125 15.828125 
Q 15.28125 11.28125 18.140625 8.828125 
Q 21 6.390625 26.3125 6.390625 
Q 33.546875 6.390625 37.984375 10.484375 
Q 42.4375 14.59375 44 22.796875 
L 50.203125 54.6875 
L 59.1875 54.6875 
L 51.03125 12.640625 
Q 50.828125 11.71875 50.75 11.03125 
Q 50.6875 10.359375 50.6875 9.8125 
Q 50.6875 8.296875 51.296875 7.59375 
Q 51.90625 6.890625 53.21875 6.890625 
Q 53.71875 6.890625 54.5625 7.125 
Q 55.421875 7.375 56.984375 8.015625 
L 55.609375 0.78125 
Q 53.46875 -0.296875 51.515625 -0.859375 
Q 49.5625 -1.421875 47.703125 -1.421875 
Q 44.484375 -1.421875 42.65625 0.625 
Q 40.828125 2.6875 40.828125 6.296875 
Q 38.09375 2.390625 34.296875 0.484375 
Q 30.515625 -1.421875 25.390625 -1.421875 
Q 20.84375 -1.421875 17.453125 0.671875 
Q 14.0625 2.78125 12.984375 6.203125 
L 7.71875 -20.796875 
z
" id="DejaVuSans-Oblique-3bc"/>
     <path d="M 28.609375 0 
L 0.78125 72.90625 
L 11.078125 72.90625 
L 34.1875 11.53125 
L 57.328125 72.90625 
L 67.578125 72.90625 
L 39.796875 0 
z
" id="DejaVuSans-56"/>
    </defs>
    <g transform="translate(537.474221 242.181818)scale(0.1 -0.1)">
     <use transform="translate(0 0.78125)" xlink:href="#DejaVuSans-30"/>
     <use transform="translate(63.623047 0.78125)" xlink:href="#DejaVuSans-2e"/>
     <use transform="translate(95.410156 0.78125)" xlink:href="#DejaVuSans-31"/>
     <use transform="translate(159.033203 0.78125)" xlink:href="#DejaVuSans-20"/>
     <use transform="translate(190.820312 0.78125)" xlink:href="#DejaVuSans-Oblique-3bc"/>
     <use transform="translate(254.443359 0.78125)" xlink:href="#DejaVuSans-56"/>
    </g>
   </g>
   <g id="text_16">
    <!-- Location-dependent extracellular spike shapes -->
    <defs>
     <path d="M 9.8125 72.90625 
L 19.671875 72.90625 
L 19.671875 8.296875 
L 55.171875 8.296875 
L 55.171875 0 
L 9.8125 0 
z
" id="DejaVuSans-4c"/>
     <path d="M 30.609375 48.390625 
Q 23.390625 48.390625 19.1875 42.75 
Q 14.984375 37.109375 14.984375 27.296875 
Q 14.984375 17.484375 19.15625 11.84375 
Q 23.34375 6.203125 30.609375 6.203125 
Q 37.796875 6.203125 41.984375 11.859375 
Q 46.1875 17.53125 46.1875 27.296875 
Q 46.1875 37.015625 41.984375 42.703125 
Q 37.796875 48.390625 30.609375 48.390625 
z
M 30.609375 56 
Q 42.328125 56 49.015625 48.375 
Q 55.71875 40.765625 55.71875 27.296875 
Q 55.71875 13.875 49.015625 6.21875 
Q 42.328125 -1.421875 30.609375 -1.421875 
Q 18.84375 -1.421875 12.171875 6.21875 
Q 5.515625 13.875 5.515625 27.296875 
Q 5.515625 40.765625 12.171875 48.375 
Q 18.84375 56 30.609375 56 
z
" id="DejaVuSans-6f"/>
     <path d="M 48.78125 52.59375 
L 48.78125 44.1875 
Q 44.96875 46.296875 41.140625 47.34375 
Q 37.3125 48.390625 33.40625 48.390625 
Q 24.65625 48.390625 19.8125 42.84375 
Q 14.984375 37.3125 14.984375 27.296875 
Q 14.984375 17.28125 19.8125 11.734375 
Q 24.65625 6.203125 33.40625 6.203125 
Q 37.3125 6.203125 41.140625 7.25 
Q 44.96875 8.296875 48.78125 10.40625 
L 48.78125 2.09375 
Q 45.015625 0.34375 40.984375 -0.53125 
Q 36.96875 -1.421875 32.421875 -1.421875 
Q 20.0625 -1.421875 12.78125 6.34375 
Q 5.515625 14.109375 5.515625 27.296875 
Q 5.515625 40.671875 12.859375 48.328125 
Q 20.21875 56 33.015625 56 
Q 37.15625 56 41.109375 55.140625 
Q 45.0625 54.296875 48.78125 52.59375 
z
" id="DejaVuSans-63"/>
     <path d="M 34.28125 27.484375 
Q 23.390625 27.484375 19.1875 25 
Q 14.984375 22.515625 14.984375 16.5 
Q 14.984375 11.71875 18.140625 8.90625 
Q 21.296875 6.109375 26.703125 6.109375 
Q 34.1875 6.109375 38.703125 11.40625 
Q 43.21875 16.703125 43.21875 25.484375 
L 43.21875 27.484375 
z
M 52.203125 31.203125 
L 52.203125 0 
L 43.21875 0 
L 43.21875 8.296875 
Q 40.140625 3.328125 35.546875 0.953125 
Q 30.953125 -1.421875 24.3125 -1.421875 
Q 15.921875 -1.421875 10.953125 3.296875 
Q 6 8.015625 6 15.921875 
Q 6 25.140625 12.171875 29.828125 
Q 18.359375 34.515625 30.609375 34.515625 
L 43.21875 34.515625 
L 43.21875 35.40625 
Q 43.21875 41.609375 39.140625 45 
Q 35.0625 48.390625 27.6875 48.390625 
Q 23 48.390625 18.546875 47.265625 
Q 14.109375 46.140625 10.015625 43.890625 
L 10.015625 52.203125 
Q 14.9375 54.109375 19.578125 55.046875 
Q 24.21875 56 28.609375 56 
Q 40.484375 56 46.34375 49.84375 
Q 52.203125 43.703125 52.203125 31.203125 
z
" id="DejaVuSans-61"/>
     <path d="M 18.3125 70.21875 
L 18.3125 54.6875 
L 36.8125 54.6875 
L 36.8125 47.703125 
L 18.3125 47.703125 
L 18.3125 18.015625 
Q 18.3125 11.328125 20.140625 9.421875 
Q 21.96875 7.515625 27.59375 7.515625 
L 36.8125 7.515625 
L 36.8125 0 
L 27.59375 0 
Q 17.1875 0 13.234375 3.875 
Q 9.28125 7.765625 9.28125 18.015625 
L 9.28125 47.703125 
L 2.6875 47.703125 
L 2.6875 54.6875 
L 9.28125 54.6875 
L 9.28125 70.21875 
z
" id="DejaVuSans-74"/>
     <path d="M 9.421875 54.6875 
L 18.40625 54.6875 
L 18.40625 0 
L 9.421875 0 
z
M 9.421875 75.984375 
L 18.40625 75.984375 
L 18.40625 64.59375 
L 9.421875 64.59375 
z
" id="DejaVuSans-69"/>
     <path d="M 54.890625 33.015625 
L 54.890625 0 
L 45.90625 0 
L 45.90625 32.71875 
Q 45.90625 40.484375 42.875 44.328125 
Q 39.84375 48.1875 33.796875 48.1875 
Q 26.515625 48.1875 22.3125 43.546875 
Q 18.109375 38.921875 18.109375 30.90625 
L 18.109375 0 
L 9.078125 0 
L 9.078125 54.6875 
L 18.109375 54.6875 
L 18.109375 46.1875 
Q 21.34375 51.125 25.703125 53.5625 
Q 30.078125 56 35.796875 56 
Q 45.21875 56 50.046875 50.171875 
Q 54.890625 44.34375 54.890625 33.015625 
z
" id="DejaVuSans-6e"/>
     <path d="M 4.890625 31.390625 
L 31.203125 31.390625 
L 31.203125 23.390625 
L 4.890625 23.390625 
z
" id="DejaVuSans-2d"/>
     <path d="M 45.40625 46.390625 
L 45.40625 75.984375 
L 54.390625 75.984375 
L 54.390625 0 
L 45.40625 0 
L 45.40625 8.203125 
Q 42.578125 3.328125 38.25 0.953125 
Q 33.9375 -1.421875 27.875 -1.421875 
Q 17.96875 -1.421875 11.734375 6.484375 
Q 5.515625 14.40625 5.515625 27.296875 
Q 5.515625 40.1875 11.734375 48.09375 
Q 17.96875 56 27.875 56 
Q 33.9375 56 38.25 53.625 
Q 42.578125 51.265625 45.40625 46.390625 
z
M 14.796875 27.296875 
Q 14.796875 17.390625 18.875 11.75 
Q 22.953125 6.109375 30.078125 6.109375 
Q 37.203125 6.109375 41.296875 11.75 
Q 45.40625 17.390625 45.40625 27.296875 
Q 45.40625 37.203125 41.296875 42.84375 
Q 37.203125 48.484375 30.078125 48.484375 
Q 22.953125 48.484375 18.875 42.84375 
Q 14.796875 37.203125 14.796875 27.296875 
z
" id="DejaVuSans-64"/>
     <path d="M 56.203125 29.59375 
L 56.203125 25.203125 
L 14.890625 25.203125 
Q 15.484375 15.921875 20.484375 11.0625 
Q 25.484375 6.203125 34.421875 6.203125 
Q 39.59375 6.203125 44.453125 7.46875 
Q 49.3125 8.734375 54.109375 11.28125 
L 54.109375 2.78125 
Q 49.265625 0.734375 44.1875 -0.34375 
Q 39.109375 -1.421875 33.890625 -1.421875 
Q 20.796875 -1.421875 13.15625 6.1875 
Q 5.515625 13.8125 5.515625 26.8125 
Q 5.515625 40.234375 12.765625 48.109375 
Q 20.015625 56 32.328125 56 
Q 43.359375 56 49.78125 48.890625 
Q 56.203125 41.796875 56.203125 29.59375 
z
M 47.21875 32.234375 
Q 47.125 39.59375 43.09375 43.984375 
Q 39.0625 48.390625 32.421875 48.390625 
Q 24.90625 48.390625 20.390625 44.140625 
Q 15.875 39.890625 15.1875 32.171875 
z
" id="DejaVuSans-65"/>
     <path d="M 18.109375 8.203125 
L 18.109375 -20.796875 
L 9.078125 -20.796875 
L 9.078125 54.6875 
L 18.109375 54.6875 
L 18.109375 46.390625 
Q 20.953125 51.265625 25.265625 53.625 
Q 29.59375 56 35.59375 56 
Q 45.5625 56 51.78125 48.09375 
Q 58.015625 40.1875 58.015625 27.296875 
Q 58.015625 14.40625 51.78125 6.484375 
Q 45.5625 -1.421875 35.59375 -1.421875 
Q 29.59375 -1.421875 25.265625 0.953125 
Q 20.953125 3.328125 18.109375 8.203125 
z
M 48.6875 27.296875 
Q 48.6875 37.203125 44.609375 42.84375 
Q 40.53125 48.484375 33.40625 48.484375 
Q 26.265625 48.484375 22.1875 42.84375 
Q 18.109375 37.203125 18.109375 27.296875 
Q 18.109375 17.390625 22.1875 11.75 
Q 26.265625 6.109375 33.40625 6.109375 
Q 40.53125 6.109375 44.609375 11.75 
Q 48.6875 17.390625 48.6875 27.296875 
z
" id="DejaVuSans-70"/>
     <path d="M 54.890625 54.6875 
L 35.109375 28.078125 
L 55.90625 0 
L 45.3125 0 
L 29.390625 21.484375 
L 13.484375 0 
L 2.875 0 
L 24.125 28.609375 
L 4.6875 54.6875 
L 15.28125 54.6875 
L 29.78125 35.203125 
L 44.28125 54.6875 
z
" id="DejaVuSans-78"/>
     <path d="M 41.109375 46.296875 
Q 39.59375 47.171875 37.8125 47.578125 
Q 36.03125 48 33.890625 48 
Q 26.265625 48 22.1875 43.046875 
Q 18.109375 38.09375 18.109375 28.8125 
L 18.109375 0 
L 9.078125 0 
L 9.078125 54.6875 
L 18.109375 54.6875 
L 18.109375 46.1875 
Q 20.953125 51.171875 25.484375 53.578125 
Q 30.03125 56 36.53125 56 
Q 37.453125 56 38.578125 55.875 
Q 39.703125 55.765625 41.0625 55.515625 
z
" id="DejaVuSans-72"/>
     <path d="M 9.421875 75.984375 
L 18.40625 75.984375 
L 18.40625 0 
L 9.421875 0 
z
" id="DejaVuSans-6c"/>
     <path d="M 44.28125 53.078125 
L 44.28125 44.578125 
Q 40.484375 46.53125 36.375 47.5 
Q 32.28125 48.484375 27.875 48.484375 
Q 21.1875 48.484375 17.84375 46.4375 
Q 14.5 44.390625 14.5 40.28125 
Q 14.5 37.15625 16.890625 35.375 
Q 19.28125 33.59375 26.515625 31.984375 
L 29.59375 31.296875 
Q 39.15625 29.25 43.1875 25.515625 
Q 47.21875 21.78125 47.21875 15.09375 
Q 47.21875 7.46875 41.1875 3.015625 
Q 35.15625 -1.421875 24.609375 -1.421875 
Q 20.21875 -1.421875 15.453125 -0.5625 
Q 10.6875 0.296875 5.421875 2 
L 5.421875 11.28125 
Q 10.40625 8.6875 15.234375 7.390625 
Q 20.0625 6.109375 24.8125 6.109375 
Q 31.15625 6.109375 34.5625 8.28125 
Q 37.984375 10.453125 37.984375 14.40625 
Q 37.984375 18.0625 35.515625 20.015625 
Q 33.0625 21.96875 24.703125 23.78125 
L 21.578125 24.515625 
Q 13.234375 26.265625 9.515625 29.90625 
Q 5.8125 33.546875 5.8125 39.890625 
Q 5.8125 47.609375 11.28125 51.796875 
Q 16.75 56 26.8125 56 
Q 31.78125 56 36.171875 55.265625 
Q 40.578125 54.546875 44.28125 53.078125 
z
" id="DejaVuSans-73"/>
     <path d="M 9.078125 75.984375 
L 18.109375 75.984375 
L 18.109375 31.109375 
L 44.921875 54.6875 
L 56.390625 54.6875 
L 27.390625 29.109375 
L 57.625 0 
L 45.90625 0 
L 18.109375 26.703125 
L 18.109375 0 
L 9.078125 0 
z
" id="DejaVuSans-6b"/>
     <path d="M 54.890625 33.015625 
L 54.890625 0 
L 45.90625 0 
L 45.90625 32.71875 
Q 45.90625 40.484375 42.875 44.328125 
Q 39.84375 48.1875 33.796875 48.1875 
Q 26.515625 48.1875 22.3125 43.546875 
Q 18.109375 38.921875 18.109375 30.90625 
L 18.109375 0 
L 9.078125 0 
L 9.078125 75.984375 
L 18.109375 75.984375 
L 18.109375 46.1875 
Q 21.34375 51.125 25.703125 53.5625 
Q 30.078125 56 35.796875 56 
Q 45.21875 56 50.046875 50.171875 
Q 54.890625 44.34375 54.890625 33.015625 
z
" id="DejaVuSans-68"/>
    </defs>
    <g transform="translate(255.500985 66)scale(0.12 -0.12)">
     <use xlink:href="#DejaVuSans-4c"/>
     <use x="55.697266" xlink:href="#DejaVuSans-6f"/>
     <use x="116.878906" xlink:href="#DejaVuSans-63"/>
     <use x="171.859375" xlink:href="#DejaVuSans-61"/>
     <use x="233.138672" xlink:href="#DejaVuSans-74"/>
     <use x="272.347656" xlink:href="#DejaVuSans-69"/>
     <use x="300.130859" xlink:href="#DejaVuSans-6f"/>
     <use x="361.3125" xlink:href="#DejaVuSans-6e"/>
     <use x="424.691406" xlink:href="#DejaVuSans-2d"/>
     <use x="460.775391" xlink:href="#DejaVuSans-64"/>
     <use x="524.251953" xlink:href="#DejaVuSans-65"/>
     <use x="585.775391" xlink:href="#DejaVuSans-70"/>
     <use x="649.251953" xlink:href="#DejaVuSans-65"/>
     <use x="710.775391" xlink:href="#DejaVuSans-6e"/>
     <use x="774.154297" xlink:href="#DejaVuSans-64"/>
     <use x="837.630859" xlink:href="#DejaVuSans-65"/>
     <use x="899.154297" xlink:href="#DejaVuSans-6e"/>
     <use x="962.533203" xlink:href="#DejaVuSans-74"/>
     <use x="1001.742188" xlink:href="#DejaVuSans-20"/>
     <use x="1033.529297" xlink:href="#DejaVuSans-65"/>
     <use x="1095.037109" xlink:href="#DejaVuSans-78"/>
     <use x="1154.216797" xlink:href="#DejaVuSans-74"/>
     <use x="1193.425781" xlink:href="#DejaVuSans-72"/>
     <use x="1234.539062" xlink:href="#DejaVuSans-61"/>
     <use x="1295.818359" xlink:href="#DejaVuSans-63"/>
     <use x="1350.798828" xlink:href="#DejaVuSans-65"/>
     <use x="1412.322266" xlink:href="#DejaVuSans-6c"/>
     <use x="1440.105469" xlink:href="#DejaVuSans-6c"/>
     <use x="1467.888672" xlink:href="#DejaVuSans-75"/>
     <use x="1531.267578" xlink:href="#DejaVuSans-6c"/>
     <use x="1559.050781" xlink:href="#DejaVuSans-61"/>
     <use x="1620.330078" xlink:href="#DejaVuSans-72"/>
     <use x="1661.443359" xlink:href="#DejaVuSans-20"/>
     <use x="1693.230469" xlink:href="#DejaVuSans-73"/>
     <use x="1745.330078" xlink:href="#DejaVuSans-70"/>
     <use x="1808.806641" xlink:href="#DejaVuSans-69"/>
     <use x="1836.589844" xlink:href="#DejaVuSans-6b"/>
     <use x="1894.453125" xlink:href="#DejaVuSans-65"/>
     <use x="1955.976562" xlink:href="#DejaVuSans-20"/>
     <use x="1987.763672" xlink:href="#DejaVuSans-73"/>
     <use x="2039.863281" xlink:href="#DejaVuSans-68"/>
     <use x="2103.242188" xlink:href="#DejaVuSans-61"/>
     <use x="2164.521484" xlink:href="#DejaVuSans-70"/>
     <use x="2227.998047" xlink:href="#DejaVuSans-65"/>
     <use x="2289.521484" xlink:href="#DejaVuSans-73"/>
    </g>
   </g>
  </g>
 </g>
 <defs>
  <clipPath id="p5831858627">
   <rect height="576" width="576.00072" x="108" y="72"/>
  </clipPath>
 </defs>
</svg>
