<?xml version="1.0" encoding="utf-8" standalone="no"?>
<!DOCTYPE svg PUBLIC "-//W3C//DTD SVG 1.1//EN"
  "http://www.w3.org/Graphics/SVG/1.1/DTD/svg11.dtd">
<!-- Created with matplotlib (http://matplotlib.org/) -->
<svg height="550.6pt" version="1.1" viewBox="0 0 844 550.6" width="844pt" xmlns="http://www.w3.org/2000/svg" xmlns:xlink="http://www.w3.org/1999/xlink">
 <defs>
  <style type="text/css">
*{stroke-linecap:butt;stroke-linejoin:round;}
  </style>
 </defs>
 <g id="figure_1">
  <g id="patch_1">
   <path d="M 0 550.6 
L 844 550.6 
L 844 0 
L 0 0 
z
" style="fill:#ffffff;"/>
  </g>
  <g id="axes_1">
   <g id="line2d_1">
    <path clip-path="url(#pe957faecbf)" d="M 41.545455 192.748869 
L 65.473413 193.037574 
L 79.830189 192.894543 
L 151.614065 191.772007 
L 189.898799 191.584479 
L 242.540309 191.586586 
L 276.039451 191.765684 
L 285.610635 191.946429 
L 290.396226 192.13653 
L 295.181818 192.522361 
L 299.96741 193.496589 
L 304.753002 195.988275 
L 309.538593 198.184874 
L 323.895369 198.55217 
L 328.680961 197.824231 
L 333.466552 195.781891 
L 338.252144 192.361311 
L 343.037736 187.668474 
L 347.823328 182.005538 
L 352.608919 175.782443 
L 357.394511 169.226604 
L 362.180103 161.570887 
L 366.965695 148.633662 
L 371.751286 117.988484 
L 376.536878 64.508934 
L 381.32247 24.65832 
L 386.108062 14.731405 
L 390.893654 28.748853 
L 395.679245 68.399344 
L 400.464837 129.731883 
L 405.250429 177.899106 
L 410.036021 203.654564 
L 414.821612 217.533389 
L 419.607204 225.590347 
L 424.392796 230.23086 
L 429.178388 232.530323 
L 433.963979 233.127921 
L 438.749571 232.505054 
L 443.535163 231.057333 
L 448.320755 229.112105 
L 457.891938 224.743403 
L 462.67753 222.706636 
L 467.463122 220.970025 
L 472.248714 219.651181 
L 477.034305 218.837609 
L 481.819897 218.580691 
L 486.605489 218.878263 
L 491.391081 219.639991 
L 500.962264 221.577947 
L 505.747856 222.014762 
L 510.533448 221.636077 
L 515.319039 220.323277 
L 520.104631 218.223182 
L 534.461407 210.613993 
L 539.246998 208.481911 
L 544.03259 206.66549 
L 548.818182 205.126434 
L 553.603774 203.814657 
L 558.389365 202.684008 
L 563.174957 201.696805 
L 572.746141 200.043407 
L 582.317324 198.699522 
L 591.888508 197.583066 
L 601.459691 196.651158 
L 615.816467 195.544463 
L 630.173242 194.726481 
L 644.530017 194.131469 
L 663.672384 193.583722 
L 687.600343 193.149209 
L 721.099485 192.794722 
L 768.955403 192.529299 
L 802.454545 192.424176 
L 802.454545 192.424176 
" style="fill:none;stroke:#e6ff00;stroke-linecap:square;stroke-width:1.5;"/>
   </g>
   <g id="line2d_2">
    <path clip-path="url(#pe957faecbf)" d="M 41.545455 192.761311 
L 60.687822 192.918548 
L 75.044597 192.754499 
L 146.828473 191.464324 
L 180.327616 191.251487 
L 228.183533 191.186415 
L 280.825043 191.32334 
L 290.396226 191.472426 
L 295.181818 191.66876 
L 299.96741 192.175639 
L 309.538593 194.819262 
L 314.324185 195.025113 
L 319.109777 195.065504 
L 323.895369 194.903834 
L 328.680961 193.78684 
L 333.466552 191.393835 
L 338.252144 187.726277 
L 343.037736 182.931497 
L 347.823328 177.314042 
L 352.608919 171.243765 
L 357.394511 164.876884 
L 362.180103 157.396468 
L 366.965695 144.840224 
L 371.751286 116.092918 
L 376.536878 67.107114 
L 381.32247 29.507455 
L 386.108062 17.562051 
L 390.893654 27.587792 
L 395.679245 64.804485 
L 400.464837 128.575936 
L 405.250429 179.874435 
L 410.036021 206.721922 
L 414.821612 220.774947 
L 419.607204 228.765406 
L 424.392796 233.292599 
L 429.178388 235.47489 
L 433.963979 235.958566 
L 438.749571 235.226348 
L 443.535163 233.675375 
L 448.320755 231.634247 
L 457.891938 227.094614 
L 462.67753 224.979278 
L 467.463122 223.164297 
L 472.248714 221.763472 
L 477.034305 220.861262 
L 481.819897 220.506794 
L 486.605489 220.696938 
L 491.391081 221.343127 
L 500.962264 223.052479 
L 505.747856 223.390596 
L 510.533448 222.922969 
L 515.319039 221.520248 
L 520.104631 219.319478 
L 534.461407 211.391514 
L 539.246998 209.175752 
L 544.03259 207.289307 
L 548.818182 205.690605 
L 553.603774 204.32664 
L 558.389365 203.149308 
L 563.174957 202.119756 
L 572.746141 200.392146 
L 582.317324 198.98568 
L 591.888508 197.816331 
L 601.459691 196.839655 
L 611.030875 196.028488 
L 625.38765 195.074916 
L 639.744425 194.375483 
L 658.886792 193.727919 
L 682.814751 193.212614 
L 711.528302 192.837821 
L 754.598628 192.522592 
L 802.454545 192.335336 
L 802.454545 192.335336 
" style="fill:none;stroke:#ffd600;stroke-linecap:square;stroke-width:1.5;"/>
   </g>
   <g id="line2d_3">
    <path clip-path="url(#pe957faecbf)" d="M 41.545455 192.770449 
L 60.687822 192.829056 
L 75.044597 192.593849 
L 132.471698 191.371215 
L 161.185249 191.082119 
L 199.469983 190.928822 
L 266.468268 190.924138 
L 295.181818 191.046585 
L 299.96741 191.219195 
L 304.753002 191.720152 
L 309.538593 192.35155 
L 314.324185 192.540002 
L 319.109777 192.491038 
L 323.895369 192.051688 
L 328.680961 190.61139 
L 333.466552 187.939789 
L 338.252144 184.083655 
L 343.037736 179.21883 
L 347.823328 173.648739 
L 352.608919 167.710285 
L 357.394511 161.507335 
L 362.180103 154.202956 
L 366.965695 142.06957 
L 371.751286 115.152538 
L 376.536878 70.126373 
L 381.32247 34.13376 
L 386.108062 19.592713 
L 390.893654 24.74897 
L 395.679245 58.535362 
L 400.464837 124.965149 
L 405.250429 180.228604 
L 410.036021 208.559169 
L 414.821612 222.942674 
L 419.607204 230.956513 
L 424.392796 235.440783 
L 429.178388 237.566724 
L 433.963979 237.989229 
L 438.749571 237.192698 
L 443.535163 235.576428 
L 448.320755 233.471194 
L 457.891938 228.809834 
L 462.67753 226.635258 
L 467.463122 224.759016 
L 472.248714 223.292185 
L 477.034305 222.31733 
L 481.819897 221.882661 
L 486.605489 221.985821 
L 491.391081 222.541884 
L 500.962264 224.093919 
L 505.747856 224.377828 
L 510.533448 223.866823 
L 515.319039 222.415397 
L 520.104631 220.146779 
L 534.461407 211.956667 
L 539.246998 209.671458 
L 544.03259 207.729212 
L 548.818182 206.084957 
L 553.603774 204.682483 
L 558.389365 203.471493 
L 563.174957 202.411829 
L 572.746141 200.63193 
L 582.317324 199.181471 
L 591.888508 197.974813 
L 601.459691 196.966398 
L 611.030875 196.128161 
L 625.38765 195.141135 
L 639.744425 194.415038 
L 658.886792 193.7398 
L 682.814751 193.198935 
L 711.528302 192.802364 
L 754.598628 192.465666 
L 802.454545 192.263737 
L 802.454545 192.263737 
" style="fill:none;stroke:#ffa000;stroke-linecap:square;stroke-width:1.5;"/>
   </g>
   <g id="line2d_4">
    <path clip-path="url(#pe957faecbf)" d="M 41.545455 192.776562 
L 55.90223 192.813634 
L 70.259005 192.599423 
L 132.471698 191.198016 
L 161.185249 190.902262 
L 199.469983 190.743963 
L 304.753002 190.539253 
L 314.324185 190.876513 
L 319.109777 190.775892 
L 323.895369 190.175713 
L 328.680961 188.554138 
L 333.466552 185.733593 
L 338.252144 181.785314 
L 343.037736 176.90043 
L 347.823328 171.38046 
L 352.608919 165.542638 
L 357.394511 159.463587 
L 362.180103 152.30978 
L 366.965695 140.537025 
L 371.751286 114.959132 
L 376.536878 72.592829 
L 381.32247 37.545634 
L 386.108062 20.962989 
L 390.893654 22.193049 
L 395.679245 52.841859 
L 400.464837 121.252017 
L 405.250429 179.936756 
L 410.036021 209.598192 
L 414.821612 224.310931 
L 419.607204 232.382975 
L 424.392796 236.862567 
L 429.178388 238.967095 
L 433.963979 239.359504 
L 438.749571 238.526175 
L 443.535163 236.868703 
L 448.320755 234.720221 
L 457.891938 229.971146 
L 462.67753 227.752041 
L 467.463122 225.829189 
L 472.248714 224.312145 
L 477.034305 223.282539 
L 481.819897 222.788401 
L 486.605489 222.828661 
L 491.391081 223.321824 
L 500.962264 224.77447 
L 505.747856 225.031014 
L 510.533448 224.501477 
L 515.319039 223.025951 
L 520.104631 220.715408 
L 534.461407 212.337568 
L 539.246998 210.001692 
L 544.03259 208.019463 
L 548.818182 206.34331 
L 553.603774 204.914449 
L 558.389365 203.680785 
L 563.174957 202.601068 
L 572.746141 200.786657 
L 582.317324 199.307252 
L 591.888508 198.075986 
L 601.459691 197.046556 
L 611.030875 196.190337 
L 625.38765 195.181054 
L 639.744425 194.437241 
L 658.886792 193.743686 
L 678.02916 193.277618 
L 706.74271 192.830342 
L 745.027444 192.484686 
L 802.454545 192.212937 
L 802.454545 192.212937 
" style="fill:none;stroke:#ff7f00;stroke-linecap:square;stroke-width:1.5;"/>
   </g>
   <g id="line2d_5">
    <path clip-path="url(#pe957faecbf)" d="M 189.898799 105.3638 
L 266.468268 105.3638 
" style="fill:none;stroke:#000000;stroke-linecap:square;stroke-width:1.5;"/>
   </g>
   <g id="text_1">
    <!-- 1 ms -->
    <defs>
     <path d="M 12.40625 8.296875 
L 28.515625 8.296875 
L 28.515625 63.921875 
L 10.984375 60.40625 
L 10.984375 69.390625 
L 28.421875 72.90625 
L 38.28125 72.90625 
L 38.28125 8.296875 
L 54.390625 8.296875 
L 54.390625 0 
L 12.40625 0 
z
" id="DejaVuSans-31"/>
     <path id="DejaVuSans-20"/>
     <path d="M 52 44.1875 
Q 55.375 50.25 60.0625 53.125 
Q 64.75 56 71.09375 56 
Q 79.640625 56 84.28125 50.015625 
Q 88.921875 44.046875 88.921875 33.015625 
L 88.921875 0 
L 79.890625 0 
L 79.890625 32.71875 
Q 79.890625 40.578125 77.09375 44.375 
Q 74.3125 48.1875 68.609375 48.1875 
Q 61.625 48.1875 57.5625 43.546875 
Q 53.515625 38.921875 53.515625 30.90625 
L 53.515625 0 
L 44.484375 0 
L 44.484375 32.71875 
Q 44.484375 40.625 41.703125 44.40625 
Q 38.921875 48.1875 33.109375 48.1875 
Q 26.21875 48.1875 22.15625 43.53125 
Q 18.109375 38.875 18.109375 30.90625 
L 18.109375 0 
L 9.078125 0 
L 9.078125 54.6875 
L 18.109375 54.6875 
L 18.109375 46.1875 
Q 21.1875 51.21875 25.484375 53.609375 
Q 29.78125 56 35.6875 56 
Q 41.65625 56 45.828125 52.96875 
Q 50 49.953125 52 44.1875 
z
" id="DejaVuSans-6d"/>
     <path d="M 44.28125 53.078125 
L 44.28125 44.578125 
Q 40.484375 46.53125 36.375 47.5 
Q 32.28125 48.484375 27.875 48.484375 
Q 21.1875 48.484375 17.84375 46.4375 
Q 14.5 44.390625 14.5 40.28125 
Q 14.5 37.15625 16.890625 35.375 
Q 19.28125 33.59375 26.515625 31.984375 
L 29.59375 31.296875 
Q 39.15625 29.25 43.1875 25.515625 
Q 47.21875 21.78125 47.21875 15.09375 
Q 47.21875 7.46875 41.1875 3.015625 
Q 35.15625 -1.421875 24.609375 -1.421875 
Q 20.21875 -1.421875 15.453125 -0.5625 
Q 10.6875 0.296875 5.421875 2 
L 5.421875 11.28125 
Q 10.40625 8.6875 15.234375 7.390625 
Q 20.0625 6.109375 24.8125 6.109375 
Q 31.15625 6.109375 34.5625 8.28125 
Q 37.984375 10.453125 37.984375 14.40625 
Q 37.984375 18.0625 35.515625 20.015625 
Q 33.0625 21.96875 24.703125 23.78125 
L 21.578125 24.515625 
Q 13.234375 26.265625 9.515625 29.90625 
Q 5.8125 33.546875 5.8125 39.890625 
Q 5.8125 47.609375 11.28125 51.796875 
Q 16.75 56 26.8125 56 
Q 31.78125 56 36.171875 55.265625 
Q 40.578125 54.546875 44.28125 53.078125 
z
" id="DejaVuSans-73"/>
    </defs>
    <g transform="translate(216.698113 116.283625)scale(0.1 -0.1)">
     <use xlink:href="#DejaVuSans-31"/>
     <use x="63.623047" xlink:href="#DejaVuSans-20"/>
     <use x="95.410156" xlink:href="#DejaVuSans-6d"/>
     <use x="192.822266" xlink:href="#DejaVuSans-73"/>
    </g>
   </g>
  </g>
  <g id="axes_2">
   <g id="line2d_6">
    <path clip-path="url(#p663d90ec33)" d="M -1 511.887831 
L 8.73125 511.888104 
L 13.9625 511.372546 
L 19.19375 510.30563 
L 24.425 508.859624 
L 45.35 502.358367 
L 50.58125 500.9503 
L 55.8125 499.680118 
L 61.04375 498.544581 
L 71.50625 496.634918 
L 81.96875 495.116465 
L 92.43125 493.885512 
L 102.89375 492.859813 
L 118.5875 491.57962 
L 139.5125 490.169151 
L 170.9 488.354657 
L 207.51875 486.20965 
L 223.2125 485.074794 
L 233.675 484.13167 
L 244.1375 482.920167 
L 249.36875 482.149995 
L 254.6 481.212366 
L 259.83125 480.029032 
L 265.0625 478.470844 
L 270.29375 476.303195 
L 275.525 473.050449 
L 280.75625 467.621896 
L 285.9875 456.997166 
L 291.21875 431.035092 
L 296.45 366.779616 
L 301.68125 320.694485 
L 306.9125 339.353106 
L 312.14375 363.421628 
L 317.375 381.366921 
L 322.60625 394.769463 
L 327.8375 405.32477 
L 333.06875 413.978663 
L 338.3 421.300577 
L 343.53125 427.685573 
L 348.7625 433.441417 
L 364.45625 449.610391 
L 369.6875 455.656364 
L 374.91875 462.818428 
L 380.15 471.908638 
L 385.38125 483.828523 
L 395.84375 512.81063 
L 401.075 522.968316 
L 406.30625 528.61599 
L 411.5375 531.48944 
L 416.76875 532.972628 
L 422 533.79091 
L 427.23125 534.284505 
L 437.69375 534.849659 
L 453.3875 535.304508 
L 469.08125 535.536699 
L 495.2375 535.640443 
L 568.475 535.797292 
L 605.09375 535.489372 
L 646.94375 534.917381 
L 699.25625 533.948364 
L 767.2625 532.44399 
L 840.5 530.708486 
L 840.5 530.708486 
" style="fill:none;stroke:#1f77b4;stroke-linecap:square;stroke-width:1.5;"/>
   </g>
   <g id="line2d_7">
    <path clip-path="url(#p663d90ec33)" d="M -1 511.193875 
L 45.35 511.090547 
L 71.50625 510.74003 
L 97.6625 510.151055 
L 134.28125 509.079828 
L 291.21875 503.985867 
L 301.68125 503.577809 
L 312.14375 502.926757 
L 317.375 502.394445 
L 322.60625 501.63271 
L 327.8375 500.566106 
L 333.06875 499.126475 
L 338.3 497.261835 
L 343.53125 494.94124 
L 348.7625 492.152538 
L 353.99375 488.886565 
L 359.225 485.092174 
L 364.45625 480.570595 
L 369.6875 474.808787 
L 374.91875 467.024538 
L 380.15 456.417807 
L 385.38125 441.967555 
L 390.6125 421.435412 
L 395.84375 390.102485 
L 401.075 350.392968 
L 406.30625 323.334434 
L 411.5375 312.799158 
L 416.76875 311.240496 
L 422 314.266769 
L 427.23125 319.92815 
L 432.4625 327.22485 
L 437.69375 335.520098 
L 448.15625 353.353714 
L 453.3875 362.275377 
L 458.61875 370.929578 
L 463.85 379.199938 
L 469.08125 387.024772 
L 474.3125 394.386965 
L 479.54375 401.305935 
L 484.775 407.831936 
L 490.00625 414.041688 
L 500.46875 425.926282 
L 510.93125 437.902903 
L 516.1625 444.199973 
L 521.39375 450.764106 
L 537.0875 470.926492 
L 542.31875 477.102355 
L 547.55 482.727777 
L 552.78125 487.772705 
L 558.0125 492.273435 
L 563.24375 496.293014 
L 568.475 499.896783 
L 573.70625 503.142575 
L 578.9375 506.078554 
L 584.16875 508.743916 
L 589.4 511.170394 
L 594.63125 513.383737 
L 599.8625 515.405081 
L 605.09375 517.25203 
L 610.325 518.939567 
L 615.55625 520.480751 
L 620.7875 521.887241 
L 631.25 524.337872 
L 641.7125 526.367822 
L 652.175 528.044088 
L 662.6375 529.425331 
L 673.1 530.562021 
L 683.5625 531.49668 
L 699.25625 532.595087 
L 714.95 533.409452 
L 730.64375 534.007645 
L 751.56875 534.55269 
L 772.49375 534.883069 
L 798.65 535.077941 
L 830.0375 535.08436 
L 840.5 535.044824 
L 840.5 535.044824 
" style="fill:none;stroke:#ff7f0e;stroke-linecap:square;stroke-width:1.5;"/>
   </g>
   <g id="legend_1">
    <g id="patch_2">
     <path d="M 774.303125 337.365341 
L 833.5 337.365341 
Q 835.5 337.365341 835.5 335.365341 
L 835.5 307.009091 
Q 835.5 305.009091 833.5 305.009091 
L 774.303125 305.009091 
Q 772.303125 305.009091 772.303125 307.009091 
L 772.303125 335.365341 
Q 772.303125 337.365341 774.303125 337.365341 
z
" style="fill:#ffffff;opacity:0.8;stroke:#cccccc;stroke-linejoin:miter;"/>
    </g>
    <g id="line2d_8">
     <path d="M 776.303125 313.107528 
L 796.303125 313.107528 
" style="fill:none;stroke:#1f77b4;stroke-linecap:square;stroke-width:1.5;"/>
    </g>
    <g id="line2d_9"/>
    <g id="text_2">
     <!-- axon -->
     <defs>
      <path d="M 34.28125 27.484375 
Q 23.390625 27.484375 19.1875 25 
Q 14.984375 22.515625 14.984375 16.5 
Q 14.984375 11.71875 18.140625 8.90625 
Q 21.296875 6.109375 26.703125 6.109375 
Q 34.1875 6.109375 38.703125 11.40625 
Q 43.21875 16.703125 43.21875 25.484375 
L 43.21875 27.484375 
z
M 52.203125 31.203125 
L 52.203125 0 
L 43.21875 0 
L 43.21875 8.296875 
Q 40.140625 3.328125 35.546875 0.953125 
Q 30.953125 -1.421875 24.3125 -1.421875 
Q 15.921875 -1.421875 10.953125 3.296875 
Q 6 8.015625 6 15.921875 
Q 6 25.140625 12.171875 29.828125 
Q 18.359375 34.515625 30.609375 34.515625 
L 43.21875 34.515625 
L 43.21875 35.40625 
Q 43.21875 41.609375 39.140625 45 
Q 35.0625 48.390625 27.6875 48.390625 
Q 23 48.390625 18.546875 47.265625 
Q 14.109375 46.140625 10.015625 43.890625 
L 10.015625 52.203125 
Q 14.9375 54.109375 19.578125 55.046875 
Q 24.21875 56 28.609375 56 
Q 40.484375 56 46.34375 49.84375 
Q 52.203125 43.703125 52.203125 31.203125 
z
" id="DejaVuSans-61"/>
      <path d="M 54.890625 54.6875 
L 35.109375 28.078125 
L 55.90625 0 
L 45.3125 0 
L 29.390625 21.484375 
L 13.484375 0 
L 2.875 0 
L 24.125 28.609375 
L 4.6875 54.6875 
L 15.28125 54.6875 
L 29.78125 35.203125 
L 44.28125 54.6875 
z
" id="DejaVuSans-78"/>
      <path d="M 30.609375 48.390625 
Q 23.390625 48.390625 19.1875 42.75 
Q 14.984375 37.109375 14.984375 27.296875 
Q 14.984375 17.484375 19.15625 11.84375 
Q 23.34375 6.203125 30.609375 6.203125 
Q 37.796875 6.203125 41.984375 11.859375 
Q 46.1875 17.53125 46.1875 27.296875 
Q 46.1875 37.015625 41.984375 42.703125 
Q 37.796875 48.390625 30.609375 48.390625 
z
M 30.609375 56 
Q 42.328125 56 49.015625 48.375 
Q 55.71875 40.765625 55.71875 27.296875 
Q 55.71875 13.875 49.015625 6.21875 
Q 42.328125 -1.421875 30.609375 -1.421875 
Q 18.84375 -1.421875 12.171875 6.21875 
Q 5.515625 13.875 5.515625 27.296875 
Q 5.515625 40.765625 12.171875 48.375 
Q 18.84375 56 30.609375 56 
z
" id="DejaVuSans-6f"/>
      <path d="M 54.890625 33.015625 
L 54.890625 0 
L 45.90625 0 
L 45.90625 32.71875 
Q 45.90625 40.484375 42.875 44.328125 
Q 39.84375 48.1875 33.796875 48.1875 
Q 26.515625 48.1875 22.3125 43.546875 
Q 18.109375 38.921875 18.109375 30.90625 
L 18.109375 0 
L 9.078125 0 
L 9.078125 54.6875 
L 18.109375 54.6875 
L 18.109375 46.1875 
Q 21.34375 51.125 25.703125 53.5625 
Q 30.078125 56 35.796875 56 
Q 45.21875 56 50.046875 50.171875 
Q 54.890625 44.34375 54.890625 33.015625 
z
" id="DejaVuSans-6e"/>
     </defs>
     <g transform="translate(804.303125 316.607528)scale(0.1 -0.1)">
      <use xlink:href="#DejaVuSans-61"/>
      <use x="61.279297" xlink:href="#DejaVuSans-78"/>
      <use x="120.412109" xlink:href="#DejaVuSans-6f"/>
      <use x="181.59375" xlink:href="#DejaVuSans-6e"/>
     </g>
    </g>
    <g id="line2d_10">
     <path d="M 776.303125 327.785653 
L 796.303125 327.785653 
" style="fill:none;stroke:#ff7f0e;stroke-linecap:square;stroke-width:1.5;"/>
    </g>
    <g id="line2d_11"/>
    <g id="text_3">
     <!-- soma -->
     <g transform="translate(804.303125 331.285653)scale(0.1 -0.1)">
      <use xlink:href="#DejaVuSans-73"/>
      <use x="52.099609" xlink:href="#DejaVuSans-6f"/>
      <use x="113.28125" xlink:href="#DejaVuSans-6d"/>
      <use x="210.693359" xlink:href="#DejaVuSans-61"/>
     </g>
    </g>
   </g>
  </g>
 </g>
 <defs>
  <clipPath id="pe957faecbf">
   <rect height="247.090909" width="837" x="3.5" y="3.5"/>
  </clipPath>
  <clipPath id="p663d90ec33">
   <rect height="247.090909" width="837" x="3.5" y="300.009091"/>
  </clipPath>
 </defs>
</svg>
