<?xml version="1.0" encoding="utf-8" standalone="no"?>
<!DOCTYPE svg PUBLIC "-//W3C//DTD SVG 1.1//EN"
  "http://www.w3.org/Graphics/SVG/1.1/DTD/svg11.dtd">
<!-- Created with matplotlib (http://matplotlib.org/) -->
<svg height="550.6pt" version="1.1" viewBox="0 0 844 550.6" width="844pt" xmlns="http://www.w3.org/2000/svg" xmlns:xlink="http://www.w3.org/1999/xlink">
 <defs>
  <style type="text/css">
*{stroke-linecap:butt;stroke-linejoin:round;}
  </style>
 </defs>
 <g id="figure_1">
  <g id="patch_1">
   <path d="M 0 550.6 
L 844 550.6 
L 844 0 
L 0 0 
z
" style="fill:#ffffff;"/>
  </g>
  <g id="axes_1">
   <g id="line2d_1">
    <path clip-path="url(#pcf24572145)" d="M 41.545455 196.75186 
L 46.331046 197.329658 
L 51.116638 198.036991 
L 55.90223 198.592695 
L 60.687822 198.897543 
L 65.473413 198.941776 
L 70.259005 198.754012 
L 75.044597 198.377171 
L 84.61578 197.235764 
L 122.900515 191.853209 
L 132.471698 190.843095 
L 142.042882 190.011192 
L 151.614065 189.342814 
L 165.97084 188.605291 
L 180.327616 188.125013 
L 194.684391 187.848058 
L 213.826758 187.71671 
L 232.969125 187.808887 
L 252.111492 188.134971 
L 266.468268 188.644907 
L 276.039451 189.291223 
L 280.825043 189.825001 
L 285.610635 190.651855 
L 290.396226 192.078481 
L 295.181818 194.964117 
L 299.96741 202.222355 
L 304.753002 220.912746 
L 309.538593 237.875977 
L 314.324185 239.041407 
L 319.109777 239.359504 
L 323.895369 238.31503 
L 328.680961 225.053073 
L 333.466552 197.143317 
L 343.037736 127.18664 
L 347.823328 97.179062 
L 352.608919 73.285743 
L 357.394511 55.397901 
L 362.180103 42.801483 
L 366.965695 34.5965 
L 371.751286 29.868489 
L 376.536878 27.735773 
L 381.32247 27.348021 
L 386.108062 27.920826 
L 390.893654 29.021854 
L 395.679245 31.085606 
L 400.464837 34.907111 
L 405.250429 40.483575 
L 410.036021 47.352392 
L 414.821612 55.118637 
L 419.607204 63.551786 
L 424.392796 72.579478 
L 429.178388 82.254069 
L 433.963979 92.678092 
L 438.749571 103.872856 
L 453.106346 139.391548 
L 457.891938 150.466413 
L 462.67753 160.608984 
L 467.463122 169.688096 
L 472.248714 177.678198 
L 477.034305 184.620511 
L 481.819897 190.592722 
L 486.605489 195.688396 
L 491.391081 200.004908 
L 496.176672 203.636339 
L 500.962264 206.670179 
L 505.747856 209.185683 
L 510.533448 211.253605 
L 515.319039 212.936455 
L 520.104631 214.288884 
L 524.890223 215.358639 
L 529.675815 216.187195 
L 534.461407 216.810334 
L 539.246998 217.258973 
L 544.03259 217.559815 
L 553.603774 217.806604 
L 563.174957 217.697792 
L 572.746141 217.341507 
L 587.102916 216.509796 
L 606.245283 215.106968 
L 673.243568 209.941368 
L 701.957118 208.034511 
L 730.670669 206.358416 
L 759.38422 204.895137 
L 792.883362 203.424481 
L 802.454545 203.046004 
L 802.454545 203.046004 
" style="fill:none;stroke:#00ff89;stroke-linecap:square;stroke-width:1.5;"/>
   </g>
   <g id="line2d_2">
    <path clip-path="url(#pcf24572145)" d="M 41.545455 196.861017 
L 51.116638 197.800232 
L 55.90223 198.090356 
L 60.687822 198.113504 
L 65.473413 197.879069 
L 70.259005 197.427111 
L 75.044597 196.806771 
L 84.61578 195.24908 
L 108.543739 191.038983 
L 118.114923 189.599241 
L 127.686106 188.371537 
L 137.25729 187.354325 
L 146.828473 186.530583 
L 156.399657 185.877713 
L 170.756432 185.165316 
L 185.113208 184.707813 
L 204.255575 184.389858 
L 223.397942 184.309806 
L 247.325901 184.455041 
L 266.468268 184.792727 
L 276.039451 185.13059 
L 280.825043 185.406348 
L 285.610635 185.834608 
L 290.396226 186.582288 
L 295.181818 188.123831 
L 299.96741 192.088082 
L 309.538593 213.168276 
L 314.324185 214.874893 
L 319.109777 214.97982 
L 323.895369 212.023628 
L 328.680961 197.136556 
L 333.466552 169.098916 
L 338.252144 134.959044 
L 343.037736 101.844464 
L 347.823328 73.616375 
L 352.608919 51.499036 
L 357.394511 35.348359 
L 362.180103 24.460538 
L 366.965695 17.965031 
L 371.751286 14.99275 
L 376.536878 14.731405 
L 381.32247 16.433383 
L 386.108062 19.430742 
L 390.893654 23.273935 
L 395.679245 28.009644 
L 400.464837 33.974523 
L 405.250429 41.178157 
L 410.036021 49.382071 
L 414.821612 58.351062 
L 419.607204 67.931175 
L 424.392796 78.071844 
L 429.178388 88.809435 
L 433.963979 100.204929 
L 438.749571 112.232637 
L 448.320755 137.18008 
L 453.106346 149.276925 
L 457.891938 160.601712 
L 462.67753 170.91267 
L 467.463122 180.099244 
L 472.248714 188.150015 
L 477.034305 195.115894 
L 481.819897 201.081462 
L 486.605489 206.145512 
L 491.391081 210.409567 
L 496.176672 213.971148 
L 500.962264 216.920623 
L 505.747856 219.339708 
L 510.533448 221.301259 
L 515.319039 222.86957 
L 520.104631 224.10084 
L 524.890223 225.044123 
L 529.675815 225.741999 
L 534.461407 226.231207 
L 539.246998 226.543482 
L 544.03259 226.706202 
L 553.603774 226.67371 
L 563.174957 226.284482 
L 572.746141 225.649228 
L 587.102916 224.405593 
L 606.245283 222.471233 
L 658.886792 217.012465 
L 682.814751 214.768896 
L 706.74271 212.724548 
L 730.670669 210.875135 
L 759.38422 208.89414 
L 788.09777 207.146888 
L 802.454545 206.352343 
L 802.454545 206.352343 
" style="fill:none;stroke:#00ffd4;stroke-linecap:square;stroke-width:1.5;"/>
   </g>
   <g id="line2d_3">
    <path clip-path="url(#pcf24572145)" d="M 41.545455 196.915398 
L 51.116638 197.493441 
L 55.90223 197.55298 
L 60.687822 197.359807 
L 65.473413 196.935722 
L 70.259005 196.324916 
L 79.830189 194.735615 
L 103.758148 190.289889 
L 113.329331 188.74234 
L 122.900515 187.413703 
L 132.471698 186.305734 
L 142.042882 185.402468 
L 151.614065 184.680389 
L 165.97084 183.88148 
L 180.327616 183.352308 
L 194.684391 183.026139 
L 213.826758 182.813551 
L 237.754717 182.778193 
L 271.253859 182.95893 
L 285.610635 183.184538 
L 290.396226 183.384393 
L 295.181818 183.837158 
L 299.96741 185.120385 
L 304.753002 188.865547 
L 309.538593 193.686662 
L 314.324185 195.157268 
L 319.109777 194.65751 
L 323.895369 190.186855 
L 328.680961 175.228124 
L 333.466552 149.553813 
L 338.252144 119.272264 
L 343.037736 90.330411 
L 347.823328 65.932277 
L 352.608919 47.084461 
L 357.394511 33.63998 
L 362.180103 24.972442 
L 366.965695 20.313524 
L 371.751286 18.904531 
L 376.536878 20.053687 
L 381.32247 23.151003 
L 386.108062 27.66988 
L 390.893654 33.193802 
L 395.679245 39.503602 
L 400.464837 46.584581 
L 405.250429 54.439903 
L 410.036021 62.999769 
L 414.821612 72.160449 
L 419.607204 81.836577 
L 424.392796 91.997221 
L 429.178388 102.661581 
L 433.963979 113.851349 
L 443.535163 137.413043 
L 448.320755 149.228339 
L 453.106346 160.569526 
L 457.891938 171.121198 
L 462.67753 180.684561 
L 467.463122 189.174358 
L 472.248714 196.59058 
L 477.034305 202.986725 
L 481.819897 208.445008 
L 486.605489 213.059485 
L 491.391081 216.925999 
L 496.176672 220.136285 
L 500.962264 222.775159 
L 505.747856 224.919245 
L 510.533448 226.636817 
L 515.319039 227.988077 
L 520.104631 229.025651 
L 524.890223 229.795449 
L 529.675815 230.337297 
L 534.461407 230.685567 
L 539.246998 230.869945 
L 544.03259 230.916013 
L 553.603774 230.678023 
L 563.174957 230.112446 
L 572.746141 229.322644 
L 587.102916 227.876607 
L 611.030875 225.150478 
L 649.315609 220.757944 
L 673.243568 218.219154 
L 697.171527 215.88875 
L 721.099485 213.767568 
L 745.027444 211.844084 
L 773.740995 209.774721 
L 802.454545 207.939505 
L 802.454545 207.939505 
" style="fill:none;stroke:#00b4ff;stroke-linecap:square;stroke-width:1.5;"/>
   </g>
   <g id="line2d_4">
    <path clip-path="url(#pcf24572145)" d="M 41.545455 196.948639 
L 51.116638 197.302556 
L 55.90223 197.220787 
L 60.687822 196.895543 
L 65.473413 196.355867 
L 70.259005 195.648266 
L 79.830189 193.919396 
L 98.972556 190.199413 
L 108.543739 188.53757 
L 118.114923 187.096224 
L 127.686106 185.884414 
L 137.25729 184.889168 
L 146.828473 184.087476 
L 156.399657 183.45308 
L 170.756432 182.758822 
L 185.113208 182.305569 
L 204.255575 181.96717 
L 228.183533 181.811725 
L 280.825043 181.646392 
L 290.396226 181.427697 
L 295.181818 181.221436 
L 304.753002 180.529345 
L 314.324185 182.994474 
L 319.109777 182.177668 
L 323.895369 176.940806 
L 328.680961 162.12853 
L 333.466552 138.035597 
L 338.252144 110.171664 
L 343.037736 83.78023 
L 347.823328 61.688817 
L 352.608919 44.789692 
L 357.394511 32.945399 
L 362.180103 25.582866 
L 366.965695 21.998951 
L 371.751286 21.5032 
L 376.536878 23.477163 
L 381.32247 27.394143 
L 386.108062 32.813483 
L 390.893654 39.341024 
L 395.679245 46.600291 
L 400.464837 54.360867 
L 405.250429 62.612687 
L 410.036021 71.383193 
L 414.821612 80.648399 
L 419.607204 90.366023 
L 424.392796 100.518516 
L 429.178388 111.116188 
L 433.963979 122.158831 
L 448.320755 156.519448 
L 453.106346 167.396502 
L 457.891938 177.477623 
L 462.67753 186.588904 
L 467.463122 194.659322 
L 472.248714 201.694908 
L 477.034305 207.750105 
L 481.819897 212.905289 
L 486.605489 217.251406 
L 491.391081 220.880728 
L 496.176672 223.881428 
L 500.962264 226.334949 
L 505.747856 228.314845 
L 510.533448 229.88664 
L 515.319039 231.108096 
L 520.104631 232.029709 
L 524.890223 232.695522 
L 529.675815 233.143725 
L 534.461407 233.407288 
L 539.246998 233.514683 
L 548.818182 233.355601 
L 558.389365 232.823914 
L 567.960549 232.035304 
L 582.317324 230.549194 
L 601.459691 228.281128 
L 649.315609 222.469424 
L 673.243568 219.796136 
L 697.171527 217.339087 
L 721.099485 215.098024 
L 745.027444 213.060978 
L 773.740995 210.863463 
L 802.454545 208.908891 
L 802.454545 208.908891 
" style="fill:none;stroke:#005cff;stroke-linecap:square;stroke-width:1.5;"/>
   </g>
   <g id="line2d_5">
    <path clip-path="url(#pcf24572145)" d="M 189.898799 111.746341 
L 266.468268 111.746341 
" style="fill:none;stroke:#000000;stroke-linecap:square;stroke-width:1.5;"/>
   </g>
   <g id="text_1">
    <!-- 1 ms -->
    <defs>
     <path d="M 12.40625 8.296875 
L 28.515625 8.296875 
L 28.515625 63.921875 
L 10.984375 60.40625 
L 10.984375 69.390625 
L 28.421875 72.90625 
L 38.28125 72.90625 
L 38.28125 8.296875 
L 54.390625 8.296875 
L 54.390625 0 
L 12.40625 0 
z
" id="DejaVuSans-31"/>
     <path id="DejaVuSans-20"/>
     <path d="M 52 44.1875 
Q 55.375 50.25 60.0625 53.125 
Q 64.75 56 71.09375 56 
Q 79.640625 56 84.28125 50.015625 
Q 88.921875 44.046875 88.921875 33.015625 
L 88.921875 0 
L 79.890625 0 
L 79.890625 32.71875 
Q 79.890625 40.578125 77.09375 44.375 
Q 74.3125 48.1875 68.609375 48.1875 
Q 61.625 48.1875 57.5625 43.546875 
Q 53.515625 38.921875 53.515625 30.90625 
L 53.515625 0 
L 44.484375 0 
L 44.484375 32.71875 
Q 44.484375 40.625 41.703125 44.40625 
Q 38.921875 48.1875 33.109375 48.1875 
Q 26.21875 48.1875 22.15625 43.53125 
Q 18.109375 38.875 18.109375 30.90625 
L 18.109375 0 
L 9.078125 0 
L 9.078125 54.6875 
L 18.109375 54.6875 
L 18.109375 46.1875 
Q 21.1875 51.21875 25.484375 53.609375 
Q 29.78125 56 35.6875 56 
Q 41.65625 56 45.828125 52.96875 
Q 50 49.953125 52 44.1875 
z
" id="DejaVuSans-6d"/>
     <path d="M 44.28125 53.078125 
L 44.28125 44.578125 
Q 40.484375 46.53125 36.375 47.5 
Q 32.28125 48.484375 27.875 48.484375 
Q 21.1875 48.484375 17.84375 46.4375 
Q 14.5 44.390625 14.5 40.28125 
Q 14.5 37.15625 16.890625 35.375 
Q 19.28125 33.59375 26.515625 31.984375 
L 29.59375 31.296875 
Q 39.15625 29.25 43.1875 25.515625 
Q 47.21875 21.78125 47.21875 15.09375 
Q 47.21875 7.46875 41.1875 3.015625 
Q 35.15625 -1.421875 24.609375 -1.421875 
Q 20.21875 -1.421875 15.453125 -0.5625 
Q 10.6875 0.296875 5.421875 2 
L 5.421875 11.28125 
Q 10.40625 8.6875 15.234375 7.390625 
Q 20.0625 6.109375 24.8125 6.109375 
Q 31.15625 6.109375 34.5625 8.28125 
Q 37.984375 10.453125 37.984375 14.40625 
Q 37.984375 18.0625 35.515625 20.015625 
Q 33.0625 21.96875 24.703125 23.78125 
L 21.578125 24.515625 
Q 13.234375 26.265625 9.515625 29.90625 
Q 5.8125 33.546875 5.8125 39.890625 
Q 5.8125 47.609375 11.28125 51.796875 
Q 16.75 56 26.8125 56 
Q 31.78125 56 36.171875 55.265625 
Q 40.578125 54.546875 44.28125 53.078125 
z
" id="DejaVuSans-73"/>
    </defs>
    <g transform="translate(216.698113 122.346915)scale(0.1 -0.1)">
     <use xlink:href="#DejaVuSans-31"/>
     <use x="63.623047" xlink:href="#DejaVuSans-20"/>
     <use x="95.410156" xlink:href="#DejaVuSans-6d"/>
     <use x="192.822266" xlink:href="#DejaVuSans-73"/>
    </g>
   </g>
  </g>
  <g id="axes_2">
   <g id="line2d_6">
    <path clip-path="url(#pc00943d930)" d="M -1 510.137226 
L 8.73125 510.13751 
L 13.9625 509.601029 
L 19.19375 508.490816 
L 24.425 506.986128 
L 45.35 500.22105 
L 50.58125 498.755849 
L 55.8125 497.434133 
L 61.04375 496.25253 
L 66.275 495.200807 
L 76.7375 493.43167 
L 87.2 492.013637 
L 97.6625 490.848582 
L 113.35625 489.420761 
L 129.05 488.239953 
L 149.975 486.884191 
L 212.75 483.054694 
L 228.44375 481.77799 
L 238.90625 480.680024 
L 244.1375 480.005405 
L 249.36875 479.206655 
L 254.6 478.234802 
L 259.83125 477.008963 
L 265.0625 475.396212 
L 270.29375 473.155127 
L 275.525 469.797208 
L 280.75625 464.205867 
L 285.9875 453.298991 
L 291.21875 426.751465 
L 296.45 360.571839 
L 301.68125 311.240496 
L 306.9125 330.170059 
L 312.14375 355.287071 
L 317.375 374.063746 
L 322.60625 388.087367 
L 327.8375 399.124762 
L 333.06875 408.162906 
L 338.3 415.79956 
L 343.53125 422.451151 
L 348.7625 428.441967 
L 364.45625 445.274168 
L 369.6875 451.605039 
L 374.91875 459.154692 
L 380.15 468.800772 
L 385.38125 481.540344 
L 390.6125 497.257212 
L 395.84375 512.592178 
L 401.075 523.281717 
L 406.30625 529.125598 
L 411.5375 532.063555 
L 416.76875 533.579665 
L 422 534.433903 
L 427.23125 534.970589 
L 437.69375 535.594555 
L 448.15625 535.850574 
L 458.61875 535.828707 
L 474.3125 535.488589 
L 500.46875 534.624231 
L 542.31875 532.988991 
L 589.4 530.924859 
L 646.94375 528.176583 
L 756.8 522.640455 
L 835.26875 518.805389 
L 840.5 518.560424 
L 840.5 518.560424 
" style="fill:none;stroke:#1f77b4;stroke-linecap:square;stroke-width:1.5;"/>
   </g>
   <g id="line2d_7">
    <path clip-path="url(#pc00943d930)" d="M -1 509.415336 
L 45.35 509.307815 
L 66.275 509.038142 
L 92.43125 508.468721 
L 123.81875 507.553924 
L 186.59375 505.431873 
L 306.9125 501.208221 
L 312.14375 500.821042 
L 317.375 500.274976 
L 322.60625 499.510019 
L 327.8375 498.484071 
L 333.06875 497.185584 
L 338.3 495.632896 
L 343.53125 493.865212 
L 353.99375 489.884667 
L 380.15 479.398106 
L 390.6125 475.605947 
L 401.075 472.231489 
L 406.30625 470.722331 
L 411.5375 469.340817 
L 416.76875 468.09261 
L 422 466.982725 
L 427.23125 466.015557 
L 432.4625 465.194677 
L 437.69375 464.52235 
L 442.925 463.998811 
L 448.15625 463.62159 
L 453.3875 463.385177 
L 458.61875 463.281199 
L 469.08125 463.426604 
L 479.54375 463.960546 
L 490.00625 464.785769 
L 500.46875 465.818018 
L 516.1625 467.611335 
L 542.31875 470.888095 
L 578.9375 475.460862 
L 605.09375 478.497551 
L 631.25 481.284368 
L 657.40625 483.815745 
L 683.5625 486.102529 
L 709.71875 488.161861 
L 735.875 490.012614 
L 767.2625 491.984333 
L 798.65 493.712536 
L 830.0375 495.224529 
L 840.5 495.684794 
L 840.5 495.684794 
" style="fill:none;stroke:#ff7f0e;stroke-linecap:square;stroke-width:1.5;"/>
   </g>
   <g id="legend_1">
    <g id="patch_2">
     <path d="M 774.303125 337.365341 
L 833.5 337.365341 
Q 835.5 337.365341 835.5 335.365341 
L 835.5 307.009091 
Q 835.5 305.009091 833.5 305.009091 
L 774.303125 305.009091 
Q 772.303125 305.009091 772.303125 307.009091 
L 772.303125 335.365341 
Q 772.303125 337.365341 774.303125 337.365341 
z
" style="fill:#ffffff;opacity:0.8;stroke:#cccccc;stroke-linejoin:miter;"/>
    </g>
    <g id="line2d_8">
     <path d="M 776.303125 313.107528 
L 796.303125 313.107528 
" style="fill:none;stroke:#1f77b4;stroke-linecap:square;stroke-width:1.5;"/>
    </g>
    <g id="line2d_9"/>
    <g id="text_2">
     <!-- axon -->
     <defs>
      <path d="M 34.28125 27.484375 
Q 23.390625 27.484375 19.1875 25 
Q 14.984375 22.515625 14.984375 16.5 
Q 14.984375 11.71875 18.140625 8.90625 
Q 21.296875 6.109375 26.703125 6.109375 
Q 34.1875 6.109375 38.703125 11.40625 
Q 43.21875 16.703125 43.21875 25.484375 
L 43.21875 27.484375 
z
M 52.203125 31.203125 
L 52.203125 0 
L 43.21875 0 
L 43.21875 8.296875 
Q 40.140625 3.328125 35.546875 0.953125 
Q 30.953125 -1.421875 24.3125 -1.421875 
Q 15.921875 -1.421875 10.953125 3.296875 
Q 6 8.015625 6 15.921875 
Q 6 25.140625 12.171875 29.828125 
Q 18.359375 34.515625 30.609375 34.515625 
L 43.21875 34.515625 
L 43.21875 35.40625 
Q 43.21875 41.609375 39.140625 45 
Q 35.0625 48.390625 27.6875 48.390625 
Q 23 48.390625 18.546875 47.265625 
Q 14.109375 46.140625 10.015625 43.890625 
L 10.015625 52.203125 
Q 14.9375 54.109375 19.578125 55.046875 
Q 24.21875 56 28.609375 56 
Q 40.484375 56 46.34375 49.84375 
Q 52.203125 43.703125 52.203125 31.203125 
z
" id="DejaVuSans-61"/>
      <path d="M 54.890625 54.6875 
L 35.109375 28.078125 
L 55.90625 0 
L 45.3125 0 
L 29.390625 21.484375 
L 13.484375 0 
L 2.875 0 
L 24.125 28.609375 
L 4.6875 54.6875 
L 15.28125 54.6875 
L 29.78125 35.203125 
L 44.28125 54.6875 
z
" id="DejaVuSans-78"/>
      <path d="M 30.609375 48.390625 
Q 23.390625 48.390625 19.1875 42.75 
Q 14.984375 37.109375 14.984375 27.296875 
Q 14.984375 17.484375 19.15625 11.84375 
Q 23.34375 6.203125 30.609375 6.203125 
Q 37.796875 6.203125 41.984375 11.859375 
Q 46.1875 17.53125 46.1875 27.296875 
Q 46.1875 37.015625 41.984375 42.703125 
Q 37.796875 48.390625 30.609375 48.390625 
z
M 30.609375 56 
Q 42.328125 56 49.015625 48.375 
Q 55.71875 40.765625 55.71875 27.296875 
Q 55.71875 13.875 49.015625 6.21875 
Q 42.328125 -1.421875 30.609375 -1.421875 
Q 18.84375 -1.421875 12.171875 6.21875 
Q 5.515625 13.875 5.515625 27.296875 
Q 5.515625 40.765625 12.171875 48.375 
Q 18.84375 56 30.609375 56 
z
" id="DejaVuSans-6f"/>
      <path d="M 54.890625 33.015625 
L 54.890625 0 
L 45.90625 0 
L 45.90625 32.71875 
Q 45.90625 40.484375 42.875 44.328125 
Q 39.84375 48.1875 33.796875 48.1875 
Q 26.515625 48.1875 22.3125 43.546875 
Q 18.109375 38.921875 18.109375 30.90625 
L 18.109375 0 
L 9.078125 0 
L 9.078125 54.6875 
L 18.109375 54.6875 
L 18.109375 46.1875 
Q 21.34375 51.125 25.703125 53.5625 
Q 30.078125 56 35.796875 56 
Q 45.21875 56 50.046875 50.171875 
Q 54.890625 44.34375 54.890625 33.015625 
z
" id="DejaVuSans-6e"/>
     </defs>
     <g transform="translate(804.303125 316.607528)scale(0.1 -0.1)">
      <use xlink:href="#DejaVuSans-61"/>
      <use x="61.279297" xlink:href="#DejaVuSans-78"/>
      <use x="120.412109" xlink:href="#DejaVuSans-6f"/>
      <use x="181.59375" xlink:href="#DejaVuSans-6e"/>
     </g>
    </g>
    <g id="line2d_10">
     <path d="M 776.303125 327.785653 
L 796.303125 327.785653 
" style="fill:none;stroke:#ff7f0e;stroke-linecap:square;stroke-width:1.5;"/>
    </g>
    <g id="line2d_11"/>
    <g id="text_3">
     <!-- soma -->
     <g transform="translate(804.303125 331.285653)scale(0.1 -0.1)">
      <use xlink:href="#DejaVuSans-73"/>
      <use x="52.099609" xlink:href="#DejaVuSans-6f"/>
      <use x="113.28125" xlink:href="#DejaVuSans-6d"/>
      <use x="210.693359" xlink:href="#DejaVuSans-61"/>
     </g>
    </g>
   </g>
  </g>
 </g>
 <defs>
  <clipPath id="pcf24572145">
   <rect height="247.090909" width="837" x="3.5" y="3.5"/>
  </clipPath>
  <clipPath id="pc00943d930">
   <rect height="247.090909" width="837" x="3.5" y="300.009091"/>
  </clipPath>
 </defs>
</svg>
