<?xml version="1.0" encoding="utf-8" standalone="no"?>
<!DOCTYPE svg PUBLIC "-//W3C//DTD SVG 1.1//EN"
  "http://www.w3.org/Graphics/SVG/1.1/DTD/svg11.dtd">
<!-- Created with matplotlib (http://matplotlib.org/) -->
<svg height="720pt" version="1.1" viewBox="0 0 1080 720" width="1080pt" xmlns="http://www.w3.org/2000/svg" xmlns:xlink="http://www.w3.org/1999/xlink">
 <defs>
  <style type="text/css">
*{stroke-linecap:butt;stroke-linejoin:round;}
  </style>
 </defs>
 <g id="figure_1">
  <g id="patch_1">
   <path d="M 0 720 
L 1080 720 
L 1080 0 
L 0 0 
z
" style="fill:#ffffff;"/>
  </g>
  <g id="axes_1">
   <g id="line2d_1">
    <path clip-path="url(#p78775d7189)" d="M 173.045455 275.648869 
L 196.973413 275.937574 
L 211.330189 275.794543 
L 283.114065 274.672007 
L 321.398799 274.484479 
L 374.040309 274.486586 
L 407.539451 274.665684 
L 417.110635 274.846429 
L 421.896226 275.03653 
L 426.681818 275.422361 
L 431.46741 276.396589 
L 436.253002 278.888275 
L 441.038593 281.084874 
L 455.395369 281.45217 
L 460.180961 280.724231 
L 464.966552 278.681891 
L 469.752144 275.261311 
L 474.537736 270.568474 
L 479.323328 264.905538 
L 484.108919 258.682443 
L 488.894511 252.126604 
L 493.680103 244.470887 
L 498.465695 231.533662 
L 503.251286 200.888484 
L 508.036878 147.408934 
L 512.82247 107.55832 
L 517.608062 97.631405 
L 522.393654 111.648853 
L 527.179245 151.299344 
L 531.964837 212.631883 
L 536.750429 260.799106 
L 541.536021 286.554564 
L 546.321612 300.433389 
L 551.107204 308.490347 
L 555.892796 313.13086 
L 560.678388 315.430323 
L 565.463979 316.027921 
L 570.249571 315.405054 
L 575.035163 313.957333 
L 579.820755 312.012105 
L 589.391938 307.643403 
L 594.17753 305.606636 
L 598.963122 303.870025 
L 603.748714 302.551181 
L 608.534305 301.737609 
L 613.319897 301.480691 
L 618.105489 301.778263 
L 622.891081 302.539991 
L 632.462264 304.477947 
L 637.247856 304.914762 
L 642.033448 304.536077 
L 646.819039 303.223277 
L 651.604631 301.123182 
L 665.961407 293.513993 
L 670.746998 291.381911 
L 675.53259 289.56549 
L 680.318182 288.026434 
L 685.103774 286.714657 
L 689.889365 285.584008 
L 694.674957 284.596805 
L 704.246141 282.943407 
L 713.817324 281.599522 
L 723.388508 280.483066 
L 732.959691 279.551158 
L 747.316467 278.444463 
L 761.673242 277.626481 
L 776.030017 277.031469 
L 795.172384 276.483722 
L 819.100343 276.049209 
L 852.599485 275.694722 
L 900.455403 275.429299 
L 933.954545 275.324176 
L 933.954545 275.324176 
" style="fill:none;stroke:#e6ff00;stroke-linecap:square;stroke-width:1.5;"/>
   </g>
   <g id="line2d_2">
    <path clip-path="url(#p78775d7189)" d="M 173.045455 275.661311 
L 192.187822 275.818548 
L 206.544597 275.654499 
L 278.328473 274.364324 
L 311.827616 274.151487 
L 359.683533 274.086415 
L 412.325043 274.22334 
L 421.896226 274.372426 
L 426.681818 274.56876 
L 431.46741 275.075639 
L 441.038593 277.719262 
L 445.824185 277.925113 
L 450.609777 277.965504 
L 455.395369 277.803834 
L 460.180961 276.68684 
L 464.966552 274.293835 
L 469.752144 270.626277 
L 474.537736 265.831497 
L 479.323328 260.214042 
L 484.108919 254.143765 
L 488.894511 247.776884 
L 493.680103 240.296468 
L 498.465695 227.740224 
L 503.251286 198.992918 
L 508.036878 150.007114 
L 512.82247 112.407455 
L 517.608062 100.462051 
L 522.393654 110.487792 
L 527.179245 147.704485 
L 531.964837 211.475936 
L 536.750429 262.774435 
L 541.536021 289.621922 
L 546.321612 303.674947 
L 551.107204 311.665406 
L 555.892796 316.192599 
L 560.678388 318.37489 
L 565.463979 318.858566 
L 570.249571 318.126348 
L 575.035163 316.575375 
L 579.820755 314.534247 
L 589.391938 309.994614 
L 594.17753 307.879278 
L 598.963122 306.064297 
L 603.748714 304.663472 
L 608.534305 303.761262 
L 613.319897 303.406794 
L 618.105489 303.596938 
L 622.891081 304.243127 
L 632.462264 305.952479 
L 637.247856 306.290596 
L 642.033448 305.822969 
L 646.819039 304.420248 
L 651.604631 302.219478 
L 665.961407 294.291514 
L 670.746998 292.075752 
L 675.53259 290.189307 
L 680.318182 288.590605 
L 685.103774 287.22664 
L 689.889365 286.049308 
L 694.674957 285.019756 
L 704.246141 283.292146 
L 713.817324 281.88568 
L 723.388508 280.716331 
L 732.959691 279.739655 
L 742.530875 278.928488 
L 756.88765 277.974916 
L 771.244425 277.275483 
L 790.386792 276.627919 
L 814.314751 276.112614 
L 843.028302 275.737821 
L 886.098628 275.422592 
L 933.954545 275.235336 
L 933.954545 275.235336 
" style="fill:none;stroke:#ffd600;stroke-linecap:square;stroke-width:1.5;"/>
   </g>
   <g id="line2d_3">
    <path clip-path="url(#p78775d7189)" d="M 173.045455 275.670449 
L 192.187822 275.729056 
L 206.544597 275.493849 
L 263.971698 274.271215 
L 292.685249 273.982119 
L 330.969983 273.828822 
L 397.968268 273.824138 
L 426.681818 273.946585 
L 431.46741 274.119195 
L 436.253002 274.620152 
L 441.038593 275.25155 
L 445.824185 275.440002 
L 450.609777 275.391038 
L 455.395369 274.951688 
L 460.180961 273.51139 
L 464.966552 270.839789 
L 469.752144 266.983655 
L 474.537736 262.11883 
L 479.323328 256.548739 
L 484.108919 250.610285 
L 488.894511 244.407335 
L 493.680103 237.102956 
L 498.465695 224.96957 
L 503.251286 198.052538 
L 508.036878 153.026373 
L 512.82247 117.03376 
L 517.608062 102.492713 
L 522.393654 107.64897 
L 527.179245 141.435362 
L 531.964837 207.865149 
L 536.750429 263.128604 
L 541.536021 291.459169 
L 546.321612 305.842674 
L 551.107204 313.856513 
L 555.892796 318.340783 
L 560.678388 320.466724 
L 565.463979 320.889229 
L 570.249571 320.092698 
L 575.035163 318.476428 
L 579.820755 316.371194 
L 589.391938 311.709834 
L 594.17753 309.535258 
L 598.963122 307.659016 
L 603.748714 306.192185 
L 608.534305 305.21733 
L 613.319897 304.782661 
L 618.105489 304.885821 
L 622.891081 305.441884 
L 632.462264 306.993919 
L 637.247856 307.277828 
L 642.033448 306.766823 
L 646.819039 305.315397 
L 651.604631 303.046779 
L 665.961407 294.856667 
L 670.746998 292.571458 
L 675.53259 290.629212 
L 680.318182 288.984957 
L 685.103774 287.582483 
L 689.889365 286.371493 
L 694.674957 285.311829 
L 704.246141 283.53193 
L 713.817324 282.081471 
L 723.388508 280.874813 
L 732.959691 279.866398 
L 742.530875 279.028161 
L 756.88765 278.041135 
L 771.244425 277.315038 
L 790.386792 276.6398 
L 814.314751 276.098935 
L 843.028302 275.702364 
L 886.098628 275.365666 
L 933.954545 275.163737 
L 933.954545 275.163737 
" style="fill:none;stroke:#ffa000;stroke-linecap:square;stroke-width:1.5;"/>
   </g>
   <g id="line2d_4">
    <path clip-path="url(#p78775d7189)" d="M 173.045455 275.676562 
L 187.40223 275.713634 
L 201.759005 275.499423 
L 263.971698 274.098016 
L 292.685249 273.802262 
L 330.969983 273.643963 
L 436.253002 273.439253 
L 445.824185 273.776513 
L 450.609777 273.675892 
L 455.395369 273.075713 
L 460.180961 271.454138 
L 464.966552 268.633593 
L 469.752144 264.685314 
L 474.537736 259.80043 
L 479.323328 254.28046 
L 484.108919 248.442638 
L 488.894511 242.363587 
L 493.680103 235.20978 
L 498.465695 223.437025 
L 503.251286 197.859132 
L 508.036878 155.492829 
L 512.82247 120.445634 
L 517.608062 103.862989 
L 522.393654 105.093049 
L 527.179245 135.741859 
L 531.964837 204.152017 
L 536.750429 262.836756 
L 541.536021 292.498192 
L 546.321612 307.210931 
L 551.107204 315.282975 
L 555.892796 319.762567 
L 560.678388 321.867095 
L 565.463979 322.259504 
L 570.249571 321.426175 
L 575.035163 319.768703 
L 579.820755 317.620221 
L 589.391938 312.871146 
L 594.17753 310.652041 
L 598.963122 308.729189 
L 603.748714 307.212145 
L 608.534305 306.182539 
L 613.319897 305.688401 
L 618.105489 305.728661 
L 622.891081 306.221824 
L 632.462264 307.67447 
L 637.247856 307.931014 
L 642.033448 307.401477 
L 646.819039 305.925951 
L 651.604631 303.615408 
L 665.961407 295.237568 
L 670.746998 292.901692 
L 675.53259 290.919463 
L 680.318182 289.24331 
L 685.103774 287.814449 
L 689.889365 286.580785 
L 694.674957 285.501068 
L 704.246141 283.686657 
L 713.817324 282.207252 
L 723.388508 280.975986 
L 732.959691 279.946556 
L 742.530875 279.090337 
L 756.88765 278.081054 
L 771.244425 277.337241 
L 790.386792 276.643686 
L 809.52916 276.177618 
L 838.24271 275.730342 
L 876.527444 275.384686 
L 933.954545 275.112937 
L 933.954545 275.112937 
" style="fill:none;stroke:#ff7f00;stroke-linecap:square;stroke-width:1.5;"/>
   </g>
   <g id="line2d_5">
    <path clip-path="url(#p78775d7189)" d="M 321.398799 188.2638 
L 397.968268 188.2638 
" style="fill:none;stroke:#000000;stroke-linecap:square;stroke-width:1.5;"/>
   </g>
   <g id="text_1">
    <!-- 1 ms -->
    <defs>
     <path d="M 12.40625 8.296875 
L 28.515625 8.296875 
L 28.515625 63.921875 
L 10.984375 60.40625 
L 10.984375 69.390625 
L 28.421875 72.90625 
L 38.28125 72.90625 
L 38.28125 8.296875 
L 54.390625 8.296875 
L 54.390625 0 
L 12.40625 0 
z
" id="DejaVuSans-31"/>
     <path id="DejaVuSans-20"/>
     <path d="M 52 44.1875 
Q 55.375 50.25 60.0625 53.125 
Q 64.75 56 71.09375 56 
Q 79.640625 56 84.28125 50.015625 
Q 88.921875 44.046875 88.921875 33.015625 
L 88.921875 0 
L 79.890625 0 
L 79.890625 32.71875 
Q 79.890625 40.578125 77.09375 44.375 
Q 74.3125 48.1875 68.609375 48.1875 
Q 61.625 48.1875 57.5625 43.546875 
Q 53.515625 38.921875 53.515625 30.90625 
L 53.515625 0 
L 44.484375 0 
L 44.484375 32.71875 
Q 44.484375 40.625 41.703125 44.40625 
Q 38.921875 48.1875 33.109375 48.1875 
Q 26.21875 48.1875 22.15625 43.53125 
Q 18.109375 38.875 18.109375 30.90625 
L 18.109375 0 
L 9.078125 0 
L 9.078125 54.6875 
L 18.109375 54.6875 
L 18.109375 46.1875 
Q 21.1875 51.21875 25.484375 53.609375 
Q 29.78125 56 35.6875 56 
Q 41.65625 56 45.828125 52.96875 
Q 50 49.953125 52 44.1875 
z
" id="DejaVuSans-6d"/>
     <path d="M 44.28125 53.078125 
L 44.28125 44.578125 
Q 40.484375 46.53125 36.375 47.5 
Q 32.28125 48.484375 27.875 48.484375 
Q 21.1875 48.484375 17.84375 46.4375 
Q 14.5 44.390625 14.5 40.28125 
Q 14.5 37.15625 16.890625 35.375 
Q 19.28125 33.59375 26.515625 31.984375 
L 29.59375 31.296875 
Q 39.15625 29.25 43.1875 25.515625 
Q 47.21875 21.78125 47.21875 15.09375 
Q 47.21875 7.46875 41.1875 3.015625 
Q 35.15625 -1.421875 24.609375 -1.421875 
Q 20.21875 -1.421875 15.453125 -0.5625 
Q 10.6875 0.296875 5.421875 2 
L 5.421875 11.28125 
Q 10.40625 8.6875 15.234375 7.390625 
Q 20.0625 6.109375 24.8125 6.109375 
Q 31.15625 6.109375 34.5625 8.28125 
Q 37.984375 10.453125 37.984375 14.40625 
Q 37.984375 18.0625 35.515625 20.015625 
Q 33.0625 21.96875 24.703125 23.78125 
L 21.578125 24.515625 
Q 13.234375 26.265625 9.515625 29.90625 
Q 5.8125 33.546875 5.8125 39.890625 
Q 5.8125 47.609375 11.28125 51.796875 
Q 16.75 56 26.8125 56 
Q 31.78125 56 36.171875 55.265625 
Q 40.578125 54.546875 44.28125 53.078125 
z
" id="DejaVuSans-73"/>
    </defs>
    <g transform="translate(348.198113 199.183625)scale(0.1 -0.1)">
     <use xlink:href="#DejaVuSans-31"/>
     <use x="63.623047" xlink:href="#DejaVuSans-20"/>
     <use x="95.410156" xlink:href="#DejaVuSans-6d"/>
     <use x="192.822266" xlink:href="#DejaVuSans-73"/>
    </g>
   </g>
  </g>
  <g id="axes_2">
   <g id="line2d_6">
    <path clip-path="url(#p093b94a4eb)" d="M -1 594.78384 
L 140.23125 594.788104 
L 145.4625 594.272546 
L 150.69375 593.20563 
L 155.925 591.759624 
L 176.85 585.258367 
L 182.08125 583.8503 
L 187.3125 582.580118 
L 192.54375 581.444581 
L 203.00625 579.534918 
L 213.46875 578.016465 
L 223.93125 576.785512 
L 234.39375 575.759813 
L 250.0875 574.47962 
L 271.0125 573.069151 
L 302.4 571.254657 
L 339.01875 569.10965 
L 354.7125 567.974794 
L 365.175 567.03167 
L 375.6375 565.820167 
L 380.86875 565.049995 
L 386.1 564.112366 
L 391.33125 562.929032 
L 396.5625 561.370844 
L 401.79375 559.203195 
L 407.025 555.950449 
L 412.25625 550.521896 
L 417.4875 539.897166 
L 422.71875 513.935092 
L 427.95 449.679616 
L 433.18125 403.594485 
L 438.4125 422.253106 
L 443.64375 446.321628 
L 448.875 464.266921 
L 454.10625 477.669463 
L 459.3375 488.22477 
L 464.56875 496.878663 
L 469.8 504.200577 
L 475.03125 510.585573 
L 480.2625 516.341417 
L 495.95625 532.510391 
L 501.1875 538.556364 
L 506.41875 545.718428 
L 511.65 554.808638 
L 516.88125 566.728523 
L 527.34375 595.71063 
L 532.575 605.868316 
L 537.80625 611.51599 
L 543.0375 614.38944 
L 548.26875 615.872628 
L 553.5 616.69091 
L 558.73125 617.184505 
L 569.19375 617.749659 
L 584.8875 618.204508 
L 600.58125 618.436699 
L 626.7375 618.540443 
L 699.975 618.697292 
L 736.59375 618.389372 
L 778.44375 617.817381 
L 830.75625 616.848364 
L 898.7625 615.34399 
L 972 613.608486 
L 972 613.608486 
" style="fill:none;stroke:#1f77b4;stroke-linecap:square;stroke-width:1.5;"/>
   </g>
   <g id="line2d_7">
    <path clip-path="url(#p093b94a4eb)" d="M -1 594.089549 
L 176.85 593.990547 
L 203.00625 593.64003 
L 229.1625 593.051055 
L 265.78125 591.979828 
L 422.71875 586.885867 
L 433.18125 586.477809 
L 443.64375 585.826757 
L 448.875 585.294445 
L 454.10625 584.53271 
L 459.3375 583.466106 
L 464.56875 582.026475 
L 469.8 580.161835 
L 475.03125 577.84124 
L 480.2625 575.052538 
L 485.49375 571.786565 
L 490.725 567.992174 
L 495.95625 563.470595 
L 501.1875 557.708787 
L 506.41875 549.924538 
L 511.65 539.317807 
L 516.88125 524.867555 
L 522.1125 504.335412 
L 527.34375 473.002485 
L 532.575 433.292968 
L 537.80625 406.234434 
L 543.0375 395.699158 
L 548.26875 394.140496 
L 553.5 397.166769 
L 558.73125 402.82815 
L 563.9625 410.12485 
L 569.19375 418.420098 
L 579.65625 436.253714 
L 584.8875 445.175377 
L 590.11875 453.829578 
L 595.35 462.099938 
L 600.58125 469.924772 
L 605.8125 477.286965 
L 611.04375 484.205935 
L 616.275 490.731936 
L 621.50625 496.941688 
L 631.96875 508.826282 
L 642.43125 520.802903 
L 647.6625 527.099973 
L 652.89375 533.664106 
L 668.5875 553.826492 
L 673.81875 560.002355 
L 679.05 565.627777 
L 684.28125 570.672705 
L 689.5125 575.173435 
L 694.74375 579.193014 
L 699.975 582.796783 
L 705.20625 586.042575 
L 710.4375 588.978554 
L 715.66875 591.643916 
L 720.9 594.070394 
L 726.13125 596.283737 
L 731.3625 598.305081 
L 736.59375 600.15203 
L 741.825 601.839567 
L 747.05625 603.380751 
L 752.2875 604.787241 
L 762.75 607.237872 
L 773.2125 609.267822 
L 783.675 610.944088 
L 794.1375 612.325331 
L 804.6 613.462021 
L 815.0625 614.39668 
L 830.75625 615.495087 
L 846.45 616.309452 
L 862.14375 616.907645 
L 883.06875 617.45269 
L 903.99375 617.783069 
L 930.15 617.977941 
L 961.5375 617.98436 
L 972 617.944824 
L 972 617.944824 
" style="fill:none;stroke:#ff7f0e;stroke-linecap:square;stroke-width:1.5;"/>
   </g>
   <g id="legend_1">
    <g id="patch_2">
     <path d="M 905.803125 420.265341 
L 965 420.265341 
Q 967 420.265341 967 418.265341 
L 967 389.909091 
Q 967 387.909091 965 387.909091 
L 905.803125 387.909091 
Q 903.803125 387.909091 903.803125 389.909091 
L 903.803125 418.265341 
Q 903.803125 420.265341 905.803125 420.265341 
z
" style="fill:#ffffff;opacity:0.8;stroke:#cccccc;stroke-linejoin:miter;"/>
    </g>
    <g id="line2d_8">
     <path d="M 907.803125 396.007528 
L 927.803125 396.007528 
" style="fill:none;stroke:#1f77b4;stroke-linecap:square;stroke-width:1.5;"/>
    </g>
    <g id="line2d_9"/>
    <g id="text_2">
     <!-- axon -->
     <defs>
      <path d="M 34.28125 27.484375 
Q 23.390625 27.484375 19.1875 25 
Q 14.984375 22.515625 14.984375 16.5 
Q 14.984375 11.71875 18.140625 8.90625 
Q 21.296875 6.109375 26.703125 6.109375 
Q 34.1875 6.109375 38.703125 11.40625 
Q 43.21875 16.703125 43.21875 25.484375 
L 43.21875 27.484375 
z
M 52.203125 31.203125 
L 52.203125 0 
L 43.21875 0 
L 43.21875 8.296875 
Q 40.140625 3.328125 35.546875 0.953125 
Q 30.953125 -1.421875 24.3125 -1.421875 
Q 15.921875 -1.421875 10.953125 3.296875 
Q 6 8.015625 6 15.921875 
Q 6 25.140625 12.171875 29.828125 
Q 18.359375 34.515625 30.609375 34.515625 
L 43.21875 34.515625 
L 43.21875 35.40625 
Q 43.21875 41.609375 39.140625 45 
Q 35.0625 48.390625 27.6875 48.390625 
Q 23 48.390625 18.546875 47.265625 
Q 14.109375 46.140625 10.015625 43.890625 
L 10.015625 52.203125 
Q 14.9375 54.109375 19.578125 55.046875 
Q 24.21875 56 28.609375 56 
Q 40.484375 56 46.34375 49.84375 
Q 52.203125 43.703125 52.203125 31.203125 
z
" id="DejaVuSans-61"/>
      <path d="M 54.890625 54.6875 
L 35.109375 28.078125 
L 55.90625 0 
L 45.3125 0 
L 29.390625 21.484375 
L 13.484375 0 
L 2.875 0 
L 24.125 28.609375 
L 4.6875 54.6875 
L 15.28125 54.6875 
L 29.78125 35.203125 
L 44.28125 54.6875 
z
" id="DejaVuSans-78"/>
      <path d="M 30.609375 48.390625 
Q 23.390625 48.390625 19.1875 42.75 
Q 14.984375 37.109375 14.984375 27.296875 
Q 14.984375 17.484375 19.15625 11.84375 
Q 23.34375 6.203125 30.609375 6.203125 
Q 37.796875 6.203125 41.984375 11.859375 
Q 46.1875 17.53125 46.1875 27.296875 
Q 46.1875 37.015625 41.984375 42.703125 
Q 37.796875 48.390625 30.609375 48.390625 
z
M 30.609375 56 
Q 42.328125 56 49.015625 48.375 
Q 55.71875 40.765625 55.71875 27.296875 
Q 55.71875 13.875 49.015625 6.21875 
Q 42.328125 -1.421875 30.609375 -1.421875 
Q 18.84375 -1.421875 12.171875 6.21875 
Q 5.515625 13.875 5.515625 27.296875 
Q 5.515625 40.765625 12.171875 48.375 
Q 18.84375 56 30.609375 56 
z
" id="DejaVuSans-6f"/>
      <path d="M 54.890625 33.015625 
L 54.890625 0 
L 45.90625 0 
L 45.90625 32.71875 
Q 45.90625 40.484375 42.875 44.328125 
Q 39.84375 48.1875 33.796875 48.1875 
Q 26.515625 48.1875 22.3125 43.546875 
Q 18.109375 38.921875 18.109375 30.90625 
L 18.109375 0 
L 9.078125 0 
L 9.078125 54.6875 
L 18.109375 54.6875 
L 18.109375 46.1875 
Q 21.34375 51.125 25.703125 53.5625 
Q 30.078125 56 35.796875 56 
Q 45.21875 56 50.046875 50.171875 
Q 54.890625 44.34375 54.890625 33.015625 
z
" id="DejaVuSans-6e"/>
     </defs>
     <g transform="translate(935.803125 399.507528)scale(0.1 -0.1)">
      <use xlink:href="#DejaVuSans-61"/>
      <use x="61.279297" xlink:href="#DejaVuSans-78"/>
      <use x="120.412109" xlink:href="#DejaVuSans-6f"/>
      <use x="181.59375" xlink:href="#DejaVuSans-6e"/>
     </g>
    </g>
    <g id="line2d_10">
     <path d="M 907.803125 410.685653 
L 927.803125 410.685653 
" style="fill:none;stroke:#ff7f0e;stroke-linecap:square;stroke-width:1.5;"/>
    </g>
    <g id="line2d_11"/>
    <g id="text_3">
     <!-- soma -->
     <g transform="translate(935.803125 414.185653)scale(0.1 -0.1)">
      <use xlink:href="#DejaVuSans-73"/>
      <use x="52.099609" xlink:href="#DejaVuSans-6f"/>
      <use x="113.28125" xlink:href="#DejaVuSans-6d"/>
      <use x="210.693359" xlink:href="#DejaVuSans-61"/>
     </g>
    </g>
   </g>
  </g>
 </g>
 <defs>
  <clipPath id="p78775d7189">
   <rect height="247.090909" width="837" x="135" y="86.4"/>
  </clipPath>
  <clipPath id="p093b94a4eb">
   <rect height="247.090909" width="837" x="135" y="382.909091"/>
  </clipPath>
 </defs>
</svg>
