<?xml version="1.0" encoding="utf-8" standalone="no"?>
<!DOCTYPE svg PUBLIC "-//W3C//DTD SVG 1.1//EN"
  "http://www.w3.org/Graphics/SVG/1.1/DTD/svg11.dtd">
<!-- Created with matplotlib (http://matplotlib.org/) -->
<svg height="720pt" version="1.1" viewBox="0 0 1080 720" width="1080pt" xmlns="http://www.w3.org/2000/svg" xmlns:xlink="http://www.w3.org/1999/xlink">
 <defs>
  <style type="text/css">
*{stroke-linecap:butt;stroke-linejoin:round;}
  </style>
 </defs>
 <g id="figure_1">
  <g id="patch_1">
   <path d="M 0 720 
L 1080 720 
L 1080 0 
L 0 0 
z
" style="fill:#ffffff;"/>
  </g>
  <g id="axes_1">
   <g id="line2d_1">
    <path clip-path="url(#p323835fd69)" d="M 173.045455 279.65186 
L 177.831046 280.229658 
L 182.616638 280.936991 
L 187.40223 281.492695 
L 192.187822 281.797543 
L 196.973413 281.841776 
L 201.759005 281.654012 
L 206.544597 281.277171 
L 216.11578 280.135764 
L 254.400515 274.753209 
L 263.971698 273.743095 
L 273.542882 272.911192 
L 283.114065 272.242814 
L 297.47084 271.505291 
L 311.827616 271.025013 
L 326.184391 270.748058 
L 345.326758 270.61671 
L 364.469125 270.708887 
L 383.611492 271.034971 
L 397.968268 271.544907 
L 407.539451 272.191223 
L 412.325043 272.725001 
L 417.110635 273.551855 
L 421.896226 274.978481 
L 426.681818 277.864117 
L 431.46741 285.122355 
L 436.253002 303.812746 
L 441.038593 320.775977 
L 445.824185 321.941407 
L 450.609777 322.259504 
L 455.395369 321.21503 
L 460.180961 307.953073 
L 464.966552 280.043317 
L 474.537736 210.08664 
L 479.323328 180.079062 
L 484.108919 156.185743 
L 488.894511 138.297901 
L 493.680103 125.701483 
L 498.465695 117.4965 
L 503.251286 112.768489 
L 508.036878 110.635773 
L 512.82247 110.248021 
L 517.608062 110.820826 
L 522.393654 111.921854 
L 527.179245 113.985606 
L 531.964837 117.807111 
L 536.750429 123.383575 
L 541.536021 130.252392 
L 546.321612 138.018637 
L 551.107204 146.451786 
L 555.892796 155.479478 
L 560.678388 165.154069 
L 565.463979 175.578092 
L 570.249571 186.772856 
L 584.606346 222.291548 
L 589.391938 233.366413 
L 594.17753 243.508984 
L 598.963122 252.588096 
L 603.748714 260.578198 
L 608.534305 267.520511 
L 613.319897 273.492722 
L 618.105489 278.588396 
L 622.891081 282.904908 
L 627.676672 286.536339 
L 632.462264 289.570179 
L 637.247856 292.085683 
L 642.033448 294.153605 
L 646.819039 295.836455 
L 651.604631 297.188884 
L 656.390223 298.258639 
L 661.175815 299.087195 
L 665.961407 299.710334 
L 670.746998 300.158973 
L 675.53259 300.459815 
L 685.103774 300.706604 
L 694.674957 300.597792 
L 704.246141 300.241507 
L 718.602916 299.409796 
L 737.745283 298.006968 
L 804.743568 292.841368 
L 833.457118 290.934511 
L 862.170669 289.258416 
L 890.88422 287.795137 
L 924.383362 286.324481 
L 933.954545 285.946004 
L 933.954545 285.946004 
" style="fill:none;stroke:#00ff89;stroke-linecap:square;stroke-width:1.5;"/>
   </g>
   <g id="line2d_2">
    <path clip-path="url(#p323835fd69)" d="M 173.045455 279.761017 
L 182.616638 280.700232 
L 187.40223 280.990356 
L 192.187822 281.013504 
L 196.973413 280.779069 
L 201.759005 280.327111 
L 206.544597 279.706771 
L 216.11578 278.14908 
L 240.043739 273.938983 
L 249.614923 272.499241 
L 259.186106 271.271537 
L 268.75729 270.254325 
L 278.328473 269.430583 
L 287.899657 268.777713 
L 302.256432 268.065316 
L 316.613208 267.607813 
L 335.755575 267.289858 
L 354.897942 267.209806 
L 378.825901 267.355041 
L 397.968268 267.692727 
L 407.539451 268.03059 
L 412.325043 268.306348 
L 417.110635 268.734608 
L 421.896226 269.482288 
L 426.681818 271.023831 
L 431.46741 274.988082 
L 441.038593 296.068276 
L 445.824185 297.774893 
L 450.609777 297.87982 
L 455.395369 294.923628 
L 460.180961 280.036556 
L 464.966552 251.998916 
L 469.752144 217.859044 
L 474.537736 184.744464 
L 479.323328 156.516375 
L 484.108919 134.399036 
L 488.894511 118.248359 
L 493.680103 107.360538 
L 498.465695 100.865031 
L 503.251286 97.89275 
L 508.036878 97.631405 
L 512.82247 99.333383 
L 517.608062 102.330742 
L 522.393654 106.173935 
L 527.179245 110.909644 
L 531.964837 116.874523 
L 536.750429 124.078157 
L 541.536021 132.282071 
L 546.321612 141.251062 
L 551.107204 150.831175 
L 555.892796 160.971844 
L 560.678388 171.709435 
L 565.463979 183.104929 
L 570.249571 195.132637 
L 579.820755 220.08008 
L 584.606346 232.176925 
L 589.391938 243.501712 
L 594.17753 253.81267 
L 598.963122 262.999244 
L 603.748714 271.050015 
L 608.534305 278.015894 
L 613.319897 283.981462 
L 618.105489 289.045512 
L 622.891081 293.309567 
L 627.676672 296.871148 
L 632.462264 299.820623 
L 637.247856 302.239708 
L 642.033448 304.201259 
L 646.819039 305.76957 
L 651.604631 307.00084 
L 656.390223 307.944123 
L 661.175815 308.641999 
L 665.961407 309.131207 
L 670.746998 309.443482 
L 675.53259 309.606202 
L 685.103774 309.57371 
L 694.674957 309.184482 
L 704.246141 308.549228 
L 718.602916 307.305593 
L 737.745283 305.371233 
L 790.386792 299.912465 
L 814.314751 297.668896 
L 838.24271 295.624548 
L 862.170669 293.775135 
L 890.88422 291.79414 
L 919.59777 290.046888 
L 933.954545 289.252343 
L 933.954545 289.252343 
" style="fill:none;stroke:#00ffd4;stroke-linecap:square;stroke-width:1.5;"/>
   </g>
   <g id="line2d_3">
    <path clip-path="url(#p323835fd69)" d="M 173.045455 279.815398 
L 182.616638 280.393441 
L 187.40223 280.45298 
L 192.187822 280.259807 
L 196.973413 279.835722 
L 201.759005 279.224916 
L 211.330189 277.635615 
L 235.258148 273.189889 
L 244.829331 271.64234 
L 254.400515 270.313703 
L 263.971698 269.205734 
L 273.542882 268.302468 
L 283.114065 267.580389 
L 297.47084 266.78148 
L 311.827616 266.252308 
L 326.184391 265.926139 
L 345.326758 265.713551 
L 369.254717 265.678193 
L 402.753859 265.85893 
L 417.110635 266.084538 
L 421.896226 266.284393 
L 426.681818 266.737158 
L 431.46741 268.020385 
L 436.253002 271.765547 
L 441.038593 276.586662 
L 445.824185 278.057268 
L 450.609777 277.55751 
L 455.395369 273.086855 
L 460.180961 258.128124 
L 464.966552 232.453813 
L 469.752144 202.172264 
L 474.537736 173.230411 
L 479.323328 148.832277 
L 484.108919 129.984461 
L 488.894511 116.53998 
L 493.680103 107.872442 
L 498.465695 103.213524 
L 503.251286 101.804531 
L 508.036878 102.953687 
L 512.82247 106.051003 
L 517.608062 110.56988 
L 522.393654 116.093802 
L 527.179245 122.403602 
L 531.964837 129.484581 
L 536.750429 137.339903 
L 541.536021 145.899769 
L 546.321612 155.060449 
L 551.107204 164.736577 
L 555.892796 174.897221 
L 560.678388 185.561581 
L 565.463979 196.751349 
L 575.035163 220.313043 
L 579.820755 232.128339 
L 584.606346 243.469526 
L 589.391938 254.021198 
L 594.17753 263.584561 
L 598.963122 272.074358 
L 603.748714 279.49058 
L 608.534305 285.886725 
L 613.319897 291.345008 
L 618.105489 295.959485 
L 622.891081 299.825999 
L 627.676672 303.036285 
L 632.462264 305.675159 
L 637.247856 307.819245 
L 642.033448 309.536817 
L 646.819039 310.888077 
L 651.604631 311.925651 
L 656.390223 312.695449 
L 661.175815 313.237297 
L 665.961407 313.585567 
L 670.746998 313.769945 
L 675.53259 313.816013 
L 685.103774 313.578023 
L 694.674957 313.012446 
L 704.246141 312.222644 
L 718.602916 310.776607 
L 742.530875 308.050478 
L 780.815609 303.657944 
L 804.743568 301.119154 
L 828.671527 298.78875 
L 852.599485 296.667568 
L 876.527444 294.744084 
L 905.240995 292.674721 
L 933.954545 290.839505 
L 933.954545 290.839505 
" style="fill:none;stroke:#00b4ff;stroke-linecap:square;stroke-width:1.5;"/>
   </g>
   <g id="line2d_4">
    <path clip-path="url(#p323835fd69)" d="M 173.045455 279.848639 
L 182.616638 280.202556 
L 187.40223 280.120787 
L 192.187822 279.795543 
L 196.973413 279.255867 
L 201.759005 278.548266 
L 211.330189 276.819396 
L 230.472556 273.099413 
L 240.043739 271.43757 
L 249.614923 269.996224 
L 259.186106 268.784414 
L 268.75729 267.789168 
L 278.328473 266.987476 
L 287.899657 266.35308 
L 302.256432 265.658822 
L 316.613208 265.205569 
L 335.755575 264.86717 
L 359.683533 264.711725 
L 412.325043 264.546392 
L 421.896226 264.327697 
L 426.681818 264.121436 
L 436.253002 263.429345 
L 445.824185 265.894474 
L 450.609777 265.077668 
L 455.395369 259.840806 
L 460.180961 245.02853 
L 464.966552 220.935597 
L 469.752144 193.071664 
L 474.537736 166.68023 
L 479.323328 144.588817 
L 484.108919 127.689692 
L 488.894511 115.845399 
L 493.680103 108.482866 
L 498.465695 104.898951 
L 503.251286 104.4032 
L 508.036878 106.377163 
L 512.82247 110.294143 
L 517.608062 115.713483 
L 522.393654 122.241024 
L 527.179245 129.500291 
L 531.964837 137.260867 
L 536.750429 145.512687 
L 541.536021 154.283193 
L 546.321612 163.548399 
L 551.107204 173.266023 
L 555.892796 183.418516 
L 560.678388 194.016188 
L 565.463979 205.058831 
L 579.820755 239.419448 
L 584.606346 250.296502 
L 589.391938 260.377623 
L 594.17753 269.488904 
L 598.963122 277.559322 
L 603.748714 284.594908 
L 608.534305 290.650105 
L 613.319897 295.805289 
L 618.105489 300.151406 
L 622.891081 303.780728 
L 627.676672 306.781428 
L 632.462264 309.234949 
L 637.247856 311.214845 
L 642.033448 312.78664 
L 646.819039 314.008096 
L 651.604631 314.929709 
L 656.390223 315.595522 
L 661.175815 316.043725 
L 665.961407 316.307288 
L 670.746998 316.414683 
L 680.318182 316.255601 
L 689.889365 315.723914 
L 699.460549 314.935304 
L 713.817324 313.449194 
L 732.959691 311.181128 
L 780.815609 305.369424 
L 804.743568 302.696136 
L 828.671527 300.239087 
L 852.599485 297.998024 
L 876.527444 295.960978 
L 905.240995 293.763463 
L 933.954545 291.808891 
L 933.954545 291.808891 
" style="fill:none;stroke:#005cff;stroke-linecap:square;stroke-width:1.5;"/>
   </g>
   <g id="line2d_5">
    <path clip-path="url(#p323835fd69)" d="M 321.398799 194.646341 
L 397.968268 194.646341 
" style="fill:none;stroke:#000000;stroke-linecap:square;stroke-width:1.5;"/>
   </g>
   <g id="text_1">
    <!-- 1 ms -->
    <defs>
     <path d="M 12.40625 8.296875 
L 28.515625 8.296875 
L 28.515625 63.921875 
L 10.984375 60.40625 
L 10.984375 69.390625 
L 28.421875 72.90625 
L 38.28125 72.90625 
L 38.28125 8.296875 
L 54.390625 8.296875 
L 54.390625 0 
L 12.40625 0 
z
" id="DejaVuSans-31"/>
     <path id="DejaVuSans-20"/>
     <path d="M 52 44.1875 
Q 55.375 50.25 60.0625 53.125 
Q 64.75 56 71.09375 56 
Q 79.640625 56 84.28125 50.015625 
Q 88.921875 44.046875 88.921875 33.015625 
L 88.921875 0 
L 79.890625 0 
L 79.890625 32.71875 
Q 79.890625 40.578125 77.09375 44.375 
Q 74.3125 48.1875 68.609375 48.1875 
Q 61.625 48.1875 57.5625 43.546875 
Q 53.515625 38.921875 53.515625 30.90625 
L 53.515625 0 
L 44.484375 0 
L 44.484375 32.71875 
Q 44.484375 40.625 41.703125 44.40625 
Q 38.921875 48.1875 33.109375 48.1875 
Q 26.21875 48.1875 22.15625 43.53125 
Q 18.109375 38.875 18.109375 30.90625 
L 18.109375 0 
L 9.078125 0 
L 9.078125 54.6875 
L 18.109375 54.6875 
L 18.109375 46.1875 
Q 21.1875 51.21875 25.484375 53.609375 
Q 29.78125 56 35.6875 56 
Q 41.65625 56 45.828125 52.96875 
Q 50 49.953125 52 44.1875 
z
" id="DejaVuSans-6d"/>
     <path d="M 44.28125 53.078125 
L 44.28125 44.578125 
Q 40.484375 46.53125 36.375 47.5 
Q 32.28125 48.484375 27.875 48.484375 
Q 21.1875 48.484375 17.84375 46.4375 
Q 14.5 44.390625 14.5 40.28125 
Q 14.5 37.15625 16.890625 35.375 
Q 19.28125 33.59375 26.515625 31.984375 
L 29.59375 31.296875 
Q 39.15625 29.25 43.1875 25.515625 
Q 47.21875 21.78125 47.21875 15.09375 
Q 47.21875 7.46875 41.1875 3.015625 
Q 35.15625 -1.421875 24.609375 -1.421875 
Q 20.21875 -1.421875 15.453125 -0.5625 
Q 10.6875 0.296875 5.421875 2 
L 5.421875 11.28125 
Q 10.40625 8.6875 15.234375 7.390625 
Q 20.0625 6.109375 24.8125 6.109375 
Q 31.15625 6.109375 34.5625 8.28125 
Q 37.984375 10.453125 37.984375 14.40625 
Q 37.984375 18.0625 35.515625 20.015625 
Q 33.0625 21.96875 24.703125 23.78125 
L 21.578125 24.515625 
Q 13.234375 26.265625 9.515625 29.90625 
Q 5.8125 33.546875 5.8125 39.890625 
Q 5.8125 47.609375 11.28125 51.796875 
Q 16.75 56 26.8125 56 
Q 31.78125 56 36.171875 55.265625 
Q 40.578125 54.546875 44.28125 53.078125 
z
" id="DejaVuSans-73"/>
    </defs>
    <g transform="translate(348.198113 205.246915)scale(0.1 -0.1)">
     <use xlink:href="#DejaVuSans-31"/>
     <use x="63.623047" xlink:href="#DejaVuSans-20"/>
     <use x="95.410156" xlink:href="#DejaVuSans-6d"/>
     <use x="192.822266" xlink:href="#DejaVuSans-73"/>
    </g>
   </g>
  </g>
  <g id="axes_2">
   <g id="line2d_6">
    <path clip-path="url(#p8e65dee696)" d="M -1 593.033078 
L 140.23125 593.03751 
L 145.4625 592.501029 
L 150.69375 591.390816 
L 155.925 589.886128 
L 176.85 583.12105 
L 182.08125 581.655849 
L 187.3125 580.334133 
L 192.54375 579.15253 
L 197.775 578.100807 
L 208.2375 576.33167 
L 218.7 574.913637 
L 229.1625 573.748582 
L 244.85625 572.320761 
L 260.55 571.139953 
L 281.475 569.784191 
L 344.25 565.954694 
L 359.94375 564.67799 
L 370.40625 563.580024 
L 375.6375 562.905405 
L 380.86875 562.106655 
L 386.1 561.134802 
L 391.33125 559.908963 
L 396.5625 558.296212 
L 401.79375 556.055127 
L 407.025 552.697208 
L 412.25625 547.105867 
L 417.4875 536.198991 
L 422.71875 509.651465 
L 427.95 443.471839 
L 433.18125 394.140496 
L 438.4125 413.070059 
L 443.64375 438.187071 
L 448.875 456.963746 
L 454.10625 470.987367 
L 459.3375 482.024762 
L 464.56875 491.062906 
L 469.8 498.69956 
L 475.03125 505.351151 
L 480.2625 511.341967 
L 495.95625 528.174168 
L 501.1875 534.505039 
L 506.41875 542.054692 
L 511.65 551.700772 
L 516.88125 564.440344 
L 522.1125 580.157212 
L 527.34375 595.492178 
L 532.575 606.181717 
L 537.80625 612.025598 
L 543.0375 614.963555 
L 548.26875 616.479665 
L 553.5 617.333903 
L 558.73125 617.870589 
L 569.19375 618.494555 
L 579.65625 618.750574 
L 590.11875 618.728707 
L 605.8125 618.388589 
L 631.96875 617.524231 
L 673.81875 615.888991 
L 720.9 613.824859 
L 778.44375 611.076583 
L 888.3 605.540455 
L 966.76875 601.705389 
L 972 601.460424 
L 972 601.460424 
" style="fill:none;stroke:#1f77b4;stroke-linecap:square;stroke-width:1.5;"/>
   </g>
   <g id="line2d_7">
    <path clip-path="url(#p8e65dee696)" d="M -1 592.310841 
L 176.85 592.207815 
L 197.775 591.938142 
L 223.93125 591.368721 
L 255.31875 590.453924 
L 318.09375 588.331873 
L 438.4125 584.108221 
L 443.64375 583.721042 
L 448.875 583.174976 
L 454.10625 582.410019 
L 459.3375 581.384071 
L 464.56875 580.085584 
L 469.8 578.532896 
L 475.03125 576.765212 
L 485.49375 572.784667 
L 511.65 562.298106 
L 522.1125 558.505947 
L 532.575 555.131489 
L 537.80625 553.622331 
L 543.0375 552.240817 
L 548.26875 550.99261 
L 553.5 549.882725 
L 558.73125 548.915557 
L 563.9625 548.094677 
L 569.19375 547.42235 
L 574.425 546.898811 
L 579.65625 546.52159 
L 584.8875 546.285177 
L 590.11875 546.181199 
L 600.58125 546.326604 
L 611.04375 546.860546 
L 621.50625 547.685769 
L 631.96875 548.718018 
L 647.6625 550.511335 
L 673.81875 553.788095 
L 710.4375 558.360862 
L 736.59375 561.397551 
L 762.75 564.184368 
L 788.90625 566.715745 
L 815.0625 569.002529 
L 841.21875 571.061861 
L 867.375 572.912614 
L 898.7625 574.884333 
L 930.15 576.612536 
L 961.5375 578.124529 
L 972 578.584794 
L 972 578.584794 
" style="fill:none;stroke:#ff7f0e;stroke-linecap:square;stroke-width:1.5;"/>
   </g>
   <g id="legend_1">
    <g id="patch_2">
     <path d="M 905.803125 420.265341 
L 965 420.265341 
Q 967 420.265341 967 418.265341 
L 967 389.909091 
Q 967 387.909091 965 387.909091 
L 905.803125 387.909091 
Q 903.803125 387.909091 903.803125 389.909091 
L 903.803125 418.265341 
Q 903.803125 420.265341 905.803125 420.265341 
z
" style="fill:#ffffff;opacity:0.8;stroke:#cccccc;stroke-linejoin:miter;"/>
    </g>
    <g id="line2d_8">
     <path d="M 907.803125 396.007528 
L 927.803125 396.007528 
" style="fill:none;stroke:#1f77b4;stroke-linecap:square;stroke-width:1.5;"/>
    </g>
    <g id="line2d_9"/>
    <g id="text_2">
     <!-- axon -->
     <defs>
      <path d="M 34.28125 27.484375 
Q 23.390625 27.484375 19.1875 25 
Q 14.984375 22.515625 14.984375 16.5 
Q 14.984375 11.71875 18.140625 8.90625 
Q 21.296875 6.109375 26.703125 6.109375 
Q 34.1875 6.109375 38.703125 11.40625 
Q 43.21875 16.703125 43.21875 25.484375 
L 43.21875 27.484375 
z
M 52.203125 31.203125 
L 52.203125 0 
L 43.21875 0 
L 43.21875 8.296875 
Q 40.140625 3.328125 35.546875 0.953125 
Q 30.953125 -1.421875 24.3125 -1.421875 
Q 15.921875 -1.421875 10.953125 3.296875 
Q 6 8.015625 6 15.921875 
Q 6 25.140625 12.171875 29.828125 
Q 18.359375 34.515625 30.609375 34.515625 
L 43.21875 34.515625 
L 43.21875 35.40625 
Q 43.21875 41.609375 39.140625 45 
Q 35.0625 48.390625 27.6875 48.390625 
Q 23 48.390625 18.546875 47.265625 
Q 14.109375 46.140625 10.015625 43.890625 
L 10.015625 52.203125 
Q 14.9375 54.109375 19.578125 55.046875 
Q 24.21875 56 28.609375 56 
Q 40.484375 56 46.34375 49.84375 
Q 52.203125 43.703125 52.203125 31.203125 
z
" id="DejaVuSans-61"/>
      <path d="M 54.890625 54.6875 
L 35.109375 28.078125 
L 55.90625 0 
L 45.3125 0 
L 29.390625 21.484375 
L 13.484375 0 
L 2.875 0 
L 24.125 28.609375 
L 4.6875 54.6875 
L 15.28125 54.6875 
L 29.78125 35.203125 
L 44.28125 54.6875 
z
" id="DejaVuSans-78"/>
      <path d="M 30.609375 48.390625 
Q 23.390625 48.390625 19.1875 42.75 
Q 14.984375 37.109375 14.984375 27.296875 
Q 14.984375 17.484375 19.15625 11.84375 
Q 23.34375 6.203125 30.609375 6.203125 
Q 37.796875 6.203125 41.984375 11.859375 
Q 46.1875 17.53125 46.1875 27.296875 
Q 46.1875 37.015625 41.984375 42.703125 
Q 37.796875 48.390625 30.609375 48.390625 
z
M 30.609375 56 
Q 42.328125 56 49.015625 48.375 
Q 55.71875 40.765625 55.71875 27.296875 
Q 55.71875 13.875 49.015625 6.21875 
Q 42.328125 -1.421875 30.609375 -1.421875 
Q 18.84375 -1.421875 12.171875 6.21875 
Q 5.515625 13.875 5.515625 27.296875 
Q 5.515625 40.765625 12.171875 48.375 
Q 18.84375 56 30.609375 56 
z
" id="DejaVuSans-6f"/>
      <path d="M 54.890625 33.015625 
L 54.890625 0 
L 45.90625 0 
L 45.90625 32.71875 
Q 45.90625 40.484375 42.875 44.328125 
Q 39.84375 48.1875 33.796875 48.1875 
Q 26.515625 48.1875 22.3125 43.546875 
Q 18.109375 38.921875 18.109375 30.90625 
L 18.109375 0 
L 9.078125 0 
L 9.078125 54.6875 
L 18.109375 54.6875 
L 18.109375 46.1875 
Q 21.34375 51.125 25.703125 53.5625 
Q 30.078125 56 35.796875 56 
Q 45.21875 56 50.046875 50.171875 
Q 54.890625 44.34375 54.890625 33.015625 
z
" id="DejaVuSans-6e"/>
     </defs>
     <g transform="translate(935.803125 399.507528)scale(0.1 -0.1)">
      <use xlink:href="#DejaVuSans-61"/>
      <use x="61.279297" xlink:href="#DejaVuSans-78"/>
      <use x="120.412109" xlink:href="#DejaVuSans-6f"/>
      <use x="181.59375" xlink:href="#DejaVuSans-6e"/>
     </g>
    </g>
    <g id="line2d_10">
     <path d="M 907.803125 410.685653 
L 927.803125 410.685653 
" style="fill:none;stroke:#ff7f0e;stroke-linecap:square;stroke-width:1.5;"/>
    </g>
    <g id="line2d_11"/>
    <g id="text_3">
     <!-- soma -->
     <g transform="translate(935.803125 414.185653)scale(0.1 -0.1)">
      <use xlink:href="#DejaVuSans-73"/>
      <use x="52.099609" xlink:href="#DejaVuSans-6f"/>
      <use x="113.28125" xlink:href="#DejaVuSans-6d"/>
      <use x="210.693359" xlink:href="#DejaVuSans-61"/>
     </g>
    </g>
   </g>
  </g>
 </g>
 <defs>
  <clipPath id="p323835fd69">
   <rect height="247.090909" width="837" x="135" y="86.4"/>
  </clipPath>
  <clipPath id="p8e65dee696">
   <rect height="247.090909" width="837" x="135" y="382.909091"/>
  </clipPath>
 </defs>
</svg>
